G04 ================== begin FILE IDENTIFICATION RECORD ==================*
G04 Layout Name:  C:/tmp/20_058924b/worklib/02_058924a_top/physical/08_058924b.brd*
G04 Film Name:    assy2*
G04 File Format:  Gerber RS274X*
G04 File Origin:  Cadence Allegro 17.2-S055*
G04 Origin Date:  Thu Sep 10 08:42:16 2020*
G04 *
G04 Layer:  DRAWING FORMAT/DSIZEM*
G04 Layer:  REF DES/ASSEMBLY_BOTTOM*
G04 Layer:  MANUFACTURING/ASSY_DETAIL_BOTTOM*
G04 Layer:  PACKAGE GEOMETRY/ASSEMBLY_BOTTOM*
G04 Layer:  BOARD GEOMETRY/ASSEMBLY_BOTTOM*
G04 Layer:  BOARD GEOMETRY/OUTLINE*
G04 *
G04 Offset:    (0.00 0.00)*
G04 Mirror:    Yes*
G04 Mode:      Positive*
G04 Rotation:  0*
G04 FullContactRelief:  No*
G04 UndefLineWidth:     8.00*
G04 ================== end FILE IDENTIFICATION RECORD ====================*
%FSLAX25Y25*MOIN*%
%IR0*IPPOS*OFA0.00000B0.00000*MIA1B0*SFA1.00000B1.00000*%
%ADD10C,.012*%
%ADD11C,.008*%
%ADD12C,.006*%
G75*
%LPD*%
G75*
G36*
G01X39600Y22800D02*
Y16800D01*
X37200D01*
Y22800D01*
X39600D01*
G37*
G36*
G01X36300D02*
Y16800D01*
X33900D01*
Y22800D01*
X36300D01*
G37*
G36*
G01X39600Y35300D02*
Y29300D01*
X37200D01*
Y35300D01*
X39600D01*
G37*
G36*
G01X36300D02*
Y29300D01*
X33900D01*
Y35300D01*
X36300D01*
G37*
G36*
G01X39684Y54109D02*
G02I-1502J0D01*
G37*
G36*
G01X64867Y49503D02*
G02I-1499J0D01*
G37*
G36*
G01X115823Y94038D02*
X117954D01*
Y82542D01*
X115823D01*
Y94038D01*
G37*
G36*
G01X116795Y112846D02*
G03I-1500J0D01*
G37*
G36*
G01X30599Y16790D02*
Y22790D01*
X32999D01*
Y16790D01*
X30599D01*
G37*
G36*
G01Y29290D02*
Y35290D01*
X32999D01*
Y29290D01*
X30599D01*
G37*
G54D10*
G01X-94601Y-206044D02*
X-92601Y-203744D01*
X-90401Y-203044D01*
X-88101D01*
X-85901Y-204244D01*
X-84401Y-206244D01*
X-83901Y-209244D01*
X-84601Y-212244D01*
X-86901Y-213744D01*
X-90901Y-214744D01*
X-93601Y-216244D01*
X-95101Y-218744D01*
X-95901Y-221744D01*
X-94901Y-224744D01*
X-92901Y-226744D01*
X-90401Y-228044D01*
X-87901D01*
X-85101Y-226744D01*
X-82601Y-224744D01*
G01X-93901Y-174544D02*
X-91901Y-172744D01*
X-89101Y-172044D01*
X-86601D01*
X-83901Y-173244D01*
X-81601Y-175044D01*
X-79601Y-177544D01*
X-78401Y-180044D01*
X-77601Y-182744D01*
Y-185744D01*
X-78101Y-189044D01*
X-79601Y-192044D01*
X-81601Y-194544D01*
X-83901Y-196044D01*
X-87601Y-197044D01*
X-91101Y-196244D01*
X-93601Y-194544D01*
X-95601Y-192044D01*
Y-184544D01*
X-88601D01*
G01X-71601Y-203044D02*
X-58901D01*
Y-228044D01*
X-71601D01*
G01X-58901Y-215044D02*
X-66601D01*
G01X-49101Y-186244D02*
Y-182744D01*
X-49901Y-179544D01*
X-51401Y-176544D01*
X-53401Y-174044D01*
X-55601Y-172544D01*
X-58601Y-172044D01*
X-61601Y-172544D01*
X-63901Y-174044D01*
X-65901Y-176544D01*
X-67401Y-179544D01*
X-68101Y-182744D01*
Y-186244D01*
X-67401Y-189544D01*
X-65901Y-192544D01*
X-63901Y-195044D01*
X-61601Y-196544D01*
X-58601Y-197044D01*
X-55601Y-196544D01*
X-53401Y-195044D01*
X-51101Y-192244D01*
X-49901Y-189544D01*
X-49101Y-186244D01*
G01X-48101Y-205044D02*
X-46101Y-203744D01*
X-43901Y-203044D01*
X-41401D01*
X-38601Y-204244D01*
X-36401Y-206244D01*
X-34901Y-208744D01*
X-33601Y-212744D01*
X-33101Y-216744D01*
X-33901Y-220544D01*
X-34901Y-223044D01*
X-36601Y-225544D01*
X-38901Y-227244D01*
X-41101Y-228044D01*
X-43401D01*
X-45401Y-227244D01*
X-47401Y-226044D01*
X-49101Y-224244D01*
G01X-23601Y-172044D02*
Y-197044D01*
X-37601D01*
G01X-13401Y-228044D02*
X-20901D01*
G01X-17101Y-203044D02*
Y-228044D01*
G01X-13401Y-203044D02*
X-20901D01*
G01X6099Y-197044D02*
X-2601Y-172044D01*
X-11401Y-197044D01*
G01X14899Y-203044D02*
X6899Y-228044D01*
X-1101Y-203044D01*
G01X2599Y-188244D02*
X-8101D01*
G01X33399Y-197044D02*
Y-172044D01*
X17399Y-197044D01*
Y-172044D01*
G01X24399Y-203044D02*
X37099D01*
Y-228044D01*
X24399D01*
G01X37099Y-215044D02*
X29399D01*
G01X61899Y-203044D02*
Y-228044D01*
X55399D01*
X52899Y-226744D01*
X51099Y-225044D01*
X49399Y-222544D01*
X48099Y-219544D01*
X47899Y-215544D01*
X48099Y-211244D01*
X49399Y-208544D01*
X51099Y-205744D01*
X52899Y-204244D01*
X55399Y-203044D01*
X61899D01*
G01X58599Y-188244D02*
X47899D01*
G01X62099Y-197044D02*
X53399Y-172044D01*
X44599Y-197044D01*
G54D11*
G01X-350601Y458456D02*
Y465456D01*
G01X-349601Y459456D02*
Y464456D01*
G01X-348601Y460456D02*
Y463456D01*
G01X-347601Y461456D02*
Y462456D01*
G01X-350601Y465456D02*
X-330601D01*
G01Y458456D02*
X-350601D01*
G01X-349601Y464456D02*
X-329601D01*
G01X-348601Y463456D02*
X-328601D01*
G01X-347601Y462456D02*
X-327601D01*
G01X-329601Y459456D02*
X-349601D01*
G01X-328601Y460456D02*
X-348601D01*
G01X-327601Y461456D02*
X-347601D01*
G01X-322726Y-188044D02*
X-330601Y-163044D01*
X-338476Y-188044D01*
G01X-335641Y-179294D02*
X-325561D01*
G01X-310601Y36956D02*
X-340601D01*
G01X-333121Y250290D02*
X-334381Y251539D01*
X-335326Y253622D01*
X-335956Y256540D01*
X-335326Y259039D01*
X-334066Y260706D01*
X-331861Y261956D01*
X-323356D01*
Y236956D01*
X-333751D01*
X-335956Y238622D01*
X-337216Y241123D01*
X-337846Y244039D01*
X-337216Y246955D01*
X-335326Y249456D01*
X-333121Y250290D01*
X-323356D01*
G01X-330601Y450956D02*
Y458456D01*
G01X-310601Y461956D02*
X-330601Y450956D01*
G01X-312101Y461956D02*
X-329601Y452456D01*
G01D02*
Y459456D01*
G01X-313601Y461956D02*
X-328601Y453956D01*
G01D02*
Y460456D01*
G01X-315101Y461956D02*
X-327601Y455456D01*
G01D02*
Y461456D01*
G01X-316601Y461956D02*
X-326601Y456956D01*
G01D02*
Y466956D01*
G01X-330601Y465456D02*
Y472956D01*
G01D02*
X-310601Y461956D01*
G01X-329601Y464456D02*
Y471456D01*
G01D02*
X-312101Y461956D01*
G01X-328601Y463456D02*
Y469956D01*
G01D02*
X-313601Y461956D01*
G01X-327601Y462456D02*
Y468456D01*
G01D02*
X-315101Y461956D01*
G01X-326601Y466956D02*
X-316601Y461956D01*
G01X-325601Y465456D02*
X-318101Y461956D01*
G01D02*
X-325601Y458456D01*
G01D02*
Y465456D01*
G01X-337531Y684872D02*
X-335641Y686123D01*
X-333436Y686956D01*
X-330916D01*
X-328081Y685706D01*
X-325876Y683623D01*
X-324301Y681122D01*
X-323041Y676956D01*
X-322726Y673206D01*
X-323356Y669456D01*
X-324301Y666956D01*
X-326191Y664455D01*
X-328396Y662789D01*
X-330601Y661956D01*
X-332806D01*
X-335011Y662789D01*
X-336901Y664039D01*
X-338476Y665705D01*
G01X-310601Y886956D02*
X-340601D01*
G01X-323671Y1086956D02*
Y1111956D01*
X-329971D01*
X-332491Y1110706D01*
X-334381Y1109039D01*
X-335956Y1106540D01*
X-337216Y1103622D01*
X-337531Y1099456D01*
X-337216Y1095289D01*
X-335956Y1092372D01*
X-334381Y1089872D01*
X-332491Y1088206D01*
X-329971Y1086956D01*
X-323671D01*
G01X-310601Y-138044D02*
Y-338044D01*
X164399D01*
G01X139399Y-313044D02*
X-310601D01*
G01X139399Y-238044D02*
X-310601D01*
G01X139399Y-163044D02*
X-310601D01*
G01Y-138044D02*
Y1261956D01*
X1789399D01*
Y-338044D01*
X164399D01*
G01X-324601Y463956D02*
X-319601Y461956D01*
G01X-323601Y462956D02*
X-321101Y461956D01*
G01X-322101D02*
X-323101D01*
G01X-319601D02*
X-324601Y459956D01*
G01D02*
Y463956D01*
G01X-321101Y461956D02*
X-323601Y460956D01*
G01D02*
Y462956D01*
G01X-287601Y-287377D02*
X-288601Y-286377D01*
X-289351Y-284711D01*
X-289851Y-282377D01*
X-289351Y-280377D01*
X-288351Y-279044D01*
X-286601Y-278044D01*
X-279851D01*
Y-298044D01*
X-288101D01*
X-289851Y-296711D01*
X-290851Y-294711D01*
X-291351Y-292377D01*
X-290851Y-290044D01*
X-289351Y-288044D01*
X-287601Y-287377D01*
X-279851D01*
G01X-274101Y-258044D02*
Y-250044D01*
X-276601D01*
X-277401Y-250444D01*
X-277901Y-250977D01*
X-278101Y-252044D01*
X-277901Y-253111D01*
X-277301Y-253777D01*
X-276601Y-254177D01*
X-274101D01*
G01X-276601D02*
X-278101Y-258044D01*
G01X-286101D02*
X-282101D01*
Y-250044D01*
X-286101D01*
G01X-284501Y-253911D02*
X-282101D01*
G01X-289601Y-250044D02*
X-292101Y-258044D01*
X-294601Y-250044D01*
G01X-131601Y-220044D02*
X-133001Y-228044D01*
X-134601Y-220044D01*
X-136201Y-228044D01*
X-137601Y-220044D01*
G01X-141401D02*
X-143801D01*
G01X-142601D02*
Y-228044D01*
G01X-141401D02*
X-143801D01*
G01X-148601Y-220044D02*
Y-228044D01*
X-152601D01*
G01X-156001D02*
Y-220044D01*
X-158601Y-226711D01*
X-161201Y-220044D01*
Y-228044D01*
G01X-165401Y-220044D02*
X-167801D01*
G01X-166601D02*
Y-228044D01*
G01X-165401D02*
X-167801D01*
G01X-172301D02*
Y-220044D01*
X-176901Y-228044D01*
Y-220044D01*
G01X-183201Y-224044D02*
X-185201D01*
Y-226444D01*
X-184601Y-227244D01*
X-183901Y-227777D01*
X-182901Y-228044D01*
X-181901Y-227777D01*
X-181201Y-227244D01*
X-180601Y-226444D01*
X-180201Y-225511D01*
X-180001Y-224444D01*
Y-223511D01*
X-180201Y-222711D01*
X-180601Y-221777D01*
X-181201Y-220977D01*
X-181801Y-220444D01*
X-182601Y-220044D01*
X-183301D01*
X-184101Y-220311D01*
X-184701Y-220844D01*
G01X-190601Y-220044D02*
Y-228044D01*
G01X-188301Y-220044D02*
X-192901D01*
G01X-198601Y-228044D02*
X-197801Y-227911D01*
X-197101Y-227377D01*
X-196501Y-226577D01*
X-196101Y-225644D01*
X-195901Y-224577D01*
Y-223511D01*
X-196101Y-222444D01*
X-196501Y-221511D01*
X-197101Y-220711D01*
X-197801Y-220177D01*
X-198601Y-220044D01*
X-199401Y-220177D01*
X-200101Y-220711D01*
X-200701Y-221511D01*
X-201101Y-222444D01*
X-201301Y-223511D01*
Y-224577D01*
X-201101Y-225644D01*
X-200701Y-226577D01*
X-200101Y-227377D01*
X-199401Y-227911D01*
X-198601Y-228044D01*
G01X-204301D02*
Y-220044D01*
X-208901Y-228044D01*
Y-220044D01*
G01X-214401Y-229511D02*
X-214801Y-227777D01*
G01X-228001Y-228044D02*
Y-220044D01*
X-230601Y-226711D01*
X-233201Y-220044D01*
Y-228044D01*
G01X-236101D02*
X-238601Y-220044D01*
X-241101Y-228044D01*
G01X-240201Y-225244D02*
X-237001D01*
G01X-254601Y-220044D02*
X-253801Y-220311D01*
X-253201Y-220977D01*
X-252801Y-221777D01*
X-252501Y-222844D01*
X-252401Y-224044D01*
X-252501Y-225244D01*
X-252801Y-226311D01*
X-253201Y-227111D01*
X-253801Y-227777D01*
X-254601Y-228044D01*
X-255401Y-227777D01*
X-256001Y-227111D01*
X-256401Y-226311D01*
X-256701Y-225244D01*
X-256801Y-224044D01*
X-256701Y-222844D01*
X-256401Y-221777D01*
X-256001Y-220977D01*
X-255401Y-220311D01*
X-254601Y-220044D01*
G01X-262601Y-228044D02*
Y-220044D01*
X-261401Y-221644D01*
G01Y-228044D02*
X-263801D01*
G01X-270601D02*
X-271301Y-227911D01*
X-272101Y-227511D01*
X-272601Y-226844D01*
X-272801Y-225911D01*
X-272601Y-224978D01*
X-272001Y-224177D01*
X-271101Y-223777D01*
X-270101D01*
X-269501Y-223511D01*
X-269001Y-222844D01*
X-268801Y-221911D01*
X-269101Y-220977D01*
X-269801Y-220311D01*
X-270601Y-220044D01*
X-271401Y-220311D01*
X-272101Y-220977D01*
X-272401Y-221911D01*
X-272201Y-222844D01*
X-271701Y-223511D01*
X-271101Y-223777D01*
X-270101D01*
X-269201Y-224177D01*
X-268601Y-224978D01*
X-268401Y-225911D01*
X-268601Y-226844D01*
X-269101Y-227511D01*
X-269901Y-227911D01*
X-270601Y-228044D01*
G01X-278601D02*
X-279301Y-227911D01*
X-280101Y-227511D01*
X-280601Y-226844D01*
X-280801Y-225911D01*
X-280601Y-224978D01*
X-280001Y-224177D01*
X-279101Y-223777D01*
X-278101D01*
X-277501Y-223511D01*
X-277001Y-222844D01*
X-276801Y-221911D01*
X-277101Y-220977D01*
X-277801Y-220311D01*
X-278601Y-220044D01*
X-279401Y-220311D01*
X-280101Y-220977D01*
X-280401Y-221911D01*
X-280201Y-222844D01*
X-279701Y-223511D01*
X-279101Y-223777D01*
X-278101D01*
X-277201Y-224177D01*
X-276601Y-224978D01*
X-276401Y-225911D01*
X-276601Y-226844D01*
X-277101Y-227511D01*
X-277901Y-227911D01*
X-278601Y-228044D01*
G01X-286401D02*
X-286601Y-226311D01*
X-286901Y-224844D01*
X-287301Y-223511D01*
X-287801Y-222044D01*
X-288601Y-220044D01*
X-284601D01*
G01X-146601Y-213044D02*
X-147301Y-212911D01*
X-148101Y-212511D01*
X-148601Y-211844D01*
X-148801Y-210911D01*
X-148601Y-209978D01*
X-148001Y-209177D01*
X-147101Y-208777D01*
X-146101D01*
X-145501Y-208511D01*
X-145001Y-207844D01*
X-144801Y-206911D01*
X-145101Y-205977D01*
X-145801Y-205311D01*
X-146601Y-205044D01*
X-147401Y-205311D01*
X-148101Y-205977D01*
X-148401Y-206911D01*
X-148201Y-207844D01*
X-147701Y-208511D01*
X-147101Y-208777D01*
X-146101D01*
X-145201Y-209177D01*
X-144601Y-209978D01*
X-144401Y-210911D01*
X-144601Y-211844D01*
X-145101Y-212511D01*
X-145901Y-212911D01*
X-146601Y-213044D01*
G01X-154601Y-205044D02*
X-153801Y-205311D01*
X-153201Y-205977D01*
X-152801Y-206777D01*
X-152501Y-207844D01*
X-152401Y-209044D01*
X-152501Y-210244D01*
X-152801Y-211311D01*
X-153201Y-212111D01*
X-153801Y-212777D01*
X-154601Y-213044D01*
X-155401Y-212777D01*
X-156001Y-212111D01*
X-156401Y-211311D01*
X-156701Y-210244D01*
X-156801Y-209044D01*
X-156701Y-207844D01*
X-156401Y-206777D01*
X-156001Y-205977D01*
X-155401Y-205311D01*
X-154601Y-205044D01*
G01X-163801Y-213044D02*
Y-205044D01*
X-160101Y-210777D01*
X-165101D01*
G01X-175601Y-205044D02*
X-177001Y-213044D01*
X-178601Y-205044D01*
X-180201Y-213044D01*
X-181601Y-205044D01*
G01X-186601Y-213044D02*
X-185801Y-212911D01*
X-185101Y-212377D01*
X-184501Y-211577D01*
X-184101Y-210644D01*
X-183901Y-209577D01*
Y-208511D01*
X-184101Y-207444D01*
X-184501Y-206511D01*
X-185101Y-205711D01*
X-185801Y-205177D01*
X-186601Y-205044D01*
X-187401Y-205177D01*
X-188101Y-205711D01*
X-188701Y-206511D01*
X-189101Y-207444D01*
X-189301Y-208511D01*
Y-209577D01*
X-189101Y-210644D01*
X-188701Y-211577D01*
X-188101Y-212377D01*
X-187401Y-212911D01*
X-186601Y-213044D01*
G01X-195401Y-208777D02*
X-195801Y-208377D01*
X-196101Y-207711D01*
X-196301Y-206777D01*
X-196101Y-205977D01*
X-195701Y-205444D01*
X-195001Y-205044D01*
X-192301D01*
Y-213044D01*
X-195601D01*
X-196301Y-212511D01*
X-196701Y-211711D01*
X-196901Y-210777D01*
X-196701Y-209844D01*
X-196101Y-209044D01*
X-195401Y-208777D01*
X-192301D01*
G01X-200401Y-205044D02*
Y-210777D01*
X-200801Y-211978D01*
X-201601Y-212777D01*
X-202601Y-213044D01*
X-203601Y-212777D01*
X-204401Y-211978D01*
X-204801Y-210777D01*
Y-205044D01*
G01X-208601Y-213044D02*
Y-205044D01*
X-211101D01*
X-211901Y-205444D01*
X-212401Y-205977D01*
X-212601Y-207044D01*
X-212401Y-208111D01*
X-211801Y-208777D01*
X-211101Y-209177D01*
X-208601D01*
G01X-211101D02*
X-212601Y-213044D01*
G01X-216301D02*
Y-205044D01*
X-220901Y-213044D01*
Y-205044D01*
G01X-232501Y-211978D02*
X-233301Y-212644D01*
X-234201Y-213044D01*
X-235001D01*
X-235801Y-212644D01*
X-236401Y-211978D01*
X-236701Y-211044D01*
X-236501Y-210111D01*
X-236001Y-209311D01*
X-235101Y-208777D01*
X-233901Y-208511D01*
X-233201Y-207977D01*
X-232901Y-207044D01*
X-233101Y-206111D01*
X-233601Y-205444D01*
X-234301Y-205044D01*
X-235001D01*
X-235701Y-205311D01*
X-236301Y-205977D01*
G01X-242601Y-205044D02*
Y-213044D01*
G01X-240301Y-205044D02*
X-244901D01*
G01X-248601Y-213044D02*
Y-205044D01*
X-251101D01*
X-251901Y-205444D01*
X-252401Y-205977D01*
X-252601Y-207044D01*
X-252401Y-208111D01*
X-251801Y-208777D01*
X-251101Y-209177D01*
X-248601D01*
G01X-251101D02*
X-252601Y-213044D01*
G01X-260601D02*
X-256601D01*
Y-205044D01*
X-260601D01*
G01X-259001Y-208911D02*
X-256601D01*
G01X-268601Y-213044D02*
X-264601D01*
Y-205044D01*
X-268601D01*
G01X-267001Y-208911D02*
X-264601D01*
G01X-274601Y-205044D02*
Y-213044D01*
G01X-272301Y-205044D02*
X-276901D01*
G01X-268226Y-322211D02*
X-268976Y-321211D01*
X-269851Y-320711D01*
X-270851Y-320544D01*
X-272101Y-320877D01*
X-272976Y-321711D01*
X-273226Y-322711D01*
X-273101Y-323711D01*
X-272601Y-324544D01*
X-270101Y-326211D01*
X-268976Y-327377D01*
X-268226Y-329044D01*
X-267976Y-330544D01*
X-273226D01*
G01X-260601Y-313044D02*
Y-238044D01*
G01X-243601Y-330544D02*
X-242801Y-330411D01*
X-242101Y-329877D01*
X-241501Y-329077D01*
X-241101Y-328144D01*
X-240901Y-327077D01*
Y-326011D01*
X-241101Y-324944D01*
X-241501Y-324011D01*
X-242101Y-323211D01*
X-242801Y-322677D01*
X-243601Y-322544D01*
X-244401Y-322677D01*
X-245101Y-323211D01*
X-245701Y-324011D01*
X-246101Y-324944D01*
X-246301Y-326011D01*
Y-327077D01*
X-246101Y-328144D01*
X-245701Y-329077D01*
X-245101Y-329877D01*
X-244401Y-330411D01*
X-243601Y-330544D01*
G01X-249701D02*
Y-322544D01*
X-253501D01*
G01X-252101Y-326411D02*
X-249701D01*
G01X-172851Y-198044D02*
Y-188044D01*
X-175351D01*
X-176351Y-188544D01*
X-177101Y-189211D01*
X-177726Y-190211D01*
X-178226Y-191378D01*
X-178351Y-193044D01*
X-178226Y-194711D01*
X-177726Y-195877D01*
X-177101Y-196878D01*
X-176351Y-197544D01*
X-175351Y-198044D01*
X-172851D01*
G01X-184101Y-188044D02*
X-187101D01*
G01X-185601D02*
Y-198044D01*
G01X-184101D02*
X-187101D01*
G01X-192476Y-188044D02*
X-195601Y-198044D01*
X-198726Y-188044D01*
G01X-204101D02*
X-207101D01*
G01X-205601D02*
Y-198044D01*
G01X-204101D02*
X-207101D01*
G01X-212976Y-196711D02*
X-213976Y-197544D01*
X-215101Y-198044D01*
X-216101D01*
X-217101Y-197544D01*
X-217851Y-196711D01*
X-218226Y-195544D01*
X-217976Y-194378D01*
X-217351Y-193377D01*
X-216226Y-192711D01*
X-214726Y-192377D01*
X-213851Y-191711D01*
X-213476Y-190544D01*
X-213726Y-189377D01*
X-214351Y-188544D01*
X-215226Y-188044D01*
X-216101D01*
X-216976Y-188377D01*
X-217726Y-189211D01*
G01X-224101Y-188044D02*
X-227101D01*
G01X-225601D02*
Y-198044D01*
G01X-224101D02*
X-227101D01*
G01X-235601D02*
X-234601Y-197877D01*
X-233726Y-197211D01*
X-232976Y-196211D01*
X-232476Y-195044D01*
X-232226Y-193711D01*
Y-192377D01*
X-232476Y-191044D01*
X-232976Y-189877D01*
X-233726Y-188877D01*
X-234601Y-188211D01*
X-235601Y-188044D01*
X-236601Y-188211D01*
X-237476Y-188877D01*
X-238226Y-189877D01*
X-238726Y-191044D01*
X-238976Y-192377D01*
Y-193711D01*
X-238726Y-195044D01*
X-238226Y-196211D01*
X-237476Y-197211D01*
X-236601Y-197877D01*
X-235601Y-198044D01*
G01X-242726D02*
Y-188044D01*
X-248476Y-198044D01*
Y-188044D01*
G01X-220726Y-322211D02*
X-221476Y-321211D01*
X-222351Y-320711D01*
X-223351Y-320544D01*
X-224601Y-320877D01*
X-225476Y-321711D01*
X-225726Y-322711D01*
X-225601Y-323711D01*
X-225101Y-324544D01*
X-222601Y-326211D01*
X-221476Y-327377D01*
X-220726Y-329044D01*
X-220476Y-330544D01*
X-225726D01*
G01X-196851Y-173044D02*
X-198601Y-183044D01*
X-200601Y-173044D01*
X-202601Y-183044D01*
X-204351Y-173044D01*
G01X-206851D02*
X-208601Y-183044D01*
X-210601Y-173044D01*
X-212601Y-183044D01*
X-214351Y-173044D01*
G01X-217351Y-183044D02*
Y-173044D01*
X-220601Y-181377D01*
X-223851Y-173044D01*
Y-183044D01*
G01X-166501Y-329478D02*
X-167301Y-330144D01*
X-168201Y-330544D01*
X-169001D01*
X-169801Y-330144D01*
X-170401Y-329478D01*
X-170701Y-328544D01*
X-170501Y-327611D01*
X-170001Y-326811D01*
X-169101Y-326277D01*
X-167901Y-326011D01*
X-167201Y-325477D01*
X-166901Y-324544D01*
X-167101Y-323611D01*
X-167601Y-322944D01*
X-168301Y-322544D01*
X-169001D01*
X-169701Y-322811D01*
X-170301Y-323477D01*
G01X-174501Y-330544D02*
Y-322544D01*
G01X-178701D02*
Y-330544D01*
G01Y-326544D02*
X-174501D01*
G01X-186601Y-330544D02*
X-182601D01*
Y-322544D01*
X-186601D01*
G01X-185001Y-326411D02*
X-182601D01*
G01X-194601Y-330544D02*
X-190601D01*
Y-322544D01*
X-194601D01*
G01X-193001Y-326411D02*
X-190601D01*
G01X-200601Y-322544D02*
Y-330544D01*
G01X-198301Y-322544D02*
X-202901D01*
G01X-38101Y-278044D02*
X-36101Y-278711D01*
X-34601Y-280377D01*
X-33601Y-282377D01*
X-32851Y-285044D01*
X-32601Y-288044D01*
X-32851Y-291044D01*
X-33601Y-293711D01*
X-34601Y-295711D01*
X-36101Y-297377D01*
X-38101Y-298044D01*
X-40101Y-297377D01*
X-41601Y-295711D01*
X-42601Y-293711D01*
X-43351Y-291044D01*
X-43601Y-288044D01*
X-43351Y-285044D01*
X-42601Y-282377D01*
X-41601Y-280377D01*
X-40101Y-278711D01*
X-38101Y-278044D01*
G01X-58101Y-298044D02*
Y-278044D01*
X-55101Y-282044D01*
G01Y-298044D02*
X-61101D01*
G01X-74851Y-291378D02*
X-81351D01*
G01X-98101Y-278044D02*
X-96101Y-278711D01*
X-94601Y-280377D01*
X-93601Y-282377D01*
X-92851Y-285044D01*
X-92601Y-288044D01*
X-92851Y-291044D01*
X-93601Y-293711D01*
X-94601Y-295711D01*
X-96101Y-297377D01*
X-98101Y-298044D01*
X-100101Y-297377D01*
X-101601Y-295711D01*
X-102601Y-293711D01*
X-103351Y-291044D01*
X-103601Y-288044D01*
X-103351Y-285044D01*
X-102601Y-282377D01*
X-101601Y-280377D01*
X-100101Y-278711D01*
X-98101Y-278044D01*
G01X-112601Y-295045D02*
X-114101Y-296711D01*
X-115851Y-297711D01*
X-118101Y-298044D01*
X-120351Y-297377D01*
X-122101Y-296044D01*
X-123351Y-293711D01*
X-123601Y-291044D01*
X-123101Y-288378D01*
X-121851Y-286711D01*
X-120101Y-285378D01*
X-118351Y-285044D01*
X-116601Y-285378D01*
X-114351Y-286711D01*
X-115101Y-278044D01*
X-121851D01*
G01X-138101Y-298044D02*
X-139851Y-297711D01*
X-141851Y-296711D01*
X-143101Y-295045D01*
X-143601Y-292711D01*
X-143101Y-290378D01*
X-141601Y-288378D01*
X-139351Y-287377D01*
X-136851D01*
X-135351Y-286711D01*
X-134101Y-285044D01*
X-133601Y-282711D01*
X-134351Y-280377D01*
X-136101Y-278711D01*
X-138101Y-278044D01*
X-140101Y-278711D01*
X-141851Y-280377D01*
X-142601Y-282711D01*
X-142101Y-285044D01*
X-140851Y-286711D01*
X-139351Y-287377D01*
X-136851D01*
X-134601Y-288378D01*
X-133101Y-290378D01*
X-132601Y-292711D01*
X-133101Y-295045D01*
X-134351Y-296711D01*
X-136351Y-297711D01*
X-138101Y-298044D01*
G01X-153851Y-295711D02*
X-155601Y-297377D01*
X-157601Y-298044D01*
X-159601Y-297377D01*
X-161351Y-295378D01*
X-162601Y-292377D01*
X-163101Y-289377D01*
Y-285711D01*
X-162601Y-282711D01*
X-161351Y-280044D01*
X-159851Y-278711D01*
X-158101Y-278044D01*
X-156101Y-278711D01*
X-154601Y-280044D01*
X-153601Y-282044D01*
X-153101Y-284711D01*
X-153601Y-287044D01*
X-154851Y-289377D01*
X-156351Y-290711D01*
X-158101Y-291044D01*
X-160101Y-290378D01*
X-161601Y-288711D01*
X-163101Y-285711D01*
G01X-173351Y-281377D02*
X-174851Y-279378D01*
X-176601Y-278377D01*
X-178601Y-278044D01*
X-181101Y-278711D01*
X-182851Y-280377D01*
X-183351Y-282377D01*
X-183101Y-284378D01*
X-182101Y-286044D01*
X-177101Y-289377D01*
X-174851Y-291711D01*
X-173351Y-295045D01*
X-172851Y-298044D01*
X-183351D01*
G01X-201101D02*
Y-278044D01*
X-191851Y-292377D01*
X-204351D01*
G01X-160601Y-313044D02*
Y-338044D01*
G01X139399Y-152878D02*
X137399Y-154544D01*
X135149Y-155544D01*
X133149D01*
X131149Y-154544D01*
X129649Y-152878D01*
X128899Y-150544D01*
X129399Y-148211D01*
X130649Y-146211D01*
X132899Y-144877D01*
X135899Y-144211D01*
X137649Y-142878D01*
X138399Y-140544D01*
X137899Y-138211D01*
X136649Y-136544D01*
X134899Y-135544D01*
X133149D01*
X131399Y-136211D01*
X129899Y-137877D01*
G01X109149Y-155544D02*
X119149D01*
Y-135544D01*
X109149D01*
G01X113149Y-145210D02*
X119149D01*
G01X88649Y-137211D02*
X90149Y-136211D01*
X91899Y-135544D01*
X93899D01*
X96149Y-136544D01*
X97899Y-138211D01*
X99149Y-140211D01*
X100149Y-143544D01*
X100399Y-146544D01*
X99899Y-149544D01*
X99149Y-151544D01*
X97649Y-153544D01*
X95899Y-154877D01*
X94149Y-155544D01*
X92399D01*
X90649Y-154877D01*
X89149Y-153878D01*
X87899Y-152545D01*
G01X74149Y-155544D02*
X76149Y-155211D01*
X77899Y-153878D01*
X79399Y-151878D01*
X80399Y-149544D01*
X80899Y-146877D01*
Y-144211D01*
X80399Y-141544D01*
X79399Y-139210D01*
X77899Y-137211D01*
X76149Y-135877D01*
X74149Y-135544D01*
X72149Y-135877D01*
X70399Y-137211D01*
X68899Y-139210D01*
X67899Y-141544D01*
X67399Y-144211D01*
Y-146877D01*
X67899Y-149544D01*
X68899Y-151878D01*
X70399Y-153878D01*
X72149Y-155211D01*
X74149Y-155544D01*
G01X59899D02*
Y-135544D01*
X48399Y-155544D01*
Y-135544D01*
G01X39649Y-155544D02*
Y-135544D01*
X34649D01*
X32649Y-136544D01*
X31149Y-137877D01*
X29899Y-139877D01*
X28899Y-142211D01*
X28649Y-145544D01*
X28899Y-148878D01*
X29899Y-151211D01*
X31149Y-153211D01*
X32649Y-154544D01*
X34649Y-155544D01*
X39649D01*
G01X20399D02*
X14149Y-135544D01*
X7899Y-155544D01*
G01X10149Y-148544D02*
X18149D01*
G01X-851Y-155544D02*
Y-135544D01*
X-7101D01*
X-9101Y-136544D01*
X-10351Y-137877D01*
X-10851Y-140544D01*
X-10351Y-143211D01*
X-8851Y-144877D01*
X-7101Y-145878D01*
X-851D01*
G01X-7101D02*
X-10851Y-155544D01*
G01X-25851D02*
Y-146544D01*
X-20851Y-135544D01*
G01X-30851D02*
X-25851Y-146544D01*
G01X-60601Y-152878D02*
X-62601Y-154544D01*
X-64851Y-155544D01*
X-66851D01*
X-68851Y-154544D01*
X-70351Y-152878D01*
X-71101Y-150544D01*
X-70601Y-148211D01*
X-69351Y-146211D01*
X-67101Y-144877D01*
X-64101Y-144211D01*
X-62351Y-142878D01*
X-61601Y-140544D01*
X-62101Y-138211D01*
X-63351Y-136544D01*
X-65101Y-135544D01*
X-66851D01*
X-68601Y-136211D01*
X-70101Y-137877D01*
G01X-82851Y-135544D02*
X-88851D01*
G01X-85851D02*
Y-155544D01*
G01X-82851D02*
X-88851D01*
G01X-100351D02*
Y-135544D01*
X-105351D01*
X-107351Y-136544D01*
X-108851Y-137877D01*
X-110101Y-139877D01*
X-111101Y-142211D01*
X-111351Y-145544D01*
X-111101Y-148878D01*
X-110101Y-151211D01*
X-108851Y-153211D01*
X-107351Y-154544D01*
X-105351Y-155544D01*
X-100351D01*
G01X-130851D02*
X-120851D01*
Y-135544D01*
X-130851D01*
G01X-126851Y-145210D02*
X-120851D01*
G01X-16401Y-258044D02*
Y-250044D01*
X-18401D01*
X-19201Y-250444D01*
X-19801Y-250977D01*
X-20301Y-251777D01*
X-20701Y-252711D01*
X-20801Y-254044D01*
X-20701Y-255377D01*
X-20301Y-256311D01*
X-19801Y-257111D01*
X-19201Y-257644D01*
X-18401Y-258044D01*
X-16401D01*
G01X-24601D02*
Y-250044D01*
X-27101D01*
X-27901Y-250444D01*
X-28401Y-250977D01*
X-28601Y-252044D01*
X-28401Y-253111D01*
X-27801Y-253777D01*
X-27101Y-254177D01*
X-24601D01*
G01X-27101D02*
X-28601Y-258044D01*
G01X-32101D02*
X-34601Y-250044D01*
X-37101Y-258044D01*
G01X-36201Y-255244D02*
X-33001D01*
G01X-39601Y-250044D02*
X-41001Y-258044D01*
X-42601Y-250044D01*
X-44201Y-258044D01*
X-45601Y-250044D01*
G01X-49401D02*
X-51801D01*
G01X-50601D02*
Y-258044D01*
G01X-49401D02*
X-51801D01*
G01X-56301D02*
Y-250044D01*
X-60901Y-258044D01*
Y-250044D01*
G01X-67201Y-254044D02*
X-69201D01*
Y-256444D01*
X-68601Y-257244D01*
X-67901Y-257777D01*
X-66901Y-258044D01*
X-65901Y-257777D01*
X-65201Y-257244D01*
X-64601Y-256444D01*
X-64201Y-255511D01*
X-64001Y-254444D01*
Y-253511D01*
X-64201Y-252711D01*
X-64601Y-251777D01*
X-65201Y-250977D01*
X-65801Y-250444D01*
X-66601Y-250044D01*
X-67301D01*
X-68101Y-250311D01*
X-68701Y-250844D01*
G01X-80301Y-258044D02*
Y-250044D01*
X-84901Y-258044D01*
Y-250044D01*
G01X-88401D02*
Y-255777D01*
X-88801Y-256978D01*
X-89601Y-257777D01*
X-90601Y-258044D01*
X-91601Y-257777D01*
X-92401Y-256978D01*
X-92801Y-255777D01*
Y-250044D01*
G01X-96001Y-258044D02*
Y-250044D01*
X-98601Y-256711D01*
X-101201Y-250044D01*
Y-258044D01*
G01X-107401Y-253777D02*
X-107801Y-253377D01*
X-108101Y-252711D01*
X-108301Y-251777D01*
X-108101Y-250977D01*
X-107701Y-250444D01*
X-107001Y-250044D01*
X-104301D01*
Y-258044D01*
X-107601D01*
X-108301Y-257511D01*
X-108701Y-256711D01*
X-108901Y-255777D01*
X-108701Y-254844D01*
X-108101Y-254044D01*
X-107401Y-253777D01*
X-104301D01*
G01X-116601Y-258044D02*
X-112601D01*
Y-250044D01*
X-116601D01*
G01X-115001Y-253911D02*
X-112601D01*
G01X-120601Y-258044D02*
Y-250044D01*
X-123101D01*
X-123901Y-250444D01*
X-124401Y-250977D01*
X-124601Y-252044D01*
X-124401Y-253111D01*
X-123801Y-253777D01*
X-123101Y-254177D01*
X-120601D01*
G01X-123101D02*
X-124601Y-258044D01*
G01X-85601Y-373044D02*
Y-348044D01*
X-81821Y-353044D01*
G01Y-373044D02*
X-89380D01*
G01X-85601Y1271956D02*
Y1296956D01*
X-81821Y1291956D01*
G01Y1271956D02*
X-89380D01*
G01X15000Y-17500D02*
Y45000D01*
Y128000D01*
X-15000D01*
Y-17500D01*
X15000D01*
G01X-10601Y-338044D02*
Y-238044D01*
G01X84149Y-281377D02*
X82649Y-279378D01*
X80899Y-278377D01*
X78899Y-278044D01*
X76399Y-278711D01*
X74649Y-280377D01*
X74149Y-282377D01*
X74399Y-284378D01*
X75399Y-286044D01*
X80399Y-289377D01*
X82649Y-291711D01*
X84149Y-295045D01*
X84649Y-298044D01*
X74149D01*
G01X56399D02*
Y-278044D01*
X65649Y-292377D01*
X53149D01*
G01X44899Y-294044D02*
X43399Y-296378D01*
X41399Y-297711D01*
X39149Y-298044D01*
X37149Y-297711D01*
X35149Y-296044D01*
X33899Y-294044D01*
X33649Y-292044D01*
X34149Y-289711D01*
X35899Y-288044D01*
X37649Y-287377D01*
X39899D01*
G01X37649D02*
X36149Y-286377D01*
X34899Y-284711D01*
X34399Y-282711D01*
X34899Y-280711D01*
X36149Y-279044D01*
X38399Y-278044D01*
X40649Y-278377D01*
X42899Y-279711D01*
G01X24899Y-295045D02*
X23399Y-296711D01*
X21649Y-297711D01*
X19399Y-298044D01*
X17149Y-297377D01*
X15399Y-296044D01*
X14149Y-293711D01*
X13899Y-291044D01*
X14399Y-288378D01*
X15649Y-286711D01*
X17399Y-285378D01*
X19149Y-285044D01*
X20899Y-285378D01*
X23149Y-286711D01*
X22399Y-278044D01*
X15649D01*
G01X4899Y-295045D02*
X3399Y-296711D01*
X1649Y-297711D01*
X-601Y-298044D01*
X-2851Y-297377D01*
X-4601Y-296044D01*
X-5851Y-293711D01*
X-6101Y-291044D01*
X-5601Y-288378D01*
X-4351Y-286711D01*
X-2601Y-285378D01*
X-851Y-285044D01*
X899Y-285378D01*
X3149Y-286711D01*
X2399Y-278044D01*
X-4351D01*
G01X73299Y-258044D02*
Y-250044D01*
X69499D01*
G01X70899Y-253911D02*
X73299D01*
G01X65499Y-256978D02*
X64699Y-257644D01*
X63799Y-258044D01*
X62999D01*
X62199Y-257644D01*
X61599Y-256978D01*
X61299Y-256044D01*
X61499Y-255111D01*
X61999Y-254311D01*
X62899Y-253777D01*
X64099Y-253511D01*
X64799Y-252977D01*
X65099Y-252044D01*
X64899Y-251111D01*
X64399Y-250444D01*
X63699Y-250044D01*
X62999D01*
X62299Y-250311D01*
X61699Y-250977D01*
G01X53199Y-250711D02*
X53799Y-250311D01*
X54499Y-250044D01*
X55299D01*
X56199Y-250444D01*
X56899Y-251111D01*
X57399Y-251911D01*
X57799Y-253244D01*
X57899Y-254444D01*
X57699Y-255644D01*
X57399Y-256444D01*
X56799Y-257244D01*
X56099Y-257777D01*
X55399Y-258044D01*
X54699D01*
X53999Y-257777D01*
X53399Y-257377D01*
X52899Y-256844D01*
G01X49999Y-258044D02*
Y-250044D01*
X47399Y-256711D01*
X44799Y-250044D01*
Y-258044D01*
G01X33699D02*
Y-250044D01*
X29099Y-258044D01*
Y-250044D01*
G01X23399Y-258044D02*
X24199Y-257911D01*
X24899Y-257377D01*
X25499Y-256577D01*
X25899Y-255644D01*
X26099Y-254577D01*
Y-253511D01*
X25899Y-252444D01*
X25499Y-251511D01*
X24899Y-250711D01*
X24199Y-250177D01*
X23399Y-250044D01*
X22599Y-250177D01*
X21899Y-250711D01*
X21299Y-251511D01*
X20899Y-252444D01*
X20699Y-253511D01*
Y-254577D01*
X20899Y-255644D01*
X21299Y-256577D01*
X21899Y-257377D01*
X22599Y-257911D01*
X23399Y-258044D01*
G01X15000Y8000D02*
G02X25000I5000J0D01*
G01Y28000D02*
G02X15000I-5000J0D01*
G01Y100500D02*
G02X25000I5000J0D01*
G01Y120500D02*
G02X15000I-5000J0D01*
G01X50649Y-330544D02*
Y-320544D01*
X52149Y-322544D01*
G01Y-330544D02*
X49149D01*
G01X42899Y-330877D02*
X38399Y-320544D01*
G01X30649Y-330544D02*
Y-320544D01*
X32149Y-322544D01*
G01Y-330544D02*
X29149D01*
G01X38336Y-55217D02*
X38644Y-55245D01*
X55462Y-55217D01*
G01X34399Y-49705D02*
G03X38336Y-55217I5827J0D01*
G01X34399Y-49705D02*
G02X30462Y-55217I-5827J0D01*
G01X31308D02*
X62490D01*
Y-66043D01*
X61151Y-67382D01*
X32647D01*
X31308Y-66043D01*
Y-55217D01*
X26623D01*
X24655Y-53248D01*
Y-37382D01*
X26623Y-35413D01*
X34399D01*
G01X30462Y-55217D02*
X28592D01*
G02X24655Y-49705I1890J5512D01*
G01Y-40925D01*
G02X28592Y-35413I5827J0D01*
G01X30462D01*
G01X34399Y-40925D02*
Y-49705D01*
G01Y-40925D02*
Y-49705D01*
G01X38336Y-35413D02*
G03X34399Y-40925I1890J-5512D01*
G01X30462Y-35413D02*
G02X34399Y-40925I-1890J-5512D01*
G01X55462Y-35413D02*
X38336D01*
G01X36978D02*
X67175D01*
X69143Y-37382D01*
Y-53248D01*
X67175Y-55217D01*
X56820D01*
G01X34399Y-23957D02*
X59399D01*
G01X28159Y1240D02*
Y-23957D01*
X34399D01*
Y-35413D01*
X59399D01*
Y-23957D01*
X65639D01*
Y1240D01*
X61623D01*
Y-17500D01*
X32175D01*
Y1240D01*
X28159D01*
G01X25000Y-17500D02*
Y128000D01*
X91476D01*
Y121799D01*
G03X94823I1674J0D01*
G01Y128000D01*
X110177D01*
Y121799D01*
G03X113524I1674J0D01*
G01Y128000D01*
X125000D01*
Y-17500D01*
X25000D01*
G01X37799Y42990D02*
X38999D01*
Y40590D01*
X37799D01*
Y42990D01*
G01X40348Y58489D02*
Y52091D01*
X28930D01*
Y58489D01*
X40348D01*
G01X63227Y113000D02*
Y134496D01*
X38227D01*
Y113000D01*
X41416D01*
Y128000D01*
X60038D01*
Y113000D01*
X63227D01*
G01X65899Y16290D02*
Y9290D01*
X52899D01*
Y16290D01*
X65899D01*
G01X45851Y59299D02*
Y52881D01*
X49039D01*
Y59299D01*
X45851D01*
G01X53999Y58590D02*
X52799D01*
Y60990D01*
X53999D01*
Y58590D01*
G01X40806Y134496D02*
X60648D01*
Y147488D01*
X40806D01*
Y134496D01*
G01X40634Y159332D02*
X61083Y159977D01*
G01X39428Y160180D02*
X40413Y161066D01*
X60973Y161489D01*
X62026Y160861D01*
G01X39428Y158557D02*
X40634Y159332D01*
X39428Y160180D01*
X62026Y160861D01*
X61083Y159977D01*
X62026Y159238D01*
G01X61000Y158298D02*
X40524Y157598D01*
X39428Y156823D01*
G01X40524Y157598D02*
X39428Y158557D01*
X62026Y159238D01*
X61000Y158298D01*
X62026Y157504D01*
G01X61184Y156712D02*
X62026Y157504D01*
X39428Y156823D01*
X40755Y155992D01*
X39428Y155163D01*
G01X40755Y155992D02*
X61231Y156656D01*
X62026Y155844D01*
X39428Y155163D01*
X40681Y154184D01*
G01X62026Y153963D02*
X61147Y154794D01*
X40681Y154184D01*
X39428Y153281D01*
G01X61083Y153114D02*
X62026Y153963D01*
X39428Y153281D01*
X40736Y152515D01*
X39428Y151658D01*
G01X61010Y151565D02*
X40727Y150864D01*
G01X62026Y152339D02*
X61083Y153114D01*
X40736Y152515D01*
G01X62026Y150790D02*
X61010Y151565D01*
X62026Y152339D01*
X39428Y151658D01*
X40727Y150864D01*
X39428Y150109D01*
G01X60917Y149978D02*
X62026Y150790D01*
X39428Y150109D01*
X40754Y149463D01*
G01X62026Y149260D02*
X60917Y149978D01*
X40754Y149463D01*
X39428Y148472D01*
G01X40491Y147685D02*
X40806Y147488D01*
G01X60972Y148467D02*
X40491Y147685D01*
X39428Y148472D01*
X62026Y149260D01*
X60845Y148467D01*
X61751Y148079D01*
X60652Y147489D01*
G01X40806Y162319D02*
X60648Y162337D01*
X39447Y161656D01*
G01X60973Y161489D02*
X62060Y161999D01*
X60648Y162337D01*
Y165480D01*
X40806D01*
Y162319D01*
X39447Y161656D01*
X40520Y161075D01*
G01X65206Y-55217D02*
X63336D01*
G01D02*
G02X59399Y-51280I2054J5991D01*
G01X55462Y-55217D02*
G03X59399Y-49705I-1890J5512D01*
G01X69143Y-39350D02*
Y-51280D01*
G02X65206Y-55217I-5991J2054D01*
G01X59399Y-49705D02*
Y-40925D01*
G01Y-49705D02*
Y-51280D01*
Y-39350D01*
G01X65206Y-35413D02*
G02X69143Y-39350I-2054J-5991D01*
G01X59399D02*
G02X63336Y-35413I5991J-2054D01*
G01X59399Y-40925D02*
G03X55462Y-35413I-5827J0D01*
G01X63336D02*
X65206D01*
G01X62324Y27940D02*
Y21640D01*
X65474D01*
Y27940D01*
X62324D01*
G01X56324D02*
Y21640D01*
X59474D01*
Y27940D01*
X56324D01*
G01X95296Y13246D02*
Y57538D01*
X70690D01*
Y13246D01*
X95296D01*
G01X63899Y34790D02*
Y32790D01*
X59899D01*
Y34790D01*
X63899D01*
G01X57168Y37883D02*
X63586D01*
Y41071D01*
X57168D01*
Y37883D01*
G01X65336Y52751D02*
X57462D01*
Y47829D01*
X65336D01*
Y52751D01*
G01X61074Y154830D02*
X62026Y155844D01*
G01X74399Y-220044D02*
X118399D01*
G01X74399Y-221044D02*
X120399D01*
G01X74399Y-222044D02*
X122399D01*
G01X129399Y-227044D02*
X74399D01*
G01X129399Y-226044D02*
X74399D01*
G01X129399Y-225044D02*
X74399D01*
G01X129399Y-224044D02*
X74399D01*
G01X129399Y-223044D02*
X74399D01*
G01X129399Y-173044D02*
X74399D01*
Y-228044D01*
X129399D01*
Y-173044D01*
G01X74399Y-219044D02*
X116399D01*
G01X86399Y-204044D02*
X74399D01*
G01X88399Y-205044D02*
X74399D01*
G01X90399Y-206044D02*
X74399D01*
G01X92399Y-207044D02*
X74399D01*
G01X94399Y-208044D02*
X74399D01*
G01Y-209044D02*
X96399D01*
G01X74399Y-210044D02*
X98399D01*
G01X74399Y-211044D02*
X100399D01*
G01X74399Y-212044D02*
X102399D01*
G01X74399Y-213044D02*
X104399D01*
G01X74399Y-214044D02*
X106399D01*
G01X74399Y-215044D02*
X108399D01*
G01X74399Y-216044D02*
X110399D01*
G01X74399Y-217044D02*
X112399D01*
G01X74399Y-218044D02*
X114399D01*
G01X124399Y-178044D02*
Y-223044D01*
X79399Y-200544D01*
X124399Y-178044D01*
G01X102399Y-189044D02*
X74399D01*
G01X100399Y-190044D02*
X74399D01*
G01X98399Y-191044D02*
X74399D01*
G01X96399Y-192044D02*
X74399D01*
G01X94399Y-193044D02*
X74399D01*
G01X92399Y-194044D02*
X74399D01*
G01X90399Y-195044D02*
X74399D01*
G01X88399Y-196044D02*
X74399D01*
G01X86399Y-197044D02*
X74399D01*
G01X84399Y-198044D02*
X74399D01*
G01X82399Y-199044D02*
X74399D01*
G01X80399Y-200044D02*
X74399D01*
G01Y-200544D02*
X79399D01*
G01X80399Y-201044D02*
X74399D01*
G01X82399Y-202044D02*
X74399D01*
G01X84399Y-203044D02*
X74399D01*
G01X106399Y-187044D02*
X74399D01*
G01X104399Y-188044D02*
X74399D01*
G01X122399Y-179044D02*
X74399D01*
G01X120399Y-180044D02*
X74399D01*
G01X118399Y-181044D02*
X74399D01*
G01X116399Y-182044D02*
X74399D01*
G01X114399Y-183044D02*
X74399D01*
G01X112399Y-184044D02*
X74399D01*
G01X110399Y-185044D02*
X74399D01*
G01X108399Y-186044D02*
X74399D01*
G01X129399Y-178044D02*
X74399D01*
G01X129399Y-177044D02*
X74399D01*
G01X129399Y-176044D02*
X74399D01*
G01X129399Y-175044D02*
X74399D01*
G01X129399Y-174044D02*
X74399D01*
G01X81399Y-4710D02*
Y-7710D01*
X75399D01*
Y-4710D01*
X81399D01*
G01X91474Y2140D02*
Y8440D01*
X88324D01*
Y2140D01*
X91474D01*
G01X79938Y9227D02*
Y1353D01*
X84860D01*
Y9227D01*
X79938D01*
G01X87299Y102690D02*
X92299D01*
Y94690D01*
X87299D01*
Y102690D01*
G01X115926Y130756D02*
X115098D01*
Y133118D01*
X89902D01*
Y130756D01*
X89185D01*
X87736Y133512D01*
X86358Y133118D01*
X87736Y130756D01*
Y110283D01*
X117264D01*
Y130756D01*
X118642Y133118D01*
X117264Y133512D01*
X115926Y130756D01*
G01X89185D02*
X87736D01*
G01X128499Y-329478D02*
X127699Y-330144D01*
X126799Y-330544D01*
X125999D01*
X125199Y-330144D01*
X124599Y-329478D01*
X124299Y-328544D01*
X124499Y-327611D01*
X124999Y-326811D01*
X125899Y-326277D01*
X127099Y-326011D01*
X127799Y-325477D01*
X128099Y-324544D01*
X127899Y-323611D01*
X127399Y-322944D01*
X126699Y-322544D01*
X125999D01*
X125299Y-322811D01*
X124699Y-323477D01*
G01X116199Y-323211D02*
X116799Y-322811D01*
X117499Y-322544D01*
X118299D01*
X119199Y-322944D01*
X119899Y-323611D01*
X120399Y-324411D01*
X120799Y-325744D01*
X120899Y-326944D01*
X120699Y-328144D01*
X120399Y-328944D01*
X119799Y-329744D01*
X119099Y-330277D01*
X118399Y-330544D01*
X117699D01*
X116999Y-330277D01*
X116399Y-329877D01*
X115899Y-329344D01*
G01X112899Y-330544D02*
X110399Y-322544D01*
X107899Y-330544D01*
G01X108799Y-327744D02*
X111999D01*
G01X104399Y-322544D02*
Y-330544D01*
X100399D01*
G01X92399D02*
X96399D01*
Y-322544D01*
X92399D01*
G01X93999Y-326411D02*
X96399D01*
G01X89399Y-313044D02*
Y-238044D01*
G01X128499Y-256978D02*
X127699Y-257644D01*
X126799Y-258044D01*
X125999D01*
X125199Y-257644D01*
X124599Y-256978D01*
X124299Y-256044D01*
X124499Y-255111D01*
X124999Y-254311D01*
X125899Y-253777D01*
X127099Y-253511D01*
X127799Y-252977D01*
X128099Y-252044D01*
X127899Y-251111D01*
X127399Y-250444D01*
X126699Y-250044D01*
X125999D01*
X125299Y-250311D01*
X124699Y-250977D01*
G01X119599Y-250044D02*
X117199D01*
G01X118399D02*
Y-258044D01*
G01X119599D02*
X117199D01*
G01X112299Y-250044D02*
X108499D01*
X112299Y-258044D01*
X108499D01*
G01X100399D02*
X104399D01*
Y-250044D01*
X100399D01*
G01X101999Y-253911D02*
X104399D01*
G01X101599Y47590D02*
X106199D01*
Y43690D01*
Y38990D01*
X101599D01*
Y47590D01*
G01X100556Y78633D02*
Y58947D01*
X120242D01*
Y78633D01*
X100556D01*
G01X117954Y88290D02*
Y82542D01*
X99844D01*
Y94038D01*
X117954D01*
Y88290D01*
G01X112899Y104290D02*
Y97290D01*
X99899D01*
Y104290D01*
X112899D01*
G01X115098Y130756D02*
X89902D01*
G01X108899Y-279711D02*
X110399Y-278711D01*
X112149Y-278044D01*
X114149D01*
X116399Y-279044D01*
X118149Y-280711D01*
X119399Y-282711D01*
X120399Y-286044D01*
X120649Y-289044D01*
X120149Y-292044D01*
X119399Y-294044D01*
X117899Y-296044D01*
X116149Y-297377D01*
X114399Y-298044D01*
X112649D01*
X110899Y-297377D01*
X109399Y-296378D01*
X108149Y-295045D01*
G01X111599Y47590D02*
X116199D01*
Y43690D01*
Y38990D01*
X111599D01*
Y47590D01*
G01X117264Y130756D02*
X115926D01*
G01X129399Y-222044D02*
X124399D01*
G01X129399Y-221044D02*
X124399D01*
G01X129399Y-220044D02*
X124399D01*
G01X129399Y-219044D02*
X124399D01*
G01X129399Y-207044D02*
X124399D01*
G01X129399Y-206044D02*
X124399D01*
G01X129399Y-210044D02*
X124399D01*
G01X129399Y-209044D02*
X124399D01*
G01X129399Y-208044D02*
X124399D01*
G01X129399Y-213044D02*
X124399D01*
G01X129399Y-212044D02*
X124399D01*
G01X129399Y-211044D02*
X124399D01*
G01X129399Y-216044D02*
X124399D01*
G01X129399Y-215044D02*
X124399D01*
G01X129399Y-214044D02*
X124399D01*
G01X129399Y-218044D02*
X124399D01*
G01X129399Y-217044D02*
X124399D01*
G01X129399Y-205044D02*
X124399D01*
G01X129399Y-204044D02*
X124399D01*
G01X129399Y-203044D02*
X124399D01*
G01X129399Y-202044D02*
X124399D01*
G01X129399Y-201044D02*
X124399D01*
G01X129399Y-200044D02*
X124399D01*
G01X129399Y-199044D02*
X124399D01*
G01X129399Y-198044D02*
X124399D01*
G01X129399Y-197044D02*
X124399D01*
G01X129399Y-196044D02*
X124399D01*
G01X129399Y-195044D02*
X124399D01*
G01X129399Y-194044D02*
X124399D01*
G01X129399Y-193044D02*
X124399D01*
G01X129399Y-192044D02*
X124399D01*
G01X129399Y-191044D02*
X124399D01*
G01X129399Y-190044D02*
X124399D01*
G01X129399Y-189044D02*
X124399D01*
G01X129399Y-188044D02*
X124399D01*
G01X129399Y-187044D02*
X124399D01*
G01X129399Y-186044D02*
X124399D01*
G01X129399Y-185044D02*
X124399D01*
G01X129399Y-184044D02*
X124399D01*
G01X129399Y-183044D02*
X124399D01*
G01X129399Y-182044D02*
X124399D01*
G01X129399Y-181044D02*
X124399D01*
G01X129399Y-180044D02*
X124399D01*
G01X129399Y-179044D02*
X124399D01*
G01X135000Y-17500D02*
Y128000D01*
X201476D01*
Y121799D01*
G03X204823I1674J0D01*
G01Y128000D01*
X220177D01*
Y121799D01*
G03X223524I1673J0D01*
G01Y128000D01*
X235000D01*
Y-17500D01*
X135000D01*
G01Y8000D02*
G03X125000I-5000J0D01*
G01Y28000D02*
G03X135000I5000J0D01*
G01Y100500D02*
G03X125000I-5000J0D01*
G01Y120500D02*
G03X135000I5000J0D01*
G01X139399Y-338044D02*
Y-163044D01*
G01X189399Y-368044D02*
Y-338044D01*
G01Y1291956D02*
Y1261956D01*
G01X245000Y8000D02*
G03X235000I-5000J0D01*
G01Y28000D02*
G03X245000I5000J0D01*
G01Y100500D02*
G03X235000I-5000J0D01*
G01Y120500D02*
G03X245000I5000J0D01*
G01Y-17500D02*
Y128000D01*
X311476D01*
Y121799D01*
G03X314823I1673J0D01*
G01Y128000D01*
X330177D01*
Y121799D01*
G03X333524I1674J0D01*
G01Y128000D01*
X345000D01*
Y-17500D01*
X245000D01*
G01X355000Y8000D02*
G03X345000I-5000J0D01*
G01Y28000D02*
G03X355000I5000J0D01*
G01Y100500D02*
G03X345000I-5000J0D01*
G01Y120500D02*
G03X355000I5000J0D01*
G01Y-17500D02*
Y128000D01*
X421476D01*
Y121799D01*
G03X424823I1673J0D01*
G01Y128000D01*
X440177D01*
Y121799D01*
G03X443524I1673J0D01*
G01Y128000D01*
X455000D01*
Y-17500D01*
X355000D01*
G01X1355210Y453500D02*
X1354900Y456208D01*
X1354435Y458500D01*
X1353815Y460583D01*
X1353040Y462875D01*
X1351800Y466000D01*
X1358000D01*
G01X1342500Y453083D02*
X1342810Y453292D01*
Y453708D01*
X1342500Y453917D01*
X1342190Y453708D01*
Y453292D01*
X1342500Y453083D01*
G01X1284375Y453500D02*
X1280500Y466000D01*
X1276625Y453500D01*
G01X1278020Y457875D02*
X1282980D01*
G01X1271355Y455166D02*
X1270115Y454125D01*
X1268720Y453500D01*
X1267480D01*
X1266240Y454125D01*
X1265310Y455166D01*
X1264845Y456625D01*
X1265155Y458083D01*
X1265930Y459333D01*
X1267325Y460167D01*
X1269185Y460583D01*
X1270270Y461417D01*
X1270735Y462875D01*
X1270425Y464333D01*
X1269650Y465375D01*
X1268565Y466000D01*
X1267480D01*
X1266395Y465583D01*
X1265465Y464542D01*
G01X1258955Y455166D02*
X1257715Y454125D01*
X1256320Y453500D01*
X1255080D01*
X1253840Y454125D01*
X1252910Y455166D01*
X1252445Y456625D01*
X1252755Y458083D01*
X1253530Y459333D01*
X1254925Y460167D01*
X1256785Y460583D01*
X1257870Y461417D01*
X1258335Y462875D01*
X1258025Y464333D01*
X1257250Y465375D01*
X1256165Y466000D01*
X1255080D01*
X1253995Y465583D01*
X1253065Y464542D01*
G01X1240200Y453500D02*
X1246400D01*
Y466000D01*
X1240200D01*
G01X1242680Y459958D02*
X1246400D01*
G01X1234930Y453500D02*
Y466000D01*
X1230900Y455583D01*
X1226870Y466000D01*
Y453500D01*
G01X1217260Y460167D02*
X1216640Y460792D01*
X1216175Y461833D01*
X1215865Y463292D01*
X1216175Y464542D01*
X1216795Y465375D01*
X1217880Y466000D01*
X1222065D01*
Y453500D01*
X1216950D01*
X1215865Y454333D01*
X1215245Y455583D01*
X1214935Y457042D01*
X1215245Y458500D01*
X1216175Y459750D01*
X1217260Y460167D01*
X1222065D01*
G01X1209200Y466000D02*
Y453500D01*
X1203000D01*
G01X1193700D02*
Y459125D01*
X1196800Y466000D01*
G01X1190600D02*
X1193700Y459125D01*
G01X1172775Y466000D02*
X1168900Y453500D01*
X1165025Y466000D01*
G01X1153400Y453500D02*
X1159600D01*
Y466000D01*
X1153400D01*
G01X1155880Y459958D02*
X1159600D01*
G01X1147665Y453500D02*
Y466000D01*
X1140535Y453500D01*
Y466000D01*
G01X1135110Y453500D02*
Y466000D01*
X1132010D01*
X1130770Y465375D01*
X1129840Y464542D01*
X1129065Y463292D01*
X1128445Y461833D01*
X1128290Y459750D01*
X1128445Y457667D01*
X1129065Y456208D01*
X1129840Y454958D01*
X1130770Y454125D01*
X1132010Y453500D01*
X1135110D01*
G01X1119300D02*
X1120540Y453708D01*
X1121625Y454541D01*
X1122555Y455792D01*
X1123175Y457250D01*
X1123485Y458917D01*
Y460583D01*
X1123175Y462250D01*
X1122555Y463708D01*
X1121625Y464958D01*
X1120540Y465792D01*
X1119300Y466000D01*
X1118060Y465792D01*
X1116975Y464958D01*
X1116045Y463708D01*
X1115425Y462250D01*
X1115115Y460583D01*
Y458917D01*
X1115425Y457250D01*
X1116045Y455792D01*
X1116975Y454541D01*
X1118060Y453708D01*
X1119300Y453500D01*
G01X1110000D02*
Y466000D01*
X1106125D01*
X1104885Y465375D01*
X1104110Y464542D01*
X1103800Y462875D01*
X1104110Y461208D01*
X1105040Y460167D01*
X1106125Y459542D01*
X1110000D01*
G01X1106125D02*
X1103800Y453500D01*
G01X1086130D02*
Y466000D01*
X1082100Y455583D01*
X1078070Y466000D01*
Y453500D01*
G01X1073110Y466000D02*
Y457042D01*
X1072490Y455166D01*
X1071250Y453917D01*
X1069700Y453500D01*
X1068150Y453917D01*
X1066910Y455166D01*
X1066290Y457042D01*
Y466000D01*
G01X1060555Y455166D02*
X1059315Y454125D01*
X1057920Y453500D01*
X1056680D01*
X1055440Y454125D01*
X1054510Y455166D01*
X1054045Y456625D01*
X1054355Y458083D01*
X1055130Y459333D01*
X1056525Y460167D01*
X1058385Y460583D01*
X1059470Y461417D01*
X1059935Y462875D01*
X1059625Y464333D01*
X1058850Y465375D01*
X1057765Y466000D01*
X1056680D01*
X1055595Y465583D01*
X1054665Y464542D01*
G01X1044900Y466000D02*
Y453500D01*
G01X1048465Y466000D02*
X1041335D01*
G01X1023355Y455166D02*
X1022115Y454125D01*
X1020720Y453500D01*
X1019480D01*
X1018240Y454125D01*
X1017310Y455166D01*
X1016845Y456625D01*
X1017155Y458083D01*
X1017930Y459333D01*
X1019325Y460167D01*
X1021185Y460583D01*
X1022270Y461417D01*
X1022735Y462875D01*
X1022425Y464333D01*
X1021650Y465375D01*
X1020565Y466000D01*
X1019480D01*
X1018395Y465583D01*
X1017465Y464542D01*
G01X1007700Y453500D02*
X1008940Y453708D01*
X1010025Y454541D01*
X1010955Y455792D01*
X1011575Y457250D01*
X1011885Y458917D01*
Y460583D01*
X1011575Y462250D01*
X1010955Y463708D01*
X1010025Y464958D01*
X1008940Y465792D01*
X1007700Y466000D01*
X1006460Y465792D01*
X1005375Y464958D01*
X1004445Y463708D01*
X1003825Y462250D01*
X1003515Y460583D01*
Y458917D01*
X1003825Y457250D01*
X1004445Y455792D01*
X1005375Y454541D01*
X1006460Y453708D01*
X1007700Y453500D01*
G01X998400Y466000D02*
Y453500D01*
X992200D01*
G01X986310D02*
Y466000D01*
X983210D01*
X981970Y465375D01*
X981040Y464542D01*
X980265Y463292D01*
X979645Y461833D01*
X979490Y459750D01*
X979645Y457667D01*
X980265Y456208D01*
X981040Y454958D01*
X981970Y454125D01*
X983210Y453500D01*
X986310D01*
G01X967400D02*
X973600D01*
Y466000D01*
X967400D01*
G01X969880Y459958D02*
X973600D01*
G01X961200Y453500D02*
Y466000D01*
X957325D01*
X956085Y465375D01*
X955310Y464542D01*
X955000Y462875D01*
X955310Y461208D01*
X956240Y460167D01*
X957325Y459542D01*
X961200D01*
G01X957325D02*
X955000Y453500D01*
G01X936555Y455166D02*
X935315Y454125D01*
X933920Y453500D01*
X932680D01*
X931440Y454125D01*
X930510Y455166D01*
X930045Y456625D01*
X930355Y458083D01*
X931130Y459333D01*
X932525Y460167D01*
X934385Y460583D01*
X935470Y461417D01*
X935935Y462875D01*
X935625Y464333D01*
X934850Y465375D01*
X933765Y466000D01*
X932680D01*
X931595Y465583D01*
X930665Y464542D01*
G01X924155Y453500D02*
Y466000D01*
G01X917645D02*
Y453500D01*
G01Y459750D02*
X924155D01*
G01X908500Y453500D02*
X909740Y453708D01*
X910825Y454541D01*
X911755Y455792D01*
X912375Y457250D01*
X912685Y458917D01*
Y460583D01*
X912375Y462250D01*
X911755Y463708D01*
X910825Y464958D01*
X909740Y465792D01*
X908500Y466000D01*
X907260Y465792D01*
X906175Y464958D01*
X905245Y463708D01*
X904625Y462250D01*
X904315Y460583D01*
Y458917D01*
X904625Y457250D01*
X905245Y455792D01*
X906175Y454541D01*
X907260Y453708D01*
X908500Y453500D01*
G01X899200D02*
Y466000D01*
X895325D01*
X894085Y465375D01*
X893310Y464542D01*
X893000Y462875D01*
X893310Y461208D01*
X894240Y460167D01*
X895325Y459542D01*
X899200D01*
G01X895325D02*
X893000Y453500D01*
G01X883700Y466000D02*
Y453500D01*
G01X887265Y466000D02*
X880135D01*
G01X858900D02*
Y453500D01*
G01X862465Y466000D02*
X855335D01*
G01X849755Y453500D02*
Y466000D01*
G01X843245D02*
Y453500D01*
G01Y459750D02*
X849755D01*
G01X831000Y453500D02*
X837200D01*
Y466000D01*
X831000D01*
G01X833480Y459958D02*
X837200D01*
G01X813330Y453500D02*
Y466000D01*
X809300Y455583D01*
X805270Y466000D01*
Y453500D01*
G01X798760Y466000D02*
X795040D01*
G01X796900D02*
Y453500D01*
G01X798760D02*
X795040D01*
G01X787910D02*
Y466000D01*
X784810D01*
X783570Y465375D01*
X782640Y464542D01*
X781865Y463292D01*
X781245Y461833D01*
X781090Y459750D01*
X781245Y457667D01*
X781865Y456208D01*
X782640Y454958D01*
X783570Y454125D01*
X784810Y453500D01*
X787910D01*
G01X775510D02*
Y466000D01*
X772410D01*
X771170Y465375D01*
X770240Y464542D01*
X769465Y463292D01*
X768845Y461833D01*
X768690Y459750D01*
X768845Y457667D01*
X769465Y456208D01*
X770240Y454958D01*
X771170Y454125D01*
X772410Y453500D01*
X775510D01*
G01X762800Y466000D02*
Y453500D01*
X756600D01*
G01X744200D02*
X750400D01*
Y466000D01*
X744200D01*
G01X746680Y459958D02*
X750400D01*
G01X725600Y453500D02*
Y466000D01*
X721880D01*
X720640Y465375D01*
X719710Y463917D01*
X719400Y462250D01*
X719710Y460583D01*
X720485Y459333D01*
X721880Y458708D01*
X725600D01*
G01X711960Y466000D02*
X708240D01*
G01X710100D02*
Y453500D01*
G01X711960D02*
X708240D01*
G01X701265D02*
Y466000D01*
X694135Y453500D01*
Y466000D01*
G01X672900Y453500D02*
X674140Y453708D01*
X675225Y454541D01*
X676155Y455792D01*
X676775Y457250D01*
X677085Y458917D01*
Y460583D01*
X676775Y462250D01*
X676155Y463708D01*
X675225Y464958D01*
X674140Y465792D01*
X672900Y466000D01*
X671660Y465792D01*
X670575Y464958D01*
X669645Y463708D01*
X669025Y462250D01*
X668715Y460583D01*
Y458917D01*
X669025Y457250D01*
X669645Y455792D01*
X670575Y454541D01*
X671660Y453708D01*
X672900Y453500D01*
G01X663445D02*
Y466000D01*
X657555D01*
G01X659725Y459958D02*
X663445D01*
G01X638800Y456000D02*
X638025Y454750D01*
X637095Y453917D01*
X636010Y453500D01*
X634770Y453917D01*
X633840Y454750D01*
X632910Y456000D01*
X632600Y457667D01*
Y466000D01*
G01X626400Y453500D02*
Y466000D01*
X622680D01*
X621440Y465375D01*
X620510Y463917D01*
X620200Y462250D01*
X620510Y460583D01*
X621285Y459333D01*
X622680Y458708D01*
X626400D01*
G01X613845Y463917D02*
X612915Y465166D01*
X611830Y465792D01*
X610590Y466000D01*
X609040Y465583D01*
X607955Y464542D01*
X607645Y463292D01*
X607800Y462041D01*
X608420Y461000D01*
X611520Y458917D01*
X612915Y457458D01*
X613845Y455375D01*
X614155Y453500D01*
X607645D01*
G01X586100Y466000D02*
Y453500D01*
G01X589665Y466000D02*
X582535D01*
G01X573700Y453500D02*
X574940Y453708D01*
X576025Y454541D01*
X576955Y455792D01*
X577575Y457250D01*
X577885Y458917D01*
Y460583D01*
X577575Y462250D01*
X576955Y463708D01*
X576025Y464958D01*
X574940Y465792D01*
X573700Y466000D01*
X572460Y465792D01*
X571375Y464958D01*
X570445Y463708D01*
X569825Y462250D01*
X569515Y460583D01*
Y458917D01*
X569825Y457250D01*
X570445Y455792D01*
X571375Y454541D01*
X572460Y453708D01*
X573700Y453500D01*
G01X552000D02*
Y466000D01*
X548280D01*
X547040Y465375D01*
X546110Y463917D01*
X545800Y462250D01*
X546110Y460583D01*
X546885Y459333D01*
X548280Y458708D01*
X552000D01*
G01X536500Y453500D02*
X537740Y453708D01*
X538825Y454541D01*
X539755Y455792D01*
X540375Y457250D01*
X540685Y458917D01*
Y460583D01*
X540375Y462250D01*
X539755Y463708D01*
X538825Y464958D01*
X537740Y465792D01*
X536500Y466000D01*
X535260Y465792D01*
X534175Y464958D01*
X533245Y463708D01*
X532625Y462250D01*
X532315Y460583D01*
Y458917D01*
X532625Y457250D01*
X533245Y455792D01*
X534175Y454541D01*
X535260Y453708D01*
X536500Y453500D01*
G01X527355Y455166D02*
X526115Y454125D01*
X524720Y453500D01*
X523480D01*
X522240Y454125D01*
X521310Y455166D01*
X520845Y456625D01*
X521155Y458083D01*
X521930Y459333D01*
X523325Y460167D01*
X525185Y460583D01*
X526270Y461417D01*
X526735Y462875D01*
X526425Y464333D01*
X525650Y465375D01*
X524565Y466000D01*
X523480D01*
X522395Y465583D01*
X521465Y464542D01*
G01X513560Y466000D02*
X509840D01*
G01X511700D02*
Y453500D01*
G01X513560D02*
X509840D01*
G01X499300Y466000D02*
Y453500D01*
G01X502865Y466000D02*
X495735D01*
G01X488760D02*
X485040D01*
G01X486900D02*
Y453500D01*
G01X488760D02*
X485040D01*
G01X474500D02*
X475740Y453708D01*
X476825Y454541D01*
X477755Y455792D01*
X478375Y457250D01*
X478685Y458917D01*
Y460583D01*
X478375Y462250D01*
X477755Y463708D01*
X476825Y464958D01*
X475740Y465792D01*
X474500Y466000D01*
X473260Y465792D01*
X472175Y464958D01*
X471245Y463708D01*
X470625Y462250D01*
X470315Y460583D01*
Y458917D01*
X470625Y457250D01*
X471245Y455792D01*
X472175Y454541D01*
X473260Y453708D01*
X474500Y453500D01*
G01X465665D02*
Y466000D01*
X458535Y453500D01*
Y466000D01*
G01X438695Y463292D02*
X437920Y466000D01*
G01X435905D02*
X436680Y463292D01*
G01X424900Y453500D02*
Y466000D01*
X426760Y463500D01*
G01Y453500D02*
X423040D01*
G01X413895Y463292D02*
X413120Y466000D01*
G01X411105D02*
X411880Y463292D01*
G01X400100Y453083D02*
X400410Y453292D01*
Y453708D01*
X400100Y453917D01*
X399790Y453708D01*
Y453292D01*
X400100Y453083D01*
G01X1357345Y500308D02*
X1356260Y501767D01*
X1355330Y502600D01*
X1354090Y503017D01*
X1353005Y502600D01*
X1352230Y501767D01*
X1351610Y500517D01*
X1351455Y499058D01*
X1351610Y497808D01*
X1352230Y496558D01*
X1353160Y495517D01*
X1354245Y495100D01*
X1355485Y495517D01*
X1356570Y496766D01*
X1357190Y498642D01*
X1357345Y500725D01*
X1357035Y503433D01*
X1356570Y504892D01*
X1355795Y506350D01*
X1354710Y507392D01*
X1353625Y507600D01*
X1352540Y507183D01*
X1351765Y506142D01*
G01X1342000Y494683D02*
X1342310Y494892D01*
Y495308D01*
X1342000Y495517D01*
X1341690Y495308D01*
Y494892D01*
X1342000Y494683D01*
G01X1283875Y495100D02*
X1280000Y507600D01*
X1276125Y495100D01*
G01X1277520Y499475D02*
X1282480D01*
G01X1270855Y496766D02*
X1269615Y495725D01*
X1268220Y495100D01*
X1266980D01*
X1265740Y495725D01*
X1264810Y496766D01*
X1264345Y498225D01*
X1264655Y499683D01*
X1265430Y500933D01*
X1266825Y501767D01*
X1268685Y502183D01*
X1269770Y503017D01*
X1270235Y504475D01*
X1269925Y505933D01*
X1269150Y506975D01*
X1268065Y507600D01*
X1266980D01*
X1265895Y507183D01*
X1264965Y506142D01*
G01X1258455Y496766D02*
X1257215Y495725D01*
X1255820Y495100D01*
X1254580D01*
X1253340Y495725D01*
X1252410Y496766D01*
X1251945Y498225D01*
X1252255Y499683D01*
X1253030Y500933D01*
X1254425Y501767D01*
X1256285Y502183D01*
X1257370Y503017D01*
X1257835Y504475D01*
X1257525Y505933D01*
X1256750Y506975D01*
X1255665Y507600D01*
X1254580D01*
X1253495Y507183D01*
X1252565Y506142D01*
G01X1239700Y495100D02*
X1245900D01*
Y507600D01*
X1239700D01*
G01X1242180Y501558D02*
X1245900D01*
G01X1234430Y495100D02*
Y507600D01*
X1230400Y497183D01*
X1226370Y507600D01*
Y495100D01*
G01X1216760Y501767D02*
X1216140Y502392D01*
X1215675Y503433D01*
X1215365Y504892D01*
X1215675Y506142D01*
X1216295Y506975D01*
X1217380Y507600D01*
X1221565D01*
Y495100D01*
X1216450D01*
X1215365Y495933D01*
X1214745Y497183D01*
X1214435Y498642D01*
X1214745Y500100D01*
X1215675Y501350D01*
X1216760Y501767D01*
X1221565D01*
G01X1208700Y507600D02*
Y495100D01*
X1202500D01*
G01X1193200D02*
Y500725D01*
X1196300Y507600D01*
G01X1190100D02*
X1193200Y500725D01*
G01X1172275Y507600D02*
X1168400Y495100D01*
X1164525Y507600D01*
G01X1152900Y495100D02*
X1159100D01*
Y507600D01*
X1152900D01*
G01X1155380Y501558D02*
X1159100D01*
G01X1147165Y495100D02*
Y507600D01*
X1140035Y495100D01*
Y507600D01*
G01X1134610Y495100D02*
Y507600D01*
X1131510D01*
X1130270Y506975D01*
X1129340Y506142D01*
X1128565Y504892D01*
X1127945Y503433D01*
X1127790Y501350D01*
X1127945Y499267D01*
X1128565Y497808D01*
X1129340Y496558D01*
X1130270Y495725D01*
X1131510Y495100D01*
X1134610D01*
G01X1118800D02*
X1120040Y495308D01*
X1121125Y496141D01*
X1122055Y497392D01*
X1122675Y498850D01*
X1122985Y500517D01*
Y502183D01*
X1122675Y503850D01*
X1122055Y505308D01*
X1121125Y506558D01*
X1120040Y507392D01*
X1118800Y507600D01*
X1117560Y507392D01*
X1116475Y506558D01*
X1115545Y505308D01*
X1114925Y503850D01*
X1114615Y502183D01*
Y500517D01*
X1114925Y498850D01*
X1115545Y497392D01*
X1116475Y496141D01*
X1117560Y495308D01*
X1118800Y495100D01*
G01X1109500D02*
Y507600D01*
X1105625D01*
X1104385Y506975D01*
X1103610Y506142D01*
X1103300Y504475D01*
X1103610Y502808D01*
X1104540Y501767D01*
X1105625Y501142D01*
X1109500D01*
G01X1105625D02*
X1103300Y495100D01*
G01X1085630D02*
Y507600D01*
X1081600Y497183D01*
X1077570Y507600D01*
Y495100D01*
G01X1072610Y507600D02*
Y498642D01*
X1071990Y496766D01*
X1070750Y495517D01*
X1069200Y495100D01*
X1067650Y495517D01*
X1066410Y496766D01*
X1065790Y498642D01*
Y507600D01*
G01X1060055Y496766D02*
X1058815Y495725D01*
X1057420Y495100D01*
X1056180D01*
X1054940Y495725D01*
X1054010Y496766D01*
X1053545Y498225D01*
X1053855Y499683D01*
X1054630Y500933D01*
X1056025Y501767D01*
X1057885Y502183D01*
X1058970Y503017D01*
X1059435Y504475D01*
X1059125Y505933D01*
X1058350Y506975D01*
X1057265Y507600D01*
X1056180D01*
X1055095Y507183D01*
X1054165Y506142D01*
G01X1044400Y507600D02*
Y495100D01*
G01X1047965Y507600D02*
X1040835D01*
G01X1022855Y496766D02*
X1021615Y495725D01*
X1020220Y495100D01*
X1018980D01*
X1017740Y495725D01*
X1016810Y496766D01*
X1016345Y498225D01*
X1016655Y499683D01*
X1017430Y500933D01*
X1018825Y501767D01*
X1020685Y502183D01*
X1021770Y503017D01*
X1022235Y504475D01*
X1021925Y505933D01*
X1021150Y506975D01*
X1020065Y507600D01*
X1018980D01*
X1017895Y507183D01*
X1016965Y506142D01*
G01X1007200Y495100D02*
X1008440Y495308D01*
X1009525Y496141D01*
X1010455Y497392D01*
X1011075Y498850D01*
X1011385Y500517D01*
Y502183D01*
X1011075Y503850D01*
X1010455Y505308D01*
X1009525Y506558D01*
X1008440Y507392D01*
X1007200Y507600D01*
X1005960Y507392D01*
X1004875Y506558D01*
X1003945Y505308D01*
X1003325Y503850D01*
X1003015Y502183D01*
Y500517D01*
X1003325Y498850D01*
X1003945Y497392D01*
X1004875Y496141D01*
X1005960Y495308D01*
X1007200Y495100D01*
G01X997900Y507600D02*
Y495100D01*
X991700D01*
G01X985810D02*
Y507600D01*
X982710D01*
X981470Y506975D01*
X980540Y506142D01*
X979765Y504892D01*
X979145Y503433D01*
X978990Y501350D01*
X979145Y499267D01*
X979765Y497808D01*
X980540Y496558D01*
X981470Y495725D01*
X982710Y495100D01*
X985810D01*
G01X966900D02*
X973100D01*
Y507600D01*
X966900D01*
G01X969380Y501558D02*
X973100D01*
G01X960700Y495100D02*
Y507600D01*
X956825D01*
X955585Y506975D01*
X954810Y506142D01*
X954500Y504475D01*
X954810Y502808D01*
X955740Y501767D01*
X956825Y501142D01*
X960700D01*
G01X956825D02*
X954500Y495100D01*
G01X936055Y496766D02*
X934815Y495725D01*
X933420Y495100D01*
X932180D01*
X930940Y495725D01*
X930010Y496766D01*
X929545Y498225D01*
X929855Y499683D01*
X930630Y500933D01*
X932025Y501767D01*
X933885Y502183D01*
X934970Y503017D01*
X935435Y504475D01*
X935125Y505933D01*
X934350Y506975D01*
X933265Y507600D01*
X932180D01*
X931095Y507183D01*
X930165Y506142D01*
G01X923655Y495100D02*
Y507600D01*
G01X917145D02*
Y495100D01*
G01Y501350D02*
X923655D01*
G01X908000Y495100D02*
X909240Y495308D01*
X910325Y496141D01*
X911255Y497392D01*
X911875Y498850D01*
X912185Y500517D01*
Y502183D01*
X911875Y503850D01*
X911255Y505308D01*
X910325Y506558D01*
X909240Y507392D01*
X908000Y507600D01*
X906760Y507392D01*
X905675Y506558D01*
X904745Y505308D01*
X904125Y503850D01*
X903815Y502183D01*
Y500517D01*
X904125Y498850D01*
X904745Y497392D01*
X905675Y496141D01*
X906760Y495308D01*
X908000Y495100D01*
G01X898700D02*
Y507600D01*
X894825D01*
X893585Y506975D01*
X892810Y506142D01*
X892500Y504475D01*
X892810Y502808D01*
X893740Y501767D01*
X894825Y501142D01*
X898700D01*
G01X894825D02*
X892500Y495100D01*
G01X883200Y507600D02*
Y495100D01*
G01X886765Y507600D02*
X879635D01*
G01X858400D02*
Y495100D01*
G01X861965Y507600D02*
X854835D01*
G01X849255Y495100D02*
Y507600D01*
G01X842745D02*
Y495100D01*
G01Y501350D02*
X849255D01*
G01X830500Y495100D02*
X836700D01*
Y507600D01*
X830500D01*
G01X832980Y501558D02*
X836700D01*
G01X812830Y495100D02*
Y507600D01*
X808800Y497183D01*
X804770Y507600D01*
Y495100D01*
G01X798260Y507600D02*
X794540D01*
G01X796400D02*
Y495100D01*
G01X798260D02*
X794540D01*
G01X787410D02*
Y507600D01*
X784310D01*
X783070Y506975D01*
X782140Y506142D01*
X781365Y504892D01*
X780745Y503433D01*
X780590Y501350D01*
X780745Y499267D01*
X781365Y497808D01*
X782140Y496558D01*
X783070Y495725D01*
X784310Y495100D01*
X787410D01*
G01X775010D02*
Y507600D01*
X771910D01*
X770670Y506975D01*
X769740Y506142D01*
X768965Y504892D01*
X768345Y503433D01*
X768190Y501350D01*
X768345Y499267D01*
X768965Y497808D01*
X769740Y496558D01*
X770670Y495725D01*
X771910Y495100D01*
X775010D01*
G01X762300Y507600D02*
Y495100D01*
X756100D01*
G01X743700D02*
X749900D01*
Y507600D01*
X743700D01*
G01X746180Y501558D02*
X749900D01*
G01X725100Y495100D02*
Y507600D01*
X721380D01*
X720140Y506975D01*
X719210Y505517D01*
X718900Y503850D01*
X719210Y502183D01*
X719985Y500933D01*
X721380Y500308D01*
X725100D01*
G01X711460Y507600D02*
X707740D01*
G01X709600D02*
Y495100D01*
G01X711460D02*
X707740D01*
G01X700765D02*
Y507600D01*
X693635Y495100D01*
Y507600D01*
G01X672400Y495100D02*
X673640Y495308D01*
X674725Y496141D01*
X675655Y497392D01*
X676275Y498850D01*
X676585Y500517D01*
Y502183D01*
X676275Y503850D01*
X675655Y505308D01*
X674725Y506558D01*
X673640Y507392D01*
X672400Y507600D01*
X671160Y507392D01*
X670075Y506558D01*
X669145Y505308D01*
X668525Y503850D01*
X668215Y502183D01*
Y500517D01*
X668525Y498850D01*
X669145Y497392D01*
X670075Y496141D01*
X671160Y495308D01*
X672400Y495100D01*
G01X662945D02*
Y507600D01*
X657055D01*
G01X659225Y501558D02*
X662945D01*
G01X638300Y497600D02*
X637525Y496350D01*
X636595Y495517D01*
X635510Y495100D01*
X634270Y495517D01*
X633340Y496350D01*
X632410Y497600D01*
X632100Y499267D01*
Y507600D01*
G01X625900Y495100D02*
Y507600D01*
X622180D01*
X620940Y506975D01*
X620010Y505517D01*
X619700Y503850D01*
X620010Y502183D01*
X620785Y500933D01*
X622180Y500308D01*
X625900D01*
G01X610400Y495100D02*
Y507600D01*
X612260Y505100D01*
G01Y495100D02*
X608540D01*
G01X585600Y507600D02*
Y495100D01*
G01X589165Y507600D02*
X582035D01*
G01X573200Y495100D02*
X574440Y495308D01*
X575525Y496141D01*
X576455Y497392D01*
X577075Y498850D01*
X577385Y500517D01*
Y502183D01*
X577075Y503850D01*
X576455Y505308D01*
X575525Y506558D01*
X574440Y507392D01*
X573200Y507600D01*
X571960Y507392D01*
X570875Y506558D01*
X569945Y505308D01*
X569325Y503850D01*
X569015Y502183D01*
Y500517D01*
X569325Y498850D01*
X569945Y497392D01*
X570875Y496141D01*
X571960Y495308D01*
X573200Y495100D01*
G01X551500D02*
Y507600D01*
X547780D01*
X546540Y506975D01*
X545610Y505517D01*
X545300Y503850D01*
X545610Y502183D01*
X546385Y500933D01*
X547780Y500308D01*
X551500D01*
G01X536000Y495100D02*
X537240Y495308D01*
X538325Y496141D01*
X539255Y497392D01*
X539875Y498850D01*
X540185Y500517D01*
Y502183D01*
X539875Y503850D01*
X539255Y505308D01*
X538325Y506558D01*
X537240Y507392D01*
X536000Y507600D01*
X534760Y507392D01*
X533675Y506558D01*
X532745Y505308D01*
X532125Y503850D01*
X531815Y502183D01*
Y500517D01*
X532125Y498850D01*
X532745Y497392D01*
X533675Y496141D01*
X534760Y495308D01*
X536000Y495100D01*
G01X526855Y496766D02*
X525615Y495725D01*
X524220Y495100D01*
X522980D01*
X521740Y495725D01*
X520810Y496766D01*
X520345Y498225D01*
X520655Y499683D01*
X521430Y500933D01*
X522825Y501767D01*
X524685Y502183D01*
X525770Y503017D01*
X526235Y504475D01*
X525925Y505933D01*
X525150Y506975D01*
X524065Y507600D01*
X522980D01*
X521895Y507183D01*
X520965Y506142D01*
G01X513060Y507600D02*
X509340D01*
G01X511200D02*
Y495100D01*
G01X513060D02*
X509340D01*
G01X498800Y507600D02*
Y495100D01*
G01X502365Y507600D02*
X495235D01*
G01X488260D02*
X484540D01*
G01X486400D02*
Y495100D01*
G01X488260D02*
X484540D01*
G01X474000D02*
X475240Y495308D01*
X476325Y496141D01*
X477255Y497392D01*
X477875Y498850D01*
X478185Y500517D01*
Y502183D01*
X477875Y503850D01*
X477255Y505308D01*
X476325Y506558D01*
X475240Y507392D01*
X474000Y507600D01*
X472760Y507392D01*
X471675Y506558D01*
X470745Y505308D01*
X470125Y503850D01*
X469815Y502183D01*
Y500517D01*
X470125Y498850D01*
X470745Y497392D01*
X471675Y496141D01*
X472760Y495308D01*
X474000Y495100D01*
G01X465165D02*
Y507600D01*
X458035Y495100D01*
Y507600D01*
G01X438195Y504892D02*
X437420Y507600D01*
G01X435405D02*
X436180Y504892D01*
G01X424400Y507600D02*
X425640Y507183D01*
X426570Y506142D01*
X427190Y504892D01*
X427655Y503225D01*
X427810Y501350D01*
X427655Y499475D01*
X427190Y497808D01*
X426570Y496558D01*
X425640Y495517D01*
X424400Y495100D01*
X423160Y495517D01*
X422230Y496558D01*
X421610Y497808D01*
X421145Y499475D01*
X420990Y501350D01*
X421145Y503225D01*
X421610Y504892D01*
X422230Y506142D01*
X423160Y507183D01*
X424400Y507600D01*
G01X413395Y504892D02*
X412620Y507600D01*
G01X410605D02*
X411380Y504892D01*
G01X399600Y494683D02*
X399910Y494892D01*
Y495308D01*
X399600Y495517D01*
X399290Y495308D01*
Y494892D01*
X399600Y494683D01*
G01X470384Y-352211D02*
X468494Y-349711D01*
X466289Y-348461D01*
X463769Y-348044D01*
X460619Y-348877D01*
X458414Y-350961D01*
X457784Y-353460D01*
X458099Y-355961D01*
X459359Y-358044D01*
X465659Y-362211D01*
X468494Y-365127D01*
X470384Y-369295D01*
X471014Y-373044D01*
X457784D01*
G01X465000Y-17500D02*
Y128001D01*
X491180Y127989D01*
X531476Y128000D01*
Y121799D01*
G03X534823I1673J0D01*
G01Y128000D01*
X550177D01*
Y121799D01*
G03X553524I1673J0D01*
G01Y128000D01*
X565000D01*
Y-17500D01*
X465000D01*
G01Y8000D02*
G03X455000I-5000J0D01*
G01Y28000D02*
G03X465000I5000J0D01*
G01Y100500D02*
G03X455000I-5000J0D01*
G01Y120500D02*
G03X465000I5000J0D01*
G01X470384Y1292789D02*
X468494Y1295289D01*
X466289Y1296539D01*
X463769Y1296956D01*
X460619Y1296123D01*
X458414Y1294039D01*
X457784Y1291540D01*
X458099Y1289039D01*
X459359Y1286956D01*
X465659Y1282789D01*
X468494Y1279873D01*
X470384Y1275705D01*
X471014Y1271956D01*
X457784D01*
G01X575000Y8000D02*
G03X565000I-5000J0D01*
G01Y28000D02*
G03X575000I5000J0D01*
G01Y100500D02*
G03X565000I-5000J0D01*
G01Y120500D02*
G03X575000I5000J0D01*
G01Y-17500D02*
Y45000D01*
Y128000D01*
X605000D01*
Y-17500D01*
X575000D01*
G01X738899Y-355044D02*
X732899D01*
G01D02*
X739399Y-342544D01*
G01X737899Y-356044D02*
X731399D01*
G01D02*
X739399Y-341044D01*
G01X736899Y-357044D02*
X729899D01*
G01D02*
X739399Y-339544D01*
G01X735899Y-358044D02*
X728399D01*
G01D02*
X739399Y-338044D01*
G01X729899Y1280956D02*
X736899D01*
G01X731399Y1279956D02*
X737899D01*
G01X732899Y1278956D02*
X738899D01*
G01X728399Y1281956D02*
X735899D01*
G01X739399Y1261956D02*
X728399Y1281956D01*
G01X739399Y1263456D02*
X729899Y1280956D01*
G01X739399Y1264956D02*
X731399Y1279956D01*
G01X739399Y1266456D02*
X732899Y1278956D01*
G01X739899Y-355044D02*
Y-375044D01*
G01D02*
X738899D01*
G01X740899Y-356044D02*
Y-376044D01*
G01D02*
X737899D01*
G01X741899Y-357044D02*
Y-377044D01*
G01D02*
X736899D01*
G01X742899Y-358044D02*
Y-378044D01*
G01D02*
X735899D01*
G01X738899Y-375044D02*
Y-355044D01*
G01X737899Y-376044D02*
Y-356044D01*
G01X736899Y-377044D02*
Y-357044D01*
G01X735899Y-378044D02*
Y-358044D01*
G01X739399Y-345544D02*
X742899Y-353044D01*
G01D02*
X735899D01*
G01X739399Y-344044D02*
X744399Y-354044D01*
G01D02*
X734399D01*
G01X739399Y-342544D02*
X745899Y-355044D01*
G01D02*
X739899D01*
G01X739399Y-341044D02*
X747399Y-356044D01*
G01D02*
X740899D01*
G01X739399Y-339544D02*
X748899Y-357044D01*
G01D02*
X741899D01*
G01X735899Y-353044D02*
X739399Y-345544D01*
G01X734399Y-354044D02*
X739399Y-344044D01*
G01Y-338044D02*
X750399Y-358044D01*
G01D02*
X742899D01*
G01X739399Y-348544D02*
X740399Y-351044D01*
G01D02*
X738399D01*
G01X739399Y-347044D02*
X741399Y-352044D01*
G01D02*
X737399D01*
G01X738399Y-351044D02*
X739399Y-348544D01*
G01X737399Y-352044D02*
X739399Y-347044D01*
G01Y-349544D02*
Y-350544D01*
G01X748899Y1280956D02*
X739399Y1263456D01*
G01X747399Y1279956D02*
X739399Y1264956D01*
G01X745899Y1278956D02*
X739399Y1266456D01*
G01X744399Y1277956D02*
X739399Y1267956D01*
G01D02*
X734399Y1277956D01*
G01X750399Y1281956D02*
X739399Y1261956D01*
G01X741899Y1300956D02*
Y1280956D01*
G01D02*
X748899D01*
G01X740899Y1299956D02*
Y1279956D01*
G01D02*
X747399D01*
G01X739899Y1298956D02*
Y1278956D01*
G01D02*
X745899D01*
G01X734399Y1277956D02*
X744399D01*
G01X735899Y1276956D02*
X742899D01*
G01X737399Y1275956D02*
X741399D01*
G01X740399Y1274956D02*
X739399Y1272456D01*
G01X738399Y1274956D02*
X740399D01*
G01X742899Y1301956D02*
Y1281956D01*
G01X736899Y1280956D02*
Y1300956D01*
G01X737899Y1279956D02*
Y1299956D01*
G01X738899Y1278956D02*
Y1298956D01*
G01X739399Y1272456D02*
X738399Y1274956D01*
G01X739399Y1273456D02*
Y1274456D01*
G01X735899Y1281956D02*
Y1301956D01*
G01X742899Y1276956D02*
X739399Y1269456D01*
G01X741399Y1275956D02*
X739399Y1270956D01*
G01Y1269456D02*
X735899Y1276956D01*
G01X739399Y1270956D02*
X737399Y1275956D01*
G01X742899Y1281956D02*
X750399D01*
G01X736899Y1300956D02*
X741899D01*
G01X737899Y1299956D02*
X740899D01*
G01X738899Y1298956D02*
X739899D01*
G01X735899Y1301956D02*
X742899D01*
G01X1158899Y-305961D02*
X1160399Y-304961D01*
X1162149Y-304294D01*
X1164149D01*
X1166399Y-305294D01*
X1168149Y-306961D01*
X1169399Y-308961D01*
X1170399Y-312294D01*
X1170649Y-315294D01*
X1170149Y-318294D01*
X1169399Y-320294D01*
X1167899Y-322294D01*
X1166149Y-323627D01*
X1164399Y-324294D01*
X1162649D01*
X1160899Y-323627D01*
X1159399Y-322628D01*
X1158149Y-321295D01*
G01X1149899Y-304294D02*
Y-318627D01*
X1148899Y-321628D01*
X1146899Y-323627D01*
X1144399Y-324294D01*
X1141899Y-323627D01*
X1139899Y-321628D01*
X1138899Y-318627D01*
Y-304294D01*
G01X1129649Y-321628D02*
X1127649Y-323294D01*
X1125399Y-324294D01*
X1123399D01*
X1121399Y-323294D01*
X1119899Y-321628D01*
X1119149Y-319294D01*
X1119649Y-316961D01*
X1120899Y-314961D01*
X1123149Y-313627D01*
X1126149Y-312961D01*
X1127899Y-311628D01*
X1128649Y-309294D01*
X1128149Y-306961D01*
X1126899Y-305294D01*
X1125149Y-304294D01*
X1123399D01*
X1121649Y-304961D01*
X1120149Y-306627D01*
G01X1104399Y-304294D02*
Y-324294D01*
G01X1110149Y-304294D02*
X1098649D01*
G01X1084399Y-324294D02*
X1086399Y-323961D01*
X1088149Y-322628D01*
X1089649Y-320628D01*
X1090649Y-318294D01*
X1091149Y-315627D01*
Y-312961D01*
X1090649Y-310294D01*
X1089649Y-307960D01*
X1088149Y-305961D01*
X1086399Y-304627D01*
X1084399Y-304294D01*
X1082399Y-304627D01*
X1080649Y-305961D01*
X1079149Y-307960D01*
X1078149Y-310294D01*
X1077649Y-312961D01*
Y-315627D01*
X1078149Y-318294D01*
X1079149Y-320628D01*
X1080649Y-322628D01*
X1082399Y-323961D01*
X1084399Y-324294D01*
G01X1070899D02*
Y-304294D01*
X1064399Y-320961D01*
X1057899Y-304294D01*
Y-324294D01*
G01X1039399D02*
X1049399D01*
Y-304294D01*
X1039399D01*
G01X1043399Y-313960D02*
X1049399D01*
G01X1029399Y-324294D02*
Y-304294D01*
X1023149D01*
X1021149Y-305294D01*
X1019899Y-306627D01*
X1019399Y-309294D01*
X1019899Y-311961D01*
X1021399Y-313627D01*
X1023149Y-314628D01*
X1029399D01*
G01X1023149D02*
X1019399Y-324294D01*
G01X979399D02*
X989399D01*
Y-304294D01*
X979399D01*
G01X983399Y-313960D02*
X989399D01*
G01X970649Y-304294D02*
X964399Y-324294D01*
X958149Y-304294D01*
G01X950649Y-324294D02*
X944399Y-304294D01*
X938149Y-324294D01*
G01X940399Y-317294D02*
X948399D01*
G01X929399Y-304294D02*
Y-324294D01*
X919399D01*
G01X909899Y-304294D02*
Y-318627D01*
X908899Y-321628D01*
X906899Y-323627D01*
X904399Y-324294D01*
X901899Y-323627D01*
X899899Y-321628D01*
X898899Y-318627D01*
Y-304294D01*
G01X890649Y-324294D02*
X884399Y-304294D01*
X878149Y-324294D01*
G01X880399Y-317294D02*
X888399D01*
G01X864399Y-304294D02*
Y-324294D01*
G01X870149Y-304294D02*
X858649D01*
G01X847399D02*
X841399D01*
G01X844399D02*
Y-324294D01*
G01X847399D02*
X841399D01*
G01X824399D02*
X826399Y-323961D01*
X828149Y-322628D01*
X829649Y-320628D01*
X830649Y-318294D01*
X831149Y-315627D01*
Y-312961D01*
X830649Y-310294D01*
X829649Y-307960D01*
X828149Y-305961D01*
X826399Y-304627D01*
X824399Y-304294D01*
X822399Y-304627D01*
X820649Y-305961D01*
X819149Y-307960D01*
X818149Y-310294D01*
X817649Y-312961D01*
Y-315627D01*
X818149Y-318294D01*
X819149Y-320628D01*
X820649Y-322628D01*
X822399Y-323961D01*
X824399Y-324294D01*
G01X810149D02*
Y-304294D01*
X798649Y-324294D01*
Y-304294D01*
G01X769149D02*
X759649D01*
X769149Y-324294D01*
X759649D01*
G01X1021329Y-368044D02*
X1019439Y-370961D01*
X1016919Y-372627D01*
X1014084Y-373044D01*
X1011564Y-372627D01*
X1009044Y-370545D01*
X1007469Y-368044D01*
X1007154Y-365544D01*
X1007784Y-362628D01*
X1009989Y-360544D01*
X1012194Y-359710D01*
X1015029D01*
G01X1012194D02*
X1010304Y-358461D01*
X1008729Y-356378D01*
X1008099Y-353878D01*
X1008729Y-351377D01*
X1010304Y-349294D01*
X1013139Y-348044D01*
X1015974Y-348461D01*
X1018809Y-350128D01*
G01X1021329Y1276956D02*
X1019439Y1274039D01*
X1016919Y1272373D01*
X1014084Y1271956D01*
X1011564Y1272373D01*
X1009044Y1274455D01*
X1007469Y1276956D01*
X1007154Y1279456D01*
X1007784Y1282372D01*
X1009989Y1284456D01*
X1012194Y1285290D01*
X1015029D01*
G01X1012194D02*
X1010304Y1286539D01*
X1008729Y1288622D01*
X1008099Y1291122D01*
X1008729Y1293623D01*
X1010304Y1295706D01*
X1013139Y1296956D01*
X1015974Y1296539D01*
X1018809Y1294872D01*
G01X1289399Y-368044D02*
Y-338044D01*
G01Y1291956D02*
Y1261956D01*
G01X1560619Y-373044D02*
Y-348044D01*
X1572274Y-365961D01*
X1556524D01*
G01X1560619Y1271956D02*
Y1296956D01*
X1572274Y1279039D01*
X1556524D01*
G01X1819399Y36956D02*
X1789399D01*
G01Y461956D02*
X1809399Y472956D01*
G01X1790899Y461956D02*
X1808399Y471456D01*
G01X1809399Y450956D02*
X1789399Y461956D01*
G01X1808399Y452456D02*
X1790899Y461956D01*
G01X1789399Y886956D02*
X1819399D01*
G01X1817274Y-188044D02*
X1809399Y-163044D01*
X1801524Y-188044D01*
G01X1804359Y-179294D02*
X1814439D01*
G01X1806879Y250290D02*
X1805619Y251539D01*
X1804674Y253622D01*
X1804044Y256540D01*
X1804674Y259039D01*
X1805934Y260706D01*
X1808139Y261956D01*
X1816644D01*
Y236956D01*
X1806249D01*
X1804044Y238622D01*
X1802784Y241123D01*
X1802154Y244039D01*
X1802784Y246955D01*
X1804674Y249456D01*
X1806879Y250290D01*
X1816644D01*
G01X1807399Y460456D02*
Y453956D01*
G01D02*
X1792399Y461956D01*
G01X1806399Y461456D02*
Y455456D01*
G01D02*
X1793899Y461956D01*
G01X1805399Y456956D02*
X1795399Y461956D01*
G01X1805399Y466956D02*
Y456956D01*
G01X1807399Y463456D02*
X1827399D01*
G01X1806399Y462456D02*
X1826399D01*
G01X1792399Y461956D02*
X1807399Y469956D01*
G01D02*
Y463456D01*
G01X1793899Y461956D02*
X1806399Y468456D01*
G01D02*
Y462456D01*
G01X1795399Y461956D02*
X1805399Y466956D01*
G01X1796899Y461956D02*
X1804399Y465456D01*
G01X1798399Y461956D02*
X1803399Y463956D01*
G01X1799899Y461956D02*
X1802399Y462956D01*
G01X1800899Y461956D02*
X1801899D01*
G01X1827399Y460456D02*
X1807399D01*
G01X1826399Y461456D02*
X1806399D01*
G01X1804399Y458456D02*
X1796899Y461956D01*
G01X1804399Y465456D02*
Y458456D01*
G01X1803399Y459956D02*
X1798399Y461956D01*
G01X1803399Y463956D02*
Y459956D01*
G01X1802399Y460956D02*
X1799899Y461956D01*
G01X1802399Y462956D02*
Y460956D01*
G01X1802469Y684872D02*
X1804359Y686123D01*
X1806564Y686956D01*
X1809084D01*
X1811919Y685706D01*
X1814124Y683623D01*
X1815699Y681122D01*
X1816959Y676956D01*
X1817274Y673206D01*
X1816644Y669456D01*
X1815699Y666956D01*
X1813809Y664455D01*
X1811604Y662789D01*
X1809399Y661956D01*
X1807194D01*
X1804989Y662789D01*
X1803099Y664039D01*
X1801524Y665705D01*
G01X1816329Y1086956D02*
Y1111956D01*
X1810029D01*
X1807509Y1110706D01*
X1805619Y1109039D01*
X1804044Y1106540D01*
X1802784Y1103622D01*
X1802469Y1099456D01*
X1802784Y1095289D01*
X1804044Y1092372D01*
X1805619Y1089872D01*
X1807509Y1088206D01*
X1810029Y1086956D01*
X1816329D01*
G01X1809399Y458456D02*
Y450956D01*
G01X1808399Y459456D02*
Y452456D01*
G01X1809399Y465456D02*
X1829399D01*
G01X1808399Y464456D02*
X1828399D01*
G01X1809399Y472956D02*
Y465456D01*
G01X1808399Y471456D02*
Y464456D01*
G01X1829399Y458456D02*
X1809399D01*
G01X1828399Y459456D02*
X1808399D01*
G01X1829399Y465456D02*
Y458456D01*
G01X1828399Y464456D02*
Y459456D01*
G01X1827399Y463456D02*
Y460456D01*
G01X1826399Y462456D02*
Y461456D01*
G54D12*
G01X38500Y24000D02*
Y27100D01*
X38960Y26480D01*
G01Y24000D02*
X38040D01*
G01X31500Y27100D02*
X31807Y26997D01*
X32037Y26738D01*
X32190Y26428D01*
X32305Y26015D01*
X32343Y25550D01*
X32305Y25085D01*
X32190Y24672D01*
X32037Y24362D01*
X31807Y24103D01*
X31500Y24000D01*
X31193Y24103D01*
X30963Y24362D01*
X30810Y24672D01*
X30695Y25085D01*
X30657Y25550D01*
X30695Y26015D01*
X30810Y26428D01*
X30963Y26738D01*
X31193Y26997D01*
X31500Y27100D01*
G01X38500Y36500D02*
Y39600D01*
X38960Y38980D01*
G01Y36500D02*
X38040D01*
G01X31500Y39600D02*
X31807Y39497D01*
X32037Y39238D01*
X32190Y38928D01*
X32305Y38515D01*
X32343Y38050D01*
X32305Y37585D01*
X32190Y37172D01*
X32037Y36862D01*
X31807Y36603D01*
X31500Y36500D01*
X31193Y36603D01*
X30963Y36862D01*
X30810Y37172D01*
X30695Y37585D01*
X30657Y38050D01*
X30695Y38515D01*
X30810Y38928D01*
X30963Y39238D01*
X31193Y39497D01*
X31500Y39600D01*
G01X42342Y42743D02*
X42497Y42513D01*
X42600Y42245D01*
Y41938D01*
X42445Y41593D01*
X42187Y41325D01*
X41877Y41133D01*
X41360Y40980D01*
X40895Y40942D01*
X40430Y41018D01*
X40120Y41133D01*
X39810Y41363D01*
X39603Y41632D01*
X39500Y41900D01*
Y42168D01*
X39603Y42437D01*
X39758Y42667D01*
X39965Y42858D01*
G01X39500Y45000D02*
X42600D01*
X41980Y44540D01*
G01X39500D02*
Y45460D01*
G01Y48560D02*
X42600D01*
X40378Y47142D01*
Y49058D01*
G01X34992Y57290D02*
Y55068D01*
X34839Y54603D01*
X34532Y54293D01*
X34149Y54190D01*
X33766Y54293D01*
X33459Y54603D01*
X33306Y55068D01*
Y57290D01*
G01X31777Y56773D02*
X31547Y57083D01*
X31279Y57238D01*
X30972Y57290D01*
X30589Y57187D01*
X30321Y56928D01*
X30244Y56618D01*
X30282Y56308D01*
X30436Y56050D01*
X31202Y55533D01*
X31547Y55172D01*
X31777Y54655D01*
X31854Y54190D01*
X30244D01*
G01X61156Y14132D02*
X61386Y14287D01*
X61654Y14390D01*
X61961D01*
X62306Y14235D01*
X62574Y13977D01*
X62766Y13667D01*
X62919Y13150D01*
X62957Y12685D01*
X62881Y12220D01*
X62766Y11910D01*
X62536Y11600D01*
X62267Y11393D01*
X61999Y11290D01*
X61731D01*
X61462Y11393D01*
X61232Y11548D01*
X61041Y11755D01*
G01X59627Y13873D02*
X59397Y14183D01*
X59129Y14338D01*
X58822Y14390D01*
X58439Y14287D01*
X58171Y14028D01*
X58094Y13718D01*
X58132Y13408D01*
X58286Y13150D01*
X59052Y12633D01*
X59397Y12272D01*
X59627Y11755D01*
X59704Y11290D01*
X58094D01*
G01X56527Y13873D02*
X56297Y14183D01*
X56029Y14338D01*
X55722Y14390D01*
X55339Y14287D01*
X55071Y14028D01*
X54994Y13718D01*
X55032Y13408D01*
X55186Y13150D01*
X55952Y12633D01*
X56297Y12272D01*
X56527Y11755D01*
X56604Y11290D01*
X54994D01*
G01X54942Y22943D02*
X55097Y22713D01*
X55200Y22445D01*
Y22138D01*
X55045Y21793D01*
X54787Y21525D01*
X54477Y21333D01*
X53960Y21180D01*
X53495Y21142D01*
X53030Y21218D01*
X52720Y21333D01*
X52410Y21563D01*
X52203Y21832D01*
X52100Y22100D01*
Y22368D01*
X52203Y22637D01*
X52358Y22867D01*
X52565Y23058D01*
G01X54683Y24472D02*
X54993Y24702D01*
X55148Y24970D01*
X55200Y25277D01*
X55097Y25660D01*
X54838Y25928D01*
X54528Y26005D01*
X54218Y25967D01*
X53960Y25813D01*
X53443Y25047D01*
X53082Y24702D01*
X52565Y24472D01*
X52100Y24395D01*
Y26005D01*
G01Y28300D02*
X55200D01*
X54580Y27840D01*
G01X52100D02*
Y28760D01*
G01X41320Y15833D02*
X41010Y16025D01*
X40803Y16255D01*
X40700Y16523D01*
X40803Y16830D01*
X41010Y17060D01*
X41320Y17290D01*
X41733Y17367D01*
X43800D01*
G01X40700Y18933D02*
X43800D01*
Y19853D01*
X43645Y20160D01*
X43283Y20390D01*
X42870Y20467D01*
X42457Y20390D01*
X42147Y20198D01*
X41992Y19853D01*
Y18933D01*
G01X40700Y22800D02*
X43800D01*
X43180Y22340D01*
G01X40700D02*
Y23260D01*
G01X41320Y28633D02*
X41010Y28825D01*
X40803Y29055D01*
X40700Y29323D01*
X40803Y29630D01*
X41010Y29860D01*
X41320Y30090D01*
X41733Y30167D01*
X43800D01*
G01X40700Y31733D02*
X43800D01*
Y32653D01*
X43645Y32960D01*
X43283Y33190D01*
X42870Y33267D01*
X42457Y33190D01*
X42147Y32998D01*
X41992Y32653D01*
Y31733D01*
G01X43283Y34872D02*
X43593Y35102D01*
X43748Y35370D01*
X43800Y35677D01*
X43697Y36060D01*
X43438Y36328D01*
X43128Y36405D01*
X42818Y36367D01*
X42560Y36213D01*
X42043Y35447D01*
X41682Y35102D01*
X41165Y34872D01*
X40700Y34795D01*
Y36405D01*
G01X58817Y32500D02*
Y35600D01*
X57858D01*
X57552Y35445D01*
X57360Y35238D01*
X57283Y34825D01*
X57360Y34412D01*
X57590Y34153D01*
X57858Y33998D01*
X58817D01*
G01X57858D02*
X57283Y32500D01*
G01X55793Y32965D02*
X55563Y32707D01*
X55295Y32552D01*
X54950Y32500D01*
X54605Y32603D01*
X54337Y32810D01*
X54145Y33172D01*
X54107Y33585D01*
X54183Y33998D01*
X54375Y34257D01*
X54643Y34463D01*
X54912Y34515D01*
X55180Y34463D01*
X55525Y34257D01*
X55410Y35600D01*
X54375D01*
G01X56017Y38000D02*
Y41100D01*
X55058D01*
X54752Y40945D01*
X54560Y40738D01*
X54483Y40325D01*
X54560Y39912D01*
X54790Y39653D01*
X55058Y39498D01*
X56017D01*
G01X55058D02*
X54483Y38000D01*
G01X52878Y40583D02*
X52648Y40893D01*
X52380Y41048D01*
X52073Y41100D01*
X51690Y40997D01*
X51422Y40738D01*
X51345Y40428D01*
X51383Y40118D01*
X51537Y39860D01*
X52303Y39343D01*
X52648Y38982D01*
X52878Y38465D01*
X52955Y38000D01*
X51345D01*
G01X44399Y62473D02*
X47499D01*
Y63432D01*
X47344Y63738D01*
X47137Y63930D01*
X46724Y64007D01*
X46311Y63930D01*
X46052Y63700D01*
X45897Y63432D01*
Y62473D01*
G01Y63432D02*
X44399Y64007D01*
G01Y66340D02*
X47499D01*
X46879Y65880D01*
G01X44399D02*
Y66800D01*
G01X54741Y65083D02*
X54896Y64853D01*
X54999Y64585D01*
Y64278D01*
X54844Y63933D01*
X54586Y63665D01*
X54276Y63473D01*
X53759Y63320D01*
X53294Y63282D01*
X52829Y63358D01*
X52519Y63473D01*
X52209Y63703D01*
X52002Y63972D01*
X51899Y64240D01*
Y64508D01*
X52002Y64777D01*
X52157Y65007D01*
X52364Y65198D01*
G01Y66497D02*
X52106Y66727D01*
X51951Y66995D01*
X51899Y67340D01*
X52002Y67685D01*
X52209Y67953D01*
X52571Y68145D01*
X52984Y68183D01*
X53397Y68107D01*
X53656Y67915D01*
X53862Y67647D01*
X53914Y67378D01*
X53862Y67110D01*
X53656Y66765D01*
X54999Y66880D01*
Y67915D01*
G01X71843Y-8046D02*
X73377D01*
Y-4946D01*
X71843D01*
G01X72457Y-6444D02*
X73377D01*
G01X69510Y-8046D02*
Y-4946D01*
X69970Y-5566D01*
G01Y-8046D02*
X69050D01*
G01X74508Y9000D02*
X73550Y12100D01*
X72592Y9000D01*
G01X72937Y10085D02*
X74163D01*
G01X70450Y9000D02*
Y12100D01*
X70910Y11480D01*
G01Y9000D02*
X69990D01*
G01X69242Y22943D02*
X69397Y22713D01*
X69500Y22445D01*
Y22138D01*
X69345Y21793D01*
X69087Y21525D01*
X68777Y21333D01*
X68260Y21180D01*
X67795Y21142D01*
X67330Y21218D01*
X67020Y21333D01*
X66710Y21563D01*
X66503Y21832D01*
X66400Y22100D01*
Y22368D01*
X66503Y22637D01*
X66658Y22867D01*
X66865Y23058D01*
G01X68983Y24472D02*
X69293Y24702D01*
X69448Y24970D01*
X69500Y25277D01*
X69397Y25660D01*
X69138Y25928D01*
X68828Y26005D01*
X68518Y25967D01*
X68260Y25813D01*
X67743Y25047D01*
X67382Y24702D01*
X66865Y24472D01*
X66400Y24395D01*
Y26005D01*
G01X69500Y28300D02*
X69397Y27993D01*
X69138Y27763D01*
X68828Y27610D01*
X68415Y27495D01*
X67950Y27457D01*
X67485Y27495D01*
X67072Y27610D01*
X66762Y27763D01*
X66503Y27993D01*
X66400Y28300D01*
X66503Y28607D01*
X66762Y28837D01*
X67072Y28990D01*
X67485Y29105D01*
X67950Y29143D01*
X68415Y29105D01*
X68828Y28990D01*
X69138Y28837D01*
X69397Y28607D01*
X69500Y28300D01*
G01X72805Y59000D02*
Y62100D01*
G01X71195D02*
Y59000D01*
G01Y60550D02*
X72805D01*
G01X65292Y57390D02*
Y55168D01*
X65139Y54703D01*
X64832Y54393D01*
X64449Y54290D01*
X64066Y54393D01*
X63759Y54703D01*
X63606Y55168D01*
Y57390D01*
G01X62192Y54910D02*
X61962Y54548D01*
X61656Y54342D01*
X61311Y54290D01*
X61004Y54342D01*
X60697Y54600D01*
X60506Y54910D01*
X60467Y55220D01*
X60544Y55582D01*
X60812Y55840D01*
X61081Y55943D01*
X61426D01*
G01X61081D02*
X60851Y56098D01*
X60659Y56357D01*
X60582Y56667D01*
X60659Y56977D01*
X60851Y57235D01*
X61196Y57390D01*
X61541Y57338D01*
X61886Y57132D01*
G01X83999Y2973D02*
X80899D01*
Y4507D01*
G01Y7300D02*
X83999D01*
X81777Y5882D01*
Y7798D01*
G01X83593Y32999D02*
X81371D01*
X80906Y33152D01*
X80596Y33459D01*
X80493Y33842D01*
X80596Y34225D01*
X80906Y34532D01*
X81371Y34685D01*
X83593D01*
G01X80493Y37402D02*
X83593D01*
X81371Y35984D01*
Y37900D01*
G01X88399Y96273D02*
X91499D01*
Y97232D01*
X91344Y97538D01*
X91137Y97730D01*
X90724Y97807D01*
X90311Y97730D01*
X90052Y97500D01*
X89897Y97232D01*
Y96273D01*
G01Y97232D02*
X88399Y97807D01*
G01Y100600D02*
X91499D01*
X89277Y99182D01*
Y101098D01*
G01X95241Y3033D02*
X95396Y2803D01*
X95499Y2535D01*
Y2228D01*
X95344Y1883D01*
X95086Y1615D01*
X94776Y1423D01*
X94259Y1270D01*
X93794Y1232D01*
X93329Y1308D01*
X93019Y1423D01*
X92709Y1653D01*
X92502Y1922D01*
X92399Y2190D01*
Y2458D01*
X92502Y2727D01*
X92657Y2957D01*
X92864Y3148D01*
G01X94982Y4562D02*
X95292Y4792D01*
X95447Y5060D01*
X95499Y5367D01*
X95396Y5750D01*
X95137Y6018D01*
X94827Y6095D01*
X94517Y6057D01*
X94259Y5903D01*
X93742Y5137D01*
X93381Y4792D01*
X92864Y4562D01*
X92399Y4485D01*
Y6095D01*
G01X93019Y7547D02*
X92657Y7777D01*
X92451Y8083D01*
X92399Y8428D01*
X92451Y8735D01*
X92709Y9042D01*
X93019Y9233D01*
X93329Y9272D01*
X93691Y9195D01*
X93949Y8927D01*
X94052Y8658D01*
Y8313D01*
G01Y8658D02*
X94207Y8888D01*
X94466Y9080D01*
X94776Y9157D01*
X95086Y9080D01*
X95344Y8888D01*
X95499Y8543D01*
X95447Y8198D01*
X95241Y7853D01*
G01X98343Y13965D02*
X98113Y13707D01*
X97845Y13552D01*
X97500Y13500D01*
X97155Y13603D01*
X96887Y13810D01*
X96695Y14172D01*
X96657Y14585D01*
X96733Y14998D01*
X96925Y15257D01*
X97193Y15463D01*
X97462Y15515D01*
X97730Y15463D01*
X98075Y15257D01*
X97960Y16600D01*
X96925D01*
G01X105041Y31133D02*
X105196Y30903D01*
X105299Y30635D01*
Y30328D01*
X105144Y29983D01*
X104886Y29715D01*
X104576Y29523D01*
X104059Y29370D01*
X103594Y29332D01*
X103129Y29408D01*
X102819Y29523D01*
X102509Y29753D01*
X102302Y30022D01*
X102199Y30290D01*
Y30558D01*
X102302Y30827D01*
X102457Y31057D01*
X102664Y31248D01*
G01X102199Y33390D02*
X105299D01*
X104679Y32930D01*
G01X102199D02*
Y33850D01*
G01X102561Y35838D02*
X102302Y36107D01*
X102199Y36413D01*
X102302Y36720D01*
X102612Y36988D01*
X103077Y37180D01*
X103542Y37257D01*
X104111D01*
X104576Y37180D01*
X104989Y36988D01*
X105196Y36758D01*
X105299Y36490D01*
X105196Y36183D01*
X104989Y35953D01*
X104679Y35800D01*
X104266Y35723D01*
X103904Y35800D01*
X103542Y35992D01*
X103336Y36222D01*
X103284Y36490D01*
X103387Y36797D01*
X103646Y37027D01*
X104111Y37257D01*
G01X98097Y86310D02*
X97139Y89410D01*
X96181Y86310D01*
G01X96526Y87395D02*
X97752D01*
G01X109941Y87074D02*
Y90174D01*
X109175D01*
X108868Y90019D01*
X108638Y89812D01*
X108446Y89502D01*
X108293Y89141D01*
X108255Y88624D01*
X108293Y88107D01*
X108446Y87746D01*
X108638Y87436D01*
X108868Y87229D01*
X109175Y87074D01*
X109941D01*
G01X105998D02*
Y90174D01*
X106458Y89554D01*
G01Y87074D02*
X105538D01*
G01X108656Y101132D02*
X108886Y101287D01*
X109154Y101390D01*
X109461D01*
X109806Y101235D01*
X110074Y100977D01*
X110266Y100667D01*
X110419Y100150D01*
X110457Y99685D01*
X110381Y99220D01*
X110266Y98910D01*
X110036Y98600D01*
X109767Y98393D01*
X109499Y98290D01*
X109231D01*
X108962Y98393D01*
X108732Y98548D01*
X108541Y98755D01*
G01X106399Y98290D02*
Y101390D01*
X106859Y100770D01*
G01Y98290D02*
X105939D01*
G01X104142Y98755D02*
X103912Y98497D01*
X103644Y98342D01*
X103299Y98290D01*
X102954Y98393D01*
X102686Y98600D01*
X102494Y98962D01*
X102456Y99375D01*
X102532Y99788D01*
X102724Y100047D01*
X102992Y100253D01*
X103261Y100305D01*
X103529Y100253D01*
X103874Y100047D01*
X103759Y101390D01*
X102724D01*
G01X104966Y116534D02*
Y119634D01*
X104046D01*
X103739Y119479D01*
X103509Y119117D01*
X103432Y118704D01*
X103509Y118291D01*
X103701Y117981D01*
X104046Y117826D01*
X104966D01*
G01X101099Y116534D02*
Y119634D01*
X101559Y119014D01*
G01Y116534D02*
X100639D01*
G01X115441Y31433D02*
X115596Y31203D01*
X115699Y30935D01*
Y30628D01*
X115544Y30283D01*
X115286Y30015D01*
X114976Y29823D01*
X114459Y29670D01*
X113994Y29632D01*
X113529Y29708D01*
X113219Y29823D01*
X112909Y30053D01*
X112702Y30322D01*
X112599Y30590D01*
Y30858D01*
X112702Y31127D01*
X112857Y31357D01*
X113064Y31548D01*
G01X112599Y33690D02*
X115699D01*
X115079Y33230D01*
G01X112599D02*
Y34150D01*
G01Y36790D02*
X112651Y37058D01*
X112806Y37365D01*
X113064Y37557D01*
X113426Y37633D01*
X113787Y37557D01*
X114097Y37327D01*
X114252Y36982D01*
Y36598D01*
X114356Y36368D01*
X114614Y36177D01*
X114976Y36100D01*
X115337Y36215D01*
X115596Y36483D01*
X115699Y36790D01*
X115596Y37097D01*
X115337Y37365D01*
X114976Y37480D01*
X114614Y37403D01*
X114356Y37212D01*
X114252Y36982D01*
Y36598D01*
X114097Y36253D01*
X113787Y36023D01*
X113426Y35947D01*
X113064Y36023D01*
X112806Y36215D01*
X112651Y36522D01*
X112599Y36790D01*
G01X111216Y71390D02*
Y68290D01*
X109682D01*
G01X108192Y68910D02*
X107962Y68548D01*
X107656Y68342D01*
X107311Y68290D01*
X107004Y68342D01*
X106697Y68600D01*
X106506Y68910D01*
X106467Y69220D01*
X106544Y69582D01*
X106812Y69840D01*
X107081Y69943D01*
X107426D01*
G01X107081D02*
X106851Y70098D01*
X106659Y70357D01*
X106582Y70667D01*
X106659Y70977D01*
X106851Y71235D01*
X107196Y71390D01*
X107541Y71338D01*
X107886Y71132D01*
G01X119926Y89672D02*
X120156Y89827D01*
X120424Y89930D01*
X120731D01*
X121076Y89775D01*
X121344Y89517D01*
X121536Y89207D01*
X121689Y88690D01*
X121727Y88225D01*
X121651Y87760D01*
X121536Y87450D01*
X121306Y87140D01*
X121037Y86933D01*
X120769Y86830D01*
X120501D01*
X120232Y86933D01*
X120002Y87088D01*
X119811Y87295D01*
M02*
