G04 ================== begin FILE IDENTIFICATION RECORD ==================*
G04 Layout Name:  C:/tmp/20_058924b/worklib/02_058924a_top/physical/08_058924b.brd*
G04 Film Name:    l1_primary*
G04 File Format:  Gerber RS274X*
G04 File Origin:  Cadence Allegro 17.2-S055*
G04 Origin Date:  Thu Sep 10 08:42:16 2020*
G04 *
G04 Layer:  VIA CLASS/TOP*
G04 Layer:  PIN/TOP*
G04 Layer:  ETCH/TOP*
G04 Layer:  PACKAGE GEOMETRY/ETCH_TOP*
G04 Layer:  BOARD GEOMETRY/LYR_TOP*
G04 Layer:  BOARD GEOMETRY/TOOLING_CORNERS*
G04 Layer:  BOARD GEOMETRY/ROOT_NUMBER*
G04 *
G04 Offset:    (0.00 0.00)*
G04 Mirror:    No*
G04 Mode:      Positive*
G04 Rotation:  0*
G04 FullContactRelief:  No*
G04 UndefLineWidth:     8.00*
G04 ================== end FILE IDENTIFICATION RECORD ====================*
%FSLAX25Y25*MOIN*%
%IR0*IPPOS*OFA0.00000B0.00000*MIA0B0*SFA1.00000B1.00000*%
%ADD19R,.037X.221*%
%ADD13C,.02*%
%ADD29R,.03X.167*%
%ADD11C,.04*%
%ADD14C,.016*%
%ADD17R,.059X.156*%
%ADD24R,.093X.093*%
%AMMACRO18*
4,1,8,.05805,.1103,
.05805,-.0827,
-.00305,-.0827,
-.00305,-.1103,
-.05805,-.1103,
-.05805,.0667,
-.00495,.0667,
-.00495,.1103,
.05805,.1103,
0.0*
%
%ADD18MACRO18*%
%ADD25O,.041X.014*%
%AMMACRO10*
4,1,36,0.0,-.02,
.003473,-.019696,
.00684,-.018794,
.01,-.017321,
.012856,-.015321,
.015321,-.012856,
.017321,-.01,
.018794,-.00684,
.019696,-.003473,
.02,0.0,
.019696,.003473,
.018794,.00684,
.017321,.01,
.015321,.012856,
.012856,.015321,
.01,.017321,
.00684,.018794,
.003473,.019696,
0.0,.02,
-.003473,.019696,
-.00684,.018794,
-.01,.017321,
-.012856,.015321,
-.015321,.012856,
-.017321,.01,
-.018794,.00684,
-.019696,.003473,
-.02,0.0,
-.019696,-.003473,
-.018794,-.00684,
-.017321,-.01,
-.015321,-.012856,
-.012856,-.015321,
-.01,-.017321,
-.00684,-.018794,
-.003473,-.019696,
0.0,-.02,
0.0*
%
%ADD10MACRO10*%
%ADD22O,.014X.041*%
%ADD34R,.024X.022*%
%ADD23R,.016X.012*%
%ADD31R,.022X.024*%
%ADD27R,.04X.025*%
%ADD33R,.031X.035*%
%ADD32O,.044X.071*%
%ADD16R,.026X.023*%
%ADD36O,.036X.044*%
%ADD28R,.023X.026*%
%ADD20R,.024X.043*%
%ADD35R,.063X.051*%
%ADD26R,.015X.026*%
%ADD15R,.039X.037*%
%ADD30R,.037X.039*%
%ADD21R,.024X.079*%
%AMMACRO12*
4,1,8,-.05805,.1103,
-.05805,-.0827,
.00305,-.0827,
.00305,-.1103,
.05805,-.1103,
.05805,.0667,
.00495,.0667,
.00495,.1103,
-.05805,.1103,
0.0*
%
%ADD12MACRO12*%
%ADD37C,.012*%
%ADD38C,.05*%
%ADD39C,.015*%
%ADD40C,.008*%
%ADD41C,.03804*%
%ADD42O,.05002X.05802*%
G75*
%LPD*%
G75*
G36*
G01X54000Y128000D02*
X72704D01*
Y125653D01*
X82566D01*
G02X83321Y124591I-1J-800D01*
G03X83162Y123641I2742J-947D01*
G01Y120941D01*
G03X84688Y118386I2902J0D01*
G01X84899Y118272D01*
Y78290D01*
X95399Y67790D01*
X109730D01*
Y57790D01*
X94399D01*
X92399Y55790D01*
Y46790D01*
X96899Y42290D01*
X122500D01*
Y14799D01*
G02X121317Y14097I-800J0D01*
G03X119399Y14586I-1917J-3513D01*
G03Y6582I0J-4002D01*
G03X121317Y7071I1J4002D01*
G02X122500Y6369I383J-702D01*
G01Y-15000D01*
X68697Y-15015D01*
X68649D01*
Y-17500D01*
X50299D01*
Y54290D01*
X52899D01*
Y48290D01*
X54899Y46290D01*
X62899D01*
X64899Y44290D01*
X73399D01*
X76399Y47290D01*
Y62790D01*
X75399Y63790D01*
X43591D01*
G02X42503Y63157I-792J110D01*
G03X41799Y63292I-704J-1768D01*
G03X39897Y61390I0J-1902D01*
G03X40320Y60195I1902J1D01*
G03X39847Y58940I1428J-1255D01*
G03X41749Y57038I1902J0D01*
G03X42488Y57187I1J1902D01*
G02X43599Y56450I311J-737D01*
G01Y-17500D01*
X26900D01*
X26899Y-17499D01*
Y4790D01*
X27500D01*
Y6546D01*
G02X28733Y7219I800J0D01*
G03X30899Y6582I2166J3364D01*
G03Y14586I0J4002D01*
G03X28733Y13949I0J-4001D01*
G02X27500Y14622I-433J673D01*
G01Y73290D01*
X44399D01*
X45399Y72290D01*
X55899D01*
X56899Y73290D01*
Y74867D01*
X56917Y74926D01*
G03X57028Y75656I-2340J729D01*
G03X56917Y76386I-2451J1D01*
G01X56899Y76445D01*
Y77290D01*
X54000Y80189D01*
Y128000D01*
G37*
G36*
G01X27501Y87000D02*
X43600D01*
X46285Y84314D01*
Y80068D01*
X46120Y80039D01*
G03X45905Y79995I785J-4382D01*
G01X45883Y79990D01*
X44603D01*
X39246Y74653D01*
X27500Y74643D01*
X27501Y87000D01*
G37*
G36*
G01X47399Y88790D02*
X27500D01*
Y127999D01*
X47399D01*
Y88790D01*
G37*
G36*
G01X48149Y17240D02*
Y-6450D01*
G02X45649I-1250J0D01*
G01Y17240D01*
X48149D01*
G37*
G36*
G01X46099Y48640D02*
X47699D01*
Y47435D01*
X48149Y46985D01*
Y24340D01*
X45649D01*
Y46985D01*
X46099Y47435D01*
Y48640D01*
G37*
G36*
G01X51899Y62290D02*
X74399D01*
Y48790D01*
X73899Y48290D01*
X55399D01*
X54399Y49290D01*
Y55486D01*
G03X54601Y56290I-1499J804D01*
G03X52899Y57992I-1702J0D01*
G03X52398Y57917I-1J-1702D01*
G01X52283Y57881D01*
X51399Y58765D01*
Y61790D01*
X51899Y62290D01*
G37*
G36*
G01X46199Y60496D02*
G02X47599I700J0D01*
G01Y57826D01*
G02X48149Y56790I-701J-1036D01*
G01Y51590D01*
X47699Y51140D01*
Y49940D01*
X46099D01*
Y51140D01*
X45649Y51590D01*
Y56790D01*
G02X46199Y57826I1251J0D01*
G01Y60496D01*
G37*
G36*
G01X46899Y76906D02*
X49487D01*
Y85904D01*
G02X49853Y86788I1251J0D01*
G01X49854Y86789D01*
G02X50738Y87155I884J-885D01*
G02X51988Y85905I0J-1250D01*
G02X51987Y85855I-1250J0D01*
G01Y76935D01*
G02Y76906I-1250J-15D01*
G02X52018I15J-1250D01*
G01X54577D01*
G02Y74406I0J-1250D01*
G01X46899D01*
G02Y76906I0J1250D01*
G37*
G36*
G01X49938Y106440D02*
X51538D01*
Y105250D01*
G02X51999Y104280I-790J-970D01*
G01Y99790D01*
X51988D01*
Y90905D01*
G02X49499Y90740I-1250J0D01*
G01Y101870D01*
Y104280D01*
G02X49938Y105231I1250J0D01*
G01Y106440D01*
G37*
G36*
G01X49477Y119650D02*
G02X51977I1250J0D01*
G01Y109892D01*
G02X51538Y108941I-1250J0D01*
G01Y107740D01*
X49938D01*
Y108922D01*
G02X49477Y109892I790J970D01*
G01Y119650D01*
G37*
G36*
G01X121856Y125584D02*
X122502D01*
X122500Y105025D01*
G02X121991Y104640I-400J0D01*
G03X120899Y104792I-1092J-3850D01*
G03Y96788I0J-4002D01*
G03X121990Y96940I-1J4002D01*
G02X122499Y96555I109J-385D01*
G01X122496Y69790D01*
X112199D01*
Y69784D01*
X97100Y69800D01*
X87899Y79001D01*
Y118694D01*
G03X88965Y120941I-1835J2247D01*
G01Y123641D01*
G03X88628Y124997I-2902J-1D01*
G02X88982Y125584I354J187D01*
G01X90973D01*
Y121799D01*
G03X95325I2176J0D01*
G01Y125584D01*
X109675D01*
Y121799D01*
G03X114027I2176J0D01*
G01Y125584D01*
X116018D01*
G02X116372Y124997I0J-400D01*
G03X116035Y123641I2565J-1357D01*
G01Y120941D01*
G03X121839I2902J0D01*
G01Y123641D01*
G03X121502Y124997I-2902J-1D01*
G02X121856Y125584I354J187D01*
G37*
G36*
G01X94399Y47790D02*
Y54290D01*
X95399Y55290D01*
X112200D01*
Y67790D01*
X122500D01*
Y44790D01*
X97399D01*
X94399Y47790D01*
G37*
%LPC*%
G75*
G36*
G01X68299Y1320D02*
G02X69799Y4392I1500J1170D01*
G02X70999Y3966I0J-1903D01*
G02X72199Y4392I1200J-1477D01*
G02X73449Y3924I0J-1903D01*
G02X74699Y4392I1250J-1435D01*
G02X76601Y2490I0J-1902D01*
G02X76188Y1307I-1901J0D01*
G02X76640Y76I-1450J-1231D01*
G02X76172Y-1174I-1903J0D01*
G02X76640Y-2424I-1435J-1250D01*
G02X74875Y-4321I-1902J0D01*
G03X74135Y-5061I58J-798D01*
G02X72238Y-6826I-1897J137D01*
G02X70988Y-6358I0J1903D01*
G02X69738Y-6826I-1250J1435D01*
G02X67836Y-4924I0J1902D01*
G02X68304Y-3674I1903J0D01*
G02Y-1174I1435J1250D01*
G02X67836Y76I1435J1250D01*
G02X68299Y1320I1903J0D01*
G37*
G36*
G01X82898Y9892D02*
Y12622D01*
G02X82497Y13790I1501J1168D01*
G02X86301I1902J0D01*
G02X86249Y13348I-1902J0D01*
G01X86238Y13302D01*
Y9327D01*
X86257Y9267D01*
G02X86301Y8990I-858J-278D01*
G01Y6590D01*
G02X85885Y5830I-902J0D01*
G01X85700Y5712D01*
Y4218D01*
X85885Y4100D01*
G02X86301Y3340I-486J-760D01*
G01Y940D01*
G02X85399Y38I-902J0D01*
G01X81900D01*
Y-729D01*
X85475Y-4304D01*
X85614Y-4320D01*
G02X87301Y-6210I-215J-1890D01*
G02X85399Y-8112I-1902J0D01*
G02X83509Y-6425I0J1902D01*
G01X83493Y-6286D01*
X79098Y-1891D01*
Y62D01*
X78913Y180D01*
G02X78497Y940I486J760D01*
G01Y3340D01*
G02X79399Y4242I902J0D01*
G01X82898D01*
Y5688D01*
X79399D01*
G02X78746Y5968I0J901D01*
G03X78292Y6057I-290J-276D01*
G02X77509Y5888I-784J1733D01*
G02Y9692I0J1902D01*
G02X78292Y9523I-1J-1902D01*
G03X78746Y9612I164J365D01*
G02X79399Y9892I653J-621D01*
G01X82898D01*
G37*
G36*
G01X55750Y39713D02*
G02X52414Y38463I-1434J-1250D01*
G02X52882Y39713I1903J0D01*
G02X52414Y40963I1435J1250D01*
G02X56218I1902J0D01*
G02X55750Y39713I-1903J0D01*
G37*
G36*
G01X86998Y60504D02*
G02X90301Y61790I1401J1286D01*
G02X89800Y60504I-1901J0D01*
G01Y43871D01*
X102000Y31671D01*
Y25002D01*
X102216Y24889D01*
G02X102700Y24090I-418J-799D01*
G01Y23005D01*
G03X104066Y22439I800J0D01*
G01X106018Y24392D01*
X106821D01*
X106939Y24576D01*
G02X107699Y24992I760J-486D01*
G01X110099D01*
G02X111001Y24090I0J-902D01*
G01Y18090D01*
G02X110516Y17290I-902J0D01*
G01X110300Y17178D01*
Y15488D01*
X110623Y15425D01*
G02X111350Y14540I-175J-885D01*
G01Y11040D01*
G02X110449Y10138I-901J-1D01*
G01X107349D01*
G02X107085Y10178I2J902D01*
G03X106050Y9413I-235J-765D01*
G01Y2826D01*
G02X106551Y1540I-1400J-1286D01*
G02X102747I-1902J0D01*
G02X103248Y2826I1901J0D01*
G01Y9365D01*
G03X102307Y10152I-800J0D01*
G02X102149Y10138I-158J888D01*
G01X99049D01*
G02X98148Y11040I1J902D01*
G01Y14540D01*
G02X98875Y15425I902J0D01*
G01X99198Y15488D01*
Y17178D01*
X98982Y17291D01*
G02X98498Y18090I418J799D01*
G01Y20290D01*
G02X98688Y20844I901J1D01*
G03Y21336I-316J246D01*
G02X98498Y21890I711J553D01*
G01Y24090D01*
G02X98982Y24889I902J0D01*
G01X99198Y25002D01*
Y30509D01*
X86998Y42709D01*
Y60504D01*
G37*
G54D41*
X38399Y24290D03*
X36149Y43040D03*
X38399Y36790D03*
X30899Y56290D03*
G54D42*
X111260Y110480D03*
X93740D03*
%LPD*%
G75*
G54D10*
X0Y0D03*
Y110500D03*
X15000Y10500D03*
X25000D03*
X15000Y25500D03*
Y15500D03*
Y20500D03*
X25000Y25500D03*
Y15500D03*
Y20500D03*
X15000Y108000D03*
Y103000D03*
Y113000D03*
X25000Y108000D03*
Y103000D03*
Y113000D03*
X15000Y118000D03*
X25000D03*
X125000Y10500D03*
X135000D03*
X125000Y25500D03*
Y15500D03*
Y20500D03*
X135000Y25500D03*
Y15500D03*
Y20500D03*
X125000Y108000D03*
Y103000D03*
Y113000D03*
X135000Y108000D03*
Y103000D03*
Y113000D03*
X125000Y118000D03*
X135000D03*
X235000Y10500D03*
Y25500D03*
Y15500D03*
Y20500D03*
Y108000D03*
Y103000D03*
Y113000D03*
Y118000D03*
X245000Y10500D03*
Y25500D03*
Y15500D03*
Y20500D03*
Y108000D03*
Y103000D03*
Y113000D03*
Y118000D03*
X345000Y10500D03*
X355000D03*
X345000Y25500D03*
Y15500D03*
Y20500D03*
X355000Y25500D03*
Y15500D03*
Y20500D03*
X345000Y108000D03*
Y103000D03*
Y113000D03*
X355000Y108000D03*
Y103000D03*
Y113000D03*
X345000Y118000D03*
X355000D03*
X455000Y10500D03*
Y25500D03*
Y15500D03*
Y20500D03*
Y108000D03*
Y103000D03*
Y113000D03*
Y118000D03*
X465000Y10500D03*
Y25500D03*
Y15500D03*
Y20500D03*
Y108000D03*
Y103000D03*
Y113000D03*
Y118000D03*
X565000Y10500D03*
Y25500D03*
Y15500D03*
Y20500D03*
Y108000D03*
Y103000D03*
Y113000D03*
Y118000D03*
X590000Y0D03*
X575000Y10500D03*
Y25500D03*
Y15500D03*
Y20500D03*
X590000Y110500D03*
X575000Y108000D03*
Y103000D03*
Y113000D03*
Y118000D03*
G54D20*
X42156Y26483D03*
X46899D03*
X51642D03*
Y15097D03*
X46899D03*
G54D11*
X0Y20500D03*
Y90000D03*
X30899Y10584D03*
X119399D03*
X120899Y100790D03*
X590000Y90000D03*
G54D12*
X32820Y-6474D03*
G54D21*
X42156Y16840D03*
G54D30*
X72749Y60290D03*
X79049D03*
G54D40*
G01X30399Y197290D02*
X29399Y196957D01*
X28649Y196123D01*
X28149Y195123D01*
X27774Y193790D01*
X27649Y192290D01*
X27774Y190790D01*
X28149Y189457D01*
X28649Y188456D01*
X29399Y187623D01*
X30399Y187290D01*
X31399Y187623D01*
X32149Y188456D01*
X32649Y189457D01*
X33024Y190790D01*
X33149Y192290D01*
X33024Y193790D01*
X32649Y195123D01*
X32149Y196123D01*
X31399Y196957D01*
X30399Y197290D01*
G01X40399Y187290D02*
X41274Y187457D01*
X42274Y187957D01*
X42899Y188790D01*
X43149Y189957D01*
X42899Y191123D01*
X42149Y192123D01*
X41024Y192623D01*
X39774D01*
X39024Y192957D01*
X38399Y193790D01*
X38149Y194957D01*
X38524Y196123D01*
X39399Y196957D01*
X40399Y197290D01*
X41399Y196957D01*
X42274Y196123D01*
X42649Y194957D01*
X42399Y193790D01*
X41774Y192957D01*
X41024Y192623D01*
X39774D01*
X38649Y192123D01*
X37899Y191123D01*
X37649Y189957D01*
X37899Y188790D01*
X38524Y187957D01*
X39524Y187457D01*
X40399Y187290D01*
G01X48774Y190623D02*
X52024D01*
G01X118774D02*
X122024D01*
G01X130399Y197290D02*
X129399Y196957D01*
X128649Y196123D01*
X128149Y195123D01*
X127774Y193790D01*
X127649Y192290D01*
X127774Y190790D01*
X128149Y189457D01*
X128649Y188456D01*
X129399Y187623D01*
X130399Y187290D01*
X131399Y187623D01*
X132149Y188456D01*
X132649Y189457D01*
X133024Y190790D01*
X133149Y192290D01*
X133024Y193790D01*
X132649Y195123D01*
X132149Y196123D01*
X131399Y196957D01*
X130399Y197290D01*
G01X140399Y187290D02*
Y197290D01*
X138899Y195290D01*
G01Y187290D02*
X141899D01*
G01X37899Y217290D02*
Y207290D01*
X42899D01*
G01X50399D02*
Y217290D01*
X48899Y215290D01*
G01Y207290D02*
X51899D01*
G01X67899D02*
Y217290D01*
X70899D01*
X71899Y216790D01*
X72649Y215623D01*
X72899Y214290D01*
X72649Y212957D01*
X72024Y211957D01*
X70899Y211456D01*
X67899D01*
G01X77899Y207290D02*
Y217290D01*
X81024D01*
X82024Y216790D01*
X82649Y216123D01*
X82899Y214790D01*
X82649Y213457D01*
X81899Y212623D01*
X81024Y212123D01*
X77899D01*
G01X81024D02*
X82899Y207290D01*
G01X88899Y217290D02*
X91899D01*
G01X90399D02*
Y207290D01*
G01X88899D02*
X91899D01*
G01X97149D02*
Y217290D01*
X100399Y208957D01*
X103649Y217290D01*
Y207290D01*
G01X107274D02*
X110399Y217290D01*
X113524Y207290D01*
G01X112399Y210790D02*
X108399D01*
G01X117899Y207290D02*
Y217290D01*
X121024D01*
X122024Y216790D01*
X122649Y216123D01*
X122899Y214790D01*
X122649Y213457D01*
X121899Y212623D01*
X121024Y212123D01*
X117899D01*
G01X121024D02*
X122899Y207290D01*
G01X130399D02*
Y211790D01*
X127899Y217290D01*
G01X132899D02*
X130399Y211790D01*
G01X62899Y167290D02*
Y177290D01*
X66024D01*
X67024Y176790D01*
X67649Y176123D01*
X67899Y174790D01*
X67649Y173457D01*
X66899Y172623D01*
X66024Y172123D01*
X62899D01*
G01X66024D02*
X67899Y167290D01*
G01X77899D02*
X72899D01*
Y177290D01*
X77899D01*
G01X75899Y172457D02*
X72899D01*
G01X82274Y177290D02*
X85399Y167290D01*
X88524Y177290D01*
G01X106399Y172623D02*
X106899Y173123D01*
X107274Y173956D01*
X107524Y175123D01*
X107274Y176123D01*
X106774Y176790D01*
X105899Y177290D01*
X102524D01*
Y167290D01*
X106649D01*
X107524Y167957D01*
X108024Y168957D01*
X108274Y170123D01*
X108024Y171290D01*
X107274Y172290D01*
X106399Y172623D01*
X102524D01*
G01X60399Y197290D02*
X59399Y196957D01*
X58649Y196123D01*
X58149Y195123D01*
X57774Y193790D01*
X57649Y192290D01*
X57774Y190790D01*
X58149Y189457D01*
X58649Y188456D01*
X59399Y187623D01*
X60399Y187290D01*
X61399Y187623D01*
X62149Y188456D01*
X62649Y189457D01*
X63024Y190790D01*
X63149Y192290D01*
X63024Y193790D01*
X62649Y195123D01*
X62149Y196123D01*
X61399Y196957D01*
X60399Y197290D01*
G01X67649Y188790D02*
X68399Y187957D01*
X69274Y187457D01*
X70399Y187290D01*
X71524Y187623D01*
X72399Y188290D01*
X73024Y189457D01*
X73149Y190790D01*
X72899Y192123D01*
X72274Y192957D01*
X71399Y193623D01*
X70524Y193790D01*
X69649Y193623D01*
X68524Y192957D01*
X68899Y197290D01*
X72274D01*
G01X80399Y187290D02*
X81274Y187457D01*
X82274Y187957D01*
X82899Y188790D01*
X83149Y189957D01*
X82899Y191123D01*
X82149Y192123D01*
X81024Y192623D01*
X79774D01*
X79024Y192957D01*
X78399Y193790D01*
X78149Y194957D01*
X78524Y196123D01*
X79399Y196957D01*
X80399Y197290D01*
X81399Y196957D01*
X82274Y196123D01*
X82649Y194957D01*
X82399Y193790D01*
X81774Y192957D01*
X81024Y192623D01*
X79774D01*
X78649Y192123D01*
X77899Y191123D01*
X77649Y189957D01*
X77899Y188790D01*
X78524Y187957D01*
X79524Y187457D01*
X80399Y187290D01*
G01X88274Y188456D02*
X89149Y187623D01*
X90149Y187290D01*
X91149Y187623D01*
X92024Y188623D01*
X92649Y190123D01*
X92899Y191623D01*
Y193457D01*
X92649Y194957D01*
X92024Y196290D01*
X91274Y196957D01*
X90399Y197290D01*
X89399Y196957D01*
X88649Y196290D01*
X88149Y195290D01*
X87899Y193956D01*
X88149Y192790D01*
X88774Y191623D01*
X89524Y190956D01*
X90399Y190790D01*
X91399Y191123D01*
X92149Y191957D01*
X92899Y193457D01*
G01X98024Y195623D02*
X98774Y196623D01*
X99649Y197123D01*
X100649Y197290D01*
X101899Y196957D01*
X102774Y196123D01*
X103024Y195123D01*
X102899Y194123D01*
X102399Y193290D01*
X99899Y191623D01*
X98774Y190457D01*
X98024Y188790D01*
X97774Y187290D01*
X103024D01*
G01X111899D02*
Y197290D01*
X107274Y190123D01*
X113524D01*
G54D31*
X80499Y2140D03*
X84299D03*
X80499Y7790D03*
X84299D03*
G54D22*
X54577Y60496D03*
X52018D03*
X49458D03*
X46899D03*
Y75656D03*
X49458D03*
X52018D03*
X54577D03*
G54D13*
X31899Y-3710D03*
Y-6710D03*
Y-9710D03*
Y-12710D03*
X28399D03*
Y-9710D03*
Y-6710D03*
Y-3710D03*
X35779Y-6790D03*
Y-9790D03*
Y-12790D03*
Y-15790D03*
Y-3790D03*
X31899Y2290D03*
Y-710D03*
X28399D03*
Y2290D03*
X35779Y-790D03*
X28599Y19790D03*
X38399Y24290D03*
X31799Y36790D03*
X36149Y43040D03*
X38399Y36790D03*
X30899Y56290D03*
X34869Y83020D03*
X37869D03*
X31869D03*
X37899Y80290D03*
X34899D03*
X31899D03*
X37909Y113381D03*
Y116881D03*
X38000Y120400D03*
Y123900D03*
X54316Y38463D03*
Y40963D03*
X41749Y58940D03*
X41799Y61390D03*
X40899Y80290D03*
Y82790D03*
Y85290D03*
X41409Y113381D03*
Y116881D03*
X41500Y120400D03*
Y123900D03*
X61899Y-3710D03*
Y-12710D03*
Y-9710D03*
Y-6710D03*
X65399Y-12710D03*
Y-9710D03*
Y-6710D03*
Y-3710D03*
X57949Y-6790D03*
Y-9790D03*
Y-12790D03*
Y-15790D03*
Y-3790D03*
X69738Y-4924D03*
X72238D03*
X61899Y-710D03*
Y2290D03*
X65399Y-710D03*
Y2290D03*
X57949Y-790D03*
X69799Y2490D03*
X72199D03*
X72238Y-2424D03*
X69738Y76D03*
Y-2424D03*
X72238Y76D03*
X61899Y57290D03*
Y59290D03*
Y61290D03*
X63899D03*
Y59290D03*
Y57290D03*
X65899D03*
Y59290D03*
Y61290D03*
X59899Y59290D03*
Y61290D03*
X59909Y116881D03*
Y113381D03*
X63409D03*
Y116881D03*
X59909Y123881D03*
X63409D03*
Y120381D03*
X59909D03*
X85399Y-6210D03*
X74738Y-2424D03*
X74699Y2490D03*
X74738Y76D03*
X77509Y7790D03*
X84399Y13790D03*
X88399Y61790D03*
X89899Y85790D03*
Y89790D03*
X104649Y1540D03*
X98899Y48790D03*
X96399Y51290D03*
Y53790D03*
Y48790D03*
X101500Y54000D03*
X106000D03*
X98605Y71470D03*
X98353Y77795D03*
X94899Y74284D03*
X93415Y76787D03*
X102914Y81704D03*
X90399Y81684D03*
X96500Y94500D03*
X92899Y79784D03*
Y86290D03*
X95899Y80084D03*
X99972Y81809D03*
X93399Y89790D03*
Y83290D03*
X99500Y94500D03*
X95399Y98290D03*
X95899Y106040D03*
X100399Y106290D03*
X118727Y48405D03*
X108227Y48905D03*
X119250Y55000D03*
X111000Y54000D03*
X115250Y54250D03*
X118500Y51500D03*
X114500Y57500D03*
Y60500D03*
X108378Y75757D03*
G54D32*
X86063Y122291D03*
X118937D03*
G54D23*
X46899Y50540D03*
Y48040D03*
X50738Y108340D03*
Y105840D03*
G54D14*
X37500Y12500D03*
Y7500D03*
X37399Y3290D03*
X28499Y23290D03*
Y16590D03*
X28838Y69776D03*
X36838D03*
X35238Y68176D03*
X32038Y69776D03*
Y68176D03*
Y66576D03*
X28838Y68176D03*
Y64976D03*
X30438Y69776D03*
X28838Y66576D03*
X36838Y68176D03*
X33638D03*
Y69776D03*
X30438Y66576D03*
X35238Y69776D03*
X30438Y68176D03*
Y64976D03*
X38438Y68176D03*
Y69776D03*
X32038Y71376D03*
X35238D03*
X28838D03*
X38438D03*
X33638D03*
X30438D03*
X36838D03*
X38438Y66576D03*
X33638D03*
X36838D03*
X35238D03*
Y64976D03*
X38438D03*
X36838D03*
X32038D03*
X33638D03*
X39149Y90290D03*
X34399D03*
X28727Y89905D03*
X38649Y93790D03*
X30149D03*
X34399D03*
X38649Y104290D03*
X34399Y108290D03*
X30149Y104290D03*
X34399D03*
X38649Y108290D03*
X30149D03*
X38649Y100790D03*
X30149D03*
X34399D03*
X38649Y97290D03*
X30149D03*
X34399D03*
X30149Y112290D03*
Y116290D03*
Y120040D03*
Y124040D03*
X34399Y112290D03*
Y116290D03*
Y120040D03*
Y124040D03*
X42799Y-4510D03*
X51099D03*
Y-12410D03*
Y-8410D03*
X42799Y-12410D03*
Y-8510D03*
Y-15910D03*
X51099D03*
Y-410D03*
Y7490D03*
X42799Y-510D03*
Y7490D03*
Y3590D03*
X51099Y3490D03*
X56000Y7500D03*
X55899Y3290D03*
X42699Y11090D03*
X41899Y19790D03*
X51899Y27790D03*
Y25290D03*
Y22290D03*
Y18790D03*
X41899Y25290D03*
Y27790D03*
Y13790D03*
X51899D03*
Y16290D03*
X51099Y38790D03*
Y34690D03*
X42799Y38790D03*
Y34690D03*
Y42790D03*
X51099Y42690D03*
X53899Y34290D03*
X51099Y31190D03*
X42799D03*
X54199Y29490D03*
X42749Y46887D03*
X51099Y45790D03*
X42899Y55290D03*
X51399Y53290D03*
X52399Y51290D03*
X42799Y49790D03*
X52899Y56290D03*
X45938Y71276D03*
X53938Y64876D03*
Y66476D03*
X49138Y64876D03*
Y66476D03*
X52338D03*
Y64876D03*
X53938Y68076D03*
Y69676D03*
X55538Y64876D03*
X50738D03*
X47538D03*
X49138Y68076D03*
X45938Y64876D03*
X50738Y68076D03*
X49138Y71276D03*
X52338D03*
X49138Y69676D03*
X50738Y71276D03*
X47538D03*
X53938D03*
X55538D03*
X47538Y68076D03*
X50738Y69676D03*
X47538D03*
X52338Y68076D03*
Y69676D03*
X45938Y68076D03*
X47538Y66476D03*
X45938D03*
X50738D03*
X55538Y69676D03*
X45938D03*
X55538Y66476D03*
Y68076D03*
X40038Y66576D03*
Y68176D03*
Y69776D03*
Y71376D03*
Y64976D03*
X46227Y90405D03*
X42649Y90290D03*
X46399Y93790D03*
X54899Y91790D03*
X54727Y88405D03*
X54899Y95290D03*
X54727Y81405D03*
X54899Y84790D03*
X42649Y93790D03*
Y104290D03*
X55227Y108405D03*
X46399Y108290D03*
X55227Y104405D03*
X46399Y104290D03*
X42649Y108290D03*
X46399Y100790D03*
Y97290D03*
X54899Y98290D03*
X42649Y100790D03*
Y97290D03*
X46399Y112290D03*
Y116790D03*
X55227Y112405D03*
Y116405D03*
X46399Y120290D03*
Y124290D03*
X55227Y120405D03*
Y124405D03*
X71899Y-12710D03*
X58899Y3290D03*
X68899Y27790D03*
Y23790D03*
X57399Y33290D03*
X70938Y77176D03*
X64538Y65576D03*
X70938Y78776D03*
X69338Y65576D03*
X62938D03*
X66138Y67176D03*
X72538Y77176D03*
X69338Y67176D03*
Y68776D03*
X72538Y78776D03*
X70938Y75576D03*
X66138Y68776D03*
X67738D03*
X64538Y67176D03*
X72538Y75576D03*
X67738Y67176D03*
X62938D03*
X64538Y68776D03*
X62938D03*
X67738Y65576D03*
X66138D03*
X61338D03*
Y68776D03*
Y67176D03*
X69338Y76776D03*
X64538D03*
Y75176D03*
X62938Y71976D03*
Y73576D03*
X61338Y75176D03*
X62938Y78376D03*
X69338Y70376D03*
Y71976D03*
X64538Y78376D03*
X62938Y70376D03*
X61338Y76776D03*
Y78376D03*
X69338Y73576D03*
X64538D03*
X62938Y76776D03*
X69338Y75176D03*
X61338Y71976D03*
Y73576D03*
X66138Y70376D03*
X59738Y73576D03*
X66138Y71976D03*
X69338Y78376D03*
X58138Y75176D03*
X64538Y70376D03*
X59738Y76776D03*
X61338Y70376D03*
X64538Y71976D03*
X58138Y78376D03*
Y76776D03*
X62938Y75176D03*
X59738Y78376D03*
Y75176D03*
X67738Y73576D03*
Y75176D03*
Y78376D03*
Y76776D03*
X66138Y78376D03*
Y76776D03*
Y75176D03*
Y73576D03*
X67738Y71976D03*
Y70376D03*
X63399Y90290D03*
X59149Y86290D03*
X63399Y82290D03*
X59149D03*
Y90290D03*
X63399Y86290D03*
X67649D03*
Y90290D03*
X71649Y92290D03*
X67649Y82290D03*
X70938Y88376D03*
Y80376D03*
Y86776D03*
X72538Y81976D03*
X70938Y83576D03*
X72538Y80376D03*
X70938Y81976D03*
Y85176D03*
X72538Y88376D03*
Y83576D03*
Y85176D03*
Y86776D03*
X59149Y93290D03*
X67649D03*
X63399D03*
X59149Y108540D03*
Y104290D03*
X67649Y108290D03*
Y104290D03*
X63399D03*
Y108290D03*
X71649Y100290D03*
Y96290D03*
Y108290D03*
Y104290D03*
X59149Y100290D03*
X67649D03*
X63399D03*
X59149Y96290D03*
X67649D03*
X63399D03*
X71649Y120040D03*
X67649D03*
X71649Y116040D03*
Y112040D03*
X67649D03*
Y116040D03*
X71649Y124040D03*
X67649D03*
X87500Y-12500D03*
X82500D03*
X77399Y-12710D03*
X85500Y25400D03*
Y20400D03*
X89399Y14790D03*
X75500Y35400D03*
X75350Y40250D03*
X80500Y35400D03*
X75500Y30400D03*
X85500Y40400D03*
X80500D03*
X85500Y35400D03*
X80500Y30400D03*
X85500D03*
X80500Y45400D03*
X83500Y78000D03*
X83399Y67490D03*
X76399Y77790D03*
X83399Y64090D03*
Y70790D03*
X86399Y67290D03*
Y64290D03*
Y70790D03*
Y74290D03*
X83399D03*
X76399D03*
X74138Y75576D03*
Y77176D03*
Y78776D03*
X79899Y70790D03*
Y64090D03*
Y67490D03*
X76399Y70790D03*
Y64090D03*
Y67490D03*
X73399Y70790D03*
Y67490D03*
X79899Y77790D03*
Y74290D03*
X76899Y82790D03*
X75649Y92290D03*
X79649D03*
X83399D03*
X83500Y87750D03*
Y82750D03*
X76899Y87790D03*
X74138Y83576D03*
Y81976D03*
Y86776D03*
Y80376D03*
Y85176D03*
X74149Y88390D03*
X79899Y87790D03*
Y82790D03*
X79649Y104290D03*
X75649D03*
X79649Y100290D03*
Y96290D03*
X75649D03*
Y100290D03*
X79649Y108290D03*
X75649D03*
X83399Y96290D03*
Y100290D03*
Y104290D03*
Y108290D03*
X79649Y120040D03*
X75649D03*
X79649Y116040D03*
Y112040D03*
X75649D03*
Y116040D03*
X79649Y124040D03*
X75649D03*
X83399Y112040D03*
Y116040D03*
X102500Y-7500D03*
X97500D03*
Y-12500D03*
X92500D03*
X102500D03*
Y-2500D03*
X97500D03*
X90399Y10290D03*
X93399D03*
X96899D03*
Y7290D03*
Y4290D03*
X93399Y7290D03*
Y4790D03*
X102899Y27790D03*
X97500Y27500D03*
X90500Y20400D03*
Y25400D03*
X96500Y22500D03*
Y17500D03*
X93399Y14790D03*
X102899Y32790D03*
X90500Y30400D03*
Y35400D03*
X98399Y38790D03*
X102899Y35790D03*
X105727Y61405D03*
Y58905D03*
X97727Y60405D03*
X95727D03*
X93727D03*
X99899Y60290D03*
X93727Y68405D03*
X95727Y66405D03*
X99727D03*
X97727D03*
Y64405D03*
X95727D03*
X99727D03*
Y62405D03*
X93727Y66405D03*
Y64405D03*
X89899Y67290D03*
Y70790D03*
X97727Y62405D03*
X95727D03*
X93727D03*
X117500Y-7500D03*
X112500D03*
X107500D03*
X117500Y-12500D03*
X112500D03*
X107500D03*
X121399Y-12210D03*
Y-7210D03*
X117500Y2500D03*
Y-2500D03*
X112500D03*
X107500D03*
X107599Y2090D03*
X112499Y2290D03*
Y6390D03*
X112299Y10090D03*
X121399Y-2210D03*
X107500Y27500D03*
X112500D03*
X117500D03*
Y22500D03*
Y17500D03*
X112499Y22190D03*
X112399Y17490D03*
X112299Y13590D03*
X121399Y17290D03*
X120899Y22290D03*
Y27290D03*
X112500Y32500D03*
X117500D03*
Y37500D03*
X107500Y32500D03*
X107399Y35790D03*
X112399D03*
X108399Y41290D03*
Y38790D03*
X120899Y32290D03*
Y37790D03*
X108227Y61405D03*
Y58905D03*
G54D15*
X30899Y70640D03*
Y76940D03*
X67899Y42990D03*
Y49290D03*
G54D33*
X100599Y12790D03*
Y6140D03*
X108899Y12790D03*
Y6140D03*
G54D24*
X50738Y68076D03*
G54D16*
X36899Y89720D03*
Y85860D03*
X30899Y89720D03*
Y85860D03*
X56399Y45430D03*
Y49290D03*
X61899Y45430D03*
Y49290D03*
G54D34*
X100599Y19190D03*
Y22990D03*
X108899Y19190D03*
Y22990D03*
G54D25*
X43158Y64237D03*
Y66796D03*
Y69356D03*
Y71915D03*
X58318D03*
Y69356D03*
Y66796D03*
Y64237D03*
G54D26*
X47427Y81290D03*
X50727D03*
G54D35*
X103899Y39540D03*
Y47040D03*
X113899Y39540D03*
Y47040D03*
G54D17*
X39821Y119019D03*
X61633D03*
G54D36*
X93740Y110480D03*
X111260D03*
G54D27*
X50738Y90905D03*
Y85905D03*
G54D18*
X60978Y-6474D03*
G54D37*
G01X52899Y56290D02*
X51399D01*
X49458Y58231D01*
Y60496D01*
G01X85399Y-6210D02*
X80499Y-1310D01*
Y2140D01*
G01Y7790D02*
X77509D01*
G01X84299D02*
Y2140D01*
G01Y7790D02*
Y13690D01*
X84399Y13790D01*
G01X88399Y61790D02*
Y43290D01*
X100599Y31090D01*
Y22990D01*
G01X108899D02*
X106599D01*
X104649Y21040D01*
Y1540D01*
G01X100599Y19190D02*
Y12790D01*
G01X108899Y19190D02*
Y12790D01*
G54D28*
X54598Y101705D03*
X50738D03*
X77329Y49290D03*
X73469D03*
X77329Y54794D03*
X73469D03*
G54D19*
X46899Y-6450D03*
G54D38*
G01X12500Y-20000D02*
X25500D01*
G01X22500Y-30000D02*
Y5000D01*
G01Y140500D02*
Y122500D01*
G01X12500Y130500D02*
X24500D01*
G01X137500Y-20000D02*
X102500D01*
G01X137500Y130500D02*
X102500D01*
G01X127500Y-30000D02*
Y5000D01*
G01Y140500D02*
Y122500D01*
G54D29*
X50727Y119650D03*
G54D39*
G01X47427Y81290D02*
X44899D01*
M02*
