G04 ================== begin FILE IDENTIFICATION RECORD ==================*
G04 Layout Name:  C:/tmp/20_058924b/worklib/02_058924a_top/physical/08_058924b.brd*
G04 Film Name:    l3_gnd*
G04 File Format:  Gerber RS274X*
G04 File Origin:  Cadence Allegro 17.2-S055*
G04 Origin Date:  Thu Sep 10 08:42:20 2020*
G04 *
G04 Layer:  VIA CLASS/L3_GND*
G04 Layer:  PIN/L3_GND*
G04 Layer:  ETCH/L3_GND*
G04 Layer:  BOARD GEOMETRY/LYR_3.5*
G04 Layer:  BOARD GEOMETRY/TOOLING_CORNERS*
G04 Layer:  BOARD GEOMETRY/ROOT_NUMBER*
G04 *
G04 Offset:    (0.00 0.00)*
G04 Mirror:    No*
G04 Mode:      Positive*
G04 Rotation:  0*
G04 FullContactRelief:  No*
G04 UndefLineWidth:     8.00*
G04 ================== end FILE IDENTIFICATION RECORD ====================*
%FSLAX25Y25*MOIN*%
%IR0*IPPOS*OFA0.00000B0.00000*MIA0B0*SFA1.00000B1.00000*%
%ADD10C,.02*%
%ADD11C,.016*%
%ADD12C,.05*%
%ADD13C,.008*%
%ADD15C,.03404*%
%ADD14C,.03804*%
%ADD16O,.05002X.05802*%
G75*
%LPD*%
G75*
G36*
G01X27500Y128000D02*
X72704D01*
Y125516D01*
X83108Y125513D01*
G02X83466Y124934I0J-400D01*
G03X83161Y123641I2597J-1295D01*
G01Y120941D01*
G03X84899Y118283I2901J0D01*
G01Y78290D01*
X95399Y67790D01*
X122506D01*
X122500Y-15000D01*
X68649Y-15015D01*
Y-17500D01*
X27500D01*
Y128000D01*
G37*
G36*
G01X121856Y125584D02*
X122497D01*
X122501Y69790D01*
X97110D01*
X87899Y79001D01*
Y118694D01*
G03X88965Y120941I-1835J2247D01*
G01Y123641D01*
G03X88628Y124997I-2902J-1D01*
G02X88982Y125584I354J187D01*
G01X90973D01*
Y121799D01*
G03X95325I2176J0D01*
G01Y125584D01*
X109675D01*
Y121799D01*
G03X114027I2176J0D01*
G01Y125584D01*
X116018D01*
G02X116372Y124997I0J-400D01*
G03X116035Y123641I2565J-1357D01*
G01Y120941D01*
G03X121839I2902J0D01*
G01Y123641D01*
G03X121502Y124997I-2902J-1D01*
G02X121856Y125584I354J187D01*
G37*
%LPC*%
G75*
G36*
G01X68299Y1320D02*
G02X69799Y4392I1500J1170D01*
G02X70999Y3966I0J-1903D01*
G02X72199Y4392I1200J-1477D01*
G02X73449Y3924I0J-1903D01*
G02X74699Y4392I1250J-1435D01*
G02X76601Y2490I0J-1902D01*
G02X76188Y1307I-1901J0D01*
G02X76640Y76I-1450J-1231D01*
G02X76172Y-1174I-1903J0D01*
G02X76640Y-2424I-1435J-1250D01*
G02X74738Y-4326I-1902J0D01*
G02X74567Y-4318I3J1902D01*
G03X74132Y-4753I-37J-398D01*
G02X74140Y-4924I-1894J-174D01*
G02X72238Y-6826I-1902J0D01*
G02X70988Y-6358I0J1903D01*
G02X69738Y-6826I-1250J1435D01*
G02X67836Y-4924I0J1902D01*
G02X68304Y-3674I1903J0D01*
G02Y-1174I1435J1250D01*
G02X67836Y76I1435J1250D01*
G02X68299Y1320I1903J0D01*
G37*
G36*
G01X55750Y39713D02*
G02X52414Y38463I-1434J-1250D01*
G02X52882Y39713I1903J0D01*
G02X52414Y40963I1435J1250D01*
G02X56218I1902J0D01*
G02X55750Y39713I-1903J0D01*
G37*
G36*
G01X94965Y50040D02*
G02Y52540I1434J1250D01*
G02X94497Y53790I1435J1250D01*
G02X98301I1902J0D01*
G02X97833Y52540I-1903J0D01*
G02X98301Y51290I-1435J-1250D01*
G02X98293Y51119I-1902J3D01*
G03X98728Y50684I398J-37D01*
G02X98899Y50692I174J-1894D01*
G02Y46888I0J-1902D01*
G02X97649Y47356I0J1903D01*
G02X96399Y46888I-1250J1435D01*
G02X94497Y48790I0J1902D01*
G02X94965Y50040I1903J0D01*
G37*
G36*
G01X62899Y62908D02*
G02X64899I1000J-1618D01*
G02X65899Y63192I1000J-1619D01*
G02X67801Y61290I0J-1902D01*
G02X67517Y60290I-1903J0D01*
G02Y58290I-1619J-1000D01*
G02X67801Y57290I-1619J-1000D01*
G02X65899Y55388I-1902J0D01*
G02X64899Y55672I0J1903D01*
G02X62899I-1000J1619D01*
G02X61899Y55388I-1000J1619D01*
G02X59999Y57200I0J1902D01*
G03X59809Y57390I-200J-10D01*
G02X57997Y59290I90J1900D01*
G02X58281Y60290I1903J0D01*
G02X57997Y61290I1619J1000D01*
G02X59899Y63192I1902J0D01*
G02X60899Y62908I0J-1903D01*
G02X62899I1000J-1619D01*
G37*
G36*
G01X43228Y60135D02*
G02X39847Y58940I-1479J-1195D01*
G02X40320Y60195I1901J0D01*
G02X39897Y61390I1479J1196D01*
G02X43701I1902J0D01*
G02X43228Y60135I-1901J0D01*
G37*
G36*
G01X38472Y84824D02*
G03X38998Y85218I126J379D01*
G02X38997Y85290I1901J62D01*
G02X42801I1902J0D01*
G02X42333Y84040I-1903J0D01*
G02Y81540I-1435J-1250D01*
G02X42801Y80290I-1435J-1250D01*
G02X40899Y78388I-1902J0D01*
G02X39660Y78847I0J1902D01*
G03X39138I-261J-303D01*
G02X36660I-1239J1443D01*
G03X36138I-261J-303D01*
G02X33660I-1239J1443D01*
G03X33138I-261J-303D01*
G02X31899Y78388I-1239J1443D01*
G02X29997Y80290I0J1902D01*
G02X30439Y81509I1902J0D01*
G03X30436Y81769I-153J128D01*
G02X29967Y83020I1434J1251D01*
G02X31869Y84922I1902J0D01*
G02X33108Y84463I0J-1902D01*
G03X33630I261J303D01*
G02X36108I1239J-1443D01*
G03X36630I261J303D01*
G02X37869Y84922I1239J-1443D01*
G02X38472Y84824I0J-1902D01*
G37*
G36*
G01X113057Y59261D02*
G02X116402Y60500I1443J1239D01*
G02X115943Y59261I-1902J0D01*
G03Y58739I303J-261D01*
G02X116402Y57500I-1443J-1239D01*
G02X116087Y56452I-1901J0D01*
G03X116218Y55887I334J-220D01*
G02X116739Y55434I-967J-1638D01*
G03X117434Y55564I313J249D01*
G02X119250Y56902I1816J-563D01*
G02X121152Y55000I0J-1902D01*
G02X120110Y53303I-1903J0D01*
G03X119979Y52695I180J-357D01*
G02X120402Y51500I-1479J-1196D01*
G02X119995Y50324I-1902J0D01*
G03X120034Y49786I314J-248D01*
G02X120629Y48405I-1307J-1382D01*
G02X116825I-1902J0D01*
G02X117232Y49581I1902J0D01*
G03X117193Y50119I-314J248D01*
G02X116598Y51500I1307J1382D01*
G02X117640Y53197I1903J0D01*
G03X117771Y53805I-180J357D01*
G02X117761Y53816I1400J1282D01*
G03X117066Y53686I-313J-249D01*
G02X115250Y52348I-1816J563D01*
G02X113348Y54250I0J1902D01*
G02X113663Y55298I1901J0D01*
G03X113532Y55863I-334J220D01*
G02X112598Y57500I968J1637D01*
G02X113057Y58739I1902J0D01*
G03Y59261I-303J261D01*
G37*
G54D15*
X52899Y56290D03*
G54D14*
X38399Y24290D03*
Y36790D03*
X36149Y43040D03*
X30899Y56290D03*
X85399Y-6210D03*
X77509Y7790D03*
X84399Y13790D03*
X88399Y61790D03*
X104649Y1540D03*
X101500Y54000D03*
X106000D03*
X108227Y48905D03*
X111000Y54000D03*
G54D16*
X111260Y110480D03*
X93740D03*
%LPD*%
G75*
G54D10*
X31899Y-3710D03*
Y-6710D03*
Y-9710D03*
Y-12710D03*
X28399D03*
Y-9710D03*
Y-6710D03*
Y-3710D03*
X35779Y-6790D03*
Y-9790D03*
Y-12790D03*
Y-15790D03*
Y-3790D03*
X31899Y2290D03*
Y-710D03*
X28399D03*
Y2290D03*
X35779Y-790D03*
X28599Y19790D03*
X31799Y36790D03*
X37909Y113381D03*
Y116881D03*
X38000Y120400D03*
Y123900D03*
X41409Y113381D03*
Y116881D03*
X41500Y120400D03*
Y123900D03*
X61899Y-3710D03*
Y-12710D03*
Y-9710D03*
Y-6710D03*
X65399Y-12710D03*
Y-9710D03*
Y-6710D03*
Y-3710D03*
X57949Y-6790D03*
Y-9790D03*
Y-12790D03*
Y-15790D03*
Y-3790D03*
X61899Y-710D03*
Y2290D03*
X65399Y-710D03*
Y2290D03*
X57949Y-790D03*
X59909Y116881D03*
Y113381D03*
X63409D03*
Y116881D03*
X59909Y123881D03*
X63409D03*
Y120381D03*
X59909D03*
X89899Y85790D03*
Y89790D03*
X98605Y71470D03*
X98353Y77795D03*
X94899Y74284D03*
X93415Y76787D03*
X102914Y81704D03*
X90399Y81684D03*
X96500Y94500D03*
X92899Y79784D03*
Y86290D03*
X95899Y80084D03*
X99972Y81809D03*
X93399Y89790D03*
Y83290D03*
X99500Y94500D03*
X95399Y98290D03*
X95899Y106040D03*
X100399Y106290D03*
X108378Y75757D03*
G54D11*
X37500Y12500D03*
Y7500D03*
X37399Y3290D03*
X28499Y23290D03*
Y16590D03*
X28838Y69776D03*
X36838D03*
X35238Y68176D03*
X32038Y69776D03*
Y68176D03*
Y66576D03*
X28838Y68176D03*
Y64976D03*
X30438Y69776D03*
X28838Y66576D03*
X36838Y68176D03*
X33638D03*
Y69776D03*
X30438Y66576D03*
X35238Y69776D03*
X30438Y68176D03*
Y64976D03*
X38438Y68176D03*
Y69776D03*
X32038Y71376D03*
X35238D03*
X28838D03*
X38438D03*
X33638D03*
X30438D03*
X36838D03*
X38438Y66576D03*
X33638D03*
X36838D03*
X35238D03*
Y64976D03*
X38438D03*
X36838D03*
X32038D03*
X33638D03*
X39149Y90290D03*
X34399D03*
X28727Y89905D03*
X38649Y93790D03*
X30149D03*
X34399D03*
X38649Y104290D03*
X34399Y108290D03*
X30149Y104290D03*
X34399D03*
X38649Y108290D03*
X30149D03*
X38649Y100790D03*
X30149D03*
X34399D03*
X38649Y97290D03*
X30149D03*
X34399D03*
X30149Y112290D03*
Y116290D03*
Y120040D03*
Y124040D03*
X34399Y112290D03*
Y116290D03*
Y120040D03*
Y124040D03*
X42799Y-4510D03*
X51099D03*
Y-12410D03*
Y-8410D03*
X42799Y-12410D03*
Y-8510D03*
Y-15910D03*
X51099D03*
Y-410D03*
Y7490D03*
X42799Y-510D03*
Y7490D03*
Y3590D03*
X51099Y3490D03*
X56000Y7500D03*
X55899Y3290D03*
X42699Y11090D03*
X41899Y19790D03*
X51899Y27790D03*
Y25290D03*
Y22290D03*
Y18790D03*
X41899Y25290D03*
Y27790D03*
Y13790D03*
X51899D03*
Y16290D03*
X51099Y38790D03*
Y34690D03*
X42799Y38790D03*
Y34690D03*
Y42790D03*
X51099Y42690D03*
X53899Y34290D03*
X51099Y31190D03*
X42799D03*
X54199Y29490D03*
X42749Y46887D03*
X51099Y45790D03*
X42899Y55290D03*
X51399Y53290D03*
X52399Y51290D03*
X42799Y49790D03*
X45938Y71276D03*
X53938Y64876D03*
Y66476D03*
X49138Y64876D03*
Y66476D03*
X52338D03*
Y64876D03*
X53938Y68076D03*
Y69676D03*
X55538Y64876D03*
X50738D03*
X47538D03*
X49138Y68076D03*
X45938Y64876D03*
X50738Y68076D03*
X49138Y71276D03*
X52338D03*
X49138Y69676D03*
X50738Y71276D03*
X47538D03*
X53938D03*
X55538D03*
X47538Y68076D03*
X50738Y69676D03*
X47538D03*
X52338Y68076D03*
Y69676D03*
X45938Y68076D03*
X47538Y66476D03*
X45938D03*
X50738D03*
X55538Y69676D03*
X45938D03*
X55538Y66476D03*
Y68076D03*
X40038Y66576D03*
Y68176D03*
Y69776D03*
Y71376D03*
Y64976D03*
X46227Y90405D03*
X42649Y90290D03*
X46399Y93790D03*
X54899Y91790D03*
X54727Y88405D03*
X54899Y95290D03*
X54727Y81405D03*
X54899Y84790D03*
X42649Y93790D03*
Y104290D03*
X55227Y108405D03*
X46399Y108290D03*
X55227Y104405D03*
X46399Y104290D03*
X42649Y108290D03*
X46399Y100790D03*
Y97290D03*
X54899Y98290D03*
X42649Y100790D03*
Y97290D03*
X46399Y112290D03*
Y116790D03*
X55227Y112405D03*
Y116405D03*
X46399Y120290D03*
Y124290D03*
X55227Y120405D03*
Y124405D03*
X71899Y-12710D03*
X58899Y3290D03*
X68899Y27790D03*
Y23790D03*
X57399Y33290D03*
X70938Y77176D03*
X64538Y65576D03*
X70938Y78776D03*
X69338Y65576D03*
X62938D03*
X66138Y67176D03*
X72538Y77176D03*
X69338Y67176D03*
Y68776D03*
X72538Y78776D03*
X70938Y75576D03*
X66138Y68776D03*
X67738D03*
X64538Y67176D03*
X72538Y75576D03*
X67738Y67176D03*
X62938D03*
X64538Y68776D03*
X62938D03*
X67738Y65576D03*
X66138D03*
X61338D03*
Y68776D03*
Y67176D03*
X69338Y76776D03*
X64538D03*
Y75176D03*
X62938Y71976D03*
Y73576D03*
X61338Y75176D03*
X62938Y78376D03*
X69338Y70376D03*
Y71976D03*
X64538Y78376D03*
X62938Y70376D03*
X61338Y76776D03*
Y78376D03*
X69338Y73576D03*
X64538D03*
X62938Y76776D03*
X69338Y75176D03*
X61338Y71976D03*
Y73576D03*
X66138Y70376D03*
X59738Y73576D03*
X66138Y71976D03*
X69338Y78376D03*
X58138Y75176D03*
X64538Y70376D03*
X59738Y76776D03*
X61338Y70376D03*
X64538Y71976D03*
X58138Y78376D03*
Y76776D03*
X62938Y75176D03*
X59738Y78376D03*
Y75176D03*
X67738Y73576D03*
Y75176D03*
Y78376D03*
Y76776D03*
X66138Y78376D03*
Y76776D03*
Y75176D03*
Y73576D03*
X67738Y71976D03*
Y70376D03*
X63399Y90290D03*
X59149Y86290D03*
X63399Y82290D03*
X59149D03*
Y90290D03*
X63399Y86290D03*
X67649D03*
Y90290D03*
X71649Y92290D03*
X67649Y82290D03*
X70938Y88376D03*
Y80376D03*
Y86776D03*
X72538Y81976D03*
X70938Y83576D03*
X72538Y80376D03*
X70938Y81976D03*
Y85176D03*
X72538Y88376D03*
Y83576D03*
Y85176D03*
Y86776D03*
X59149Y93290D03*
X67649D03*
X63399D03*
X59149Y108540D03*
Y104290D03*
X67649Y108290D03*
Y104290D03*
X63399D03*
Y108290D03*
X71649Y100290D03*
Y96290D03*
Y108290D03*
Y104290D03*
X59149Y100290D03*
X67649D03*
X63399D03*
X59149Y96290D03*
X67649D03*
X63399D03*
X71649Y120040D03*
X67649D03*
X71649Y116040D03*
Y112040D03*
X67649D03*
Y116040D03*
X71649Y124040D03*
X67649D03*
X87500Y-12500D03*
X82500D03*
X77399Y-12710D03*
X85500Y25400D03*
Y20400D03*
X89399Y14790D03*
X75500Y35400D03*
X75350Y40250D03*
X80500Y35400D03*
X75500Y30400D03*
X85500Y40400D03*
X80500D03*
X85500Y35400D03*
X80500Y30400D03*
X85500D03*
X80500Y45400D03*
X83500Y78000D03*
X83399Y67490D03*
X76399Y77790D03*
X83399Y64090D03*
Y70790D03*
X86399Y67290D03*
Y64290D03*
Y70790D03*
Y74290D03*
X83399D03*
X76399D03*
X74138Y75576D03*
Y77176D03*
Y78776D03*
X79899Y70790D03*
Y64090D03*
Y67490D03*
X76399Y70790D03*
Y64090D03*
Y67490D03*
X73399Y70790D03*
Y67490D03*
X79899Y77790D03*
Y74290D03*
X76899Y82790D03*
X75649Y92290D03*
X79649D03*
X83399D03*
X83500Y87750D03*
Y82750D03*
X76899Y87790D03*
X74138Y83576D03*
Y81976D03*
Y86776D03*
Y80376D03*
Y85176D03*
X74149Y88390D03*
X79899Y87790D03*
Y82790D03*
X79649Y104290D03*
X75649D03*
X79649Y100290D03*
Y96290D03*
X75649D03*
Y100290D03*
X79649Y108290D03*
X75649D03*
X83399Y96290D03*
Y100290D03*
Y104290D03*
Y108290D03*
X79649Y120040D03*
X75649D03*
X79649Y116040D03*
Y112040D03*
X75649D03*
Y116040D03*
X79649Y124040D03*
X75649D03*
X83399Y112040D03*
Y116040D03*
X102500Y-7500D03*
X97500D03*
Y-12500D03*
X92500D03*
X102500D03*
Y-2500D03*
X97500D03*
X90399Y10290D03*
X93399D03*
X96899D03*
Y7290D03*
Y4290D03*
X93399Y7290D03*
Y4790D03*
X102899Y27790D03*
X97500Y27500D03*
X90500Y20400D03*
Y25400D03*
X96500Y22500D03*
Y17500D03*
X93399Y14790D03*
X102899Y32790D03*
X90500Y30400D03*
Y35400D03*
X98399Y38790D03*
X102899Y35790D03*
X105727Y61405D03*
Y58905D03*
X97727Y60405D03*
X95727D03*
X93727D03*
X99899Y60290D03*
X93727Y68405D03*
X95727Y66405D03*
X99727D03*
X97727D03*
Y64405D03*
X95727D03*
X99727D03*
Y62405D03*
X93727Y66405D03*
Y64405D03*
X89899Y67290D03*
Y70790D03*
X97727Y62405D03*
X95727D03*
X93727D03*
X117500Y-7500D03*
X112500D03*
X107500D03*
X117500Y-12500D03*
X112500D03*
X107500D03*
X121399Y-12210D03*
Y-7210D03*
X117500Y2500D03*
Y-2500D03*
X112500D03*
X107500D03*
X107599Y2090D03*
X112499Y2290D03*
Y6390D03*
X112299Y10090D03*
X121399Y-2210D03*
X107500Y27500D03*
X112500D03*
X117500D03*
Y22500D03*
Y17500D03*
X112499Y22190D03*
X112399Y17490D03*
X112299Y13590D03*
X121399Y17290D03*
X120899Y22290D03*
Y27290D03*
X112500Y32500D03*
X117500D03*
Y37500D03*
X107500Y32500D03*
X107399Y35790D03*
X112399D03*
X108399Y41290D03*
Y38790D03*
X120899Y32290D03*
Y37790D03*
X108227Y61405D03*
Y58905D03*
G54D12*
G01X12500Y-20000D02*
X25500D01*
G01X22500Y-30000D02*
Y5000D01*
G01Y140500D02*
Y122500D01*
G01X12500Y130500D02*
X24500D01*
G01X137500Y-20000D02*
X102500D01*
G01X137500Y130500D02*
X102500D01*
G01X127500Y-30000D02*
Y5000D01*
G01Y140500D02*
Y122500D01*
G54D13*
G01X30399Y197290D02*
X29399Y196957D01*
X28649Y196123D01*
X28149Y195123D01*
X27774Y193790D01*
X27649Y192290D01*
X27774Y190790D01*
X28149Y189457D01*
X28649Y188456D01*
X29399Y187623D01*
X30399Y187290D01*
X31399Y187623D01*
X32149Y188456D01*
X32649Y189457D01*
X33024Y190790D01*
X33149Y192290D01*
X33024Y193790D01*
X32649Y195123D01*
X32149Y196123D01*
X31399Y196957D01*
X30399Y197290D01*
G01X40399Y187290D02*
X41274Y187457D01*
X42274Y187957D01*
X42899Y188790D01*
X43149Y189957D01*
X42899Y191123D01*
X42149Y192123D01*
X41024Y192623D01*
X39774D01*
X39024Y192957D01*
X38399Y193790D01*
X38149Y194957D01*
X38524Y196123D01*
X39399Y196957D01*
X40399Y197290D01*
X41399Y196957D01*
X42274Y196123D01*
X42649Y194957D01*
X42399Y193790D01*
X41774Y192957D01*
X41024Y192623D01*
X39774D01*
X38649Y192123D01*
X37899Y191123D01*
X37649Y189957D01*
X37899Y188790D01*
X38524Y187957D01*
X39524Y187457D01*
X40399Y187290D01*
G01X48774Y190623D02*
X52024D01*
G01X118774D02*
X122024D01*
G01X130399Y197290D02*
X129399Y196957D01*
X128649Y196123D01*
X128149Y195123D01*
X127774Y193790D01*
X127649Y192290D01*
X127774Y190790D01*
X128149Y189457D01*
X128649Y188456D01*
X129399Y187623D01*
X130399Y187290D01*
X131399Y187623D01*
X132149Y188456D01*
X132649Y189457D01*
X133024Y190790D01*
X133149Y192290D01*
X133024Y193790D01*
X132649Y195123D01*
X132149Y196123D01*
X131399Y196957D01*
X130399Y197290D01*
G01X140399Y187290D02*
X141274Y187457D01*
X142274Y187957D01*
X142899Y188790D01*
X143149Y189957D01*
X142899Y191123D01*
X142149Y192123D01*
X141024Y192623D01*
X139774D01*
X139024Y192957D01*
X138399Y193790D01*
X138149Y194957D01*
X138524Y196123D01*
X139399Y196957D01*
X140399Y197290D01*
X141399Y196957D01*
X142274Y196123D01*
X142649Y194957D01*
X142399Y193790D01*
X141774Y192957D01*
X141024Y192623D01*
X139774D01*
X138649Y192123D01*
X137899Y191123D01*
X137649Y189957D01*
X137899Y188790D01*
X138524Y187957D01*
X139524Y187457D01*
X140399Y187290D01*
G01X62899Y167290D02*
Y177290D01*
X66024D01*
X67024Y176790D01*
X67649Y176123D01*
X67899Y174790D01*
X67649Y173457D01*
X66899Y172623D01*
X66024Y172123D01*
X62899D01*
G01X66024D02*
X67899Y167290D01*
G01X77899D02*
X72899D01*
Y177290D01*
X77899D01*
G01X75899Y172457D02*
X72899D01*
G01X82274Y177290D02*
X85399Y167290D01*
X88524Y177290D01*
G01X106399Y172623D02*
X106899Y173123D01*
X107274Y173956D01*
X107524Y175123D01*
X107274Y176123D01*
X106774Y176790D01*
X105899Y177290D01*
X102524D01*
Y167290D01*
X106649D01*
X107524Y167957D01*
X108024Y168957D01*
X108274Y170123D01*
X108024Y171290D01*
X107274Y172290D01*
X106399Y172623D01*
X102524D01*
G01X60399Y197290D02*
X59399Y196957D01*
X58649Y196123D01*
X58149Y195123D01*
X57774Y193790D01*
X57649Y192290D01*
X57774Y190790D01*
X58149Y189457D01*
X58649Y188456D01*
X59399Y187623D01*
X60399Y187290D01*
X61399Y187623D01*
X62149Y188456D01*
X62649Y189457D01*
X63024Y190790D01*
X63149Y192290D01*
X63024Y193790D01*
X62649Y195123D01*
X62149Y196123D01*
X61399Y196957D01*
X60399Y197290D01*
G01X67649Y188790D02*
X68399Y187957D01*
X69274Y187457D01*
X70399Y187290D01*
X71524Y187623D01*
X72399Y188290D01*
X73024Y189457D01*
X73149Y190790D01*
X72899Y192123D01*
X72274Y192957D01*
X71399Y193623D01*
X70524Y193790D01*
X69649Y193623D01*
X68524Y192957D01*
X68899Y197290D01*
X72274D01*
G01X80399Y187290D02*
X81274Y187457D01*
X82274Y187957D01*
X82899Y188790D01*
X83149Y189957D01*
X82899Y191123D01*
X82149Y192123D01*
X81024Y192623D01*
X79774D01*
X79024Y192957D01*
X78399Y193790D01*
X78149Y194957D01*
X78524Y196123D01*
X79399Y196957D01*
X80399Y197290D01*
X81399Y196957D01*
X82274Y196123D01*
X82649Y194957D01*
X82399Y193790D01*
X81774Y192957D01*
X81024Y192623D01*
X79774D01*
X78649Y192123D01*
X77899Y191123D01*
X77649Y189957D01*
X77899Y188790D01*
X78524Y187957D01*
X79524Y187457D01*
X80399Y187290D01*
G01X88274Y188456D02*
X89149Y187623D01*
X90149Y187290D01*
X91149Y187623D01*
X92024Y188623D01*
X92649Y190123D01*
X92899Y191623D01*
Y193457D01*
X92649Y194957D01*
X92024Y196290D01*
X91274Y196957D01*
X90399Y197290D01*
X89399Y196957D01*
X88649Y196290D01*
X88149Y195290D01*
X87899Y193956D01*
X88149Y192790D01*
X88774Y191623D01*
X89524Y190956D01*
X90399Y190790D01*
X91399Y191123D01*
X92149Y191957D01*
X92899Y193457D01*
G01X98024Y195623D02*
X98774Y196623D01*
X99649Y197123D01*
X100649Y197290D01*
X101899Y196957D01*
X102774Y196123D01*
X103024Y195123D01*
X102899Y194123D01*
X102399Y193290D01*
X99899Y191623D01*
X98774Y190457D01*
X98024Y188790D01*
X97774Y187290D01*
X103024D01*
G01X111899D02*
Y197290D01*
X107274Y190123D01*
X113524D01*
G01X57899Y217290D02*
Y207290D01*
X62899D01*
G01X67649Y209290D02*
X68399Y208123D01*
X69399Y207457D01*
X70524Y207290D01*
X71524Y207457D01*
X72524Y208290D01*
X73149Y209290D01*
X73274Y210290D01*
X73024Y211456D01*
X72149Y212290D01*
X71274Y212623D01*
X70149D01*
G01X71274D02*
X72024Y213123D01*
X72649Y213956D01*
X72899Y214957D01*
X72649Y215957D01*
X72024Y216790D01*
X70899Y217290D01*
X69774Y217123D01*
X68649Y216457D01*
G01X91149Y212290D02*
X93649D01*
Y209290D01*
X92899Y208290D01*
X92024Y207623D01*
X90774Y207290D01*
X89524Y207623D01*
X88649Y208290D01*
X87899Y209290D01*
X87399Y210457D01*
X87149Y211790D01*
Y212957D01*
X87399Y213956D01*
X87899Y215123D01*
X88649Y216123D01*
X89399Y216790D01*
X90399Y217290D01*
X91274D01*
X92274Y216957D01*
X93024Y216290D01*
G01X97524Y207290D02*
Y217290D01*
X103274Y207290D01*
Y217290D01*
G01X107649Y207290D02*
Y217290D01*
X110149D01*
X111149Y216790D01*
X111899Y216123D01*
X112524Y215123D01*
X113024Y213956D01*
X113149Y212290D01*
X113024Y210623D01*
X112524Y209457D01*
X111899Y208456D01*
X111149Y207790D01*
X110149Y207290D01*
X107649D01*
M02*
