G04 ================== begin FILE IDENTIFICATION RECORD ==================*
G04 Layout Name:  C:/tmp/20_058924b/worklib/02_058924a_top/physical/08_058924b.brd*
G04 Film Name:    l4_pwr*
G04 File Format:  Gerber RS274X*
G04 File Origin:  Cadence Allegro 17.2-S055*
G04 Origin Date:  Thu Sep 10 08:42:20 2020*
G04 *
G04 Layer:  VIA CLASS/L4_PWR*
G04 Layer:  PIN/L4_PWR*
G04 Layer:  ETCH/L4_PWR*
G04 Layer:  BOARD GEOMETRY/LYR_4.5*
G04 Layer:  BOARD GEOMETRY/TOOLING_CORNERS*
G04 Layer:  BOARD GEOMETRY/ROOT_NUMBER*
G04 *
G04 Offset:    (0.00 0.00)*
G04 Mirror:    No*
G04 Mode:      Positive*
G04 Rotation:  0*
G04 FullContactRelief:  No*
G04 UndefLineWidth:     8.00*
G04 ================== end FILE IDENTIFICATION RECORD ====================*
%FSLAX25Y25*MOIN*%
%IR0*IPPOS*OFA0.00000B0.00000*MIA0B0*SFA1.00000B1.00000*%
%ADD10C,.02*%
%ADD11C,.016*%
%ADD12C,.05*%
%ADD13C,.008*%
%ADD14C,.03404*%
%ADD15C,.03804*%
%ADD16O,.05002X.05802*%
G75*
%LPD*%
G75*
G36*
G01X36032Y96790D02*
X37016D01*
X37066Y96664D01*
G03X37706Y95873I1583J626D01*
G02Y95207I-221J-333D01*
G03X36947Y93790I943J-1417D01*
G03X37940Y92243I1702J0D01*
G02X38035Y91577I-167J-364D01*
G03X37447Y90290I1114J-1287D01*
G03X39149Y88588I1702J0D01*
G03X40566Y89347I0J1702D01*
G02X41232I333J-221D01*
G03X42649Y88588I1417J943D01*
G03X44126Y89445I0J1701D01*
G02X44807Y89467I347J-199D01*
G03X46227Y88703I1420J938D01*
G03X47929Y90405I0J1702D01*
G03X47302Y91724I-1701J0D01*
G02X47335Y92368I253J310D01*
G03X48034Y93317I-936J1422D01*
G02X48701Y93488I384J-112D01*
G01X53145Y89044D01*
X53107Y88928D01*
G03X53025Y88405I1620J-522D01*
G03X53932Y86900I1702J0D01*
G02X53964Y86212I-187J-353D01*
G03X53197Y84790I935J-1422D01*
G03X53824Y83471I1701J0D01*
G02X53791Y82827I-253J-310D01*
G03X53025Y81405I937J-1422D01*
G03X56429I1702J0D01*
G03X55802Y82724I-1701J0D01*
G02X55835Y83368I253J310D01*
G03X56596Y84659I-936J1422D01*
G02X57278Y84911I399J-30D01*
G01X58041Y84148D01*
G02X58022Y83566I-283J-282D01*
G03X57447Y82290I1128J-1276D01*
G03X59149Y80588I1702J0D01*
G03X59837Y80733I1J1702D01*
G02X60399Y80368I162J-366D01*
G01Y80021D01*
X60174D01*
X60151Y80027D01*
G03X59738Y80078I-414J-1651D01*
G03X58938Y79878I0J-1702D01*
G03X58138Y80078I-800J-1502D01*
G03X56436Y78376I0J-1702D01*
G03X56636Y77576I1702J0D01*
G03X56436Y76776I1502J-800D01*
G03X56636Y75976I1702J0D01*
G03X56436Y75176I1502J-800D01*
G03X58039Y73477I1702J0D01*
G03X59639Y71877I1699J99D01*
G03X59836Y71176I1699J99D01*
G03X59636Y70376I1502J-800D01*
G03X59836Y69576I1702J0D01*
G03X59636Y68776I1502J-800D01*
G03X59836Y67976I1702J0D01*
G03X59636Y67176I1502J-800D01*
G03X59836Y66376I1702J0D01*
G03X59636Y65576I1502J-800D01*
G03X61338Y63874I1702J0D01*
G03X62138Y64074I0J1702D01*
G03X62938Y63874I800J1502D01*
G03X63738Y64074I0J1702D01*
G03X64538Y63874I800J1502D01*
G03X65338Y64074I0J1702D01*
G03X66138Y63874I800J1502D01*
G03X66938Y64074I0J1702D01*
G03X67738Y63874I800J1502D01*
G03X68538Y64074I0J1702D01*
G03X69338Y63874I800J1502D01*
G03X71040Y65576I0J1702D01*
G03X70840Y66376I-1702J0D01*
G03X71040Y67176I-1502J800D01*
G03X70840Y67976I-1702J0D01*
G03X71040Y68776I-1502J800D01*
G03X70840Y69576I-1702J0D01*
G03X71040Y70376I-1502J800D01*
G03X70840Y71176I-1702J0D01*
G03X71039Y71906I-1502J801D01*
G02X71438Y72290I400J-16D01*
G01X71899D01*
Y71596D01*
X71878Y71553D01*
G03X71697Y70790I1521J-764D01*
G03X71899Y69986I1701J0D01*
G01Y68294D01*
G03Y66686I1499J-804D01*
G01Y12501D01*
X75789Y8611D01*
X75740Y8489D01*
G03X75607Y7790I1770J-699D01*
G03X75899Y6777I1903J0D01*
G01Y-11906D01*
G03Y-13514I1499J-804D01*
G01Y-15008D01*
X66700Y-15009D01*
G02X66474Y-14279I0J400D01*
G03X67301Y-12710I-1075J1569D01*
G03X66842Y-11471I-1902J0D01*
G02Y-10949I303J261D01*
G03Y-8471I-1443J1239D01*
G02Y-7949I303J261D01*
G03Y-5471I-1443J1239D01*
G02Y-4949I303J261D01*
G03Y-2471I-1443J1239D01*
G02Y-1949I303J261D01*
G03Y529I-1443J1239D01*
G02Y1051I303J261D01*
G03X67301Y2290I-1443J1239D01*
G03X65399Y4192I-1902J0D01*
G03X63953Y3526I0J-1903D01*
G02X63345I-304J260D01*
G03X61899Y4192I-1446J-1237D01*
G03X60950Y3938I1J-1902D01*
G02X60398Y4096I-199J347D01*
G03X58899Y4992I-1499J-806D01*
G03X57684Y4482I0J-1702D01*
G02X57114I-285J281D01*
G03X55899Y4992I-1215J-1192D01*
G03Y1588I0J-1702D01*
G03X57114Y2098I0J1702D01*
G02X57684I285J-281D01*
G03X58899Y1588I1215J1192D01*
G03X59615Y1746I0J1701D01*
G02X60151Y1541I168J-363D01*
G03X60456Y1051I1748J748D01*
G02Y529I-303J-261D01*
G03X60247Y233I1442J-1240D01*
G02X59561Y219I-347J199D01*
G03X57949Y1112I-1612J-1008D01*
G03X56047Y-790I0J-1902D01*
G03X56506Y-2029I1902J0D01*
G02Y-2551I-303J-261D01*
G03Y-5029I1443J-1239D01*
G02Y-5551I-303J-261D01*
G03Y-8029I1443J-1239D01*
G02Y-8551I-303J-261D01*
G03Y-11029I1443J-1239D01*
G02Y-11551I-303J-261D01*
G03Y-14029I1443J-1239D01*
G02Y-14551I-303J-261D01*
G03X56266Y-14904I1443J-1239D01*
G01X56210Y-15011D01*
X52548D01*
X52488Y-14927D01*
G03X52042Y-14493I-1390J-982D01*
G02Y-13827I221J333D01*
G03X52801Y-12410I-943J1417D01*
G03X49397I-1702J0D01*
G03X50156Y-13827I1702J0D01*
G02Y-14493I-221J-333D01*
G03X49709Y-14927I942J-1418D01*
G01X49650Y-15012D01*
X44249Y-15013D01*
X44189Y-14928D01*
G03X43742Y-14493I-1390J-982D01*
G02Y-13827I221J333D01*
G03X44501Y-12410I-943J1417D01*
G03X41097I-1702J0D01*
G03X41856Y-13827I1702J0D01*
G02Y-14493I-221J-333D01*
G03X41409Y-14928I943J-1417D01*
G01X41349Y-15013D01*
X37520Y-15014D01*
X37463Y-14906D01*
G03X37222Y-14551I-1684J-884D01*
G02Y-14029I303J261D01*
G03Y-11551I-1443J1239D01*
G02Y-11029I303J261D01*
G03Y-8551I-1443J1239D01*
G02Y-8029I303J261D01*
G03Y-5551I-1443J1239D01*
G02Y-5029I303J261D01*
G03Y-2551I-1443J1239D01*
G02Y-2029I303J261D01*
G03X37681Y-790I-1443J1239D01*
G03X35779Y1112I-1902J0D01*
G03X34197Y266I0J-1902D01*
G02X33523Y280I-333J222D01*
G03X33342Y529I-1624J-990D01*
G02Y1051I303J261D01*
G03X33801Y2290I-1443J1239D01*
G03X31899Y4192I-1902J0D01*
G03X30453Y3526I0J-1903D01*
G02X29845I-304J260D01*
G03X28399Y4192I-1446J-1237D01*
G03X27987Y4147I-1J-1902D01*
G02X27500Y4537I-87J390D01*
G01Y14575D01*
G02X28014Y14959I400J0D01*
G03X28499Y14888I486J1631D01*
G03X30201Y16590I0J1702D01*
G03X29757Y17736I-1701J0D01*
G02X29800Y18315I296J269D01*
G03X30501Y19790I-1201J1475D01*
G03X29656Y21371I-1902J0D01*
G02X29616Y22006I222J333D01*
G03X30201Y23290I-1117J1284D01*
G03X28499Y24992I-1702J0D01*
G03X28014Y24921I1J-1702D01*
G02X27500Y25305I-114J384D01*
G01Y63095D01*
G02X28078Y63453I400J0D01*
G03X28838Y63274I760J1524D01*
G03X29638Y63474I0J1702D01*
G03X30438Y63274I800J1502D01*
G03X31238Y63474I0J1702D01*
G03X32038Y63274I800J1502D01*
G03X32838Y63474I0J1702D01*
G03X33638Y63274I800J1502D01*
G03X34438Y63474I0J1702D01*
G03X35238Y63274I800J1502D01*
G03X36038Y63474I0J1702D01*
G03X36838Y63274I800J1502D01*
G03X37638Y63474I0J1702D01*
G03X38438Y63274I800J1502D01*
G03X39238Y63474I0J1702D01*
G03X40038Y63274I800J1502D01*
G03X41740Y64976I0J1702D01*
G03X41540Y65776I-1702J0D01*
G03X41740Y66576I-1502J800D01*
G03X41540Y67376I-1702J0D01*
G03X41740Y68176I-1502J800D01*
G03X41540Y68976I-1702J0D01*
G03X41740Y69776I-1502J800D01*
G03X41540Y70576I-1702J0D01*
G03X41740Y71376I-1502J800D01*
G03X40038Y73078I-1702J0D01*
G03X39238Y72878I0J-1702D01*
G03X38438Y73078I-800J-1502D01*
G03X37638Y72878I0J-1702D01*
G03X36838Y73078I-800J-1502D01*
G03X36038Y72878I0J-1702D01*
G03X35238Y73078I-800J-1502D01*
G03X34438Y72878I0J-1702D01*
G03X33638Y73078I-800J-1502D01*
G03X32838Y72878I0J-1702D01*
G03X32038Y73078I-800J-1502D01*
G03X31238Y72878I0J-1702D01*
G03X30438Y73078I-800J-1502D01*
G03X29638Y72878I0J-1702D01*
G03X28838Y73078I-800J-1502D01*
G03X28078Y72899I0J-1703D01*
G02X27500Y73257I-178J358D01*
G01Y87973D01*
G02X28057Y88340I400J-1D01*
G03X28727Y88203I669J1565D01*
G03Y91607I0J1702D01*
G03X28057Y91470I-1J-1702D01*
G02X27500Y91837I-157J368D01*
G01Y96790D01*
X28516D01*
X28566Y96664D01*
G03X29206Y95873I1583J626D01*
G02Y95207I-221J-333D01*
G03X28447Y93790I943J-1417D01*
G03X31851I1702J0D01*
G03X31092Y95207I-1702J0D01*
G02Y95873I221J333D01*
G03X31732Y96664I-943J1417D01*
G01X31782Y96790D01*
X32766D01*
X32816Y96664D01*
G03X33456Y95873I1583J626D01*
G02Y95207I-221J-333D01*
G03Y92373I943J-1417D01*
G02Y91707I-221J-333D01*
G03X32697Y90290I943J-1417D01*
G03X36101I1702J0D01*
G03X35342Y91707I-1702J0D01*
G02Y92373I221J333D01*
G03Y95207I-943J1417D01*
G02Y95873I221J333D01*
G03X35982Y96664I-943J1417D01*
G01X36032Y96790D01*
G37*
G36*
G01X27499Y125653D02*
X83182D01*
G02X83531Y125058I0J-400D01*
G03X83161Y123641I2532J-1418D01*
G01Y120941D01*
G03X84899Y118283I2901J0D01*
G01Y78290D01*
X95399Y67790D01*
X122566D01*
X122510Y-15010D01*
X77101D01*
Y5488D01*
G02X77502Y5888I400J0D01*
G01X77509D01*
G03Y9692I0J1902D01*
G03X76746Y9532I1J-1902D01*
G01X76621Y9478D01*
X73899Y12200D01*
Y65962D01*
X74021Y66014D01*
G03X75001Y67490I-622J1476D01*
G03X74306Y68810I-1601J0D01*
G02Y69470I227J330D01*
G03X75001Y70790I-906J1320D01*
G03X74021Y72266I-1602J0D01*
G01X73899Y72318D01*
Y74290D01*
X70772D01*
G03X69338Y75178I-1434J-714D01*
G03X68538Y74964I0J-1602D01*
G03X66938I-800J-1388D01*
G03X65338I-800J-1388D01*
G03X63738I-800J-1388D01*
G03X62940Y75178I-800J-1388D01*
G03X62726Y75976I-1602J-2D01*
G03Y77576I-1388J800D01*
G03X62940Y78376I-1388J800D01*
G03X62399Y79576I-1601J0D01*
G01Y83290D01*
X60406Y85283D01*
X60494Y85419D01*
G03X60751Y86290I-1345J870D01*
G03X59149Y87892I-1602J0D01*
G03X58278Y87635I-1J-1602D01*
G01X58142Y87547D01*
X47932Y97757D01*
X47917Y97801D01*
G03X46399Y98892I-1518J-511D01*
G03X45147Y98290I0J-1603D01*
G01X43901D01*
G03X41397I-1252J-1001D01*
G01X39901D01*
G03X37397I-1252J-1001D01*
G01X35651D01*
G03X33147I-1252J-1001D01*
G01X31401D01*
G03X28897I-1252J-1001D01*
G01X27499D01*
Y125653D01*
G37*
G36*
G01X121856Y125584D02*
X122499D01*
Y69790D01*
X112199D01*
Y69784D01*
X111262Y69790D01*
X97110D01*
X87899Y79001D01*
Y118694D01*
G03X88965Y120941I-1835J2247D01*
G01Y123641D01*
G03X88628Y124997I-2902J-1D01*
G02X88982Y125584I354J187D01*
G01X90973D01*
Y121799D01*
G03X95325I2176J0D01*
G01Y125584D01*
X109675D01*
Y121799D01*
G03X114027I2176J0D01*
G01Y125584D01*
X116018D01*
G02X116372Y124997I0J-400D01*
G03X116035Y123641I2565J-1357D01*
G01Y120941D01*
G03X121839I2902J0D01*
G01Y123641D01*
G03X121502Y124997I-2902J-1D01*
G02X121856Y125584I354J187D01*
G37*
%LPC*%
G75*
G36*
G01X49949Y43945D02*
G03Y44535I-270J295D01*
G02X49397Y45790I1151J1255D01*
G02X52801I1702J0D01*
G02X52249Y44535I-1703J0D01*
G03Y43945I270J-295D01*
G02X52801Y42690I-1151J-1255D01*
G02X49397I-1702J0D01*
G02X49949Y43945I1703J0D01*
G37*
G36*
G01X41539Y48084D02*
G03X41548Y48636I-285J281D01*
G02X41097Y49790I1251J1154D01*
G02X44501I1702J0D01*
G02X44009Y48593I-1702J0D01*
G03X44000Y48041I285J-281D01*
G02X44451Y46887I-1251J-1154D01*
G02X41047I-1702J0D01*
G02X41539Y48084I1702J0D01*
G37*
G36*
G01X51089Y54963D02*
G03X51374Y55534I-73J393D01*
G02X51197Y56290I1526J756D01*
G02X54601I1702J0D01*
G02X53209Y54617I-1701J0D01*
G03X52924Y54046I73J-393D01*
G02X53101Y53290I-1526J-756D01*
G02X53047Y52864I-1702J-1D01*
G02X54101Y51290I-648J-1574D01*
G02X50697I-1702J0D01*
G02X50751Y51716I1702J1D01*
G02X49697Y53290I648J1574D01*
G02X51089Y54963I1701J0D01*
G37*
G36*
G01X51538Y72778D02*
G02X53138I800J-1502D01*
G02X53938Y72978I800J-1502D01*
G02X54738Y72778I0J-1702D01*
G02X55538Y72978I800J-1502D01*
G02X57240Y71276I0J-1702D01*
G02X57040Y70476I-1702J0D01*
G02X57240Y69676I-1502J-800D01*
G02X57040Y68876I-1702J0D01*
G02X57240Y68076I-1502J-800D01*
G02X57040Y67276I-1702J0D01*
G02X57240Y66476I-1502J-800D01*
G02X57040Y65676I-1702J0D01*
G02X57240Y64876I-1502J-800D01*
G02X55538Y63174I-1702J0D01*
G02X54738Y63374I0J1702D01*
G02X53938Y63174I-800J1502D01*
G02X53138Y63374I0J1702D01*
G02X52338Y63174I-800J1502D01*
G02X51538Y63374I0J1702D01*
G02X50738Y63174I-800J1502D01*
G02X49938Y63374I0J1702D01*
G02X49138Y63174I-800J1502D01*
G02X48338Y63374I0J1702D01*
G02X47538Y63174I-800J1502D01*
G02X46738Y63374I0J1702D01*
G02X45938Y63174I-800J1502D01*
G02X44236Y64876I0J1702D01*
G02X44436Y65676I1702J0D01*
G02X44236Y66476I1502J800D01*
G02X44436Y67276I1702J0D01*
G02X44236Y68076I1502J800D01*
G02X44436Y68876I1702J0D01*
G02X44236Y69676I1502J800D01*
G02X44436Y70476I1702J0D01*
G02X44236Y71276I1502J800D01*
G02X45938Y72978I1702J0D01*
G02X46738Y72778I0J-1702D01*
G02X47538Y72978I800J-1502D01*
G02X48338Y72778I0J-1702D01*
G02X49138Y72978I800J-1502D01*
G02X49938Y72778I0J-1702D01*
G02X50738Y72978I800J-1502D01*
G02X51538Y72778I0J-1702D01*
G37*
G36*
G01X41011Y12338D02*
G02X43601Y13790I888J1452D01*
G02X43435Y13056I-1702J-1D01*
G03X43587Y12542I361J-173D01*
G02X44401Y11090I-888J-1452D01*
G02X43617Y9657I-1702J0D01*
G03X43636Y8972I216J-337D01*
G02X44501Y7490I-837J-1482D01*
G02X41097I-1702J0D01*
G02X41881Y8923I1702J0D01*
G03X41862Y9608I-216J337D01*
G02X40997Y11090I837J1482D01*
G02X41163Y11824I1702J1D01*
G03X41011Y12338I-361J173D01*
G37*
G36*
G01X41856Y33273D02*
G02X44501Y34690I943J1417D01*
G02X43742Y33273I-1702J0D01*
G03Y32607I221J-333D01*
G02X44501Y31190I-943J-1417D01*
G02X43336Y29575I-1702J0D01*
G03X43165Y28928I126J-379D01*
G02X43601Y27790I-1267J-1138D01*
G02X43182Y26671I-1702J-1D01*
G03Y26409I151J-131D01*
G02X43601Y25290I-1283J-1118D01*
G02X40197I-1702J0D01*
G02X40616Y26409I1702J1D01*
G03Y26671I-151J131D01*
G02X40197Y27790I1283J1118D01*
G02X41362Y29405I1702J0D01*
G03X41533Y30052I-126J379D01*
G02X41097Y31190I1267J1138D01*
G02X41856Y32607I1702J0D01*
G03Y33273I-221J333D01*
G37*
G36*
G01X50156D02*
G02X51099Y36392I943J1417D01*
G02X52411Y35775I1J-1702D01*
G03X52943Y35698I308J254D01*
G02X53899Y35992I956J-1407D01*
G02X55550Y34704I0J-1702D01*
G03X56216Y34514I388J97D01*
G02X57399Y34992I1183J-1225D01*
G02Y31588I0J-1702D01*
G02X55748Y32876I0J1702D01*
G03X55082Y33066I-388J-97D01*
G02X53899Y32588I-1183J1225D01*
G02X52587Y33205I-1J1702D01*
G03X52055Y33282I-308J-254D01*
G02X52042Y33273I-975J1395D01*
G03Y32607I221J-333D01*
G02X52797Y31309I-943J-1417D01*
G03X53387Y30986I399J28D01*
G02X54199Y31192I812J-1497D01*
G02Y27788I0J-1702D01*
G02X54009Y27799I3J1702D01*
G03X53572Y27475I-44J-398D01*
G02X53182Y26671I-1673J315D01*
G03Y26409I151J-131D01*
G02X53601Y25290I-1283J-1118D01*
G02X53091Y24075I-1702J0D01*
G03Y23505I281J-285D01*
G02X53601Y22290I-1192J-1215D01*
G02X52842Y20873I-1702J0D01*
G03Y20207I221J-333D01*
G02X53601Y18790I-943J-1417D01*
G02X53182Y17671I-1702J-1D01*
G03Y17409I151J-131D01*
G02X53601Y16290I-1283J-1118D01*
G02X53182Y15171I-1702J-1D01*
G03Y14909I151J-131D01*
G02X53601Y13790I-1283J-1118D01*
G02X50197I-1702J0D01*
G02X50616Y14909I1702J1D01*
G03Y15171I-151J131D01*
G02X50197Y16290I1283J1118D01*
G02X50616Y17409I1702J1D01*
G03Y17671I-151J131D01*
G02X50197Y18790I1283J1118D01*
G02X50956Y20207I1702J0D01*
G03Y20873I-221J333D01*
G02X50197Y22290I943J1417D01*
G02X50707Y23505I1702J0D01*
G03Y24075I-281J285D01*
G02X50197Y25290I1192J1215D01*
G02X50616Y26409I1702J1D01*
G03Y26671I-151J131D01*
G02X50197Y27790I1283J1118D01*
G02X50653Y28950I1702J0D01*
G03X50501Y29597I-293J273D01*
G02X49397Y31190I597J1593D01*
G02X50156Y32607I1702J0D01*
G03Y33273I-221J333D01*
G37*
G36*
G01X94965Y50040D02*
G02Y52540I1434J1250D01*
G02X94497Y53790I1435J1250D01*
G02X98301I1902J0D01*
G02X97833Y52540I-1903J0D01*
G02X98301Y51290I-1435J-1250D01*
G02X98293Y51119I-1902J3D01*
G03X98728Y50684I398J-37D01*
G02X98899Y50692I174J-1894D01*
G02Y46888I0J-1902D01*
G02X97649Y47356I0J1903D01*
G02X96399Y46888I-1250J1435D01*
G02X94497Y48790I0J1902D01*
G02X94965Y50040I1903J0D01*
G37*
G36*
G01X113057Y59261D02*
G02X116402Y60500I1443J1239D01*
G02X115943Y59261I-1902J0D01*
G03Y58739I303J-261D01*
G02X116402Y57500I-1443J-1239D01*
G02X116087Y56452I-1901J0D01*
G03X116218Y55887I334J-220D01*
G02X116739Y55434I-967J-1638D01*
G03X117434Y55564I313J249D01*
G02X119250Y56902I1816J-563D01*
G02X121152Y55000I0J-1902D01*
G02X120110Y53303I-1903J0D01*
G03X119979Y52695I180J-357D01*
G02X120402Y51500I-1479J-1196D01*
G02X119995Y50324I-1902J0D01*
G03X120034Y49786I314J-248D01*
G02X120629Y48405I-1307J-1382D01*
G02X116825I-1902J0D01*
G02X117232Y49581I1902J0D01*
G03X117193Y50119I-314J248D01*
G02X116598Y51500I1307J1382D01*
G02X117640Y53197I1903J0D01*
G03X117771Y53805I-180J357D01*
G02X117761Y53816I1400J1282D01*
G03X117066Y53686I-313J-249D01*
G02X115250Y52348I-1816J563D01*
G02X113348Y54250I0J1902D01*
G02X113663Y55298I1901J0D01*
G03X113532Y55863I-334J220D01*
G02X112598Y57500I968J1637D01*
G02X113057Y58739I1902J0D01*
G03Y59261I-303J261D01*
G37*
G54D14*
X37500Y12500D03*
Y7500D03*
X37399Y3290D03*
X42799Y-4510D03*
X51099D03*
Y-8410D03*
X42799Y-8510D03*
X51099Y-410D03*
Y7490D03*
X42799Y-510D03*
Y3590D03*
X51099Y3490D03*
X56000Y7500D03*
X41899Y19790D03*
X51099Y38790D03*
X42799D03*
Y42790D03*
X42899Y55290D03*
X71899Y-12710D03*
X68899Y27790D03*
Y23790D03*
G54D15*
X31799Y36790D03*
X85399Y-6210D03*
X84399Y13790D03*
X88399Y61790D03*
X104649Y1540D03*
X101500Y54000D03*
X106000D03*
X108227Y48905D03*
X111000Y54000D03*
G54D16*
X111260Y110480D03*
X93740D03*
%LPD*%
G75*
G54D10*
X38399Y24290D03*
X36149Y43040D03*
X38399Y36790D03*
X30899Y56290D03*
X34869Y83020D03*
X37869D03*
X31869D03*
X37899Y80290D03*
X34899D03*
X31899D03*
X37909Y113381D03*
Y116881D03*
X38000Y120400D03*
Y123900D03*
X54316Y38463D03*
Y40963D03*
X41749Y58940D03*
X41799Y61390D03*
X40899Y80290D03*
Y82790D03*
Y85290D03*
X41409Y113381D03*
Y116881D03*
X41500Y120400D03*
Y123900D03*
X69738Y-4924D03*
X72238D03*
X69799Y2490D03*
X72199D03*
X72238Y-2424D03*
X69738Y76D03*
Y-2424D03*
X72238Y76D03*
X61899Y57290D03*
Y59290D03*
Y61290D03*
X63899D03*
Y59290D03*
Y57290D03*
X65899D03*
Y59290D03*
Y61290D03*
X59899Y59290D03*
Y61290D03*
X59909Y116881D03*
Y113381D03*
X63409D03*
Y116881D03*
X59909Y123881D03*
X63409D03*
Y120381D03*
X59909D03*
X74738Y-2424D03*
X74699Y2490D03*
X74738Y76D03*
X89899Y85790D03*
Y89790D03*
X98605Y71470D03*
X98353Y77795D03*
X94899Y74284D03*
X93415Y76787D03*
X102914Y81704D03*
X90399Y81684D03*
X96500Y94500D03*
X92899Y79784D03*
Y86290D03*
X95899Y80084D03*
X99972Y81809D03*
X93399Y89790D03*
Y83290D03*
X99500Y94500D03*
X95399Y98290D03*
X95899Y106040D03*
X100399Y106290D03*
X108378Y75757D03*
G54D11*
X38649Y104290D03*
X34399Y108290D03*
X30149Y104290D03*
X34399D03*
X38649Y108290D03*
X30149D03*
X38649Y100790D03*
X30149D03*
X34399D03*
X30149Y112290D03*
Y116290D03*
Y120040D03*
Y124040D03*
X34399Y112290D03*
Y116290D03*
Y120040D03*
Y124040D03*
X54899Y91790D03*
Y95290D03*
X42649Y104290D03*
X55227Y108405D03*
X46399Y108290D03*
X55227Y104405D03*
X46399Y104290D03*
X42649Y108290D03*
X46399Y100790D03*
X54899Y98290D03*
X42649Y100790D03*
X46399Y112290D03*
Y116790D03*
X55227Y112405D03*
Y116405D03*
X46399Y120290D03*
Y124290D03*
X55227Y120405D03*
Y124405D03*
X70938Y77176D03*
Y78776D03*
X72538Y77176D03*
Y78776D03*
X70938Y75576D03*
X72538D03*
X69338Y76776D03*
X64538D03*
Y78376D03*
X69338D03*
X67738D03*
Y76776D03*
X66138Y78376D03*
Y76776D03*
X63399Y90290D03*
Y82290D03*
X59149Y90290D03*
X63399Y86290D03*
X67649D03*
Y90290D03*
X71649Y92290D03*
X67649Y82290D03*
X70938Y88376D03*
Y80376D03*
Y86776D03*
X72538Y81976D03*
X70938Y83576D03*
X72538Y80376D03*
X70938Y81976D03*
Y85176D03*
X72538Y88376D03*
Y83576D03*
Y85176D03*
Y86776D03*
X59149Y93290D03*
X67649D03*
X63399D03*
X59149Y108540D03*
Y104290D03*
X67649Y108290D03*
Y104290D03*
X63399D03*
Y108290D03*
X71649Y100290D03*
Y96290D03*
Y108290D03*
Y104290D03*
X59149Y100290D03*
X67649D03*
X63399D03*
X59149Y96290D03*
X67649D03*
X63399D03*
X71649Y120040D03*
X67649D03*
X71649Y116040D03*
Y112040D03*
X67649D03*
Y116040D03*
X71649Y124040D03*
X67649D03*
X87500Y-12500D03*
X82500D03*
X77399Y-12710D03*
X85500Y25400D03*
Y20400D03*
X89399Y14790D03*
X75500Y35400D03*
X75350Y40250D03*
X80500Y35400D03*
X75500Y30400D03*
X85500Y40400D03*
X80500D03*
X85500Y35400D03*
X80500Y30400D03*
X85500D03*
X80500Y45400D03*
X83500Y78000D03*
X83399Y67490D03*
X76399Y77790D03*
X83399Y64090D03*
Y70790D03*
X86399Y67290D03*
Y64290D03*
Y70790D03*
Y74290D03*
X83399D03*
X76399D03*
X74138Y75576D03*
Y77176D03*
Y78776D03*
X79899Y70790D03*
Y64090D03*
Y67490D03*
X76399Y70790D03*
Y64090D03*
Y67490D03*
X79899Y77790D03*
Y74290D03*
X76899Y82790D03*
X75649Y92290D03*
X79649D03*
X83399D03*
X83500Y87750D03*
Y82750D03*
X76899Y87790D03*
X74138Y83576D03*
Y81976D03*
Y86776D03*
Y80376D03*
Y85176D03*
X74149Y88390D03*
X79899Y87790D03*
Y82790D03*
X79649Y104290D03*
X75649D03*
X79649Y100290D03*
Y96290D03*
X75649D03*
Y100290D03*
X79649Y108290D03*
X75649D03*
X83399Y96290D03*
Y100290D03*
Y104290D03*
Y108290D03*
X79649Y120040D03*
X75649D03*
X79649Y116040D03*
Y112040D03*
X75649D03*
Y116040D03*
X79649Y124040D03*
X75649D03*
X83399Y112040D03*
Y116040D03*
X102500Y-7500D03*
X97500D03*
Y-12500D03*
X92500D03*
X102500D03*
Y-2500D03*
X97500D03*
X90399Y10290D03*
X93399D03*
X96899D03*
Y7290D03*
Y4290D03*
X93399Y7290D03*
Y4790D03*
X102899Y27790D03*
X97500Y27500D03*
X90500Y20400D03*
Y25400D03*
X96500Y22500D03*
Y17500D03*
X93399Y14790D03*
X102899Y32790D03*
X90500Y30400D03*
Y35400D03*
X98399Y38790D03*
X102899Y35790D03*
X105727Y61405D03*
Y58905D03*
X97727Y60405D03*
X95727D03*
X93727D03*
X99899Y60290D03*
X93727Y68405D03*
X95727Y66405D03*
X99727D03*
X97727D03*
Y64405D03*
X95727D03*
X99727D03*
Y62405D03*
X93727Y66405D03*
Y64405D03*
X89899Y67290D03*
Y70790D03*
X97727Y62405D03*
X95727D03*
X93727D03*
X117500Y-7500D03*
X112500D03*
X107500D03*
X117500Y-12500D03*
X112500D03*
X107500D03*
X121399Y-12210D03*
Y-7210D03*
X117500Y2500D03*
Y-2500D03*
X112500D03*
X107500D03*
X107599Y2090D03*
X112499Y2290D03*
Y6390D03*
X112299Y10090D03*
X121399Y-2210D03*
X107500Y27500D03*
X112500D03*
X117500D03*
Y22500D03*
Y17500D03*
X112499Y22190D03*
X112399Y17490D03*
X112299Y13590D03*
X121399Y17290D03*
X120899Y22290D03*
Y27290D03*
X112500Y32500D03*
X117500D03*
Y37500D03*
X107500Y32500D03*
X107399Y35790D03*
X112399D03*
X108399Y41290D03*
Y38790D03*
X120899Y32290D03*
Y37790D03*
X108227Y61405D03*
Y58905D03*
G54D12*
G01X12500Y-20000D02*
X25500D01*
G01X22500Y-30000D02*
Y5000D01*
G01Y140500D02*
Y122500D01*
G01X12500Y130500D02*
X24500D01*
G01X137500Y-20000D02*
X102500D01*
G01X137500Y130500D02*
X102500D01*
G01X127500Y-30000D02*
Y5000D01*
G01Y140500D02*
Y122500D01*
G54D13*
G01X30399Y197290D02*
X29399Y196957D01*
X28649Y196123D01*
X28149Y195123D01*
X27774Y193790D01*
X27649Y192290D01*
X27774Y190790D01*
X28149Y189457D01*
X28649Y188456D01*
X29399Y187623D01*
X30399Y187290D01*
X31399Y187623D01*
X32149Y188456D01*
X32649Y189457D01*
X33024Y190790D01*
X33149Y192290D01*
X33024Y193790D01*
X32649Y195123D01*
X32149Y196123D01*
X31399Y196957D01*
X30399Y197290D01*
G01X40399Y187290D02*
X41274Y187457D01*
X42274Y187957D01*
X42899Y188790D01*
X43149Y189957D01*
X42899Y191123D01*
X42149Y192123D01*
X41024Y192623D01*
X39774D01*
X39024Y192957D01*
X38399Y193790D01*
X38149Y194957D01*
X38524Y196123D01*
X39399Y196957D01*
X40399Y197290D01*
X41399Y196957D01*
X42274Y196123D01*
X42649Y194957D01*
X42399Y193790D01*
X41774Y192957D01*
X41024Y192623D01*
X39774D01*
X38649Y192123D01*
X37899Y191123D01*
X37649Y189957D01*
X37899Y188790D01*
X38524Y187957D01*
X39524Y187457D01*
X40399Y187290D01*
G01X48774Y190623D02*
X52024D01*
G01X118774D02*
X122024D01*
G01X130399Y197290D02*
X129399Y196957D01*
X128649Y196123D01*
X128149Y195123D01*
X127774Y193790D01*
X127649Y192290D01*
X127774Y190790D01*
X128149Y189457D01*
X128649Y188456D01*
X129399Y187623D01*
X130399Y187290D01*
X131399Y187623D01*
X132149Y188456D01*
X132649Y189457D01*
X133024Y190790D01*
X133149Y192290D01*
X133024Y193790D01*
X132649Y195123D01*
X132149Y196123D01*
X131399Y196957D01*
X130399Y197290D01*
G01X138274Y188456D02*
X139149Y187623D01*
X140149Y187290D01*
X141149Y187623D01*
X142024Y188623D01*
X142649Y190123D01*
X142899Y191623D01*
Y193457D01*
X142649Y194957D01*
X142024Y196290D01*
X141274Y196957D01*
X140399Y197290D01*
X139399Y196957D01*
X138649Y196290D01*
X138149Y195290D01*
X137899Y193956D01*
X138149Y192790D01*
X138774Y191623D01*
X139524Y190956D01*
X140399Y190790D01*
X141399Y191123D01*
X142149Y191957D01*
X142899Y193457D01*
G01X62899Y167290D02*
Y177290D01*
X66024D01*
X67024Y176790D01*
X67649Y176123D01*
X67899Y174790D01*
X67649Y173457D01*
X66899Y172623D01*
X66024Y172123D01*
X62899D01*
G01X66024D02*
X67899Y167290D01*
G01X77899D02*
X72899D01*
Y177290D01*
X77899D01*
G01X75899Y172457D02*
X72899D01*
G01X82274Y177290D02*
X85399Y167290D01*
X88524Y177290D01*
G01X106399Y172623D02*
X106899Y173123D01*
X107274Y173956D01*
X107524Y175123D01*
X107274Y176123D01*
X106774Y176790D01*
X105899Y177290D01*
X102524D01*
Y167290D01*
X106649D01*
X107524Y167957D01*
X108024Y168957D01*
X108274Y170123D01*
X108024Y171290D01*
X107274Y172290D01*
X106399Y172623D01*
X102524D01*
G01X60399Y197290D02*
X59399Y196957D01*
X58649Y196123D01*
X58149Y195123D01*
X57774Y193790D01*
X57649Y192290D01*
X57774Y190790D01*
X58149Y189457D01*
X58649Y188456D01*
X59399Y187623D01*
X60399Y187290D01*
X61399Y187623D01*
X62149Y188456D01*
X62649Y189457D01*
X63024Y190790D01*
X63149Y192290D01*
X63024Y193790D01*
X62649Y195123D01*
X62149Y196123D01*
X61399Y196957D01*
X60399Y197290D01*
G01X67649Y188790D02*
X68399Y187957D01*
X69274Y187457D01*
X70399Y187290D01*
X71524Y187623D01*
X72399Y188290D01*
X73024Y189457D01*
X73149Y190790D01*
X72899Y192123D01*
X72274Y192957D01*
X71399Y193623D01*
X70524Y193790D01*
X69649Y193623D01*
X68524Y192957D01*
X68899Y197290D01*
X72274D01*
G01X80399Y187290D02*
X81274Y187457D01*
X82274Y187957D01*
X82899Y188790D01*
X83149Y189957D01*
X82899Y191123D01*
X82149Y192123D01*
X81024Y192623D01*
X79774D01*
X79024Y192957D01*
X78399Y193790D01*
X78149Y194957D01*
X78524Y196123D01*
X79399Y196957D01*
X80399Y197290D01*
X81399Y196957D01*
X82274Y196123D01*
X82649Y194957D01*
X82399Y193790D01*
X81774Y192957D01*
X81024Y192623D01*
X79774D01*
X78649Y192123D01*
X77899Y191123D01*
X77649Y189957D01*
X77899Y188790D01*
X78524Y187957D01*
X79524Y187457D01*
X80399Y187290D01*
G01X88274Y188456D02*
X89149Y187623D01*
X90149Y187290D01*
X91149Y187623D01*
X92024Y188623D01*
X92649Y190123D01*
X92899Y191623D01*
Y193457D01*
X92649Y194957D01*
X92024Y196290D01*
X91274Y196957D01*
X90399Y197290D01*
X89399Y196957D01*
X88649Y196290D01*
X88149Y195290D01*
X87899Y193956D01*
X88149Y192790D01*
X88774Y191623D01*
X89524Y190956D01*
X90399Y190790D01*
X91399Y191123D01*
X92149Y191957D01*
X92899Y193457D01*
G01X98024Y195623D02*
X98774Y196623D01*
X99649Y197123D01*
X100649Y197290D01*
X101899Y196957D01*
X102774Y196123D01*
X103024Y195123D01*
X102899Y194123D01*
X102399Y193290D01*
X99899Y191623D01*
X98774Y190457D01*
X98024Y188790D01*
X97774Y187290D01*
X103024D01*
G01X111899D02*
Y197290D01*
X107274Y190123D01*
X113524D01*
G01X57899Y217290D02*
Y207290D01*
X62899D01*
G01X71899D02*
Y217290D01*
X67274Y210123D01*
X73524D01*
G01X87899Y207290D02*
Y217290D01*
X90899D01*
X91899Y216790D01*
X92649Y215623D01*
X92899Y214290D01*
X92649Y212957D01*
X92024Y211957D01*
X90899Y211456D01*
X87899D01*
G01X96649Y217290D02*
X98399Y207290D01*
X100399Y217290D01*
X102399Y207290D01*
X104149Y217290D01*
G01X107899Y207290D02*
Y217290D01*
X111024D01*
X112024Y216790D01*
X112649Y216123D01*
X112899Y214790D01*
X112649Y213457D01*
X111899Y212623D01*
X111024Y212123D01*
X107899D01*
G01X111024D02*
X112899Y207290D01*
M02*
