G04 ================== begin FILE IDENTIFICATION RECORD ==================*
G04 Layout Name:  C:/tmp/20_058924b/worklib/02_058924a_top/physical/08_058924b.brd*
G04 Film Name:    l6_secondary*
G04 File Format:  Gerber RS274X*
G04 File Origin:  Cadence Allegro 17.2-S055*
G04 Origin Date:  Thu Sep 10 08:42:21 2020*
G04 *
G04 Layer:  VIA CLASS/BOTTOM*
G04 Layer:  PIN/BOTTOM*
G04 Layer:  ETCH/BOTTOM*
G04 Layer:  PACKAGE GEOMETRY/ETCH_BOTTOM*
G04 Layer:  BOARD GEOMETRY/LYR_BOTTOM*
G04 Layer:  BOARD GEOMETRY/TOOLING_CORNERS*
G04 Layer:  BOARD GEOMETRY/ROOT_NUMBER*
G04 *
G04 Offset:    (0.00 0.00)*
G04 Mirror:    No*
G04 Mode:      Positive*
G04 Rotation:  0*
G04 FullContactRelief:  No*
G04 UndefLineWidth:     8.00*
G04 ================== end FILE IDENTIFICATION RECORD ====================*
%FSLAX25Y25*MOIN*%
%IR0*IPPOS*OFA0.00000B0.00000*MIA0B0*SFA1.00000B1.00000*%
%AMMACRO29*
4,1,23,.0275,-.0375,
.0275,.0375,
-.0035,.0375,
-.007655,.03715,
-.011687,.036084,
-.015472,.034334,
-.018895,.031953,
-.021854,.029014,
-.024256,.025605,
-.026031,.021832,
-.027123,.017807,
-.0275,.013654,
-.0275,.0135,
-.0275,-.0145,
-.027023,-.0186,
-.025841,-.022555,
-.023991,-.026244,
-.021527,-.029556,
-.018527,-.03239,
-.015079,-.03466,
-.01129,-.036297,
-.007274,-.037251,
-.0035,-.0375,
.0275,-.0375,
0.0*
%
%ADD29MACRO29*%
%AMMACRO38*
4,1,6,-.0335,-.0065,
-.0335,-.0455,
.0335,-.0455,
.0335,.0455,
.0055,.0455,
.0055,-.0065,
-.0335,-.0065,
0.0*
%
%ADD38MACRO38*%
%ADD12C,.02*%
%ADD36R,.114X.075*%
%ADD13C,.04*%
%ADD14C,.016*%
%ADD18R,.059X.156*%
%AMMACRO19*
4,1,8,.05805,.1103,
.05805,-.0827,
-.00305,-.0827,
-.00305,-.1103,
-.05805,-.1103,
-.05805,.0667,
-.00495,.0667,
-.00495,.1103,
.05805,.1103,
0.0*
%
%ADD19MACRO19*%
%AMMACRO32*
4,1,6,.0335,-.0065,
-.0055,-.0065,
-.0055,.0455,
-.0335,.0455,
-.0335,-.0455,
.0335,-.0455,
.0335,-.0065,
0.0*
%
%ADD32MACRO32*%
%AMMACRO39*
4,1,23,-.0275,.0375,
-.0275,-.0375,
.0035,-.0375,
.007655,-.03715,
.011687,-.036084,
.015472,-.034334,
.018895,-.031953,
.021854,-.029014,
.024256,-.025605,
.026031,-.021832,
.027123,-.017807,
.0275,-.013654,
.0275,-.0135,
.0275,.0145,
.027023,.0186,
.025841,.022555,
.023991,.026244,
.021527,.029556,
.018527,.03239,
.015079,.03466,
.01129,.036297,
.007274,.037251,
.0035,.0375,
-.0275,.0375,
0.0*
%
%ADD39MACRO39*%
%AMMACRO31*
4,1,6,.0335,.0065,
.0335,.0455,
-.0335,.0455,
-.0335,-.0455,
-.0055,-.0455,
-.0055,.0065,
.0335,.0065,
0.0*
%
%ADD31MACRO31*%
%AMMACRO10*
4,1,36,0.0,-.02,
.003473,-.019696,
.00684,-.018794,
.01,-.017321,
.012856,-.015321,
.015321,-.012856,
.017321,-.01,
.018794,-.00684,
.019696,-.003473,
.02,0.0,
.019696,.003473,
.018794,.00684,
.017321,.01,
.015321,.012856,
.012856,.015321,
.01,.017321,
.00684,.018794,
.003473,.019696,
0.0,.02,
-.003473,.019696,
-.00684,.018794,
-.01,.017321,
-.012856,.015321,
-.015321,.012856,
-.017321,.01,
-.018794,.00684,
-.019696,.003473,
-.02,0.0,
-.019696,-.003473,
-.018794,-.00684,
-.017321,-.01,
-.015321,-.012856,
-.012856,-.015321,
-.01,-.017321,
-.00684,-.018794,
-.003473,-.019696,
0.0,-.02,
0.0*
%
%ADD10MACRO10*%
%ADD16R,.016X.012*%
%ADD24R,.022X.024*%
%ADD15R,.024X.06*%
%ADD34O,.036X.044*%
%ADD26R,.035X.032*%
%ADD30R,.063X.051*%
%ADD25R,.013X.037*%
%ADD35R,.016X.053*%
%ADD28R,.055X.051*%
%ADD22R,.039X.031*%
%ADD21R,.031X.039*%
%ADD17R,.024X.048*%
%ADD33R,.09X.074*%
%ADD23R,.039X.037*%
%ADD27R,.057X.047*%
%ADD20R,.063X.079*%
%AMMACRO11*
4,1,8,-.05805,.1103,
-.05805,-.0827,
.00305,-.0827,
.00305,-.1103,
.05805,-.1103,
.05805,.0667,
.00495,.0667,
.00495,.1103,
-.05805,.1103,
0.0*
%
%ADD11MACRO11*%
%AMMACRO37*
4,1,6,-.0335,.0065,
.0055,.0065,
.0055,-.0455,
.0335,-.0455,
.0335,.0455,
-.0335,.0455,
-.0335,.0065,
0.0*
%
%ADD37MACRO37*%
%ADD40C,.03*%
%ADD41C,.012*%
%ADD42C,.014*%
%ADD43C,.05*%
%ADD44C,.008*%
%ADD45C,.03604*%
%ADD46O,.05002X.05802*%
G75*
%LPD*%
G75*
G36*
G01X71300Y36109D02*
G02X71935Y36433I400J0D01*
G03X72993Y36090I1058J1460D01*
G03Y39694I0J1802D01*
G03X72775Y39681I-2J-1802D01*
G02X72444Y40361I-49J397D01*
G01X73073Y40990D01*
X73147Y40996D01*
G03X72864Y44790I-154J1896D01*
G02X72555Y45472I-27J399D01*
G01X73073Y45990D01*
X73147Y45996D01*
G03X74895Y47892I-154J1896D01*
G03X72993Y49794I-1902J0D01*
G03X71097Y48046I0J-1902D01*
G01X71091Y47972D01*
X65998Y42879D01*
Y42196D01*
X65747D01*
X65702Y42220D01*
G03X65507Y42297I-426J-794D01*
G01X65360Y42337D01*
Y44434D01*
X65387Y44481D01*
G03X65510Y44936I-780J455D01*
G01Y48636D01*
G03X65509Y48679I-902J1D01*
G01Y48888D01*
X67780D01*
X70300Y51409D01*
Y56209D01*
X74480Y60388D01*
X87113D01*
G03X88399Y59888I1285J1402D01*
G03Y63692I0J1902D01*
G03X87113Y63192I-1J-1902D01*
G01X73318D01*
X69283Y59156D01*
G02X68600Y59439I-283J283D01*
G01Y61788D01*
X66897Y63492D01*
X58901D01*
X57198Y61788D01*
Y59439D01*
G02X56515Y59156I-400J0D01*
G01X55730Y59942D01*
X55396D01*
G02X54998Y60374I0J400D01*
G03X55000Y60440I-799J57D01*
G01Y61640D01*
G03X54199Y62442I-802J0D01*
G01X52599D01*
G03X51798Y61640I0J-801D01*
G01Y60440D01*
G03X51939Y59985I801J-1D01*
G02X51925Y59738I-164J-115D01*
G03X51698Y59140I674J-598D01*
G01Y58821D01*
X51498Y58621D01*
Y57256D01*
G03X54597Y56173I1401J-966D01*
G02X55279Y56428I399J-28D01*
G01X57288Y54418D01*
Y51944D01*
G03X58096Y51047I902J0D01*
G01X58167Y51040D01*
X60020Y49187D01*
X59951Y49057D01*
G03X59847Y48637I798J-421D01*
G01Y44936D01*
G03X59848Y44900I902J7D01*
G01Y44723D01*
X59817Y44692D01*
X57480D01*
X50296Y51875D01*
Y52790D01*
X50399D01*
Y62790D01*
X48899Y64290D01*
X27500D01*
Y127999D01*
X72703D01*
Y125653D01*
X83352D01*
G02X83707Y125069I0J-400D01*
G03X83361Y123640I2748J-1422D01*
G01X83362D01*
Y120832D01*
G03X84825Y118292I3068J76D01*
G03X84899Y118151I2074J998D01*
G01Y78290D01*
X95399Y67790D01*
X109699D01*
Y57790D01*
X88899D01*
X85038Y53929D01*
G02X84435Y53972I-283J283D01*
G03X82993Y54694I-1442J-1079D01*
G03X81191Y52892I0J-1802D01*
G03X81913Y51450I1801J0D01*
G02X81956Y50847I-240J-320D01*
G01X80899Y49790D01*
Y45790D01*
X81843Y44846D01*
G02X81820Y44260I-283J-282D01*
G03X84644Y42170I1173J-1368D01*
G01X84697Y42290D01*
X86289D01*
X86342Y42170D01*
G03X89644I1651J722D01*
G01X89697Y42290D01*
X91289D01*
X91342Y42170D01*
G03X94644I1651J722D01*
G01X94697Y42290D01*
X122550D01*
X122544Y33790D01*
X122530Y14036D01*
G02X121882Y13723I-400J1D01*
G03X121877Y7442I-2483J-3139D01*
G02X122525Y7128I248J-314D01*
G01Y7127D01*
X122509Y-15009D01*
X68648Y-15024D01*
Y-17210D01*
X32323D01*
Y-15546D01*
X26900D01*
Y4789D01*
X27500D01*
Y7362D01*
G02X28172Y7654I400J-1D01*
G03X30899Y6581I2727J2929D01*
G03Y14587I0J4003D01*
G03X28172Y13514I0J-4002D01*
G02X27500Y13806I-272J293D01*
G01Y25391D01*
X27899Y25790D01*
X28399D01*
X29399Y24790D01*
Y16790D01*
X30399Y15790D01*
X39899D01*
X40899Y16790D01*
Y36790D01*
X40146Y37543D01*
X40131Y37576D01*
G03X37328Y38361I-1732J-786D01*
G01X36399Y39290D01*
Y40290D01*
X36899Y40790D01*
X39399D01*
X40399Y41790D01*
Y47356D01*
X40414Y47393D01*
G03X40480Y47733I-835J339D01*
G01Y51261D01*
G02X41163Y51544I400J0D01*
G01X41364Y51342D01*
X44586D01*
X44594Y51152D01*
G03X45495Y50292I901J42D01*
G01X47914D01*
X54533Y43674D01*
G02X54250Y42992I-283J-282D01*
G01X52901D01*
X51698Y41788D01*
Y36792D01*
X52901Y35588D01*
X57897D01*
X57999Y35690D01*
X58899Y34790D01*
X61798D01*
Y32590D01*
G03X62699Y31688I902J0D01*
G01X64899D01*
G03X65174Y31732I-3J901D01*
G01X65290Y31769D01*
X65518Y31541D01*
X64668Y30692D01*
X61949D01*
G03X61222Y30323I0J-901D01*
G02X60576I-323J236D01*
G03X59849Y30692I-727J-532D01*
G01X55949D01*
G03X55048Y29790I0J-901D01*
G01Y26090D01*
G03X55949Y25188I902J0D01*
G01X59849D01*
G03X60576Y25557I0J901D01*
G02X61222I323J-236D01*
G03X61949Y25188I727J532D01*
G01X65849D01*
G03X66750Y26088I0J901D01*
G01Y28809D01*
X70576Y32635D01*
G02X71246Y32450I282J-283D01*
G03X71935Y34351I1747J442D01*
G02X71300Y34675I-235J324D01*
G01Y36109D01*
G37*
G36*
G01X58399Y41290D02*
Y37790D01*
X57399Y36790D01*
X53399D01*
X52899Y37290D01*
Y41290D01*
X53399Y41790D01*
X57899D01*
X58399Y41290D01*
G37*
G36*
G01X40749Y62390D02*
X41149Y62790D01*
X48299D01*
X48899Y62190D01*
Y57990D01*
X44199D01*
X43499Y57290D01*
X41399D01*
X40749Y57940D01*
Y62390D01*
G37*
G36*
G01X59399Y62290D02*
X66399D01*
X67399Y61290D01*
Y55290D01*
X64399Y52290D01*
X63899D01*
X60378Y55811D01*
X60364Y55865D01*
G03X59711Y56518I-874J-221D01*
G01X59657Y56532D01*
X58399Y57790D01*
Y61290D01*
X59399Y62290D01*
G37*
G36*
G01X88447Y44778D02*
X88330D01*
G03X87650Y44777I-337J-1886D01*
G01X84416Y44773D01*
X82399Y46790D01*
Y49290D01*
X88399Y55290D01*
X112200D01*
Y67700D01*
X122500D01*
Y44790D01*
X101610D01*
X101605Y44795D01*
X93245Y44784D01*
G03X92738I-254J-1892D01*
G01X88447Y44778D01*
G37*
G36*
G01X96953Y112040D02*
X97839D01*
Y109117D01*
G03X99141Y107815I1302J0D01*
G01X104899D01*
Y82001D01*
X109700Y77200D01*
Y69800D01*
X97100D01*
X87899Y79001D01*
Y98588D01*
X92549D01*
G03X93851Y99890I0J1302D01*
G01Y104990D01*
G03X92549Y106292I-1302J0D01*
G01X92101D01*
Y107020D01*
G02X92651Y107391I400J0D01*
G03X93740Y107178I1091J2689D01*
G03X96641Y110080I0J2901D01*
G01Y110880D01*
G03X96564Y111548I-2901J4D01*
G02X96953Y112040I389J92D01*
G37*
G36*
G01X106899Y115540D02*
X122499D01*
Y105025D01*
G02X121990Y104640I-400J0D01*
G03X120899Y104792I-1092J-3850D01*
G03Y96788I0J-4002D01*
G03X121990Y96940I-1J4002D01*
G02X122499Y96555I109J-385D01*
G01Y69800D01*
X112399D01*
Y78290D01*
X107399Y83290D01*
Y108576D01*
X106899D01*
Y115540D01*
G37*
%LPC*%
G75*
G36*
G01X81242Y23319D02*
G02X82673Y21119I1751J-427D01*
G03X82202Y20726I-71J-394D01*
G01Y20160D01*
G03X82669Y19766I400J0D01*
G02X84394Y16606I324J-1874D01*
G01Y15779D01*
X84482Y15690D01*
G02X85944Y12681I-83J-1900D01*
G01X85845Y12543D01*
X86100Y12288D01*
Y11285D01*
X86110Y11256D01*
G02X86151Y10988I-861J-269D01*
G01Y3992D01*
X87032D01*
X87063Y4155D01*
G02X87949Y4892I886J-164D01*
G01X91849D01*
G02X92750Y3990I-1J-902D01*
G01Y2942D01*
X103363D01*
G02X104649Y3442I1285J-1402D01*
G02Y-362I0J-1902D01*
G02X103363Y138I-1J1902D01*
G01X92899D01*
Y-7710D01*
X91399Y-9210D01*
X68399D01*
X66899Y-7710D01*
Y3290D01*
X62899Y7290D01*
X58899D01*
X56399Y9790D01*
Y16290D01*
X58399Y18290D01*
X64399D01*
X70899Y24790D01*
X71700D01*
X71901Y24992D01*
X78711D01*
X80571Y23131D01*
G03X81242Y23319I283J283D01*
G37*
G36*
G01X38472Y84824D02*
G03X38998Y85218I126J379D01*
G02X42333Y84040I1901J72D01*
G02Y81540I-1435J-1250D01*
G02X39660Y78847I-1433J-1250D01*
G03X39138I-261J-303D01*
G02X36660I-1239J1443D01*
G03X36138I-261J-303D01*
G02X33660I-1239J1443D01*
G03X33138I-261J-303D01*
G02X30439Y81509I-1239J1443D01*
G03X30436Y81769I-153J128D01*
G02X33108Y84463I1433J1251D01*
G03X33630I261J303D01*
G02X36108I1239J-1443D01*
G03X36630I261J303D01*
G02X38472Y84824I1239J-1443D01*
G37*
G54D45*
X72993Y27892D03*
Y52892D03*
X87993Y27892D03*
X82993D03*
X77993D03*
X87993Y22892D03*
Y17892D03*
X77993Y42892D03*
X87993Y37892D03*
X82993D03*
X77993D03*
X87993Y32892D03*
X82993D03*
X77993D03*
Y52892D03*
Y47892D03*
X92993Y27892D03*
Y22892D03*
Y17892D03*
Y37892D03*
Y32892D03*
G54D46*
X111260Y110480D03*
%LPD*%
G75*
G36*
G01X69899Y3790D02*
X76399D01*
X77399Y2790D01*
Y-5208D01*
X77397D01*
Y-7212D01*
X77399D01*
Y-7710D01*
X69899D01*
X68899Y-6710D01*
Y2790D01*
X69899Y3790D01*
G37*
G36*
G01X72399Y23790D02*
X78213D01*
X81000Y21003D01*
Y15689D01*
X81591Y15098D01*
Y14615D01*
X82497Y13710D01*
X82503Y13636D01*
G03X84399Y11888I1896J154D01*
G03X84669Y11907I2J1902D01*
G01X84768Y11921D01*
X84899Y11790D01*
Y6790D01*
X65899D01*
X62399Y10290D01*
Y16290D01*
X64899D01*
X72399Y23790D01*
G37*
G36*
G01X89899Y-7710D02*
X80399D01*
Y2790D01*
X91399D01*
Y-6210D01*
X89899Y-7710D01*
G37*
G54D10*
X0Y0D03*
Y110500D03*
X15000Y10500D03*
X25000D03*
X15000Y25500D03*
Y15500D03*
Y20500D03*
X25000Y25500D03*
Y15500D03*
Y20500D03*
X15000Y108000D03*
Y103000D03*
Y113000D03*
X25000Y108000D03*
Y103000D03*
Y113000D03*
X15000Y118000D03*
X25000D03*
X125000Y10500D03*
X135000D03*
X125000Y25500D03*
Y15500D03*
Y20500D03*
X135000Y25500D03*
Y15500D03*
Y20500D03*
X125000Y108000D03*
Y103000D03*
Y113000D03*
X135000Y108000D03*
Y103000D03*
Y113000D03*
X125000Y118000D03*
X135000D03*
X235000Y10500D03*
Y25500D03*
Y15500D03*
Y20500D03*
Y108000D03*
Y103000D03*
Y113000D03*
Y118000D03*
X245000Y10500D03*
Y25500D03*
Y15500D03*
Y20500D03*
Y108000D03*
Y103000D03*
Y113000D03*
Y118000D03*
X345000Y10500D03*
X355000D03*
X345000Y25500D03*
Y15500D03*
Y20500D03*
X355000Y25500D03*
Y15500D03*
Y20500D03*
X345000Y108000D03*
Y103000D03*
Y113000D03*
X355000Y108000D03*
Y103000D03*
Y113000D03*
X345000Y118000D03*
X355000D03*
X455000Y10500D03*
Y25500D03*
Y15500D03*
Y20500D03*
Y108000D03*
Y103000D03*
Y113000D03*
Y118000D03*
X465000Y10500D03*
Y25500D03*
Y15500D03*
Y20500D03*
Y108000D03*
Y103000D03*
Y113000D03*
Y118000D03*
X565000Y10500D03*
Y25500D03*
Y15500D03*
Y20500D03*
Y108000D03*
Y103000D03*
Y113000D03*
Y118000D03*
X590000Y0D03*
X575000Y10500D03*
Y25500D03*
Y15500D03*
Y20500D03*
X590000Y110500D03*
X575000Y108000D03*
Y103000D03*
Y113000D03*
Y118000D03*
G54D11*
X32820Y-6474D03*
G54D20*
X53899Y12790D03*
X64899D03*
X100899Y100790D03*
X111899D03*
G54D21*
X57031Y39477D03*
X63723D03*
G54D30*
X103899Y39540D03*
Y47040D03*
X113899Y39540D03*
Y47040D03*
G54D12*
G01X34639Y65575D02*
Y60447D01*
G01X33638Y66576D02*
X34639Y65575D01*
X31899Y-3710D03*
Y-6710D03*
Y-9710D03*
Y-12710D03*
X28399D03*
Y-9710D03*
Y-6710D03*
Y-3710D03*
X35779Y-6790D03*
Y-9790D03*
Y-12790D03*
Y-15790D03*
Y-3790D03*
X31899Y2290D03*
Y-710D03*
X28399D03*
Y2290D03*
X35779Y-790D03*
X28599Y19790D03*
X38399Y24290D03*
X31799Y36790D03*
X36149Y43040D03*
X38399Y36790D03*
X30899Y56290D03*
X34869Y83020D03*
X37869D03*
X31869D03*
X37899Y80290D03*
X34899D03*
X31899D03*
X37909Y113381D03*
Y116881D03*
X38000Y120400D03*
Y123900D03*
X54316Y38463D03*
Y40963D03*
X41749Y58940D03*
X41799Y61390D03*
X40899Y80290D03*
Y82790D03*
Y85290D03*
X41409Y113381D03*
Y116881D03*
X41500Y120400D03*
Y123900D03*
X61899Y-3710D03*
Y-12710D03*
Y-9710D03*
Y-6710D03*
X65399Y-12710D03*
Y-9710D03*
Y-6710D03*
Y-3710D03*
X57949Y-6790D03*
Y-9790D03*
Y-12790D03*
Y-15790D03*
Y-3790D03*
X69738Y-4924D03*
X72238D03*
X61899Y-710D03*
Y2290D03*
X65399Y-710D03*
Y2290D03*
X57949Y-790D03*
X69799Y2490D03*
X72199D03*
X72238Y-2424D03*
X69738Y76D03*
Y-2424D03*
X72238Y76D03*
X72993Y27892D03*
Y22892D03*
Y17892D03*
Y42892D03*
Y37892D03*
Y32892D03*
Y52892D03*
Y47892D03*
X61899Y57290D03*
Y59290D03*
Y61290D03*
X63899D03*
Y59290D03*
Y57290D03*
X65899D03*
Y59290D03*
Y61290D03*
X59899Y59290D03*
Y61290D03*
X59909Y116881D03*
Y113381D03*
X63409D03*
Y116881D03*
X59909Y123881D03*
X63409D03*
Y120381D03*
X59909D03*
X85399Y-6210D03*
X74738Y-2424D03*
X74699Y2490D03*
X74738Y76D03*
X77509Y7790D03*
X87993Y27892D03*
X82993D03*
X77993D03*
X87993Y22892D03*
X82993D03*
X77993D03*
X87993Y17892D03*
X82993D03*
X77993D03*
X84399Y13790D03*
X87993Y42892D03*
X82993D03*
X77993D03*
X87993Y37892D03*
X82993D03*
X77993D03*
X87993Y32892D03*
X82993D03*
X77993D03*
X87993Y52892D03*
X82993D03*
X77993D03*
X87993Y47892D03*
X82993D03*
X77993D03*
X88399Y61790D03*
X89899Y85790D03*
Y89790D03*
X104649Y1540D03*
X92993Y27892D03*
Y22892D03*
Y17892D03*
Y42892D03*
Y37892D03*
Y32892D03*
Y52892D03*
Y47892D03*
X98899Y48790D03*
X96399Y51290D03*
Y53790D03*
Y48790D03*
X101500Y54000D03*
X106000D03*
X98605Y71470D03*
X98353Y77795D03*
X94899Y74284D03*
X93415Y76787D03*
X102914Y81704D03*
X90399Y81684D03*
X96500Y94500D03*
X92899Y79784D03*
Y86290D03*
X95899Y80084D03*
X99972Y81809D03*
X93399Y89790D03*
Y83290D03*
X99500Y94500D03*
X95399Y98290D03*
X95899Y106040D03*
X100399Y106290D03*
X118727Y48405D03*
X108227Y48905D03*
X119250Y55000D03*
X111000Y54000D03*
X115250Y54250D03*
X118500Y51500D03*
X114500Y57500D03*
Y60500D03*
X108378Y75757D03*
G54D40*
G01X89799Y102440D02*
X89399Y102840D01*
Y116790D01*
X86899Y119290D01*
G54D22*
X47445Y52744D03*
Y59436D03*
G54D31*
X104490Y62468D03*
G54D13*
X30899Y10584D03*
X119399D03*
X120899Y100790D03*
G54D41*
G01X31799Y19790D02*
X28599D01*
G01X31799D02*
Y15290D01*
G01X38399Y19790D02*
Y24290D01*
G01X35099Y19790D02*
Y24590D01*
X33399Y26290D01*
X30399D01*
X28899Y27790D01*
Y46789D01*
X30899Y48789D01*
Y50133D01*
G01X31799Y32290D02*
Y36790D01*
G01X38379Y50133D02*
Y43060D01*
X38399Y43040D01*
G01D02*
X36149D01*
G01X38399Y32290D02*
Y36790D01*
G01X34639Y50133D02*
Y46529D01*
X32399Y44289D01*
Y39790D01*
X35099Y37090D01*
Y32290D01*
G01X30899Y60447D02*
Y56290D01*
G01X38379Y60447D02*
Y56310D01*
X41945Y52744D01*
X47445D01*
G01X61399Y46786D02*
Y44290D01*
X60399Y43290D01*
X56899D01*
X47445Y52744D01*
G01X53399Y61040D02*
Y62642D01*
G01X51597Y61040D02*
X53399D01*
G01D02*
X55201D01*
G01X58840Y53794D02*
Y54849D01*
X55149Y58540D01*
X53399D01*
G01X52899Y56290D02*
Y58040D01*
X53399Y58540D01*
G01X71377Y26276D02*
X72993Y27892D01*
G01X57899Y27940D02*
X63899D01*
G01X72993Y42892D02*
X69899Y39798D01*
Y33940D01*
X63899Y27940D01*
G01X71377Y31276D02*
X72993Y32892D01*
G01X71377Y29508D02*
X72993Y27892D01*
G01Y47892D02*
X67399Y42298D01*
Y35790D01*
X65399Y33790D01*
X63799D01*
G01X63958Y46786D02*
Y39712D01*
X63723Y39477D01*
G01X71377Y51276D02*
X72993Y52892D01*
G01X71377Y54508D02*
X72993Y52892D01*
G01X58840Y53794D02*
Y52349D01*
X60899Y50290D01*
X67199D01*
X68899Y51990D01*
Y56790D01*
X73899Y61790D01*
X88399D01*
G01X86377Y16276D02*
X87993Y17892D01*
G01D02*
X89609Y19508D01*
G01X86377D02*
X87993Y17892D01*
G01D02*
X89609Y16276D01*
G01X82993Y22892D02*
X84609Y24508D01*
G01X81377D02*
X82993Y22892D01*
G01D02*
X84609Y21276D01*
G01X86377D02*
X87993Y22892D01*
G01D02*
X89609Y24508D01*
G01X86377D02*
X87993Y22892D01*
G01D02*
X89609Y21276D01*
G01X76377Y26276D02*
X77993Y27892D01*
G01D02*
X79609Y29508D01*
G01X76377D02*
X77993Y27892D01*
G01D02*
X79609Y26276D01*
G01X81377D02*
X82993Y27892D01*
G01D02*
X84609Y29508D01*
G01X81377D02*
X82993Y27892D01*
G01D02*
X84609Y26276D01*
G01X86377D02*
X87993Y27892D01*
G01D02*
X89609Y29508D01*
G01X86377D02*
X87993Y27892D01*
G01D02*
X89609Y26276D01*
G01X72993Y27892D02*
X74609Y29508D01*
G01X72993Y27892D02*
X74609Y26276D01*
G01X82993Y17892D02*
Y15196D01*
X84399Y13790D01*
G01X76377Y31276D02*
X77993Y32892D01*
G01D02*
X79609Y34508D01*
G01X76377D02*
X77993Y32892D01*
G01D02*
X79609Y31276D01*
G01X81377D02*
X82993Y32892D01*
G01D02*
X84609Y34508D01*
G01X81377D02*
X82993Y32892D01*
G01D02*
X84609Y31276D01*
G01X86377D02*
X87993Y32892D01*
G01D02*
X89609Y34508D01*
G01X86377D02*
X87993Y32892D01*
G01D02*
X89609Y31276D01*
G01X76377Y36276D02*
X77993Y37892D01*
G01D02*
X79609Y39508D01*
G01X76377D02*
X77993Y37892D01*
G01D02*
X79609Y36276D01*
G01X81377D02*
X82993Y37892D01*
G01D02*
X84609Y39508D01*
G01X81377D02*
X82993Y37892D01*
G01D02*
X84609Y36276D01*
G01X86377D02*
X87993Y37892D01*
G01D02*
X89609Y39508D01*
G01X86377D02*
X87993Y37892D01*
G01D02*
X89609Y36276D01*
G01X76377Y41276D02*
X77993Y42892D01*
G01D02*
X79609Y44508D01*
G01X76377D02*
X77993Y42892D01*
G01D02*
X79609Y41276D01*
G01X81377D02*
X82993Y42892D01*
G01X81377Y44508D02*
X82993Y42892D01*
G01D02*
X84609Y41276D01*
G01X86377D02*
X87993Y42892D01*
G01D02*
X89609Y41276D01*
G01X72993Y32892D02*
X74609Y34508D01*
G01X72993Y32892D02*
X74609Y31276D01*
G01X72993Y37892D02*
X74609Y39508D01*
G01X72993Y37892D02*
X74609Y36276D01*
G01X76377Y46276D02*
X77993Y47892D01*
G01D02*
X79609Y49508D01*
G01X76377D02*
X77993Y47892D01*
G01D02*
X79609Y46276D01*
G01X76377Y51276D02*
X77993Y52892D01*
G01D02*
X79609Y54508D01*
G01X76377D02*
X77993Y52892D01*
G01D02*
X79609Y51276D01*
G01X81377D02*
X82993Y52892D01*
G01D02*
X84609Y54508D01*
G01X81377D02*
X82993Y52892D01*
G01X72993D02*
X74609Y54508D01*
G01X72993Y52892D02*
X74609Y51276D01*
G01X86899Y119290D02*
Y121455D01*
X86063Y122291D01*
G01X86899Y119290D02*
X88398D01*
X89688Y118000D01*
X96259D01*
X100550Y122291D01*
X102500D01*
G01X104649Y1540D02*
X90499D01*
G01D02*
X89899Y2140D01*
G01X91377Y16276D02*
X92993Y17892D01*
G01D02*
X94609Y19508D01*
G01X91377D02*
X92993Y17892D01*
G01D02*
X94609Y16276D01*
G01X91377Y21276D02*
X92993Y22892D01*
G01D02*
X94609Y24508D01*
G01X91377D02*
X92993Y22892D01*
G01D02*
X94609Y21276D01*
G01X91377Y26276D02*
X92993Y27892D01*
G01D02*
X94609Y29508D01*
G01X91377D02*
X92993Y27892D01*
G01D02*
X94609Y26276D01*
G01X91377Y31276D02*
X92993Y32892D01*
G01D02*
X94609Y34508D01*
G01X91377D02*
X92993Y32892D01*
G01D02*
X94609Y31276D01*
G01X91377Y36276D02*
X92993Y37892D01*
G01D02*
X94609Y39508D01*
G01X91377D02*
X92993Y37892D01*
G01D02*
X94609Y36276D01*
G01X91377Y41276D02*
X92993Y42892D01*
G01D02*
X94609Y41276D01*
G01X118937Y122291D02*
X114646Y118000D01*
X108741D01*
X104450Y122291D01*
X102500D01*
G54D23*
X63899Y21640D03*
Y27940D03*
X57899Y21640D03*
Y27940D03*
X89899Y8440D03*
Y2140D03*
G54D32*
X104490Y75112D03*
G54D14*
X37500Y12500D03*
Y7500D03*
X37399Y3290D03*
X28499Y23290D03*
Y16590D03*
X28838Y69776D03*
X36838D03*
X35238Y68176D03*
X32038Y69776D03*
Y68176D03*
Y66576D03*
X28838Y68176D03*
Y64976D03*
X30438Y69776D03*
X28838Y66576D03*
X36838Y68176D03*
X33638D03*
Y69776D03*
X30438Y66576D03*
X35238Y69776D03*
X30438Y68176D03*
Y64976D03*
X38438Y68176D03*
Y69776D03*
X32038Y71376D03*
X35238D03*
X28838D03*
X38438D03*
X33638D03*
X30438D03*
X36838D03*
X38438Y66576D03*
X33638D03*
X36838D03*
X35238D03*
Y64976D03*
X38438D03*
X36838D03*
X32038D03*
X33638D03*
X39149Y90290D03*
X34399D03*
X28727Y89905D03*
X38649Y93790D03*
X30149D03*
X34399D03*
X38649Y104290D03*
X34399Y108290D03*
X30149Y104290D03*
X34399D03*
X38649Y108290D03*
X30149D03*
X38649Y100790D03*
X30149D03*
X34399D03*
X38649Y97290D03*
X30149D03*
X34399D03*
X30149Y112290D03*
Y116290D03*
Y120040D03*
Y124040D03*
X34399Y112290D03*
Y116290D03*
Y120040D03*
Y124040D03*
X42799Y-4510D03*
X51099D03*
Y-12410D03*
Y-8410D03*
X42799Y-12410D03*
Y-8510D03*
Y-15910D03*
X51099D03*
Y-410D03*
Y7490D03*
X42799Y-510D03*
Y7490D03*
Y3590D03*
X51099Y3490D03*
X56000Y7500D03*
X55899Y3290D03*
X42699Y11090D03*
X41899Y19790D03*
X51899Y27790D03*
Y25290D03*
Y22290D03*
Y18790D03*
X41899Y25290D03*
Y27790D03*
Y13790D03*
X51899D03*
Y16290D03*
X51099Y38790D03*
Y34690D03*
X42799Y38790D03*
Y34690D03*
Y42790D03*
X51099Y42690D03*
X53899Y34290D03*
X51099Y31190D03*
X42799D03*
X54199Y29490D03*
X42749Y46887D03*
X51099Y45790D03*
X42899Y55290D03*
X51399Y53290D03*
X52399Y51290D03*
X42799Y49790D03*
X52899Y56290D03*
X45938Y71276D03*
X53938Y64876D03*
Y66476D03*
X49138Y64876D03*
Y66476D03*
X52338D03*
Y64876D03*
X53938Y68076D03*
Y69676D03*
X55538Y64876D03*
X50738D03*
X47538D03*
X49138Y68076D03*
X45938Y64876D03*
X50738Y68076D03*
X49138Y71276D03*
X52338D03*
X49138Y69676D03*
X50738Y71276D03*
X47538D03*
X53938D03*
X55538D03*
X47538Y68076D03*
X50738Y69676D03*
X47538D03*
X52338Y68076D03*
Y69676D03*
X45938Y68076D03*
X47538Y66476D03*
X45938D03*
X50738D03*
X55538Y69676D03*
X45938D03*
X55538Y66476D03*
Y68076D03*
X40038Y66576D03*
Y68176D03*
Y69776D03*
Y71376D03*
Y64976D03*
X46227Y90405D03*
X42649Y90290D03*
X46399Y93790D03*
X54899Y91790D03*
X54727Y88405D03*
X54899Y95290D03*
X54727Y81405D03*
X54899Y84790D03*
X42649Y93790D03*
Y104290D03*
X55227Y108405D03*
X46399Y108290D03*
X55227Y104405D03*
X46399Y104290D03*
X42649Y108290D03*
X46399Y100790D03*
Y97290D03*
X54899Y98290D03*
X42649Y100790D03*
Y97290D03*
X46399Y112290D03*
Y116790D03*
X55227Y112405D03*
Y116405D03*
X46399Y120290D03*
Y124290D03*
X55227Y120405D03*
Y124405D03*
X71899Y-12710D03*
X58899Y3290D03*
X68899Y27790D03*
Y23790D03*
X57399Y33290D03*
X70938Y77176D03*
X64538Y65576D03*
X70938Y78776D03*
X69338Y65576D03*
X62938D03*
X66138Y67176D03*
X72538Y77176D03*
X69338Y67176D03*
Y68776D03*
X72538Y78776D03*
X70938Y75576D03*
X66138Y68776D03*
X67738D03*
X64538Y67176D03*
X72538Y75576D03*
X67738Y67176D03*
X62938D03*
X64538Y68776D03*
X62938D03*
X67738Y65576D03*
X66138D03*
X61338D03*
Y68776D03*
Y67176D03*
X69338Y76776D03*
X64538D03*
Y75176D03*
X62938Y71976D03*
Y73576D03*
X61338Y75176D03*
X62938Y78376D03*
X69338Y70376D03*
Y71976D03*
X64538Y78376D03*
X62938Y70376D03*
X61338Y76776D03*
Y78376D03*
X69338Y73576D03*
X64538D03*
X62938Y76776D03*
X69338Y75176D03*
X61338Y71976D03*
Y73576D03*
X66138Y70376D03*
X59738Y73576D03*
X66138Y71976D03*
X69338Y78376D03*
X58138Y75176D03*
X64538Y70376D03*
X59738Y76776D03*
X61338Y70376D03*
X64538Y71976D03*
X58138Y78376D03*
Y76776D03*
X62938Y75176D03*
X59738Y78376D03*
Y75176D03*
X67738Y73576D03*
Y75176D03*
Y78376D03*
Y76776D03*
X66138Y78376D03*
Y76776D03*
Y75176D03*
Y73576D03*
X67738Y71976D03*
Y70376D03*
X63399Y90290D03*
X59149Y86290D03*
X63399Y82290D03*
X59149D03*
Y90290D03*
X63399Y86290D03*
X67649D03*
Y90290D03*
X71649Y92290D03*
X67649Y82290D03*
X70938Y88376D03*
Y80376D03*
Y86776D03*
X72538Y81976D03*
X70938Y83576D03*
X72538Y80376D03*
X70938Y81976D03*
Y85176D03*
X72538Y88376D03*
Y83576D03*
Y85176D03*
Y86776D03*
X59149Y93290D03*
X67649D03*
X63399D03*
X59149Y108540D03*
Y104290D03*
X67649Y108290D03*
Y104290D03*
X63399D03*
Y108290D03*
X71649Y100290D03*
Y96290D03*
Y108290D03*
Y104290D03*
X59149Y100290D03*
X67649D03*
X63399D03*
X59149Y96290D03*
X67649D03*
X63399D03*
X71649Y120040D03*
X67649D03*
X71649Y116040D03*
Y112040D03*
X67649D03*
Y116040D03*
X71649Y124040D03*
X67649D03*
X87500Y-12500D03*
X82500D03*
X77399Y-12710D03*
X85500Y25400D03*
Y20400D03*
X89399Y14790D03*
X75500Y35400D03*
X75350Y40250D03*
X80500Y35400D03*
X75500Y30400D03*
X85500Y40400D03*
X80500D03*
X85500Y35400D03*
X80500Y30400D03*
X85500D03*
X80500Y45400D03*
X83500Y78000D03*
X83399Y67490D03*
X76399Y77790D03*
X83399Y64090D03*
Y70790D03*
X86399Y67290D03*
Y64290D03*
Y70790D03*
Y74290D03*
X83399D03*
X76399D03*
X74138Y75576D03*
Y77176D03*
Y78776D03*
X79899Y70790D03*
Y64090D03*
Y67490D03*
X76399Y70790D03*
Y64090D03*
Y67490D03*
X73399Y70790D03*
Y67490D03*
X79899Y77790D03*
Y74290D03*
X76899Y82790D03*
X75649Y92290D03*
X79649D03*
X83399D03*
X83500Y87750D03*
Y82750D03*
X76899Y87790D03*
X74138Y83576D03*
Y81976D03*
Y86776D03*
Y80376D03*
Y85176D03*
X74149Y88390D03*
X79899Y87790D03*
Y82790D03*
X79649Y104290D03*
X75649D03*
X79649Y100290D03*
Y96290D03*
X75649D03*
Y100290D03*
X79649Y108290D03*
X75649D03*
X83399Y96290D03*
Y100290D03*
Y104290D03*
Y108290D03*
X79649Y120040D03*
X75649D03*
X79649Y116040D03*
Y112040D03*
X75649D03*
Y116040D03*
X79649Y124040D03*
X75649D03*
X83399Y112040D03*
Y116040D03*
X102500Y-7500D03*
X97500D03*
Y-12500D03*
X92500D03*
X102500D03*
Y-2500D03*
X97500D03*
X90399Y10290D03*
X93399D03*
X96899D03*
Y7290D03*
Y4290D03*
X93399Y7290D03*
Y4790D03*
X102899Y27790D03*
X97500Y27500D03*
X90500Y20400D03*
Y25400D03*
X96500Y22500D03*
Y17500D03*
X93399Y14790D03*
X102899Y32790D03*
X90500Y30400D03*
Y35400D03*
X98399Y38790D03*
X102899Y35790D03*
X105727Y61405D03*
Y58905D03*
X97727Y60405D03*
X95727D03*
X93727D03*
X99899Y60290D03*
X93727Y68405D03*
X95727Y66405D03*
X99727D03*
X97727D03*
Y64405D03*
X95727D03*
X99727D03*
Y62405D03*
X93727Y66405D03*
Y64405D03*
X89899Y67290D03*
Y70790D03*
X97727Y62405D03*
X95727D03*
X93727D03*
X117500Y-7500D03*
X112500D03*
X107500D03*
X117500Y-12500D03*
X112500D03*
X107500D03*
X121399Y-12210D03*
Y-7210D03*
X117500Y2500D03*
Y-2500D03*
X112500D03*
X107500D03*
X107599Y2090D03*
X112499Y2290D03*
Y6390D03*
X112299Y10090D03*
X121399Y-2210D03*
X107500Y27500D03*
X112500D03*
X117500D03*
Y22500D03*
Y17500D03*
X112499Y22190D03*
X112399Y17490D03*
X112299Y13590D03*
X121399Y17290D03*
X120899Y22290D03*
Y27290D03*
X112500Y32500D03*
X117500D03*
Y37500D03*
X107500Y32500D03*
X107399Y35790D03*
X112399D03*
X108399Y41290D03*
Y38790D03*
X120899Y32290D03*
Y37790D03*
X108227Y61405D03*
Y58905D03*
G54D42*
G01X97382Y111767D02*
Y107307D01*
G54D33*
X100379Y88290D03*
X117419D03*
G54D15*
X35099Y19790D03*
X31799D03*
X38399D03*
X35099Y32290D03*
X38399D03*
X31799D03*
G54D24*
X59999Y33790D03*
X63799D03*
G54D43*
G01X12500Y-20000D02*
X25500D01*
G01X22500Y-30000D02*
Y5000D01*
G01Y140500D02*
Y122500D01*
G01X12500Y130500D02*
X24500D01*
G01X137500Y-20000D02*
X102500D01*
G01X137500Y130500D02*
X102500D01*
G01X127500Y-30000D02*
Y5000D01*
G01Y140500D02*
Y122500D01*
G54D25*
X58840Y46786D03*
X61399D03*
X63958D03*
Y53794D03*
X58840D03*
G54D34*
X93740Y110480D03*
X111260D03*
G54D16*
X38399Y40540D03*
Y43040D03*
X53399Y61040D03*
Y58540D03*
G54D44*
G01X30399Y197290D02*
X29399Y196957D01*
X28649Y196123D01*
X28149Y195123D01*
X27774Y193790D01*
X27649Y192290D01*
X27774Y190790D01*
X28149Y189457D01*
X28649Y188456D01*
X29399Y187623D01*
X30399Y187290D01*
X31399Y187623D01*
X32149Y188456D01*
X32649Y189457D01*
X33024Y190790D01*
X33149Y192290D01*
X33024Y193790D01*
X32649Y195123D01*
X32149Y196123D01*
X31399Y196957D01*
X30399Y197290D01*
G01X40399Y187290D02*
X41274Y187457D01*
X42274Y187957D01*
X42899Y188790D01*
X43149Y189957D01*
X42899Y191123D01*
X42149Y192123D01*
X41024Y192623D01*
X39774D01*
X39024Y192957D01*
X38399Y193790D01*
X38149Y194957D01*
X38524Y196123D01*
X39399Y196957D01*
X40399Y197290D01*
X41399Y196957D01*
X42274Y196123D01*
X42649Y194957D01*
X42399Y193790D01*
X41774Y192957D01*
X41024Y192623D01*
X39774D01*
X38649Y192123D01*
X37899Y191123D01*
X37649Y189957D01*
X37899Y188790D01*
X38524Y187957D01*
X39524Y187457D01*
X40399Y187290D01*
G01X48774Y190623D02*
X52024D01*
G01X118774D02*
X122024D01*
G01X130399Y197290D02*
X129399Y196957D01*
X128649Y196123D01*
X128149Y195123D01*
X127774Y193790D01*
X127649Y192290D01*
X127774Y190790D01*
X128149Y189457D01*
X128649Y188456D01*
X129399Y187623D01*
X130399Y187290D01*
X131399Y187623D01*
X132149Y188456D01*
X132649Y189457D01*
X133024Y190790D01*
X133149Y192290D01*
X133024Y193790D01*
X132649Y195123D01*
X132149Y196123D01*
X131399Y196957D01*
X130399Y197290D01*
G01X138024Y195623D02*
X138774Y196623D01*
X139649Y197123D01*
X140649Y197290D01*
X141899Y196957D01*
X142774Y196123D01*
X143024Y195123D01*
X142899Y194123D01*
X142399Y193290D01*
X139899Y191623D01*
X138774Y190457D01*
X138024Y188790D01*
X137774Y187290D01*
X143024D01*
G01X27899Y217290D02*
Y207290D01*
X32899D01*
G01X38024Y211456D02*
X38899Y212623D01*
X39649Y213290D01*
X40649Y213623D01*
X41524Y213290D01*
X42149Y212623D01*
X42649Y211623D01*
X42774Y210457D01*
X42649Y209457D01*
X42149Y208456D01*
X41399Y207623D01*
X40524Y207290D01*
X39524Y207623D01*
X38649Y208623D01*
X38149Y210123D01*
X38024Y211790D01*
X38274Y213956D01*
X38649Y215123D01*
X39274Y216290D01*
X40149Y217123D01*
X41024Y217290D01*
X41899Y216957D01*
X42524Y216123D01*
G01X57774Y208623D02*
X58774Y207790D01*
X59899Y207290D01*
X60899D01*
X61899Y207790D01*
X62649Y208623D01*
X63024Y209790D01*
X62774Y210956D01*
X62149Y211957D01*
X61024Y212623D01*
X59524Y212957D01*
X58649Y213623D01*
X58274Y214790D01*
X58524Y215957D01*
X59149Y216790D01*
X60024Y217290D01*
X60899D01*
X61774Y216957D01*
X62524Y216123D01*
G01X72899Y207290D02*
X67899D01*
Y217290D01*
X72899D01*
G01X70899Y212457D02*
X67899D01*
G01X83149Y216457D02*
X82399Y216957D01*
X81524Y217290D01*
X80524D01*
X79399Y216790D01*
X78524Y215957D01*
X77899Y214957D01*
X77399Y213290D01*
X77274Y211790D01*
X77524Y210290D01*
X77899Y209290D01*
X78649Y208290D01*
X79524Y207623D01*
X80399Y207290D01*
X81274D01*
X82149Y207623D01*
X82899Y208123D01*
X83524Y208790D01*
G01X90399Y207290D02*
X89399Y207457D01*
X88524Y208123D01*
X87774Y209123D01*
X87274Y210290D01*
X87024Y211623D01*
Y212957D01*
X87274Y214290D01*
X87774Y215457D01*
X88524Y216457D01*
X89399Y217123D01*
X90399Y217290D01*
X91399Y217123D01*
X92274Y216457D01*
X93024Y215457D01*
X93524Y214290D01*
X93774Y212957D01*
Y211623D01*
X93524Y210290D01*
X93024Y209123D01*
X92274Y208123D01*
X91399Y207457D01*
X90399Y207290D01*
G01X97524D02*
Y217290D01*
X103274Y207290D01*
Y217290D01*
G01X107649Y207290D02*
Y217290D01*
X110149D01*
X111149Y216790D01*
X111899Y216123D01*
X112524Y215123D01*
X113024Y213956D01*
X113149Y212290D01*
X113024Y210623D01*
X112524Y209457D01*
X111899Y208456D01*
X111149Y207790D01*
X110149Y207290D01*
X107649D01*
G01X117274D02*
X120399Y217290D01*
X123524Y207290D01*
G01X122399Y210790D02*
X118399D01*
G01X127899Y207290D02*
Y217290D01*
X131024D01*
X132024Y216790D01*
X132649Y216123D01*
X132899Y214790D01*
X132649Y213457D01*
X131899Y212623D01*
X131024Y212123D01*
X127899D01*
G01X131024D02*
X132899Y207290D01*
G01X140399D02*
Y211790D01*
X137899Y217290D01*
G01X142899D02*
X140399Y211790D01*
G01X62899Y167290D02*
Y177290D01*
X66024D01*
X67024Y176790D01*
X67649Y176123D01*
X67899Y174790D01*
X67649Y173457D01*
X66899Y172623D01*
X66024Y172123D01*
X62899D01*
G01X66024D02*
X67899Y167290D01*
G01X77899D02*
X72899D01*
Y177290D01*
X77899D01*
G01X75899Y172457D02*
X72899D01*
G01X82274Y177290D02*
X85399Y167290D01*
X88524Y177290D01*
G01X106399Y172623D02*
X106899Y173123D01*
X107274Y173956D01*
X107524Y175123D01*
X107274Y176123D01*
X106774Y176790D01*
X105899Y177290D01*
X102524D01*
Y167290D01*
X106649D01*
X107524Y167957D01*
X108024Y168957D01*
X108274Y170123D01*
X108024Y171290D01*
X107274Y172290D01*
X106399Y172623D01*
X102524D01*
G01X60399Y197290D02*
X59399Y196957D01*
X58649Y196123D01*
X58149Y195123D01*
X57774Y193790D01*
X57649Y192290D01*
X57774Y190790D01*
X58149Y189457D01*
X58649Y188456D01*
X59399Y187623D01*
X60399Y187290D01*
X61399Y187623D01*
X62149Y188456D01*
X62649Y189457D01*
X63024Y190790D01*
X63149Y192290D01*
X63024Y193790D01*
X62649Y195123D01*
X62149Y196123D01*
X61399Y196957D01*
X60399Y197290D01*
G01X67649Y188790D02*
X68399Y187957D01*
X69274Y187457D01*
X70399Y187290D01*
X71524Y187623D01*
X72399Y188290D01*
X73024Y189457D01*
X73149Y190790D01*
X72899Y192123D01*
X72274Y192957D01*
X71399Y193623D01*
X70524Y193790D01*
X69649Y193623D01*
X68524Y192957D01*
X68899Y197290D01*
X72274D01*
G01X80399Y187290D02*
X81274Y187457D01*
X82274Y187957D01*
X82899Y188790D01*
X83149Y189957D01*
X82899Y191123D01*
X82149Y192123D01*
X81024Y192623D01*
X79774D01*
X79024Y192957D01*
X78399Y193790D01*
X78149Y194957D01*
X78524Y196123D01*
X79399Y196957D01*
X80399Y197290D01*
X81399Y196957D01*
X82274Y196123D01*
X82649Y194957D01*
X82399Y193790D01*
X81774Y192957D01*
X81024Y192623D01*
X79774D01*
X78649Y192123D01*
X77899Y191123D01*
X77649Y189957D01*
X77899Y188790D01*
X78524Y187957D01*
X79524Y187457D01*
X80399Y187290D01*
G01X88274Y188456D02*
X89149Y187623D01*
X90149Y187290D01*
X91149Y187623D01*
X92024Y188623D01*
X92649Y190123D01*
X92899Y191623D01*
Y193457D01*
X92649Y194957D01*
X92024Y196290D01*
X91274Y196957D01*
X90399Y197290D01*
X89399Y196957D01*
X88649Y196290D01*
X88149Y195290D01*
X87899Y193956D01*
X88149Y192790D01*
X88774Y191623D01*
X89524Y190956D01*
X90399Y190790D01*
X91399Y191123D01*
X92149Y191957D01*
X92899Y193457D01*
G01X98024Y195623D02*
X98774Y196623D01*
X99649Y197123D01*
X100649Y197290D01*
X101899Y196957D01*
X102774Y196123D01*
X103024Y195123D01*
X102899Y194123D01*
X102399Y193290D01*
X99899Y191623D01*
X98774Y190457D01*
X98024Y188790D01*
X97774Y187290D01*
X103024D01*
G01X111899D02*
Y197290D01*
X107274Y190123D01*
X113524D01*
G54D17*
X38379Y60447D03*
X34639D03*
X30899D03*
Y50133D03*
X34639D03*
X38379D03*
G54D35*
X105059Y111767D03*
X102500D03*
X99941D03*
X97382D03*
X107618D03*
G54D26*
X75499Y-6210D03*
X81299D03*
G54D27*
X82399Y1944D03*
Y8636D03*
G54D18*
X39821Y119019D03*
X61633D03*
G54D36*
X102500Y122291D03*
G54D37*
X116308Y62468D03*
G54D28*
X89799Y94940D03*
Y102440D03*
G54D19*
X60978Y-6474D03*
G54D38*
X116308Y75112D03*
G54D29*
X86813Y122291D03*
G54D39*
X118187D03*
M02*
