G04 ================== begin FILE IDENTIFICATION RECORD ==================*
G04 Layout Name:  C:/tmp/20_058924b/worklib/02_058924a_top/physical/08_058924b.brd*
G04 Film Name:    mask_sec*
G04 File Format:  Gerber RS274X*
G04 File Origin:  Cadence Allegro 17.2-S055*
G04 Origin Date:  Thu Sep 10 08:42:21 2020*
G04 *
G04 Layer:  VIA CLASS/SOLDERMASK_BOTTOM*
G04 Layer:  PIN/SOLDERMASK_BOTTOM*
G04 Layer:  PACKAGE GEOMETRY/SOLDERMASK_BOTTOM*
G04 Layer:  BOARD GEOMETRY/TOOLING_CORNERS*
G04 Layer:  BOARD GEOMETRY/SOLDERMASK_BOTTOM*
G04 Layer:  BOARD GEOMETRY/ROOT_NUMBER*
G04 *
G04 Offset:    (0.00 0.00)*
G04 Mirror:    No*
G04 Mode:      Positive*
G04 Rotation:  0*
G04 FullContactRelief:  No*
G04 UndefLineWidth:     8.00*
G04 ================== end FILE IDENTIFICATION RECORD ====================*
%FSLAX25Y25*MOIN*%
%IR0*IPPOS*OFA0.00000B0.00000*MIA0B0*SFA1.00000B1.00000*%
%AMMACRO39*
4,1,23,.03,.0145,
.029485,.019034,
.02819,.02341,
.026156,.027494,
.023442,.031163,
.020133,.034306,
.016329,.036826,
.012145,.038647,
.007708,.039713,
.0035,.04,
-.03,.04,
-.03,-.04,
.0035,-.04,
.008089,-.039612,
.012542,-.038433,
.016722,-.036499,
.020502,-.033868,
.023769,-.030621,
.026421,-.026855,
.02838,-.022687,
.029585,-.018241,
.03,-.013654,
.03,-.0135,
.03,.0145,
0.0*
%
%ADD39MACRO39*%
%AMMACRO31*
4,1,6,-.003,.004,
.036,.004,
.036,.048,
-.036,.048,
-.036,-.048,
-.003,-.048,
-.003,.004,
0.0*
%
%ADD31MACRO31*%
%ADD17R,.064X.161*%
%ADD11C,.04*%
%ADD36R,.119X.08*%
%ADD23C,.026*%
%ADD13C,.08*%
%AMMACRO12*
4,1,8,-.06055,.1128,
.00745,.1128,
.00745,.0692,
.06055,.0692,
.06055,-.1128,
.00055,-.1128,
.00055,-.0852,
-.06055,-.0852,
-.06055,.1128,
0.0*
%
%ADD12MACRO12*%
%AMMACRO37*
4,1,6,-.036,.048,
-.036,.004,
.003,.004,
.003,-.048,
.036,-.048,
.036,.048,
-.036,.048,
0.0*
%
%ADD37MACRO37*%
%AMMACRO29*
4,1,23,-.03,-.0145,
-.029485,-.019034,
-.02819,-.02341,
-.026156,-.027494,
-.023442,-.031163,
-.020133,-.034306,
-.016329,-.036826,
-.012145,-.038647,
-.007708,-.039713,
-.0035,-.04,
.03,-.04,
.03,.04,
-.0035,.04,
-.008089,.039612,
-.012542,.038433,
-.016722,.036499,
-.020502,.033868,
-.023769,.030621,
-.026421,.026855,
-.02838,.022687,
-.029585,.018241,
-.03,.013654,
-.03,.0135,
-.03,-.0145,
0.0*
%
%ADD29MACRO29*%
%AMMACRO38*
4,1,6,.003,-.004,
-.036,-.004,
-.036,-.048,
.036,-.048,
.036,.048,
.003,.048,
.003,-.004,
0.0*
%
%ADD38MACRO38*%
%ADD15R,.021X.017*%
%ADD22R,.044X.042*%
%ADD34O,.041X.049*%
%ADD27R,.062X.052*%
%ADD26R,.04X.037*%
%ADD25R,.018X.042*%
%ADD35R,.021X.058*%
%ADD28R,.06X.056*%
%ADD21R,.044X.036*%
%ADD20R,.036X.044*%
%ADD10C,.145*%
%ADD16R,.029X.053*%
%ADD24R,.027X.029*%
%ADD14R,.029X.065*%
%ADD30R,.068X.056*%
%ADD19R,.068X.084*%
%ADD33R,.095X.079*%
%AMMACRO18*
4,1,8,-.06055,.0692,
-.00745,.0692,
-.00745,.1128,
.06055,.1128,
.06055,-.0852,
-.00055,-.0852,
-.00055,-.1128,
-.06055,-.1128,
-.06055,.0692,
0.0*
%
%ADD18MACRO18*%
%AMMACRO32*
4,1,6,.036,-.048,
.036,-.004,
-.003,-.004,
-.003,.048,
-.036,.048,
-.036,-.048,
.036,-.048,
0.0*
%
%ADD32MACRO32*%
%ADD40C,.05*%
%ADD41C,.008*%
G75*
%LPD*%
G75*
G36*
G01X31099Y16790D02*
X39599D01*
Y22790D01*
X30599D01*
Y16790D01*
X31099D01*
G37*
G36*
G01X39099Y35290D02*
X30599D01*
Y29290D01*
X39599D01*
Y35290D01*
X39099D01*
G37*
G36*
G01X90976Y121799D02*
G03X95323I2174J0D01*
G01Y128000D01*
X90976D01*
Y121799D01*
G37*
G36*
G01X109677D02*
G03X114024I2174J0D01*
G01Y128000D01*
X109677D01*
Y121799D01*
G37*
G54D10*
X0Y0D03*
Y110500D03*
X590000Y0D03*
Y110500D03*
G54D20*
X57031Y39477D03*
X63723D03*
G54D11*
X15000Y10500D03*
X25000D03*
X15000Y25500D03*
Y15500D03*
Y20500D03*
X25000Y25500D03*
Y15500D03*
Y20500D03*
X15000Y108000D03*
Y103000D03*
Y113000D03*
X25000Y108000D03*
Y103000D03*
Y113000D03*
X15000Y118000D03*
X25000D03*
X125000Y10500D03*
X135000D03*
X125000Y25500D03*
Y15500D03*
Y20500D03*
X135000Y25500D03*
Y15500D03*
Y20500D03*
X125000Y108000D03*
Y103000D03*
Y113000D03*
X135000Y108000D03*
Y103000D03*
Y113000D03*
X125000Y118000D03*
X135000D03*
X235000Y10500D03*
Y25500D03*
Y15500D03*
Y20500D03*
Y108000D03*
Y103000D03*
Y113000D03*
Y118000D03*
X245000Y10500D03*
Y25500D03*
Y15500D03*
Y20500D03*
Y108000D03*
Y103000D03*
Y113000D03*
Y118000D03*
X345000Y10500D03*
X355000D03*
X345000Y25500D03*
Y15500D03*
Y20500D03*
X355000Y25500D03*
Y15500D03*
Y20500D03*
X345000Y108000D03*
Y103000D03*
Y113000D03*
X355000Y108000D03*
Y103000D03*
Y113000D03*
X345000Y118000D03*
X355000D03*
X455000Y10500D03*
Y25500D03*
Y15500D03*
Y20500D03*
Y108000D03*
Y103000D03*
Y113000D03*
Y118000D03*
X465000Y10500D03*
Y25500D03*
Y15500D03*
Y20500D03*
Y108000D03*
Y103000D03*
Y113000D03*
Y118000D03*
X565000Y10500D03*
Y25500D03*
Y15500D03*
Y20500D03*
Y108000D03*
Y103000D03*
Y113000D03*
Y118000D03*
X575000Y10500D03*
Y25500D03*
Y15500D03*
Y20500D03*
Y108000D03*
Y103000D03*
Y113000D03*
Y118000D03*
G54D30*
X103899Y39540D03*
Y47040D03*
X113899Y39540D03*
Y47040D03*
G54D21*
X47445Y52744D03*
Y59436D03*
G54D12*
X32820Y-6474D03*
G54D40*
G01X12500Y-20000D02*
X25500D01*
G01X22500Y-30000D02*
Y5000D01*
G01Y140500D02*
Y122500D01*
G01X12500Y130500D02*
X24500D01*
G01X137500Y-20000D02*
X102500D01*
G01X137500Y130500D02*
X102500D01*
G01X127500Y-30000D02*
Y5000D01*
G01Y140500D02*
Y122500D01*
G54D22*
X63899Y21640D03*
Y27940D03*
X57899Y21640D03*
Y27940D03*
X89899Y8440D03*
Y2140D03*
G54D13*
X30899Y10584D03*
X119399D03*
X120899Y100790D03*
G54D31*
X104490Y62468D03*
G54D41*
G01X-12226Y208623D02*
X-11226Y207790D01*
X-10101Y207290D01*
X-9101D01*
X-8101Y207790D01*
X-7351Y208623D01*
X-6976Y209790D01*
X-7226Y210956D01*
X-7851Y211957D01*
X-8976Y212623D01*
X-10476Y212957D01*
X-11351Y213623D01*
X-11726Y214790D01*
X-11476Y215957D01*
X-10851Y216790D01*
X-9976Y217290D01*
X-9101D01*
X-8226Y216957D01*
X-7476Y216123D01*
G01X399Y207290D02*
X-601Y207457D01*
X-1476Y208123D01*
X-2226Y209123D01*
X-2726Y210290D01*
X-2976Y211623D01*
Y212957D01*
X-2726Y214290D01*
X-2226Y215457D01*
X-1476Y216457D01*
X-601Y217123D01*
X399Y217290D01*
X1399Y217123D01*
X2274Y216457D01*
X3024Y215457D01*
X3524Y214290D01*
X3774Y212957D01*
Y211623D01*
X3524Y210290D01*
X3024Y209123D01*
X2274Y208123D01*
X1399Y207457D01*
X399Y207290D01*
G01X7899Y217290D02*
Y207290D01*
X12899D01*
G01X17649D02*
Y217290D01*
X20149D01*
X21149Y216790D01*
X21899Y216123D01*
X22524Y215123D01*
X23024Y213956D01*
X23149Y212290D01*
X23024Y210623D01*
X22524Y209457D01*
X21899Y208456D01*
X21149Y207790D01*
X20149Y207290D01*
X17649D01*
G01X32899D02*
X27899D01*
Y217290D01*
X32899D01*
G01X30899Y212457D02*
X27899D01*
G01X37899Y207290D02*
Y217290D01*
X41024D01*
X42024Y216790D01*
X42649Y216123D01*
X42899Y214790D01*
X42649Y213457D01*
X41899Y212623D01*
X41024Y212123D01*
X37899D01*
G01X41024D02*
X42899Y207290D01*
G01X47149D02*
Y217290D01*
X50399Y208957D01*
X53649Y217290D01*
Y207290D01*
G01X57274D02*
X60399Y217290D01*
X63524Y207290D01*
G01X62399Y210790D02*
X58399D01*
G01X67774Y208623D02*
X68774Y207790D01*
X69899Y207290D01*
X70899D01*
X71899Y207790D01*
X72649Y208623D01*
X73024Y209790D01*
X72774Y210956D01*
X72149Y211957D01*
X71024Y212623D01*
X69524Y212957D01*
X68649Y213623D01*
X68274Y214790D01*
X68524Y215957D01*
X69149Y216790D01*
X70024Y217290D01*
X70899D01*
X71774Y216957D01*
X72524Y216123D01*
G01X77649Y207290D02*
Y217290D01*
G01X82399D02*
X77649Y211123D01*
G01X83149Y207290D02*
X79774Y213956D01*
G01X97774Y208623D02*
X98774Y207790D01*
X99899Y207290D01*
X100899D01*
X101899Y207790D01*
X102649Y208623D01*
X103024Y209790D01*
X102774Y210956D01*
X102149Y211957D01*
X101024Y212623D01*
X99524Y212957D01*
X98649Y213623D01*
X98274Y214790D01*
X98524Y215957D01*
X99149Y216790D01*
X100024Y217290D01*
X100899D01*
X101774Y216957D01*
X102524Y216123D01*
G01X112899Y207290D02*
X107899D01*
Y217290D01*
X112899D01*
G01X110899Y212457D02*
X107899D01*
G01X123149Y216457D02*
X122399Y216957D01*
X121524Y217290D01*
X120524D01*
X119399Y216790D01*
X118524Y215957D01*
X117899Y214957D01*
X117399Y213290D01*
X117274Y211790D01*
X117524Y210290D01*
X117899Y209290D01*
X118649Y208290D01*
X119524Y207623D01*
X120399Y207290D01*
X121274D01*
X122149Y207623D01*
X122899Y208123D01*
X123524Y208790D01*
G01X130399Y207290D02*
X129399Y207457D01*
X128524Y208123D01*
X127774Y209123D01*
X127274Y210290D01*
X127024Y211623D01*
Y212957D01*
X127274Y214290D01*
X127774Y215457D01*
X128524Y216457D01*
X129399Y217123D01*
X130399Y217290D01*
X131399Y217123D01*
X132274Y216457D01*
X133024Y215457D01*
X133524Y214290D01*
X133774Y212957D01*
Y211623D01*
X133524Y210290D01*
X133024Y209123D01*
X132274Y208123D01*
X131399Y207457D01*
X130399Y207290D01*
G01X137524D02*
Y217290D01*
X143274Y207290D01*
Y217290D01*
G01X147649Y207290D02*
Y217290D01*
X150149D01*
X151149Y216790D01*
X151899Y216123D01*
X152524Y215123D01*
X153024Y213956D01*
X153149Y212290D01*
X153024Y210623D01*
X152524Y209457D01*
X151899Y208456D01*
X151149Y207790D01*
X150149Y207290D01*
X147649D01*
G01X157274D02*
X160399Y217290D01*
X163524Y207290D01*
G01X162399Y210790D02*
X158399D01*
G01X167899Y207290D02*
Y217290D01*
X171024D01*
X172024Y216790D01*
X172649Y216123D01*
X172899Y214790D01*
X172649Y213457D01*
X171899Y212623D01*
X171024Y212123D01*
X167899D01*
G01X171024D02*
X172899Y207290D01*
G01X180399D02*
Y211790D01*
X177899Y217290D01*
G01X182899D02*
X180399Y211790D01*
G01X30399Y197290D02*
X29399Y196957D01*
X28649Y196123D01*
X28149Y195123D01*
X27774Y193790D01*
X27649Y192290D01*
X27774Y190790D01*
X28149Y189457D01*
X28649Y188456D01*
X29399Y187623D01*
X30399Y187290D01*
X31399Y187623D01*
X32149Y188456D01*
X32649Y189457D01*
X33024Y190790D01*
X33149Y192290D01*
X33024Y193790D01*
X32649Y195123D01*
X32149Y196123D01*
X31399Y196957D01*
X30399Y197290D01*
G01X40399Y187290D02*
X41274Y187457D01*
X42274Y187957D01*
X42899Y188790D01*
X43149Y189957D01*
X42899Y191123D01*
X42149Y192123D01*
X41024Y192623D01*
X39774D01*
X39024Y192957D01*
X38399Y193790D01*
X38149Y194957D01*
X38524Y196123D01*
X39399Y196957D01*
X40399Y197290D01*
X41399Y196957D01*
X42274Y196123D01*
X42649Y194957D01*
X42399Y193790D01*
X41774Y192957D01*
X41024Y192623D01*
X39774D01*
X38649Y192123D01*
X37899Y191123D01*
X37649Y189957D01*
X37899Y188790D01*
X38524Y187957D01*
X39524Y187457D01*
X40399Y187290D01*
G01X48774Y190623D02*
X52024D01*
G01X118774D02*
X122024D01*
G01X130399Y197290D02*
X129399Y196957D01*
X128649Y196123D01*
X128149Y195123D01*
X127774Y193790D01*
X127649Y192290D01*
X127774Y190790D01*
X128149Y189457D01*
X128649Y188456D01*
X129399Y187623D01*
X130399Y187290D01*
X131399Y187623D01*
X132149Y188456D01*
X132649Y189457D01*
X133024Y190790D01*
X133149Y192290D01*
X133024Y193790D01*
X132649Y195123D01*
X132149Y196123D01*
X131399Y196957D01*
X130399Y197290D01*
G01X138024Y191456D02*
X138899Y192623D01*
X139649Y193290D01*
X140649Y193623D01*
X141524Y193290D01*
X142149Y192623D01*
X142649Y191623D01*
X142774Y190457D01*
X142649Y189457D01*
X142149Y188456D01*
X141399Y187623D01*
X140524Y187290D01*
X139524Y187623D01*
X138649Y188623D01*
X138149Y190123D01*
X138024Y191790D01*
X138274Y193956D01*
X138649Y195123D01*
X139274Y196290D01*
X140149Y197123D01*
X141024Y197290D01*
X141899Y196957D01*
X142524Y196123D01*
G01X62899Y167290D02*
Y177290D01*
X66024D01*
X67024Y176790D01*
X67649Y176123D01*
X67899Y174790D01*
X67649Y173457D01*
X66899Y172623D01*
X66024Y172123D01*
X62899D01*
G01X66024D02*
X67899Y167290D01*
G01X77899D02*
X72899D01*
Y177290D01*
X77899D01*
G01X75899Y172457D02*
X72899D01*
G01X82274Y177290D02*
X85399Y167290D01*
X88524Y177290D01*
G01X106399Y172623D02*
X106899Y173123D01*
X107274Y173956D01*
X107524Y175123D01*
X107274Y176123D01*
X106774Y176790D01*
X105899Y177290D01*
X102524D01*
Y167290D01*
X106649D01*
X107524Y167957D01*
X108024Y168957D01*
X108274Y170123D01*
X108024Y171290D01*
X107274Y172290D01*
X106399Y172623D01*
X102524D01*
G01X60399Y197290D02*
X59399Y196957D01*
X58649Y196123D01*
X58149Y195123D01*
X57774Y193790D01*
X57649Y192290D01*
X57774Y190790D01*
X58149Y189457D01*
X58649Y188456D01*
X59399Y187623D01*
X60399Y187290D01*
X61399Y187623D01*
X62149Y188456D01*
X62649Y189457D01*
X63024Y190790D01*
X63149Y192290D01*
X63024Y193790D01*
X62649Y195123D01*
X62149Y196123D01*
X61399Y196957D01*
X60399Y197290D01*
G01X67649Y188790D02*
X68399Y187957D01*
X69274Y187457D01*
X70399Y187290D01*
X71524Y187623D01*
X72399Y188290D01*
X73024Y189457D01*
X73149Y190790D01*
X72899Y192123D01*
X72274Y192957D01*
X71399Y193623D01*
X70524Y193790D01*
X69649Y193623D01*
X68524Y192957D01*
X68899Y197290D01*
X72274D01*
G01X80399Y187290D02*
X81274Y187457D01*
X82274Y187957D01*
X82899Y188790D01*
X83149Y189957D01*
X82899Y191123D01*
X82149Y192123D01*
X81024Y192623D01*
X79774D01*
X79024Y192957D01*
X78399Y193790D01*
X78149Y194957D01*
X78524Y196123D01*
X79399Y196957D01*
X80399Y197290D01*
X81399Y196957D01*
X82274Y196123D01*
X82649Y194957D01*
X82399Y193790D01*
X81774Y192957D01*
X81024Y192623D01*
X79774D01*
X78649Y192123D01*
X77899Y191123D01*
X77649Y189957D01*
X77899Y188790D01*
X78524Y187957D01*
X79524Y187457D01*
X80399Y187290D01*
G01X88274Y188456D02*
X89149Y187623D01*
X90149Y187290D01*
X91149Y187623D01*
X92024Y188623D01*
X92649Y190123D01*
X92899Y191623D01*
Y193457D01*
X92649Y194957D01*
X92024Y196290D01*
X91274Y196957D01*
X90399Y197290D01*
X89399Y196957D01*
X88649Y196290D01*
X88149Y195290D01*
X87899Y193956D01*
X88149Y192790D01*
X88774Y191623D01*
X89524Y190956D01*
X90399Y190790D01*
X91399Y191123D01*
X92149Y191957D01*
X92899Y193457D01*
G01X98024Y195623D02*
X98774Y196623D01*
X99649Y197123D01*
X100649Y197290D01*
X101899Y196957D01*
X102774Y196123D01*
X103024Y195123D01*
X102899Y194123D01*
X102399Y193290D01*
X99899Y191623D01*
X98774Y190457D01*
X98024Y188790D01*
X97774Y187290D01*
X103024D01*
G01X111899D02*
Y197290D01*
X107274Y190123D01*
X113524D01*
G54D32*
X104490Y75112D03*
G54D14*
X35099Y19790D03*
X31799D03*
X38399D03*
X35099Y32290D03*
X38399D03*
X31799D03*
G54D23*
X72993Y27892D03*
Y22892D03*
Y17892D03*
Y42892D03*
Y37892D03*
Y32892D03*
Y52892D03*
Y47892D03*
X87993Y27892D03*
X82993D03*
X77993D03*
X87993Y22892D03*
X82993D03*
X77993D03*
X87993Y17892D03*
X82993D03*
X77993D03*
X87993Y42892D03*
X82993D03*
X77993D03*
X87993Y37892D03*
X82993D03*
X77993D03*
X87993Y32892D03*
X82993D03*
X77993D03*
X87993Y52892D03*
X82993D03*
X77993D03*
X87993Y47892D03*
X82993D03*
X77993D03*
X92993Y27892D03*
Y22892D03*
Y17892D03*
Y42892D03*
Y37892D03*
Y32892D03*
Y52892D03*
Y47892D03*
G54D33*
X100379Y88290D03*
X117419D03*
G54D24*
X59999Y33790D03*
X63799D03*
G54D15*
X38399Y40540D03*
Y43040D03*
X53399Y61040D03*
Y58540D03*
G54D16*
X38379Y60447D03*
X34639D03*
X30899D03*
Y50133D03*
X34639D03*
X38379D03*
G54D25*
X58840Y46786D03*
X61399D03*
X63958D03*
Y53794D03*
X58840D03*
G54D34*
X93740Y110480D03*
X111260D03*
G54D35*
X105059Y111767D03*
X102500D03*
X99941D03*
X97382D03*
X107618D03*
G54D26*
X75499Y-6210D03*
X81299D03*
G54D17*
X39821Y119019D03*
X61633D03*
G54D18*
X60978Y-6474D03*
G54D27*
X82399Y1944D03*
Y8636D03*
G54D36*
X102500Y122291D03*
G54D19*
X53899Y12790D03*
X64899D03*
X100899Y100790D03*
X111899D03*
G54D28*
X89799Y94940D03*
Y102440D03*
G54D37*
X116308Y62468D03*
G54D38*
Y75112D03*
G54D29*
X86813Y122291D03*
G54D39*
X118187D03*
M02*
