G04 ================== begin FILE IDENTIFICATION RECORD ==================*
G04 Layout Name:  C:/tmp/20_058924b/worklib/02_058924a_top/physical/08_058924b.brd*
G04 Film Name:    mask_prm*
G04 File Format:  Gerber RS274X*
G04 File Origin:  Cadence Allegro 17.2-S055*
G04 Origin Date:  Thu Sep 10 08:42:21 2020*
G04 *
G04 Layer:  VIA CLASS/SOLDERMASK_TOP*
G04 Layer:  PIN/SOLDERMASK_TOP*
G04 Layer:  PACKAGE GEOMETRY/SOLDERMASK_TOP*
G04 Layer:  BOARD GEOMETRY/TOOLING_CORNERS*
G04 Layer:  BOARD GEOMETRY/SOLDERMASK_TOP*
G04 Layer:  BOARD GEOMETRY/ROOT_NUMBER*
G04 *
G04 Offset:    (0.00 0.00)*
G04 Mirror:    No*
G04 Mode:      Positive*
G04 Rotation:  0*
G04 FullContactRelief:  No*
G04 UndefLineWidth:     8.00*
G04 ================== end FILE IDENTIFICATION RECORD ====================*
%FSLAX25Y25*MOIN*%
%IR0*IPPOS*OFA0.00000B0.00000*MIA0B0*SFA1.00000B1.00000*%
%ADD16R,.064X.161*%
%ADD12C,.04*%
%ADD28R,.064X.172*%
%ADD18R,.064X.226*%
%ADD11C,.08*%
%ADD23R,.097X.097*%
%AMMACRO13*
4,1,8,-.06055,.1128,
.00745,.1128,
.00745,.0692,
.06055,.0692,
.06055,-.1128,
.00055,-.1128,
.00055,-.0852,
-.06055,-.0852,
-.06055,.1128,
0.0*
%
%ADD13MACRO13*%
%ADD25R,.02X.031*%
%ADD22R,.021X.017*%
%ADD26R,.045X.03*%
%ADD32R,.036X.04*%
%ADD15R,.031X.028*%
%ADD14R,.044X.042*%
%ADD35O,.041X.049*%
%ADD29R,.042X.044*%
%ADD27R,.028X.031*%
%ADD24O,.045X.018*%
%ADD21O,.018X.045*%
%ADD10C,.145*%
%ADD33R,.029X.027*%
%ADD30R,.027X.029*%
%ADD31O,.049X.076*%
%ADD20R,.029X.084*%
%ADD19R,.029X.048*%
%ADD34R,.068X.056*%
%AMMACRO17*
4,1,8,-.06055,.0692,
-.00745,.0692,
-.00745,.1128,
.06055,.1128,
.06055,-.0852,
-.00055,-.0852,
-.00055,-.1128,
-.06055,-.1128,
-.06055,.0692,
0.0*
%
%ADD17MACRO17*%
%ADD36C,.05*%
%ADD37C,.008*%
G75*
%LPD*%
G75*
G36*
G01X90976Y121799D02*
G03X95323I2174J0D01*
G01Y128000D01*
X90976D01*
Y121799D01*
G37*
G36*
G01X109677D02*
G03X114024I2174J0D01*
G01Y128000D01*
X109677D01*
Y121799D01*
G37*
G54D10*
X0Y0D03*
Y110500D03*
X590000Y0D03*
Y110500D03*
G54D20*
X42156Y16840D03*
G54D11*
X0Y20500D03*
Y90000D03*
X30899Y10584D03*
X119399D03*
X120899Y100790D03*
X590000Y90000D03*
G54D30*
X80499Y2140D03*
X84299D03*
X80499Y7790D03*
X84299D03*
G54D21*
X54577Y60496D03*
X52018D03*
X49458D03*
X46899D03*
Y75656D03*
X49458D03*
X52018D03*
X54577D03*
G54D12*
X15000Y10500D03*
X25000D03*
X15000Y25500D03*
Y15500D03*
Y20500D03*
X25000Y25500D03*
Y15500D03*
Y20500D03*
X15000Y108000D03*
Y103000D03*
Y113000D03*
X25000Y108000D03*
Y103000D03*
Y113000D03*
X15000Y118000D03*
X25000D03*
X125000Y10500D03*
X135000D03*
X125000Y25500D03*
Y15500D03*
Y20500D03*
X135000Y25500D03*
Y15500D03*
Y20500D03*
X125000Y108000D03*
Y103000D03*
Y113000D03*
X135000Y108000D03*
Y103000D03*
Y113000D03*
X125000Y118000D03*
X135000D03*
X235000Y10500D03*
Y25500D03*
Y15500D03*
Y20500D03*
Y108000D03*
Y103000D03*
Y113000D03*
Y118000D03*
X245000Y10500D03*
Y25500D03*
Y15500D03*
Y20500D03*
Y108000D03*
Y103000D03*
Y113000D03*
Y118000D03*
X345000Y10500D03*
X355000D03*
X345000Y25500D03*
Y15500D03*
Y20500D03*
X355000Y25500D03*
Y15500D03*
Y20500D03*
X345000Y108000D03*
Y103000D03*
Y113000D03*
X355000Y108000D03*
Y103000D03*
Y113000D03*
X345000Y118000D03*
X355000D03*
X455000Y10500D03*
Y25500D03*
Y15500D03*
Y20500D03*
Y108000D03*
Y103000D03*
Y113000D03*
Y118000D03*
X465000Y10500D03*
Y25500D03*
Y15500D03*
Y20500D03*
Y108000D03*
Y103000D03*
Y113000D03*
Y118000D03*
X565000Y10500D03*
Y25500D03*
Y15500D03*
Y20500D03*
Y108000D03*
Y103000D03*
Y113000D03*
Y118000D03*
X575000Y10500D03*
Y25500D03*
Y15500D03*
Y20500D03*
Y108000D03*
Y103000D03*
Y113000D03*
Y118000D03*
G54D31*
X86063Y122291D03*
X118937D03*
G54D22*
X46899Y50540D03*
Y48040D03*
X50738Y108340D03*
Y105840D03*
G54D13*
X32820Y-6474D03*
G54D14*
X30899Y70640D03*
Y76940D03*
X67899Y42990D03*
Y49290D03*
G54D32*
X100599Y12790D03*
Y6140D03*
X108899Y12790D03*
Y6140D03*
G54D23*
X50738Y68076D03*
G54D33*
X100599Y19190D03*
Y22990D03*
X108899Y19190D03*
Y22990D03*
G54D24*
X43158Y64237D03*
Y66796D03*
Y69356D03*
Y71915D03*
X58318D03*
Y69356D03*
Y66796D03*
Y64237D03*
G54D15*
X36899Y89720D03*
Y85860D03*
X30899Y89720D03*
Y85860D03*
X56399Y45430D03*
Y49290D03*
X61899Y45430D03*
Y49290D03*
G54D34*
X103899Y39540D03*
Y47040D03*
X113899Y39540D03*
Y47040D03*
G54D25*
X47427Y81290D03*
X50727D03*
G54D16*
X39821Y119019D03*
X61633D03*
G54D17*
X60978Y-6474D03*
G54D35*
X93740Y110480D03*
X111260D03*
G54D26*
X50738Y90905D03*
Y85905D03*
G54D36*
G01X12500Y-20000D02*
X25500D01*
G01X22500Y-30000D02*
Y5000D01*
G01Y140500D02*
Y122500D01*
G01X12500Y130500D02*
X24500D01*
G01X137500Y-20000D02*
X102500D01*
G01X137500Y130500D02*
X102500D01*
G01X127500Y-30000D02*
Y5000D01*
G01Y140500D02*
Y122500D01*
G54D27*
X54598Y101705D03*
X50738D03*
X77329Y49290D03*
X73469D03*
X77329Y54794D03*
X73469D03*
G54D18*
X46899Y-6450D03*
G54D37*
G01X-2226Y208623D02*
X-1226Y207790D01*
X-101Y207290D01*
X899D01*
X1899Y207790D01*
X2649Y208623D01*
X3024Y209790D01*
X2774Y210956D01*
X2149Y211957D01*
X1024Y212623D01*
X-476Y212957D01*
X-1351Y213623D01*
X-1726Y214790D01*
X-1476Y215957D01*
X-851Y216790D01*
X24Y217290D01*
X899D01*
X1774Y216957D01*
X2524Y216123D01*
G01X10399Y207290D02*
X9399Y207457D01*
X8524Y208123D01*
X7774Y209123D01*
X7274Y210290D01*
X7024Y211623D01*
Y212957D01*
X7274Y214290D01*
X7774Y215457D01*
X8524Y216457D01*
X9399Y217123D01*
X10399Y217290D01*
X11399Y217123D01*
X12274Y216457D01*
X13024Y215457D01*
X13524Y214290D01*
X13774Y212957D01*
Y211623D01*
X13524Y210290D01*
X13024Y209123D01*
X12274Y208123D01*
X11399Y207457D01*
X10399Y207290D01*
G01X17899Y217290D02*
Y207290D01*
X22899D01*
G01X27649D02*
Y217290D01*
X30149D01*
X31149Y216790D01*
X31899Y216123D01*
X32524Y215123D01*
X33024Y213956D01*
X33149Y212290D01*
X33024Y210623D01*
X32524Y209457D01*
X31899Y208456D01*
X31149Y207790D01*
X30149Y207290D01*
X27649D01*
G01X42899D02*
X37899D01*
Y217290D01*
X42899D01*
G01X40899Y212457D02*
X37899D01*
G01X47899Y207290D02*
Y217290D01*
X51024D01*
X52024Y216790D01*
X52649Y216123D01*
X52899Y214790D01*
X52649Y213457D01*
X51899Y212623D01*
X51024Y212123D01*
X47899D01*
G01X51024D02*
X52899Y207290D01*
G01X57149D02*
Y217290D01*
X60399Y208957D01*
X63649Y217290D01*
Y207290D01*
G01X67274D02*
X70399Y217290D01*
X73524Y207290D01*
G01X72399Y210790D02*
X68399D01*
G01X77774Y208623D02*
X78774Y207790D01*
X79899Y207290D01*
X80899D01*
X81899Y207790D01*
X82649Y208623D01*
X83024Y209790D01*
X82774Y210956D01*
X82149Y211957D01*
X81024Y212623D01*
X79524Y212957D01*
X78649Y213623D01*
X78274Y214790D01*
X78524Y215957D01*
X79149Y216790D01*
X80024Y217290D01*
X80899D01*
X81774Y216957D01*
X82524Y216123D01*
G01X87649Y207290D02*
Y217290D01*
G01X92399D02*
X87649Y211123D01*
G01X93149Y207290D02*
X89774Y213956D01*
G01X107899Y207290D02*
Y217290D01*
X110899D01*
X111899Y216790D01*
X112649Y215623D01*
X112899Y214290D01*
X112649Y212957D01*
X112024Y211957D01*
X110899Y211456D01*
X107899D01*
G01X117899Y207290D02*
Y217290D01*
X121024D01*
X122024Y216790D01*
X122649Y216123D01*
X122899Y214790D01*
X122649Y213457D01*
X121899Y212623D01*
X121024Y212123D01*
X117899D01*
G01X121024D02*
X122899Y207290D01*
G01X128899Y217290D02*
X131899D01*
G01X130399D02*
Y207290D01*
G01X128899D02*
X131899D01*
G01X137149D02*
Y217290D01*
X140399Y208957D01*
X143649Y217290D01*
Y207290D01*
G01X147274D02*
X150399Y217290D01*
X153524Y207290D01*
G01X152399Y210790D02*
X148399D01*
G01X157899Y207290D02*
Y217290D01*
X161024D01*
X162024Y216790D01*
X162649Y216123D01*
X162899Y214790D01*
X162649Y213457D01*
X161899Y212623D01*
X161024Y212123D01*
X157899D01*
G01X161024D02*
X162899Y207290D01*
G01X170399D02*
Y211790D01*
X167899Y217290D01*
G01X172899D02*
X170399Y211790D01*
G01X30399Y197290D02*
X29399Y196957D01*
X28649Y196123D01*
X28149Y195123D01*
X27774Y193790D01*
X27649Y192290D01*
X27774Y190790D01*
X28149Y189457D01*
X28649Y188456D01*
X29399Y187623D01*
X30399Y187290D01*
X31399Y187623D01*
X32149Y188456D01*
X32649Y189457D01*
X33024Y190790D01*
X33149Y192290D01*
X33024Y193790D01*
X32649Y195123D01*
X32149Y196123D01*
X31399Y196957D01*
X30399Y197290D01*
G01X40399Y187290D02*
X41274Y187457D01*
X42274Y187957D01*
X42899Y188790D01*
X43149Y189957D01*
X42899Y191123D01*
X42149Y192123D01*
X41024Y192623D01*
X39774D01*
X39024Y192957D01*
X38399Y193790D01*
X38149Y194957D01*
X38524Y196123D01*
X39399Y196957D01*
X40399Y197290D01*
X41399Y196957D01*
X42274Y196123D01*
X42649Y194957D01*
X42399Y193790D01*
X41774Y192957D01*
X41024Y192623D01*
X39774D01*
X38649Y192123D01*
X37899Y191123D01*
X37649Y189957D01*
X37899Y188790D01*
X38524Y187957D01*
X39524Y187457D01*
X40399Y187290D01*
G01X48774Y190623D02*
X52024D01*
G01X118774D02*
X122024D01*
G01X130399Y197290D02*
X129399Y196957D01*
X128649Y196123D01*
X128149Y195123D01*
X127774Y193790D01*
X127649Y192290D01*
X127774Y190790D01*
X128149Y189457D01*
X128649Y188456D01*
X129399Y187623D01*
X130399Y187290D01*
X131399Y187623D01*
X132149Y188456D01*
X132649Y189457D01*
X133024Y190790D01*
X133149Y192290D01*
X133024Y193790D01*
X132649Y195123D01*
X132149Y196123D01*
X131399Y196957D01*
X130399Y197290D01*
G01X141899Y187290D02*
Y197290D01*
X137274Y190123D01*
X143524D01*
G01X62899Y167290D02*
Y177290D01*
X66024D01*
X67024Y176790D01*
X67649Y176123D01*
X67899Y174790D01*
X67649Y173457D01*
X66899Y172623D01*
X66024Y172123D01*
X62899D01*
G01X66024D02*
X67899Y167290D01*
G01X77899D02*
X72899D01*
Y177290D01*
X77899D01*
G01X75899Y172457D02*
X72899D01*
G01X82274Y177290D02*
X85399Y167290D01*
X88524Y177290D01*
G01X106399Y172623D02*
X106899Y173123D01*
X107274Y173956D01*
X107524Y175123D01*
X107274Y176123D01*
X106774Y176790D01*
X105899Y177290D01*
X102524D01*
Y167290D01*
X106649D01*
X107524Y167957D01*
X108024Y168957D01*
X108274Y170123D01*
X108024Y171290D01*
X107274Y172290D01*
X106399Y172623D01*
X102524D01*
G01X60399Y197290D02*
X59399Y196957D01*
X58649Y196123D01*
X58149Y195123D01*
X57774Y193790D01*
X57649Y192290D01*
X57774Y190790D01*
X58149Y189457D01*
X58649Y188456D01*
X59399Y187623D01*
X60399Y187290D01*
X61399Y187623D01*
X62149Y188456D01*
X62649Y189457D01*
X63024Y190790D01*
X63149Y192290D01*
X63024Y193790D01*
X62649Y195123D01*
X62149Y196123D01*
X61399Y196957D01*
X60399Y197290D01*
G01X67649Y188790D02*
X68399Y187957D01*
X69274Y187457D01*
X70399Y187290D01*
X71524Y187623D01*
X72399Y188290D01*
X73024Y189457D01*
X73149Y190790D01*
X72899Y192123D01*
X72274Y192957D01*
X71399Y193623D01*
X70524Y193790D01*
X69649Y193623D01*
X68524Y192957D01*
X68899Y197290D01*
X72274D01*
G01X80399Y187290D02*
X81274Y187457D01*
X82274Y187957D01*
X82899Y188790D01*
X83149Y189957D01*
X82899Y191123D01*
X82149Y192123D01*
X81024Y192623D01*
X79774D01*
X79024Y192957D01*
X78399Y193790D01*
X78149Y194957D01*
X78524Y196123D01*
X79399Y196957D01*
X80399Y197290D01*
X81399Y196957D01*
X82274Y196123D01*
X82649Y194957D01*
X82399Y193790D01*
X81774Y192957D01*
X81024Y192623D01*
X79774D01*
X78649Y192123D01*
X77899Y191123D01*
X77649Y189957D01*
X77899Y188790D01*
X78524Y187957D01*
X79524Y187457D01*
X80399Y187290D01*
G01X88274Y188456D02*
X89149Y187623D01*
X90149Y187290D01*
X91149Y187623D01*
X92024Y188623D01*
X92649Y190123D01*
X92899Y191623D01*
Y193457D01*
X92649Y194957D01*
X92024Y196290D01*
X91274Y196957D01*
X90399Y197290D01*
X89399Y196957D01*
X88649Y196290D01*
X88149Y195290D01*
X87899Y193956D01*
X88149Y192790D01*
X88774Y191623D01*
X89524Y190956D01*
X90399Y190790D01*
X91399Y191123D01*
X92149Y191957D01*
X92899Y193457D01*
G01X98024Y195623D02*
X98774Y196623D01*
X99649Y197123D01*
X100649Y197290D01*
X101899Y196957D01*
X102774Y196123D01*
X103024Y195123D01*
X102899Y194123D01*
X102399Y193290D01*
X99899Y191623D01*
X98774Y190457D01*
X98024Y188790D01*
X97774Y187290D01*
X103024D01*
G01X111899D02*
Y197290D01*
X107274Y190123D01*
X113524D01*
G54D19*
X42156Y26483D03*
X46899D03*
X51642D03*
Y15097D03*
X46899D03*
G54D28*
X50727Y119650D03*
G54D29*
X72749Y60290D03*
X79049D03*
M02*
