G04 ================== begin FILE IDENTIFICATION RECORD ==================*
G04 Layout Name:  C:/tmp/20_058924b/worklib/02_058924a_top/physical/08_058924b.brd*
G04 Film Name:    paste_sec*
G04 File Format:  Gerber RS274X*
G04 File Origin:  Cadence Allegro 17.2-S055*
G04 Origin Date:  Thu Sep 10 08:42:21 2020*
G04 *
G04 Layer:  VIA CLASS/PASTEMASK_BOTTOM*
G04 Layer:  PIN/PASTEMASK_BOTTOM*
G04 Layer:  PACKAGE GEOMETRY/PASTEMASK_BOTTOM*
G04 Layer:  BOARD GEOMETRY/TOOLING_CORNERS*
G04 Layer:  BOARD GEOMETRY/ROOT_NUMBER*
G04 Layer:  BOARD GEOMETRY/PASTEMASK_BOTTOM*
G04 Layer:  BOARD GEOMETRY/OUTLINE*
G04 *
G04 Offset:    (0.00 0.00)*
G04 Mirror:    No*
G04 Mode:      Positive*
G04 Rotation:  0*
G04 FullContactRelief:  No*
G04 UndefLineWidth:     8.00*
G04 ================== end FILE IDENTIFICATION RECORD ====================*
%FSLAX25Y25*MOIN*%
%IR0*IPPOS*OFA0.00000B0.00000*MIA0B0*SFA1.00000B1.00000*%
%AMMACRO33*
4,1,6,-.0335,-.0065,
-.0335,-.0455,
.0335,-.0455,
.0335,.0455,
.0055,.0455,
.0055,-.0065,
-.0335,-.0065,
0.0*
%
%ADD33MACRO33*%
%ADD20C,.02*%
%ADD31R,.114X.075*%
%ADD11C,.04*%
%ADD14R,.059X.156*%
%AMMACRO15*
4,1,8,.05805,.1103,
.05805,-.0827,
-.00305,-.0827,
-.00305,-.1103,
-.05805,-.1103,
-.05805,.0667,
-.00495,.0667,
-.00495,.1103,
.05805,.1103,
0.0*
%
%ADD15MACRO15*%
%AMMACRO28*
4,1,6,.0335,-.0065,
-.0055,-.0065,
-.0055,.0455,
-.0335,.0455,
-.0335,-.0455,
.0335,-.0455,
.0335,-.0065,
0.0*
%
%ADD28MACRO28*%
%AMMACRO27*
4,1,6,.0335,.0065,
.0335,.0455,
-.0335,.0455,
-.0335,-.0455,
-.0055,-.0455,
-.0055,.0065,
.0335,.0065,
0.0*
%
%ADD27MACRO27*%
%ADD12R,.016X.012*%
%ADD21R,.022X.024*%
%ADD23R,.035X.032*%
%ADD26R,.063X.051*%
%ADD22R,.013X.037*%
%ADD30R,.016X.053*%
%ADD25R,.055X.051*%
%ADD18R,.039X.031*%
%ADD17R,.031X.039*%
%ADD13R,.024X.048*%
%ADD29R,.09X.074*%
%ADD19R,.039X.037*%
%ADD24R,.057X.047*%
%ADD16R,.063X.079*%
%AMMACRO10*
4,1,8,-.05805,.1103,
-.05805,-.0827,
.00305,-.0827,
.00305,-.1103,
.05805,-.1103,
.05805,.0667,
.00495,.0667,
.00495,.1103,
-.05805,.1103,
0.0*
%
%ADD10MACRO10*%
%AMMACRO32*
4,1,6,-.0335,.0065,
.0055,.0065,
.0055,-.0455,
.0335,-.0455,
.0335,.0455,
-.0335,.0455,
-.0335,.0065,
0.0*
%
%ADD32MACRO32*%
%ADD34C,.05*%
%ADD35C,.008*%
G75*
%LPD*%
G75*
G54D10*
X32820Y-6474D03*
G54D11*
X30899Y10584D03*
X119399D03*
X120899Y100790D03*
G54D20*
X72993Y27892D03*
Y22892D03*
Y17892D03*
Y42892D03*
Y37892D03*
Y32892D03*
Y52892D03*
Y47892D03*
X87993Y27892D03*
X82993D03*
X77993D03*
X87993Y22892D03*
X82993D03*
X77993D03*
X87993Y17892D03*
X82993D03*
X77993D03*
X87993Y42892D03*
X82993D03*
X77993D03*
X87993Y37892D03*
X82993D03*
X77993D03*
X87993Y32892D03*
X82993D03*
X77993D03*
X87993Y52892D03*
X82993D03*
X77993D03*
X87993Y47892D03*
X82993D03*
X77993D03*
X92993Y27892D03*
Y22892D03*
Y17892D03*
Y42892D03*
Y37892D03*
Y32892D03*
Y52892D03*
Y47892D03*
G54D30*
X105059Y111767D03*
X102500D03*
X99941D03*
X97382D03*
X107618D03*
G54D21*
X59999Y33790D03*
X63799D03*
G54D12*
X38399Y40540D03*
Y43040D03*
X53399Y61040D03*
Y58540D03*
G54D13*
X38379Y60447D03*
X34639D03*
X30899D03*
Y50133D03*
X34639D03*
X38379D03*
G54D22*
X58840Y46786D03*
X61399D03*
X63958D03*
Y53794D03*
X58840D03*
G54D31*
X102500Y122291D03*
G54D32*
X116308Y62468D03*
G54D23*
X75499Y-6210D03*
X81299D03*
G54D14*
X39821Y119019D03*
X61633D03*
G54D24*
X82399Y1944D03*
Y8636D03*
G54D15*
X60978Y-6474D03*
G54D33*
X116308Y75112D03*
G54D34*
G01X12500Y-20000D02*
X25500D01*
G01X22500Y-30000D02*
Y5000D01*
G01Y140500D02*
Y122500D01*
G01X12500Y130500D02*
X24500D01*
G01X137500Y-20000D02*
X102500D01*
G01X137500Y130500D02*
X102500D01*
G01X127500Y-30000D02*
Y5000D01*
G01Y140500D02*
Y122500D01*
G54D16*
X53899Y12790D03*
X64899D03*
X100899Y100790D03*
X111899D03*
G54D25*
X89799Y94940D03*
Y102440D03*
G54D35*
G01X15000Y-17500D02*
Y45000D01*
Y128000D01*
X-15000D01*
Y-17500D01*
X15000D01*
G01X-7101Y207290D02*
Y217290D01*
X-4101D01*
X-3101Y216790D01*
X-2351Y215623D01*
X-2101Y214290D01*
X-2351Y212957D01*
X-2976Y211957D01*
X-4101Y211456D01*
X-7101D01*
G01X2274Y207290D02*
X5399Y217290D01*
X8524Y207290D01*
G01X7399Y210790D02*
X3399D01*
G01X12774Y208623D02*
X13774Y207790D01*
X14899Y207290D01*
X15899D01*
X16899Y207790D01*
X17649Y208623D01*
X18024Y209790D01*
X17774Y210956D01*
X17149Y211957D01*
X16024Y212623D01*
X14524Y212957D01*
X13649Y213623D01*
X13274Y214790D01*
X13524Y215957D01*
X14149Y216790D01*
X15024Y217290D01*
X15899D01*
X16774Y216957D01*
X17524Y216123D01*
G01X25399Y217290D02*
Y207290D01*
G01X22524Y217290D02*
X28274D01*
G01X37899Y207290D02*
X32899D01*
Y217290D01*
X37899D01*
G01X35899Y212457D02*
X32899D01*
G01X42149Y207290D02*
Y217290D01*
X45399Y208957D01*
X48649Y217290D01*
Y207290D01*
G01X52274D02*
X55399Y217290D01*
X58524Y207290D01*
G01X57399Y210790D02*
X53399D01*
G01X62774Y208623D02*
X63774Y207790D01*
X64899Y207290D01*
X65899D01*
X66899Y207790D01*
X67649Y208623D01*
X68024Y209790D01*
X67774Y210956D01*
X67149Y211957D01*
X66024Y212623D01*
X64524Y212957D01*
X63649Y213623D01*
X63274Y214790D01*
X63524Y215957D01*
X64149Y216790D01*
X65024Y217290D01*
X65899D01*
X66774Y216957D01*
X67524Y216123D01*
G01X72649Y207290D02*
Y217290D01*
G01X77399D02*
X72649Y211123D01*
G01X78149Y207290D02*
X74774Y213956D01*
G01X92774Y208623D02*
X93774Y207790D01*
X94899Y207290D01*
X95899D01*
X96899Y207790D01*
X97649Y208623D01*
X98024Y209790D01*
X97774Y210956D01*
X97149Y211957D01*
X96024Y212623D01*
X94524Y212957D01*
X93649Y213623D01*
X93274Y214790D01*
X93524Y215957D01*
X94149Y216790D01*
X95024Y217290D01*
X95899D01*
X96774Y216957D01*
X97524Y216123D01*
G01X107899Y207290D02*
X102899D01*
Y217290D01*
X107899D01*
G01X105899Y212457D02*
X102899D01*
G01X118149Y216457D02*
X117399Y216957D01*
X116524Y217290D01*
X115524D01*
X114399Y216790D01*
X113524Y215957D01*
X112899Y214957D01*
X112399Y213290D01*
X112274Y211790D01*
X112524Y210290D01*
X112899Y209290D01*
X113649Y208290D01*
X114524Y207623D01*
X115399Y207290D01*
X116274D01*
X117149Y207623D01*
X117899Y208123D01*
X118524Y208790D01*
G01X125399Y207290D02*
X124399Y207457D01*
X123524Y208123D01*
X122774Y209123D01*
X122274Y210290D01*
X122024Y211623D01*
Y212957D01*
X122274Y214290D01*
X122774Y215457D01*
X123524Y216457D01*
X124399Y217123D01*
X125399Y217290D01*
X126399Y217123D01*
X127274Y216457D01*
X128024Y215457D01*
X128524Y214290D01*
X128774Y212957D01*
Y211623D01*
X128524Y210290D01*
X128024Y209123D01*
X127274Y208123D01*
X126399Y207457D01*
X125399Y207290D01*
G01X132524D02*
Y217290D01*
X138274Y207290D01*
Y217290D01*
G01X142649Y207290D02*
Y217290D01*
X145149D01*
X146149Y216790D01*
X146899Y216123D01*
X147524Y215123D01*
X148024Y213956D01*
X148149Y212290D01*
X148024Y210623D01*
X147524Y209457D01*
X146899Y208456D01*
X146149Y207790D01*
X145149Y207290D01*
X142649D01*
G01X152274D02*
X155399Y217290D01*
X158524Y207290D01*
G01X157399Y210790D02*
X153399D01*
G01X162899Y207290D02*
Y217290D01*
X166024D01*
X167024Y216790D01*
X167649Y216123D01*
X167899Y214790D01*
X167649Y213457D01*
X166899Y212623D01*
X166024Y212123D01*
X162899D01*
G01X166024D02*
X167899Y207290D01*
G01X175399D02*
Y211790D01*
X172899Y217290D01*
G01X177899D02*
X175399Y211790D01*
G01X15000Y8000D02*
G02X25000I5000J0D01*
G01Y28000D02*
G02X15000I-5000J0D01*
G01Y100500D02*
G02X25000I5000J0D01*
G01Y120500D02*
G02X15000I-5000J0D01*
G01X25000Y-17500D02*
Y128000D01*
X91476D01*
Y121799D01*
G03X94823I1674J0D01*
G01Y128000D01*
X110177D01*
Y121799D01*
G03X113524I1674J0D01*
G01Y128000D01*
X125000D01*
Y-17500D01*
X25000D01*
G01X30399Y197290D02*
X29399Y196957D01*
X28649Y196123D01*
X28149Y195123D01*
X27774Y193790D01*
X27649Y192290D01*
X27774Y190790D01*
X28149Y189457D01*
X28649Y188456D01*
X29399Y187623D01*
X30399Y187290D01*
X31399Y187623D01*
X32149Y188456D01*
X32649Y189457D01*
X33024Y190790D01*
X33149Y192290D01*
X33024Y193790D01*
X32649Y195123D01*
X32149Y196123D01*
X31399Y196957D01*
X30399Y197290D01*
G01X40399Y187290D02*
X41274Y187457D01*
X42274Y187957D01*
X42899Y188790D01*
X43149Y189957D01*
X42899Y191123D01*
X42149Y192123D01*
X41024Y192623D01*
X39774D01*
X39024Y192957D01*
X38399Y193790D01*
X38149Y194957D01*
X38524Y196123D01*
X39399Y196957D01*
X40399Y197290D01*
X41399Y196957D01*
X42274Y196123D01*
X42649Y194957D01*
X42399Y193790D01*
X41774Y192957D01*
X41024Y192623D01*
X39774D01*
X38649Y192123D01*
X37899Y191123D01*
X37649Y189957D01*
X37899Y188790D01*
X38524Y187957D01*
X39524Y187457D01*
X40399Y187290D01*
G01X48774Y190623D02*
X52024D01*
G01X118774D02*
X122024D01*
G01X130399Y187290D02*
Y197290D01*
X128899Y195290D01*
G01Y187290D02*
X131899D01*
G01X138024Y195623D02*
X138774Y196623D01*
X139649Y197123D01*
X140649Y197290D01*
X141899Y196957D01*
X142774Y196123D01*
X143024Y195123D01*
X142899Y194123D01*
X142399Y193290D01*
X139899Y191623D01*
X138774Y190457D01*
X138024Y188790D01*
X137774Y187290D01*
X143024D01*
G01X62899Y167290D02*
Y177290D01*
X66024D01*
X67024Y176790D01*
X67649Y176123D01*
X67899Y174790D01*
X67649Y173457D01*
X66899Y172623D01*
X66024Y172123D01*
X62899D01*
G01X66024D02*
X67899Y167290D01*
G01X77899D02*
X72899D01*
Y177290D01*
X77899D01*
G01X75899Y172457D02*
X72899D01*
G01X82274Y177290D02*
X85399Y167290D01*
X88524Y177290D01*
G01X106399Y172623D02*
X106899Y173123D01*
X107274Y173956D01*
X107524Y175123D01*
X107274Y176123D01*
X106774Y176790D01*
X105899Y177290D01*
X102524D01*
Y167290D01*
X106649D01*
X107524Y167957D01*
X108024Y168957D01*
X108274Y170123D01*
X108024Y171290D01*
X107274Y172290D01*
X106399Y172623D01*
X102524D01*
G01X60399Y197290D02*
X59399Y196957D01*
X58649Y196123D01*
X58149Y195123D01*
X57774Y193790D01*
X57649Y192290D01*
X57774Y190790D01*
X58149Y189457D01*
X58649Y188456D01*
X59399Y187623D01*
X60399Y187290D01*
X61399Y187623D01*
X62149Y188456D01*
X62649Y189457D01*
X63024Y190790D01*
X63149Y192290D01*
X63024Y193790D01*
X62649Y195123D01*
X62149Y196123D01*
X61399Y196957D01*
X60399Y197290D01*
G01X67649Y188790D02*
X68399Y187957D01*
X69274Y187457D01*
X70399Y187290D01*
X71524Y187623D01*
X72399Y188290D01*
X73024Y189457D01*
X73149Y190790D01*
X72899Y192123D01*
X72274Y192957D01*
X71399Y193623D01*
X70524Y193790D01*
X69649Y193623D01*
X68524Y192957D01*
X68899Y197290D01*
X72274D01*
G01X80399Y187290D02*
X81274Y187457D01*
X82274Y187957D01*
X82899Y188790D01*
X83149Y189957D01*
X82899Y191123D01*
X82149Y192123D01*
X81024Y192623D01*
X79774D01*
X79024Y192957D01*
X78399Y193790D01*
X78149Y194957D01*
X78524Y196123D01*
X79399Y196957D01*
X80399Y197290D01*
X81399Y196957D01*
X82274Y196123D01*
X82649Y194957D01*
X82399Y193790D01*
X81774Y192957D01*
X81024Y192623D01*
X79774D01*
X78649Y192123D01*
X77899Y191123D01*
X77649Y189957D01*
X77899Y188790D01*
X78524Y187957D01*
X79524Y187457D01*
X80399Y187290D01*
G01X88274Y188456D02*
X89149Y187623D01*
X90149Y187290D01*
X91149Y187623D01*
X92024Y188623D01*
X92649Y190123D01*
X92899Y191623D01*
Y193457D01*
X92649Y194957D01*
X92024Y196290D01*
X91274Y196957D01*
X90399Y197290D01*
X89399Y196957D01*
X88649Y196290D01*
X88149Y195290D01*
X87899Y193956D01*
X88149Y192790D01*
X88774Y191623D01*
X89524Y190956D01*
X90399Y190790D01*
X91399Y191123D01*
X92149Y191957D01*
X92899Y193457D01*
G01X98024Y195623D02*
X98774Y196623D01*
X99649Y197123D01*
X100649Y197290D01*
X101899Y196957D01*
X102774Y196123D01*
X103024Y195123D01*
X102899Y194123D01*
X102399Y193290D01*
X99899Y191623D01*
X98774Y190457D01*
X98024Y188790D01*
X97774Y187290D01*
X103024D01*
G01X111899D02*
Y197290D01*
X107274Y190123D01*
X113524D01*
G01X135000Y-17500D02*
Y128000D01*
X201476D01*
Y121799D01*
G03X204823I1674J0D01*
G01Y128000D01*
X220177D01*
Y121799D01*
G03X223524I1673J0D01*
G01Y128000D01*
X235000D01*
Y-17500D01*
X135000D01*
G01Y8000D02*
G03X125000I-5000J0D01*
G01Y28000D02*
G03X135000I5000J0D01*
G01Y100500D02*
G03X125000I-5000J0D01*
G01Y120500D02*
G03X135000I5000J0D01*
G01X245000Y8000D02*
G03X235000I-5000J0D01*
G01Y28000D02*
G03X245000I5000J0D01*
G01Y100500D02*
G03X235000I-5000J0D01*
G01Y120500D02*
G03X245000I5000J0D01*
G01Y-17500D02*
Y128000D01*
X311476D01*
Y121799D01*
G03X314823I1673J0D01*
G01Y128000D01*
X330177D01*
Y121799D01*
G03X333524I1674J0D01*
G01Y128000D01*
X345000D01*
Y-17500D01*
X245000D01*
G01X355000Y8000D02*
G03X345000I-5000J0D01*
G01Y28000D02*
G03X355000I5000J0D01*
G01Y100500D02*
G03X345000I-5000J0D01*
G01Y120500D02*
G03X355000I5000J0D01*
G01Y-17500D02*
Y128000D01*
X421476D01*
Y121799D01*
G03X424823I1673J0D01*
G01Y128000D01*
X440177D01*
Y121799D01*
G03X443524I1673J0D01*
G01Y128000D01*
X455000D01*
Y-17500D01*
X355000D01*
G01X465000D02*
Y128001D01*
X491180Y127989D01*
X531476Y128000D01*
Y121799D01*
G03X534823I1673J0D01*
G01Y128000D01*
X550177D01*
Y121799D01*
G03X553524I1673J0D01*
G01Y128000D01*
X565000D01*
Y-17500D01*
X465000D01*
G01Y8000D02*
G03X455000I-5000J0D01*
G01Y28000D02*
G03X465000I5000J0D01*
G01Y100500D02*
G03X455000I-5000J0D01*
G01Y120500D02*
G03X465000I5000J0D01*
G01X575000Y8000D02*
G03X565000I-5000J0D01*
G01Y28000D02*
G03X575000I5000J0D01*
G01Y100500D02*
G03X565000I-5000J0D01*
G01Y120500D02*
G03X575000I5000J0D01*
G01Y-17500D02*
Y45000D01*
Y128000D01*
X605000D01*
Y-17500D01*
X575000D01*
G54D17*
X57031Y39477D03*
X63723D03*
G54D26*
X103899Y39540D03*
Y47040D03*
X113899Y39540D03*
Y47040D03*
G54D18*
X47445Y52744D03*
Y59436D03*
G54D27*
X104490Y62468D03*
G54D19*
X63899Y21640D03*
Y27940D03*
X57899Y21640D03*
Y27940D03*
X89899Y8440D03*
Y2140D03*
G54D28*
X104490Y75112D03*
G54D29*
X100379Y88290D03*
X117419D03*
M02*
