G04 ================== begin FILE IDENTIFICATION RECORD ==================*
G04 Layout Name:  C:/tmp/20_058924b/worklib/02_058924a_top/physical/08_058924b.brd*
G04 Film Name:    silk_sec*
G04 File Format:  Gerber RS274X*
G04 File Origin:  Cadence Allegro 17.2-S055*
G04 Origin Date:  Thu Sep 10 08:42:21 2020*
G04 *
G04 Layer:  PACKAGE GEOMETRY/SILKSCREEN_BOTTOM*
G04 Layer:  BOARD GEOMETRY/TOOLING_CORNERS*
G04 Layer:  BOARD GEOMETRY/SILKSCREEN_BOTTOM*
G04 Layer:  BOARD GEOMETRY/ROOT_NUMBER*
G04 Layer:  REF DES/SILKSCREEN_BOTTOM*
G04 Layer:  MANUFACTURING/SILK_DETAIL_BOTTOM*
G04 *
G04 Offset:    (0.00 0.00)*
G04 Mirror:    No*
G04 Mode:      Positive*
G04 Rotation:  0*
G04 FullContactRelief:  No*
G04 UndefLineWidth:     8.00*
G04 ================== end FILE IDENTIFICATION RECORD ====================*
%FSLAX25Y25*MOIN*%
%IR0*IPPOS*OFA0.00000B0.00000*MIA0B0*SFA1.00000B1.00000*%
%ADD10C,.012*%
%ADD11C,.05*%
%ADD12C,.002*%
%ADD13C,.008*%
%ADD14C,.006*%
%ADD15C,.0028*%
G75*
%LPD*%
G75*
G36*
G01X43489Y47420D02*
G02I-1500J0D01*
G37*
G36*
G01X71943Y66171D02*
G02X55440Y68790I-8044J2615D01*
G01X53899D01*
X56799Y71390D01*
X59599Y68790D01*
X58081D01*
G03X69397Y66891I5816J-7D01*
G01X70999Y65389D01*
X71890Y66199D01*
X71943Y66171D01*
G37*
G36*
G01X68799Y44190D02*
G02I-1500J0D01*
G37*
G36*
G01X60049Y68240D02*
G02X60401Y67092I3850J552D01*
G01X60595Y67286D01*
G03X64527Y66501I2504J2304D01*
G03X66188Y68162I-628J2289D01*
G03X66200Y68190I-3121J1354D01*
G01X60099D01*
X60049Y68240D01*
G37*
G36*
G01X70999Y66090D02*
X68099Y68790D01*
X69713D01*
G03X58402Y70689I-5816J-6D01*
G01X56799Y72191D01*
X55907Y71381D01*
X55856Y71416D01*
G02X72361Y68790I8047J-2604D01*
G01X73899D01*
X70999Y66090D01*
G37*
G36*
G01X117954Y81042D02*
X116379D01*
Y83090D01*
X117954D01*
Y81042D01*
G37*
G36*
G01Y93490D02*
X116379D01*
Y95538D01*
X117954D01*
Y93490D01*
G37*
G36*
G01X118899Y106790D02*
G03I-1500J0D01*
G37*
G36*
G01X125742Y75696D02*
Y61884D01*
X122742D01*
Y75696D01*
X125742D01*
G37*
%LPC*%
G75*
G36*
G01X61599Y69390D02*
X66199D01*
G03X61599I-2300J-569D01*
G37*
%LPD*%
G75*
G54D10*
G01X77772Y84788D02*
X54772D01*
X66272Y107288D01*
X77772Y84788D01*
G54D11*
G01X12500Y-20000D02*
X25500D01*
G01X22500Y-30000D02*
Y5000D01*
G01Y140500D02*
Y122500D01*
G01X12500Y130500D02*
X24500D01*
G01X137500Y-20000D02*
X102500D01*
G01X137500Y130500D02*
X102500D01*
G01X127500Y-30000D02*
Y5000D01*
G01Y140500D02*
Y122500D01*
G54D12*
G01X40898Y91003D02*
X38448D01*
G01D02*
X29523Y103603D01*
G01X38439Y91015D02*
X40903D01*
G01X38422Y91040D02*
X40913D01*
G01X38405Y91064D02*
X40923D01*
G01X38387Y91089D02*
X40933D01*
G01X38370Y91113D02*
X40942D01*
G01X38352Y91138D02*
X40952D01*
G01X38336Y91162D02*
X40963D01*
G01X38318Y91187D02*
X40973D01*
G01X38301Y91211D02*
X40982D01*
G01X38283Y91236D02*
X40992D01*
G01X38266Y91260D02*
X41003D01*
G01X38249Y91285D02*
X41012D01*
G01X38231Y91309D02*
X41022D01*
G01X38214Y91334D02*
X41032D01*
G01X38196Y91358D02*
X41042D01*
G01X38180Y91383D02*
X41052D01*
G01X38162Y91407D02*
X41062D01*
G01X38145Y91432D02*
X41072D01*
G01X38127Y91456D02*
X41082D01*
G01X38110Y91481D02*
X41092D01*
G01X38093Y91505D02*
X41102D01*
G01X38075Y91530D02*
X41112D01*
G01X38058Y91554D02*
X41122D01*
G01X38040Y91579D02*
X41131D01*
G01X38023Y91603D02*
X41142D01*
G01X38006Y91628D02*
X41152D01*
G01X37988Y91652D02*
X41162D01*
G01X37971Y91677D02*
X41171D01*
G01X37953Y91701D02*
X41182D01*
G01X37936Y91726D02*
X41192D01*
G01X37919Y91750D02*
X41201D01*
G01X37902Y91775D02*
X41211D01*
G01X37884Y91799D02*
X41221D01*
G01X37867Y91824D02*
X41232D01*
G01X37850Y91848D02*
X41241D01*
G01X37832Y91873D02*
X41251D01*
G01X37815Y91897D02*
X41261D01*
G01X37797Y91922D02*
X41271D01*
G01X37780Y91946D02*
X41281D01*
G01X37763Y91971D02*
X41291D01*
G01X37746Y91995D02*
X41301D01*
G01X37728Y92020D02*
X41311D01*
G01X37711Y92044D02*
X41321D01*
G01X37693Y92069D02*
X41331D01*
G01X37676Y92093D02*
X41341D01*
G01X37659Y92118D02*
X41351D01*
G01X37641Y92142D02*
X41360D01*
G01X37624Y92167D02*
X41371D01*
G01X37606Y92191D02*
X41381D01*
G01X37589Y92216D02*
X41390D01*
G01X37572Y92240D02*
X41400D01*
G01X37554Y92265D02*
X41411D01*
G01X37537Y92289D02*
X41421D01*
G01X37519Y92314D02*
X41430D01*
G01X37503Y92338D02*
X41440D01*
G01X37485Y92363D02*
X41450D01*
G01X37468Y92387D02*
X41460D01*
G01X37450Y92412D02*
X41470D01*
G01X37433Y92436D02*
X41480D01*
G01X37416Y92461D02*
X41490D01*
G01X37398Y92485D02*
X41500D01*
G01X37381Y92510D02*
X41510D01*
G01X37363Y92534D02*
X41520D01*
G01X37347Y92559D02*
X41530D01*
G01X37329Y92583D02*
X41540D01*
G01X37312Y92608D02*
X41550D01*
G01X37294Y92632D02*
X41560D01*
G01X37277Y92657D02*
X41570D01*
G01X37260Y92681D02*
X41579D01*
G01X37242Y92706D02*
X41589D01*
G01X37225Y92730D02*
X41600D01*
G01X37207Y92755D02*
X41610D01*
G01X37190Y92779D02*
X41619D01*
G01X37173Y92804D02*
X41629D01*
G01X37155Y92828D02*
X41640D01*
G01X37138Y92853D02*
X41649D01*
G01X37120Y92877D02*
X41659D01*
G01X37103Y92902D02*
X41669D01*
G01X37086Y92926D02*
X41679D01*
G01X37069Y92951D02*
X41689D01*
G01X37051Y92975D02*
X41699D01*
G01X37034Y93000D02*
X41709D01*
G01X37017Y93024D02*
X41719D01*
G01X36999Y93049D02*
X41729D01*
G01X36982Y93073D02*
X41739D01*
G01X36964Y93098D02*
X41749D01*
G01X36947Y93122D02*
X41759D01*
G01X36930Y93147D02*
X41768D01*
G01X36913Y93171D02*
X41779D01*
G01X36895Y93196D02*
X41789D01*
G01X36878Y93220D02*
X41799D01*
G01X36860Y93245D02*
X41808D01*
G01X36843Y93269D02*
X41819D01*
G01X36826Y93294D02*
X41829D01*
G01X36808Y93318D02*
X41838D01*
G01X36791Y93343D02*
X41848D01*
G01X36773Y93367D02*
X41858D01*
G01X36756Y93392D02*
X41869D01*
G01X36739Y93416D02*
X41878D01*
G01X36721Y93441D02*
X41888D01*
G01X36704Y93465D02*
X41898D01*
G01X36686Y93490D02*
X41908D01*
G01X36670Y93514D02*
X41918D01*
G01X36652Y93539D02*
X41928D01*
G01X36635Y93563D02*
X41938D01*
G01X36617Y93588D02*
X41948D01*
G01X36600Y93612D02*
X41958D01*
G01X36583Y93637D02*
X41968D01*
G01X36565Y93661D02*
X41978D01*
G01X36548Y93686D02*
X41988D01*
G01X36530Y93710D02*
X41997D01*
G01X36514Y93735D02*
X42008D01*
G01X36496Y93759D02*
X42018D01*
G01X36479Y93784D02*
X42027D01*
G01X36461Y93808D02*
X42037D01*
G01X36444Y93833D02*
X42048D01*
G01X36427Y93857D02*
X42058D01*
G01X36409Y93882D02*
X42067D01*
G01X36392Y93906D02*
X42077D01*
G01X36374Y93931D02*
X42087D01*
G01X36357Y93955D02*
X42097D01*
G01X36340Y93980D02*
X42107D01*
G01X36322Y94004D02*
X42117D01*
G01X36305Y94029D02*
X42127D01*
G01X36287Y94053D02*
X42137D01*
G01X36270Y94078D02*
X42147D01*
G01X36253Y94102D02*
X42157D01*
G01X36236Y94127D02*
X42167D01*
G01X36218Y94151D02*
X42177D01*
G01X36201Y94176D02*
X42187D01*
G01X36184Y94200D02*
X42197D01*
G01X36166Y94225D02*
X42207D01*
G01X36149Y94249D02*
X42216D01*
G01X36131Y94274D02*
X42226D01*
G01X36114Y94298D02*
X42237D01*
G01X36097Y94323D02*
X42247D01*
G01X36080Y94347D02*
X42256D01*
G01X29523Y103603D02*
X32673D01*
G01D02*
X39673Y95203D01*
G01X36062Y94372D02*
X42266D01*
G01X36045Y94396D02*
X42277D01*
G01X36027Y94421D02*
X42286D01*
G01X36010Y94445D02*
X42296D01*
G01X35993Y94470D02*
X42306D01*
G01X35975Y94494D02*
X42316D01*
G01X35958Y94519D02*
X42326D01*
G01X35940Y94543D02*
X42336D01*
G01X35923Y94568D02*
X42346D01*
G01X35906Y94592D02*
X42356D01*
G01X35888Y94617D02*
X42366D01*
G01X35871Y94641D02*
X42376D01*
G01X35853Y94666D02*
X42386D01*
G01X35837Y94690D02*
X42396D01*
G01X35819Y94715D02*
X42405D01*
G01X35802Y94739D02*
X42416D01*
G01X35784Y94764D02*
X42426D01*
G01X35767Y94788D02*
X42436D01*
G01X35750Y94813D02*
X42445D01*
G01X35732Y94837D02*
X42456D01*
G01X35715Y94862D02*
X42466D01*
G01X35697Y94886D02*
X42475D01*
G01X35681Y94911D02*
X42485D01*
G01X35663Y94935D02*
X42495D01*
G01X35646Y94960D02*
X42506D01*
G01X35628Y94984D02*
X42515D01*
G01X35611Y95009D02*
X42525D01*
G01X35594Y95033D02*
X42535D01*
G01X35576Y95058D02*
X42545D01*
G01X35559Y95082D02*
X42555D01*
G01X35541Y95107D02*
X42565D01*
G01X35524Y95131D02*
X42575D01*
G01X35507Y95156D02*
X42585D01*
G01X35489Y95180D02*
X42595D01*
G01X35472Y95205D02*
X39671D01*
G01X35454Y95229D02*
X39651D01*
G01X35437Y95254D02*
X39631D01*
G01X35420Y95278D02*
X39610D01*
G01X35403Y95303D02*
X39589D01*
G01X35385Y95327D02*
X39569D01*
G01X35368Y95352D02*
X39549D01*
G01X35351Y95376D02*
X39528D01*
G01X35333Y95401D02*
X39508D01*
G01X35316Y95425D02*
X39487D01*
G01X35298Y95450D02*
X39467D01*
G01X35281Y95474D02*
X39447D01*
G01X35264Y95499D02*
X39426D01*
G01X35247Y95523D02*
X39406D01*
G01X35229Y95548D02*
X39386D01*
G01X35212Y95572D02*
X39365D01*
G01X35194Y95597D02*
X39344D01*
G01X35177Y95621D02*
X39324D01*
G01X35160Y95646D02*
X39304D01*
G01X35142Y95670D02*
X39283D01*
G01X35125Y95695D02*
X39263D01*
G01X35107Y95719D02*
X39242D01*
G01X35090Y95744D02*
X39222D01*
G01X35073Y95768D02*
X39202D01*
G01X35055Y95793D02*
X39181D01*
G01X35038Y95817D02*
X39161D01*
G01X35020Y95842D02*
X39141D01*
G01X35004Y95866D02*
X39120D01*
G01X34986Y95891D02*
X39099D01*
G01X34969Y95915D02*
X39079D01*
G01X34951Y95940D02*
X39059D01*
G01X34934Y95964D02*
X39038D01*
G01X34917Y95989D02*
X39018D01*
G01X34899Y96013D02*
X38997D01*
G01X34882Y96038D02*
X38977D01*
G01X34864Y96062D02*
X38957D01*
G01X34848Y96087D02*
X38936D01*
G01X34830Y96111D02*
X38916D01*
G01X34813Y96136D02*
X38896D01*
G01X34795Y96160D02*
X38875D01*
G01X34778Y96185D02*
X38854D01*
G01X34761Y96209D02*
X38834D01*
G01X34743Y96234D02*
X38814D01*
G01X34726Y96258D02*
X38793D01*
G01X34708Y96283D02*
X38773D01*
G01X34691Y96307D02*
X38752D01*
G01X34674Y96332D02*
X38732D01*
G01X34656Y96356D02*
X38712D01*
G01X34639Y96381D02*
X38691D01*
G01X34621Y96405D02*
X38671D01*
G01X34604Y96430D02*
X38651D01*
G01X34587Y96454D02*
X38630D01*
G01X34570Y96479D02*
X38609D01*
G01X34552Y96503D02*
X38589D01*
G01X34535Y96528D02*
X38569D01*
G01X34518Y96552D02*
X38548D01*
G01X34500Y96577D02*
X38528D01*
G01X34483Y96601D02*
X38507D01*
G01X34465Y96626D02*
X38487D01*
G01X34448Y96650D02*
X38467D01*
G01X34431Y96675D02*
X38446D01*
G01X34414Y96699D02*
X38426D01*
G01X34396Y96724D02*
X38406D01*
G01X34379Y96748D02*
X38385D01*
G01X34361Y96773D02*
X38364D01*
G01X34344Y96797D02*
X38344D01*
G01X34327Y96822D02*
X38324D01*
G01X34309Y96846D02*
X38303D01*
G01X34292Y96871D02*
X38283D01*
G01X34274Y96895D02*
X38262D01*
G01X34257Y96920D02*
X38242D01*
G01X34240Y96944D02*
X38222D01*
G01X34222Y96969D02*
X38201D01*
G01X34205Y96993D02*
X38181D01*
G01X34187Y97018D02*
X38161D01*
G01X34171Y97042D02*
X38140D01*
G01X34153Y97067D02*
X38119D01*
G01X34136Y97091D02*
X38099D01*
G01X34118Y97116D02*
X38079D01*
G01X34101Y97140D02*
X38058D01*
G01X34084Y97165D02*
X38038D01*
G01X34066Y97189D02*
X38017D01*
G01X34049Y97214D02*
X37997D01*
G01X34031Y97238D02*
X37977D01*
G01X34015Y97263D02*
X37956D01*
G01X33997Y97287D02*
X37936D01*
G01X33980Y97312D02*
X37916D01*
G01X33962Y97336D02*
X37895D01*
G01X33945Y97361D02*
X37874D01*
G01X33928Y97385D02*
X37854D01*
G01X33910Y97410D02*
X37834D01*
G01X33893Y97434D02*
X37813D01*
G01X33875Y97459D02*
X37793D01*
G01X33858Y97483D02*
X37772D01*
G01X33841Y97508D02*
X37752D01*
G01X33823Y97532D02*
X37732D01*
G01X33806Y97557D02*
X37711D01*
G01X33788Y97581D02*
X37691D01*
G01X33771Y97606D02*
X37671D01*
G01X33754Y97630D02*
X37650D01*
G01X33737Y97655D02*
X37629D01*
G01X33719Y97679D02*
X37609D01*
G01X33702Y97704D02*
X37589D01*
G01X33685Y97728D02*
X37568D01*
G01X33667Y97753D02*
X37548D01*
G01X33650Y97777D02*
X37527D01*
G01X33632Y97802D02*
X37507D01*
G01X33615Y97826D02*
X37487D01*
G01X33598Y97851D02*
X37466D01*
G01X33581Y97875D02*
X37446D01*
G01X33563Y97900D02*
X37426D01*
G01X33546Y97924D02*
X37405D01*
G01X33528Y97949D02*
X37384D01*
G01X33511Y97973D02*
X37364D01*
G01X33494Y97998D02*
X37344D01*
G01X33476Y98022D02*
X37323D01*
G01X33459Y98047D02*
X37303D01*
G01X33441Y98071D02*
X37282D01*
G01X33424Y98096D02*
X37262D01*
G01X33407Y98120D02*
X37242D01*
G01X33389Y98145D02*
X37221D01*
G01X33372Y98169D02*
X37201D01*
G01X33354Y98194D02*
X37181D01*
G01X33338Y98218D02*
X37160D01*
G01X33320Y98243D02*
X37139D01*
G01X33303Y98267D02*
X37119D01*
G01X33285Y98292D02*
X37099D01*
G01X33268Y98316D02*
X37078D01*
G01X33251Y98341D02*
X37058D01*
G01X33233Y98365D02*
X37037D01*
G01X33216Y98390D02*
X37017D01*
G01X33198Y98414D02*
X36997D01*
G01X33182Y98439D02*
X36976D01*
G01X33164Y98463D02*
X36956D01*
G01X33147Y98488D02*
X36936D01*
G01X33129Y98512D02*
X36915D01*
G01X33112Y98537D02*
X36894D01*
G01X33095Y98561D02*
X36874D01*
G01X33077Y98586D02*
X36854D01*
G01X33060Y98610D02*
X36833D01*
G01X33042Y98635D02*
X36813D01*
G01X33025Y98659D02*
X36792D01*
G01X33008Y98684D02*
X36772D01*
G01X32990Y98708D02*
X36752D01*
G01X32973Y98733D02*
X36731D01*
G01X32955Y98757D02*
X36711D01*
G01X32938Y98782D02*
X36691D01*
G01X32921Y98806D02*
X36670D01*
G01X32904Y98831D02*
X36649D01*
G01X32886Y98855D02*
X36629D01*
G01X32869Y98880D02*
X36609D01*
G01X32852Y98904D02*
X36588D01*
G01X32834Y98929D02*
X36568D01*
G01X32817Y98953D02*
X36547D01*
G01X32799Y98978D02*
X36527D01*
G01X32782Y99002D02*
X36507D01*
G01X32765Y99027D02*
X36486D01*
G01X32748Y99051D02*
X36466D01*
G01X32730Y99076D02*
X36446D01*
G01X32713Y99100D02*
X36425D01*
G01X32695Y99125D02*
X36404D01*
G01X32678Y99149D02*
X36384D01*
G01X32661Y99174D02*
X36364D01*
G01X32643Y99198D02*
X36343D01*
G01X32626Y99223D02*
X36323D01*
G01X32608Y99247D02*
X36302D01*
G01X32591Y99272D02*
X36282D01*
G01X32574Y99296D02*
X36262D01*
G01X32556Y99321D02*
X36241D01*
G01X32539Y99345D02*
X36221D01*
G01X32521Y99370D02*
X36201D01*
G01X32505Y99394D02*
X36180D01*
G01X32487Y99419D02*
X36159D01*
G01X32470Y99443D02*
X36139D01*
G01X32452Y99468D02*
X36119D01*
G01X32435Y99492D02*
X36098D01*
G01X32418Y99517D02*
X36078D01*
G01X32400Y99541D02*
X36057D01*
G01X32383Y99566D02*
X36037D01*
G01X32365Y99590D02*
X36017D01*
G01X32349Y99615D02*
X35996D01*
G01X32331Y99639D02*
X35976D01*
G01X32314Y99664D02*
X35956D01*
G01X32296Y99688D02*
X35935D01*
G01X32279Y99713D02*
X35914D01*
G01X32262Y99737D02*
X35894D01*
G01X32244Y99762D02*
X35874D01*
G01X32227Y99786D02*
X35853D01*
G01X32209Y99811D02*
X35833D01*
G01X32192Y99835D02*
X35812D01*
G01X32175Y99860D02*
X35792D01*
G01X32157Y99884D02*
X35772D01*
G01X32140Y99909D02*
X35751D01*
G01X32122Y99933D02*
X35731D01*
G01X32105Y99958D02*
X35711D01*
G01X32088Y99982D02*
X35690D01*
G01X32071Y100007D02*
X35669D01*
G01X32053Y100031D02*
X35649D01*
G01X32036Y100056D02*
X35629D01*
G01X32019Y100080D02*
X35608D01*
G01X32001Y100105D02*
X35588D01*
G01X31984Y100129D02*
X35567D01*
G01X31966Y100154D02*
X35547D01*
G01X31949Y100178D02*
X35527D01*
G01X31932Y100203D02*
X35506D01*
G01X31915Y100227D02*
X35486D01*
G01X31897Y100252D02*
X35466D01*
G01X31880Y100276D02*
X35445D01*
G01X31862Y100301D02*
X35424D01*
G01X31845Y100325D02*
X35404D01*
G01X31828Y100350D02*
X35384D01*
G01X31810Y100374D02*
X35363D01*
G01X31793Y100399D02*
X35343D01*
G01X31775Y100423D02*
X35322D01*
G01X31758Y100448D02*
X35302D01*
G01X31741Y100472D02*
X35282D01*
G01X31723Y100497D02*
X35261D01*
G01X31706Y100521D02*
X35241D01*
G01X31688Y100546D02*
X35221D01*
G01X31672Y100570D02*
X35200D01*
G01X31654Y100595D02*
X35179D01*
G01X31637Y100619D02*
X35159D01*
G01X31619Y100644D02*
X35139D01*
G01X31602Y100668D02*
X35118D01*
G01X31585Y100693D02*
X35098D01*
G01X31567Y100717D02*
X35077D01*
G01X31550Y100742D02*
X35057D01*
G01X31532Y100766D02*
X35037D01*
G01X31516Y100791D02*
X35016D01*
G01X31498Y100815D02*
X34996D01*
G01X31481Y100840D02*
X34976D01*
G01X31463Y100864D02*
X34955D01*
G01X31446Y100889D02*
X34934D01*
G01X31429Y100913D02*
X34914D01*
G01X31411Y100938D02*
X34894D01*
G01X31394Y100962D02*
X34873D01*
G01X31376Y100987D02*
X34853D01*
G01X31359Y101011D02*
X34832D01*
G01X31342Y101036D02*
X34812D01*
G01X31324Y101060D02*
X34792D01*
G01X31307Y101085D02*
X34771D01*
G01X31289Y101109D02*
X34751D01*
G01X31272Y101134D02*
X34731D01*
G01X31255Y101158D02*
X34710D01*
G01X31238Y101183D02*
X34689D01*
G01X31220Y101207D02*
X34669D01*
G01X31203Y101232D02*
X34649D01*
G01X31186Y101256D02*
X34628D01*
G01X31168Y101281D02*
X34608D01*
G01X31151Y101305D02*
X34587D01*
G01X31133Y101330D02*
X34567D01*
G01X31116Y101354D02*
X34547D01*
G01X31099Y101379D02*
X34526D01*
G01X31082Y101403D02*
X34506D01*
G01X31064Y101428D02*
X34486D01*
G01X31047Y101452D02*
X34465D01*
G01X31029Y101477D02*
X34444D01*
G01X31012Y101501D02*
X34424D01*
G01X30995Y101526D02*
X34404D01*
G01X30977Y101550D02*
X34383D01*
G01X30960Y101575D02*
X34363D01*
G01X30942Y101599D02*
X34342D01*
G01X30925Y101624D02*
X34322D01*
G01X30908Y101648D02*
X34302D01*
G01X30890Y101673D02*
X34281D01*
G01X30873Y101697D02*
X34261D01*
G01X30855Y101722D02*
X34241D01*
G01X30839Y101746D02*
X34220D01*
G01X30821Y101771D02*
X34199D01*
G01X30804Y101795D02*
X34179D01*
G01X30786Y101820D02*
X34159D01*
G01X30769Y101844D02*
X34138D01*
G01X30752Y101869D02*
X34118D01*
G01X30734Y101893D02*
X34097D01*
G01X30717Y101918D02*
X34077D01*
G01X30699Y101942D02*
X34057D01*
G01X30683Y101967D02*
X34036D01*
G01X30665Y101991D02*
X34016D01*
G01X30648Y102016D02*
X33996D01*
G01X30630Y102040D02*
X33975D01*
G01X30613Y102065D02*
X33954D01*
G01X30596Y102089D02*
X33934D01*
G01X30578Y102114D02*
X33914D01*
G01X30561Y102138D02*
X33893D01*
G01X30543Y102163D02*
X33873D01*
G01X30526Y102187D02*
X33852D01*
G01X30509Y102212D02*
X33832D01*
G01X30491Y102236D02*
X33812D01*
G01X30474Y102261D02*
X33791D01*
G01X30456Y102285D02*
X33771D01*
G01X30439Y102310D02*
X33751D01*
G01X30422Y102334D02*
X33730D01*
G01X30405Y102359D02*
X33709D01*
G01X30387Y102383D02*
X33689D01*
G01X30370Y102408D02*
X33669D01*
G01X30353Y102432D02*
X33648D01*
G01X30335Y102457D02*
X33628D01*
G01X30318Y102481D02*
X33607D01*
G01X30300Y102506D02*
X33587D01*
G01X30283Y102530D02*
X33567D01*
G01X30266Y102555D02*
X33546D01*
G01X30249Y102579D02*
X33526D01*
G01X30231Y102604D02*
X33506D01*
G01X30214Y102628D02*
X33485D01*
G01X30196Y102653D02*
X33464D01*
G01X30179Y102677D02*
X33444D01*
G01X30162Y102702D02*
X33424D01*
G01X30144Y102726D02*
X33403D01*
G01X30127Y102751D02*
X33383D01*
G01X30109Y102775D02*
X33362D01*
G01X30092Y102800D02*
X33342D01*
G01X30075Y102824D02*
X33322D01*
G01X30057Y102849D02*
X33301D01*
G01X30040Y102873D02*
X33281D01*
G01X30022Y102898D02*
X33261D01*
G01X30006Y102922D02*
X33240D01*
G01X29988Y102947D02*
X33219D01*
G01X29971Y102971D02*
X33199D01*
G01X29953Y102996D02*
X33179D01*
G01X29936Y103020D02*
X33158D01*
G01X29919Y103045D02*
X33138D01*
G01X29901Y103069D02*
X33117D01*
G01X29884Y103094D02*
X33097D01*
G01X29866Y103118D02*
X33077D01*
G01X29850Y103143D02*
X33056D01*
G01X29832Y103167D02*
X33036D01*
G01X29815Y103192D02*
X33016D01*
G01X29797Y103216D02*
X32995D01*
G01X29780Y103241D02*
X32974D01*
G01X29763Y103265D02*
X32954D01*
G01X29745Y103290D02*
X32934D01*
G01X29728Y103314D02*
X32913D01*
G01X29710Y103339D02*
X32893D01*
G01X29693Y103363D02*
X32872D01*
G01X29676Y103388D02*
X32852D01*
G01X29658Y103412D02*
X32832D01*
G01X29641Y103437D02*
X32811D01*
G01X29623Y103461D02*
X32791D01*
G01X29606Y103486D02*
X32771D01*
G01X29589Y103510D02*
X32750D01*
G01X29572Y103535D02*
X32729D01*
G01X29554Y103559D02*
X32709D01*
G01X29537Y103584D02*
X32689D01*
G01X43173Y96603D02*
X40898Y91003D01*
G01X39673Y95203D02*
X40548Y96603D01*
G01D02*
X43173D01*
G01X39673Y95205D02*
X42605D01*
G01X39689Y95229D02*
X42615D01*
G01X39704Y95254D02*
X42625D01*
G01X39719Y95278D02*
X42634D01*
G01X39734Y95303D02*
X42645D01*
G01X39750Y95327D02*
X42655D01*
G01X39765Y95352D02*
X42664D01*
G01X39780Y95376D02*
X42674D01*
G01X39796Y95401D02*
X42685D01*
G01X39811Y95425D02*
X42695D01*
G01X39827Y95450D02*
X42704D01*
G01X39841Y95474D02*
X42714D01*
G01X39857Y95499D02*
X42724D01*
G01X39872Y95523D02*
X42734D01*
G01X39888Y95548D02*
X42744D01*
G01X39903Y95572D02*
X42754D01*
G01X39918Y95597D02*
X42764D01*
G01X39934Y95621D02*
X42774D01*
G01X39949Y95646D02*
X42784D01*
G01X39964Y95670D02*
X42794D01*
G01X39979Y95695D02*
X42804D01*
G01X39995Y95719D02*
X42814D01*
G01X40010Y95744D02*
X42824D01*
G01X40025Y95768D02*
X42834D01*
G01X40041Y95793D02*
X42844D01*
G01X40056Y95817D02*
X42853D01*
G01X40072Y95842D02*
X42863D01*
G01X40086Y95866D02*
X42874D01*
G01X40102Y95891D02*
X42884D01*
G01X40117Y95915D02*
X42893D01*
G01X40133Y95940D02*
X42903D01*
G01X40148Y95964D02*
X42914D01*
G01X40163Y95989D02*
X42923D01*
G01X40179Y96013D02*
X42933D01*
G01X40194Y96038D02*
X42943D01*
G01X40209Y96062D02*
X42953D01*
G01X40224Y96087D02*
X42963D01*
G01X40240Y96111D02*
X42973D01*
G01X40255Y96136D02*
X42983D01*
G01X40270Y96160D02*
X42993D01*
G01X40286Y96185D02*
X43003D01*
G01X40301Y96209D02*
X43013D01*
G01X40317Y96234D02*
X43023D01*
G01X40331Y96258D02*
X43033D01*
G01X40347Y96283D02*
X43042D01*
G01X40362Y96307D02*
X43053D01*
G01X40378Y96332D02*
X43063D01*
G01X40393Y96356D02*
X43073D01*
G01X40408Y96381D02*
X43082D01*
G01X40424Y96405D02*
X43093D01*
G01X40439Y96430D02*
X43103D01*
G01X40454Y96454D02*
X43112D01*
G01X40469Y96479D02*
X43122D01*
G01X40485Y96503D02*
X43132D01*
G01X40500Y96528D02*
X43143D01*
G01X40515Y96552D02*
X43152D01*
G01X40531Y96577D02*
X43162D01*
G01X40546Y96601D02*
X43172D01*
G54D13*
G01X-12226Y208623D02*
X-11226Y207790D01*
X-10101Y207290D01*
X-9101D01*
X-8101Y207790D01*
X-7351Y208623D01*
X-6976Y209790D01*
X-7226Y210956D01*
X-7851Y211957D01*
X-8976Y212623D01*
X-10476Y212957D01*
X-11351Y213623D01*
X-11726Y214790D01*
X-11476Y215957D01*
X-10851Y216790D01*
X-9976Y217290D01*
X-9101D01*
X-8226Y216957D01*
X-7476Y216123D01*
G01X-1101Y217290D02*
X1899D01*
G01X399D02*
Y207290D01*
G01X-1101D02*
X1899D01*
G01X7899Y217290D02*
Y207290D01*
X12899D01*
G01X17649D02*
Y217290D01*
G01X22399D02*
X17649Y211123D01*
G01X23149Y207290D02*
X19774Y213956D01*
G01X27774Y208623D02*
X28774Y207790D01*
X29899Y207290D01*
X30899D01*
X31899Y207790D01*
X32649Y208623D01*
X33024Y209790D01*
X32774Y210956D01*
X32149Y211957D01*
X31024Y212623D01*
X29524Y212957D01*
X28649Y213623D01*
X28274Y214790D01*
X28524Y215957D01*
X29149Y216790D01*
X30024Y217290D01*
X30899D01*
X31774Y216957D01*
X32524Y216123D01*
G01X43149Y216457D02*
X42399Y216957D01*
X41524Y217290D01*
X40524D01*
X39399Y216790D01*
X38524Y215957D01*
X37899Y214957D01*
X37399Y213290D01*
X37274Y211790D01*
X37524Y210290D01*
X37899Y209290D01*
X38649Y208290D01*
X39524Y207623D01*
X40399Y207290D01*
X41274D01*
X42149Y207623D01*
X42899Y208123D01*
X43524Y208790D01*
G01X47899Y207290D02*
Y217290D01*
X51024D01*
X52024Y216790D01*
X52649Y216123D01*
X52899Y214790D01*
X52649Y213457D01*
X51899Y212623D01*
X51024Y212123D01*
X47899D01*
G01X51024D02*
X52899Y207290D01*
G01X62899D02*
X57899D01*
Y217290D01*
X62899D01*
G01X60899Y212457D02*
X57899D01*
G01X72899Y207290D02*
X67899D01*
Y217290D01*
X72899D01*
G01X70899Y212457D02*
X67899D01*
G01X77524Y207290D02*
Y217290D01*
X83274Y207290D01*
Y217290D01*
G01X97774Y208623D02*
X98774Y207790D01*
X99899Y207290D01*
X100899D01*
X101899Y207790D01*
X102649Y208623D01*
X103024Y209790D01*
X102774Y210956D01*
X102149Y211957D01*
X101024Y212623D01*
X99524Y212957D01*
X98649Y213623D01*
X98274Y214790D01*
X98524Y215957D01*
X99149Y216790D01*
X100024Y217290D01*
X100899D01*
X101774Y216957D01*
X102524Y216123D01*
G01X112899Y207290D02*
X107899D01*
Y217290D01*
X112899D01*
G01X110899Y212457D02*
X107899D01*
G01X123149Y216457D02*
X122399Y216957D01*
X121524Y217290D01*
X120524D01*
X119399Y216790D01*
X118524Y215957D01*
X117899Y214957D01*
X117399Y213290D01*
X117274Y211790D01*
X117524Y210290D01*
X117899Y209290D01*
X118649Y208290D01*
X119524Y207623D01*
X120399Y207290D01*
X121274D01*
X122149Y207623D01*
X122899Y208123D01*
X123524Y208790D01*
G01X130399Y207290D02*
X129399Y207457D01*
X128524Y208123D01*
X127774Y209123D01*
X127274Y210290D01*
X127024Y211623D01*
Y212957D01*
X127274Y214290D01*
X127774Y215457D01*
X128524Y216457D01*
X129399Y217123D01*
X130399Y217290D01*
X131399Y217123D01*
X132274Y216457D01*
X133024Y215457D01*
X133524Y214290D01*
X133774Y212957D01*
Y211623D01*
X133524Y210290D01*
X133024Y209123D01*
X132274Y208123D01*
X131399Y207457D01*
X130399Y207290D01*
G01X137524D02*
Y217290D01*
X143274Y207290D01*
Y217290D01*
G01X147649Y207290D02*
Y217290D01*
X150149D01*
X151149Y216790D01*
X151899Y216123D01*
X152524Y215123D01*
X153024Y213956D01*
X153149Y212290D01*
X153024Y210623D01*
X152524Y209457D01*
X151899Y208456D01*
X151149Y207790D01*
X150149Y207290D01*
X147649D01*
G01X157274D02*
X160399Y217290D01*
X163524Y207290D01*
G01X162399Y210790D02*
X158399D01*
G01X167899Y207290D02*
Y217290D01*
X171024D01*
X172024Y216790D01*
X172649Y216123D01*
X172899Y214790D01*
X172649Y213457D01*
X171899Y212623D01*
X171024Y212123D01*
X167899D01*
G01X171024D02*
X172899Y207290D01*
G01X180399D02*
Y211790D01*
X177899Y217290D01*
G01X182899D02*
X180399Y211790D01*
G01X68281Y-17500D02*
Y6056D01*
X25517D01*
Y-17500D01*
G01X39199Y41840D02*
Y41740D01*
X37599D01*
Y41840D01*
X39199D01*
G01X28199Y59489D02*
X27930D01*
Y51091D01*
X28199D01*
G01X35371Y128000D02*
Y109719D01*
X66083D01*
Y128000D01*
G01X30399Y197290D02*
X29399Y196957D01*
X28649Y196123D01*
X28149Y195123D01*
X27774Y193790D01*
X27649Y192290D01*
X27774Y190790D01*
X28149Y189457D01*
X28649Y188456D01*
X29399Y187623D01*
X30399Y187290D01*
X31399Y187623D01*
X32149Y188456D01*
X32649Y189457D01*
X33024Y190790D01*
X33149Y192290D01*
X33024Y193790D01*
X32649Y195123D01*
X32149Y196123D01*
X31399Y196957D01*
X30399Y197290D01*
G01X40399Y187290D02*
X41274Y187457D01*
X42274Y187957D01*
X42899Y188790D01*
X43149Y189957D01*
X42899Y191123D01*
X42149Y192123D01*
X41024Y192623D01*
X39774D01*
X39024Y192957D01*
X38399Y193790D01*
X38149Y194957D01*
X38524Y196123D01*
X39399Y196957D01*
X40399Y197290D01*
X41399Y196957D01*
X42274Y196123D01*
X42649Y194957D01*
X42399Y193790D01*
X41774Y192957D01*
X41024Y192623D01*
X39774D01*
X38649Y192123D01*
X37899Y191123D01*
X37649Y189957D01*
X37899Y188790D01*
X38524Y187957D01*
X39524Y187457D01*
X40399Y187290D01*
G01X48774Y190623D02*
X52024D01*
G01X118774D02*
X122024D01*
G01X130399Y197290D02*
X129399Y196957D01*
X128649Y196123D01*
X128149Y195123D01*
X127774Y193790D01*
X127649Y192290D01*
X127774Y190790D01*
X128149Y189457D01*
X128649Y188456D01*
X129399Y187623D01*
X130399Y187290D01*
X131399Y187623D01*
X132149Y188456D01*
X132649Y189457D01*
X133024Y190790D01*
X133149Y192290D01*
X133024Y193790D01*
X132649Y195123D01*
X132149Y196123D01*
X131399Y196957D01*
X130399Y197290D01*
G01X137649Y188790D02*
X138399Y187957D01*
X139274Y187457D01*
X140399Y187290D01*
X141524Y187623D01*
X142399Y188290D01*
X143024Y189457D01*
X143149Y190790D01*
X142899Y192123D01*
X142274Y192957D01*
X141399Y193623D01*
X140524Y193790D01*
X139649Y193623D01*
X138524Y192957D01*
X138899Y197290D01*
X142274D01*
G01X41079Y51091D02*
X41348D01*
Y59489D01*
X41079D01*
G01X52599Y59740D02*
Y59840D01*
X54199D01*
Y59740D01*
X52599D01*
G01X60799Y12790D02*
G03I-1400J0D01*
G01X96296Y12246D02*
Y58538D01*
X69690D01*
Y12246D01*
X96296D01*
G01X57399Y36490D02*
X66399D01*
Y31090D01*
X57399D01*
Y36490D01*
G01X66108Y53751D02*
X66336D01*
Y46829D01*
X66108D01*
G01X56690D02*
X56462D01*
Y53751D01*
X56690D01*
G01X61808D02*
X60990D01*
G01X62899Y167290D02*
Y177290D01*
X66024D01*
X67024Y176790D01*
X67649Y176123D01*
X67899Y174790D01*
X67649Y173457D01*
X66899Y172623D01*
X66024Y172123D01*
X62899D01*
G01X66024D02*
X67899Y167290D01*
G01X77899D02*
X72899D01*
Y177290D01*
X77899D01*
G01X75899Y172457D02*
X72899D01*
G01X82274Y177290D02*
X85399Y167290D01*
X88524Y177290D01*
G01X106399Y172623D02*
X106899Y173123D01*
X107274Y173956D01*
X107524Y175123D01*
X107274Y176123D01*
X106774Y176790D01*
X105899Y177290D01*
X102524D01*
Y167290D01*
X106649D01*
X107524Y167957D01*
X108024Y168957D01*
X108274Y170123D01*
X108024Y171290D01*
X107274Y172290D01*
X106399Y172623D01*
X102524D01*
G01X60399Y197290D02*
X59399Y196957D01*
X58649Y196123D01*
X58149Y195123D01*
X57774Y193790D01*
X57649Y192290D01*
X57774Y190790D01*
X58149Y189457D01*
X58649Y188456D01*
X59399Y187623D01*
X60399Y187290D01*
X61399Y187623D01*
X62149Y188456D01*
X62649Y189457D01*
X63024Y190790D01*
X63149Y192290D01*
X63024Y193790D01*
X62649Y195123D01*
X62149Y196123D01*
X61399Y196957D01*
X60399Y197290D01*
G01X67649Y188790D02*
X68399Y187957D01*
X69274Y187457D01*
X70399Y187290D01*
X71524Y187623D01*
X72399Y188290D01*
X73024Y189457D01*
X73149Y190790D01*
X72899Y192123D01*
X72274Y192957D01*
X71399Y193623D01*
X70524Y193790D01*
X69649Y193623D01*
X68524Y192957D01*
X68899Y197290D01*
X72274D01*
G01X80399Y187290D02*
X81274Y187457D01*
X82274Y187957D01*
X82899Y188790D01*
X83149Y189957D01*
X82899Y191123D01*
X82149Y192123D01*
X81024Y192623D01*
X79774D01*
X79024Y192957D01*
X78399Y193790D01*
X78149Y194957D01*
X78524Y196123D01*
X79399Y196957D01*
X80399Y197290D01*
X81399Y196957D01*
X82274Y196123D01*
X82649Y194957D01*
X82399Y193790D01*
X81774Y192957D01*
X81024Y192623D01*
X79774D01*
X78649Y192123D01*
X77899Y191123D01*
X77649Y189957D01*
X77899Y188790D01*
X78524Y187957D01*
X79524Y187457D01*
X80399Y187290D01*
G01X88274Y188456D02*
X89149Y187623D01*
X90149Y187290D01*
X91149Y187623D01*
X92024Y188623D01*
X92649Y190123D01*
X92899Y191623D01*
Y193457D01*
X92649Y194957D01*
X92024Y196290D01*
X91274Y196957D01*
X90399Y197290D01*
X89399Y196957D01*
X88649Y196290D01*
X88149Y195290D01*
X87899Y193956D01*
X88149Y192790D01*
X88774Y191623D01*
X89524Y190956D01*
X90399Y190790D01*
X91399Y191123D01*
X92149Y191957D01*
X92899Y193457D01*
G01X98024Y195623D02*
X98774Y196623D01*
X99649Y197123D01*
X100649Y197290D01*
X101899Y196957D01*
X102774Y196123D01*
X103024Y195123D01*
X102899Y194123D01*
X102399Y193290D01*
X99899Y191623D01*
X98774Y190457D01*
X98024Y188790D01*
X97774Y187290D01*
X103024D01*
G01X111899D02*
Y197290D01*
X107274Y190123D01*
X113524D01*
G01X78899Y-8210D02*
Y-8710D01*
X77899D01*
Y-3710D01*
X78899D01*
Y-8710D01*
G01X86799Y99190D02*
Y98190D01*
X92799D01*
Y99190D01*
X86799D01*
G01X86736Y117041D02*
Y109283D01*
X90440D01*
Y106780D01*
X97040D01*
Y107617D01*
X107960D01*
Y106780D01*
X114560D01*
Y109283D01*
X118264D01*
Y117041D01*
G01X99249Y51090D02*
Y35490D01*
X108549D01*
Y51090D01*
X99249D01*
G01X99640Y57947D02*
Y56418D01*
X105440D01*
Y57947D01*
X115358D01*
Y56418D01*
X121158D01*
Y57947D01*
X121242D01*
Y79633D01*
X121158D01*
Y81162D01*
X115358D01*
Y79633D01*
X105440D01*
Y81162D01*
X99640D01*
Y79633D01*
G01D02*
Y57947D01*
G01X117954Y83090D02*
Y81042D01*
X99844D01*
Y83090D01*
G01Y93490D02*
Y95538D01*
X117954D01*
Y93490D01*
G01X109249Y51090D02*
Y35490D01*
X118549D01*
Y51090D01*
X109249D01*
G01X109199Y88290D02*
G03I-300J0D01*
G01X107799Y100790D02*
G03I-1400J0D01*
G01X69272Y89788D02*
G02Y92788I2000J1500D01*
G01X71772Y87788D02*
X60772D01*
G01X66272Y92788D02*
G03Y95788I-2000J1500D01*
G01X69272Y92788D02*
G03Y95788I-2000J1500D01*
G01X63272Y89788D02*
G02Y92788I2000J1500D01*
G01X66272Y89788D02*
G02Y92788I2000J1500D01*
G01X63272D02*
G03Y95788I-2000J1500D01*
G54D14*
G01X31799Y27190D02*
X32106Y27087D01*
X32336Y26828D01*
X32489Y26518D01*
X32604Y26105D01*
X32642Y25640D01*
X32604Y25175D01*
X32489Y24762D01*
X32336Y24452D01*
X32106Y24193D01*
X31799Y24090D01*
X31492Y24193D01*
X31262Y24452D01*
X31109Y24762D01*
X30994Y25175D01*
X30956Y25640D01*
X30994Y26105D01*
X31109Y26518D01*
X31262Y26828D01*
X31492Y27087D01*
X31799Y27190D01*
G01X38599Y23990D02*
Y27090D01*
X39059Y26470D01*
G01Y23990D02*
X38139D01*
G01X34756Y43932D02*
X34986Y44087D01*
X35254Y44190D01*
X35561D01*
X35906Y44035D01*
X36174Y43777D01*
X36366Y43467D01*
X36519Y42950D01*
X36557Y42485D01*
X36481Y42020D01*
X36366Y41710D01*
X36136Y41400D01*
X35867Y41193D01*
X35599Y41090D01*
X35331D01*
X35062Y41193D01*
X34832Y41348D01*
X34641Y41555D01*
G01X32499Y41090D02*
Y44190D01*
X32959Y43570D01*
G01Y41090D02*
X32039D01*
G01X28939D02*
Y44190D01*
X30357Y41968D01*
X28441D01*
G01X38499Y36090D02*
Y39190D01*
X38959Y38570D01*
G01Y36090D02*
X38039D01*
G01X31599Y39390D02*
X31906Y39287D01*
X32136Y39028D01*
X32289Y38718D01*
X32404Y38305D01*
X32442Y37840D01*
X32404Y37375D01*
X32289Y36962D01*
X32136Y36652D01*
X31906Y36393D01*
X31599Y36290D01*
X31292Y36393D01*
X31062Y36652D01*
X30909Y36962D01*
X30794Y37375D01*
X30756Y37840D01*
X30794Y38305D01*
X30909Y38718D01*
X31062Y39028D01*
X31292Y39287D01*
X31599Y39390D01*
G01X94649Y82087D02*
X94112Y78987D01*
X93499Y82087D01*
X92886Y78987D01*
X92349Y82087D01*
G01X91357Y78987D02*
X90399Y82087D01*
X89441Y78987D01*
G01X89786Y80072D02*
X91012D01*
G01X88066Y78987D02*
Y82087D01*
X87107D01*
X86801Y81932D01*
X86609Y81725D01*
X86532Y81312D01*
X86609Y80899D01*
X86839Y80640D01*
X87107Y80485D01*
X88066D01*
G01X87107D02*
X86532Y78987D01*
G01X85081D02*
Y82087D01*
X83317Y78987D01*
Y82087D01*
G01X81559D02*
X80639D01*
G01X81099D02*
Y78987D01*
G01X81559D02*
X80639D01*
G01X78881D02*
Y82087D01*
X77117Y78987D01*
Y82087D01*
G01X74669Y80537D02*
X73902D01*
Y79607D01*
X74132Y79297D01*
X74401Y79090D01*
X74784Y78987D01*
X75167Y79090D01*
X75436Y79297D01*
X75666Y79607D01*
X75819Y79969D01*
X75896Y80382D01*
Y80744D01*
X75819Y81054D01*
X75666Y81415D01*
X75436Y81725D01*
X75206Y81932D01*
X74899Y82087D01*
X74631D01*
X74324Y81984D01*
X74094Y81777D01*
G01X71799Y78884D02*
X71876Y78935D01*
Y79039D01*
X71799Y79090D01*
X71722Y79039D01*
Y78935D01*
X71799Y78884D01*
G01Y80279D02*
X71876Y80330D01*
Y80434D01*
X71799Y80485D01*
X71722Y80434D01*
Y80330D01*
X71799Y80279D01*
G01X66404Y78987D02*
Y82087D01*
G01X64794D02*
Y78987D01*
G01Y80537D02*
X66404D01*
G01X62499Y78987D02*
X62806Y79039D01*
X63074Y79245D01*
X63304Y79555D01*
X63457Y79917D01*
X63534Y80330D01*
Y80744D01*
X63457Y81157D01*
X63304Y81519D01*
X63074Y81829D01*
X62806Y82035D01*
X62499Y82087D01*
X62192Y82035D01*
X61924Y81829D01*
X61694Y81519D01*
X61541Y81157D01*
X61464Y80744D01*
Y80330D01*
X61541Y79917D01*
X61694Y79555D01*
X61924Y79245D01*
X62192Y79039D01*
X62499Y78987D01*
G01X59399Y82087D02*
Y78987D01*
G01X60281Y82087D02*
X58517D01*
G01X54004Y79400D02*
X53697Y79142D01*
X53352Y78987D01*
X53046D01*
X52739Y79142D01*
X52509Y79400D01*
X52394Y79762D01*
X52471Y80124D01*
X52662Y80434D01*
X53007Y80640D01*
X53467Y80744D01*
X53736Y80950D01*
X53851Y81312D01*
X53774Y81674D01*
X53582Y81932D01*
X53314Y82087D01*
X53046D01*
X52777Y81984D01*
X52547Y81725D01*
G01X50942Y82087D02*
Y79865D01*
X50789Y79400D01*
X50482Y79090D01*
X50099Y78987D01*
X49716Y79090D01*
X49409Y79400D01*
X49256Y79865D01*
Y82087D01*
G01X47766Y78987D02*
Y82087D01*
X46807D01*
X46501Y81932D01*
X46309Y81725D01*
X46232Y81312D01*
X46309Y80899D01*
X46539Y80640D01*
X46807Y80485D01*
X47766D01*
G01X46807D02*
X46232Y78987D01*
G01X44627D02*
Y82087D01*
X43171D01*
G01X43707Y80589D02*
X44627D01*
G01X41757Y78987D02*
X40799Y82087D01*
X39841Y78987D01*
G01X40186Y80072D02*
X41412D01*
G01X36856Y81829D02*
X37086Y81984D01*
X37354Y82087D01*
X37661D01*
X38006Y81932D01*
X38274Y81674D01*
X38466Y81364D01*
X38619Y80847D01*
X38657Y80382D01*
X38581Y79917D01*
X38466Y79607D01*
X38236Y79297D01*
X37967Y79090D01*
X37699Y78987D01*
X37431D01*
X37162Y79090D01*
X36932Y79245D01*
X36741Y79452D01*
G01X33832Y78987D02*
X35366D01*
Y82087D01*
X33832D01*
G01X34446Y80589D02*
X35366D01*
G01X37192Y67590D02*
Y65368D01*
X37039Y64903D01*
X36732Y64593D01*
X36349Y64490D01*
X35966Y64593D01*
X35659Y64903D01*
X35506Y65368D01*
Y67590D01*
G01X33977Y67073D02*
X33747Y67383D01*
X33479Y67538D01*
X33172Y67590D01*
X32789Y67487D01*
X32521Y67228D01*
X32444Y66918D01*
X32482Y66608D01*
X32636Y66350D01*
X33402Y65833D01*
X33747Y65472D01*
X33977Y64955D01*
X34054Y64490D01*
X32444D01*
G01X33586Y118690D02*
X33394Y118380D01*
X33164Y118173D01*
X32896Y118070D01*
X32589Y118173D01*
X32359Y118380D01*
X32129Y118690D01*
X32052Y119103D01*
Y121170D01*
G01X30447Y120653D02*
X30217Y120963D01*
X29949Y121118D01*
X29642Y121170D01*
X29259Y121067D01*
X28991Y120808D01*
X28914Y120498D01*
X28952Y120188D01*
X29106Y119930D01*
X29872Y119413D01*
X30217Y119052D01*
X30447Y118535D01*
X30524Y118070D01*
X28914D01*
G01X47156Y15132D02*
X47386Y15287D01*
X47654Y15390D01*
X47961D01*
X48306Y15235D01*
X48574Y14977D01*
X48766Y14667D01*
X48919Y14150D01*
X48957Y13685D01*
X48881Y13220D01*
X48766Y12910D01*
X48536Y12600D01*
X48267Y12393D01*
X47999Y12290D01*
X47731D01*
X47462Y12393D01*
X47232Y12548D01*
X47041Y12755D01*
G01X45627Y14873D02*
X45397Y15183D01*
X45129Y15338D01*
X44822Y15390D01*
X44439Y15287D01*
X44171Y15028D01*
X44094Y14718D01*
X44132Y14408D01*
X44286Y14150D01*
X45052Y13633D01*
X45397Y13272D01*
X45627Y12755D01*
X45704Y12290D01*
X44094D01*
G01X42527Y14873D02*
X42297Y15183D01*
X42029Y15338D01*
X41722Y15390D01*
X41339Y15287D01*
X41071Y15028D01*
X40994Y14718D01*
X41032Y14408D01*
X41186Y14150D01*
X41952Y13633D01*
X42297Y13272D01*
X42527Y12755D01*
X42604Y12290D01*
X40994D01*
G01X45732Y7910D02*
X45540Y7600D01*
X45310Y7393D01*
X45042Y7290D01*
X44735Y7393D01*
X44505Y7600D01*
X44275Y7910D01*
X44198Y8323D01*
Y10390D01*
G01X41865Y7290D02*
Y10390D01*
X42325Y9770D01*
G01Y7290D02*
X41405D01*
G01X54241Y22533D02*
X54396Y22303D01*
X54499Y22035D01*
Y21728D01*
X54344Y21383D01*
X54086Y21115D01*
X53776Y20923D01*
X53259Y20770D01*
X52794Y20732D01*
X52329Y20808D01*
X52019Y20923D01*
X51709Y21153D01*
X51502Y21422D01*
X51399Y21690D01*
Y21958D01*
X51502Y22227D01*
X51657Y22457D01*
X51864Y22648D01*
G01X53982Y24062D02*
X54292Y24292D01*
X54447Y24560D01*
X54499Y24867D01*
X54396Y25250D01*
X54137Y25518D01*
X53827Y25595D01*
X53517Y25557D01*
X53259Y25403D01*
X52742Y24637D01*
X52381Y24292D01*
X51864Y24062D01*
X51399Y23985D01*
Y25595D01*
G01X54499Y27890D02*
X54396Y27583D01*
X54137Y27353D01*
X53827Y27200D01*
X53414Y27085D01*
X52949Y27047D01*
X52484Y27085D01*
X52071Y27200D01*
X51761Y27353D01*
X51502Y27583D01*
X51399Y27890D01*
X51502Y28197D01*
X51761Y28427D01*
X52071Y28580D01*
X52484Y28695D01*
X52949Y28733D01*
X53414Y28695D01*
X53827Y28580D01*
X54137Y28427D01*
X54396Y28197D01*
X54499Y27890D01*
G01X49741Y22533D02*
X49896Y22303D01*
X49999Y22035D01*
Y21728D01*
X49844Y21383D01*
X49586Y21115D01*
X49276Y20923D01*
X48759Y20770D01*
X48294Y20732D01*
X47829Y20808D01*
X47519Y20923D01*
X47209Y21153D01*
X47002Y21422D01*
X46899Y21690D01*
Y21958D01*
X47002Y22227D01*
X47157Y22457D01*
X47364Y22648D01*
G01X49482Y24062D02*
X49792Y24292D01*
X49947Y24560D01*
X49999Y24867D01*
X49896Y25250D01*
X49637Y25518D01*
X49327Y25595D01*
X49017Y25557D01*
X48759Y25403D01*
X48242Y24637D01*
X47881Y24292D01*
X47364Y24062D01*
X46899Y23985D01*
Y25595D01*
G01Y27890D02*
X49999D01*
X49379Y27430D01*
G01X46899D02*
Y28350D01*
G01X41619Y17573D02*
X41309Y17765D01*
X41102Y17995D01*
X40999Y18263D01*
X41102Y18570D01*
X41309Y18800D01*
X41619Y19030D01*
X42032Y19107D01*
X44099D01*
G01X40999Y20673D02*
X44099D01*
Y21593D01*
X43944Y21900D01*
X43582Y22130D01*
X43169Y22207D01*
X42756Y22130D01*
X42446Y21938D01*
X42291Y21593D01*
Y20673D01*
G01X40999Y24540D02*
X44099D01*
X43479Y24080D01*
G01X40999D02*
Y25000D01*
G01X42019Y28773D02*
X41709Y28965D01*
X41502Y29195D01*
X41399Y29463D01*
X41502Y29770D01*
X41709Y30000D01*
X42019Y30230D01*
X42432Y30307D01*
X44499D01*
G01X41399Y31873D02*
X44499D01*
Y32793D01*
X44344Y33100D01*
X43982Y33330D01*
X43569Y33407D01*
X43156Y33330D01*
X42846Y33138D01*
X42691Y32793D01*
Y31873D01*
G01X43982Y35012D02*
X44292Y35242D01*
X44447Y35510D01*
X44499Y35817D01*
X44396Y36200D01*
X44137Y36468D01*
X43827Y36545D01*
X43517Y36507D01*
X43259Y36353D01*
X42742Y35587D01*
X42381Y35242D01*
X41864Y35012D01*
X41399Y34935D01*
Y36545D01*
G01X56216Y32290D02*
Y35390D01*
X55257D01*
X54951Y35235D01*
X54759Y35028D01*
X54682Y34615D01*
X54759Y34202D01*
X54989Y33943D01*
X55257Y33788D01*
X56216D01*
G01X55257D02*
X54682Y32290D01*
G01X53192Y32755D02*
X52962Y32497D01*
X52694Y32342D01*
X52349Y32290D01*
X52004Y32393D01*
X51736Y32600D01*
X51544Y32962D01*
X51506Y33375D01*
X51582Y33788D01*
X51774Y34047D01*
X52042Y34253D01*
X52311Y34305D01*
X52579Y34253D01*
X52924Y34047D01*
X52809Y35390D01*
X51774D01*
G01X55292Y47890D02*
Y45668D01*
X55139Y45203D01*
X54832Y44893D01*
X54449Y44790D01*
X54066Y44893D01*
X53759Y45203D01*
X53606Y45668D01*
Y47890D01*
G01X52192Y45410D02*
X51962Y45048D01*
X51656Y44842D01*
X51311Y44790D01*
X51004Y44842D01*
X50697Y45100D01*
X50506Y45410D01*
X50467Y45720D01*
X50544Y46082D01*
X50812Y46340D01*
X51081Y46443D01*
X51426D01*
G01X51081D02*
X50851Y46598D01*
X50659Y46857D01*
X50582Y47167D01*
X50659Y47477D01*
X50851Y47735D01*
X51196Y47890D01*
X51541Y47838D01*
X51886Y47632D01*
G01X53716Y37790D02*
Y40890D01*
X52757D01*
X52451Y40735D01*
X52259Y40528D01*
X52182Y40115D01*
X52259Y39702D01*
X52489Y39443D01*
X52757Y39288D01*
X53716D01*
G01X52757D02*
X52182Y37790D01*
G01X50577Y40373D02*
X50347Y40683D01*
X50079Y40838D01*
X49772Y40890D01*
X49389Y40787D01*
X49121Y40528D01*
X49044Y40218D01*
X49082Y39908D01*
X49236Y39650D01*
X50002Y39133D01*
X50347Y38772D01*
X50577Y38255D01*
X50654Y37790D01*
X49044D01*
G01X54241Y53683D02*
X54396Y53453D01*
X54499Y53185D01*
Y52878D01*
X54344Y52533D01*
X54086Y52265D01*
X53776Y52073D01*
X53259Y51920D01*
X52794Y51882D01*
X52329Y51958D01*
X52019Y52073D01*
X51709Y52303D01*
X51502Y52572D01*
X51399Y52840D01*
Y53108D01*
X51502Y53377D01*
X51657Y53607D01*
X51864Y53798D01*
G01Y55097D02*
X51606Y55327D01*
X51451Y55595D01*
X51399Y55940D01*
X51502Y56285D01*
X51709Y56553D01*
X52071Y56745D01*
X52484Y56783D01*
X52897Y56707D01*
X53156Y56515D01*
X53362Y56247D01*
X53414Y55978D01*
X53362Y55710D01*
X53156Y55365D01*
X54499Y55480D01*
Y56515D01*
G01X45999Y62273D02*
X49099D01*
Y63232D01*
X48944Y63538D01*
X48737Y63730D01*
X48324Y63807D01*
X47911Y63730D01*
X47652Y63500D01*
X47497Y63232D01*
Y62273D01*
G01Y63232D02*
X45999Y63807D01*
G01Y66140D02*
X49099D01*
X48479Y65680D01*
G01X45999D02*
Y66600D01*
G01X73907Y8290D02*
X72949Y11390D01*
X71991Y8290D01*
G01X72336Y9375D02*
X73562D01*
G01X69849Y8290D02*
Y11390D01*
X70309Y10770D01*
G01Y8290D02*
X69389D01*
G01X65599Y56985D02*
X68699D01*
G01Y58595D02*
X65599D01*
G01X67149D02*
Y56985D01*
G01X79182Y-13260D02*
X80716D01*
Y-10160D01*
X79182D01*
G01X79796Y-11658D02*
X80716D01*
G01X76849Y-13260D02*
Y-10160D01*
X77309Y-10780D01*
G01Y-13260D02*
X76389D01*
G01X91241Y-6967D02*
X91396Y-7197D01*
X91499Y-7465D01*
Y-7772D01*
X91344Y-8117D01*
X91086Y-8385D01*
X90776Y-8577D01*
X90259Y-8730D01*
X89794Y-8768D01*
X89329Y-8692D01*
X89019Y-8577D01*
X88709Y-8347D01*
X88502Y-8078D01*
X88399Y-7810D01*
Y-7542D01*
X88502Y-7273D01*
X88657Y-7043D01*
X88864Y-6852D01*
G01X90982Y-5438D02*
X91292Y-5208D01*
X91447Y-4940D01*
X91499Y-4633D01*
X91396Y-4250D01*
X91137Y-3982D01*
X90827Y-3905D01*
X90517Y-3943D01*
X90259Y-4097D01*
X89742Y-4863D01*
X89381Y-5208D01*
X88864Y-5438D01*
X88399Y-5515D01*
Y-3905D01*
G01X89019Y-2453D02*
X88657Y-2223D01*
X88451Y-1917D01*
X88399Y-1572D01*
X88451Y-1265D01*
X88709Y-958D01*
X89019Y-767D01*
X89329Y-728D01*
X89691Y-805D01*
X89949Y-1073D01*
X90052Y-1342D01*
Y-1687D01*
G01Y-1342D02*
X90207Y-1112D01*
X90466Y-920D01*
X90776Y-843D01*
X91086Y-920D01*
X91344Y-1112D01*
X91499Y-1457D01*
X91447Y-1802D01*
X91241Y-2147D01*
G01X77999Y1473D02*
X74899D01*
Y3007D01*
G01Y5800D02*
X77999D01*
X75777Y4382D01*
Y6298D01*
G01X85292Y62890D02*
Y60668D01*
X85139Y60203D01*
X84832Y59893D01*
X84449Y59790D01*
X84066Y59893D01*
X83759Y60203D01*
X83606Y60668D01*
Y62890D01*
G01X80889Y59790D02*
Y62890D01*
X82307Y60668D01*
X80391D01*
G01X81899Y96473D02*
X84999D01*
Y97432D01*
X84844Y97738D01*
X84637Y97930D01*
X84224Y98007D01*
X83811Y97930D01*
X83552Y97700D01*
X83397Y97432D01*
Y96473D01*
G01Y97432D02*
X81899Y98007D01*
G01Y100800D02*
X84999D01*
X82777Y99382D01*
Y101298D01*
G01X81195Y120388D02*
Y123488D01*
X80275D01*
X79968Y123333D01*
X79738Y122971D01*
X79661Y122558D01*
X79738Y122145D01*
X79930Y121835D01*
X80275Y121680D01*
X81195D01*
G01X77328Y120388D02*
Y123488D01*
X77788Y122868D01*
G01Y120388D02*
X76868D01*
G01X104262Y-14665D02*
X104004Y-14358D01*
X103849Y-14013D01*
Y-13707D01*
X104004Y-13400D01*
X104262Y-13170D01*
X104624Y-13055D01*
X104986Y-13132D01*
X105296Y-13323D01*
X105502Y-13668D01*
X105606Y-14128D01*
X105812Y-14397D01*
X106174Y-14512D01*
X106536Y-14435D01*
X106794Y-14243D01*
X106949Y-13975D01*
Y-13707D01*
X106846Y-13438D01*
X106587Y-13208D01*
G01X103849Y-9993D02*
Y-11527D01*
X106949D01*
Y-9993D01*
G01X105451Y-10607D02*
Y-11527D01*
G01X106691Y-6817D02*
X106846Y-7047D01*
X106949Y-7315D01*
Y-7622D01*
X106794Y-7967D01*
X106536Y-8235D01*
X106226Y-8427D01*
X105709Y-8580D01*
X105244Y-8618D01*
X104779Y-8542D01*
X104469Y-8427D01*
X104159Y-8197D01*
X103952Y-7928D01*
X103849Y-7660D01*
Y-7392D01*
X103952Y-7123D01*
X104107Y-6893D01*
X104314Y-6702D01*
G01X103849Y-4560D02*
X103901Y-4867D01*
X104107Y-5135D01*
X104417Y-5365D01*
X104779Y-5518D01*
X105192Y-5595D01*
X105606D01*
X106019Y-5518D01*
X106381Y-5365D01*
X106691Y-5135D01*
X106897Y-4867D01*
X106949Y-4560D01*
X106897Y-4253D01*
X106691Y-3985D01*
X106381Y-3755D01*
X106019Y-3602D01*
X105606Y-3525D01*
X105192D01*
X104779Y-3602D01*
X104417Y-3755D01*
X104107Y-3985D01*
X103901Y-4253D01*
X103849Y-4560D01*
G01Y-2342D02*
X106949D01*
X103849Y-578D01*
X106949D01*
G01X103849Y797D02*
X106949D01*
Y1563D01*
X106794Y1870D01*
X106587Y2100D01*
X106277Y2292D01*
X105916Y2445D01*
X105399Y2483D01*
X104882Y2445D01*
X104521Y2292D01*
X104211Y2100D01*
X104004Y1870D01*
X103849Y1563D01*
Y797D01*
G01Y3782D02*
X106949Y4740D01*
X103849Y5698D01*
G01X104934Y5353D02*
Y4127D01*
G01X103849Y7073D02*
X106949D01*
Y8032D01*
X106794Y8338D01*
X106587Y8530D01*
X106174Y8607D01*
X105761Y8530D01*
X105502Y8300D01*
X105347Y8032D01*
Y7073D01*
G01Y8032D02*
X103849Y8607D01*
G01Y10940D02*
X105244D01*
X106949Y10173D01*
G01Y11707D02*
X105244Y10940D01*
G01X104262Y16335D02*
X104004Y16642D01*
X103849Y16987D01*
Y17293D01*
X104004Y17600D01*
X104262Y17830D01*
X104624Y17945D01*
X104986Y17868D01*
X105296Y17677D01*
X105502Y17332D01*
X105606Y16872D01*
X105812Y16603D01*
X106174Y16488D01*
X106536Y16565D01*
X106794Y16757D01*
X106949Y17025D01*
Y17293D01*
X106846Y17562D01*
X106587Y17792D01*
G01X106949Y19780D02*
Y20700D01*
G01Y20240D02*
X103849D01*
G01Y19780D02*
Y20700D01*
G01Y22497D02*
X106949D01*
Y23263D01*
X106794Y23570D01*
X106587Y23800D01*
X106277Y23992D01*
X105916Y24145D01*
X105399Y24183D01*
X104882Y24145D01*
X104521Y23992D01*
X104211Y23800D01*
X104004Y23570D01*
X103849Y23263D01*
Y22497D01*
G01Y27207D02*
Y25673D01*
X106949D01*
Y27207D01*
G01X105451Y26593D02*
Y25673D01*
G01X93602Y5021D02*
X93344Y5251D01*
X93189Y5519D01*
X93137Y5864D01*
X93240Y6209D01*
X93447Y6477D01*
X93809Y6669D01*
X94222Y6707D01*
X94635Y6631D01*
X94894Y6439D01*
X95100Y6171D01*
X95152Y5902D01*
X95100Y5634D01*
X94894Y5289D01*
X96237Y5404D01*
Y6439D01*
G01X105656Y54632D02*
X105886Y54787D01*
X106154Y54890D01*
X106461D01*
X106806Y54735D01*
X107074Y54477D01*
X107266Y54167D01*
X107419Y53650D01*
X107457Y53185D01*
X107381Y52720D01*
X107266Y52410D01*
X107036Y52100D01*
X106767Y51893D01*
X106499Y51790D01*
X106231D01*
X105962Y51893D01*
X105732Y52048D01*
X105541Y52255D01*
G01X103399Y51790D02*
Y54890D01*
X103859Y54270D01*
G01Y51790D02*
X102939D01*
G01X100951Y52152D02*
X100682Y51893D01*
X100376Y51790D01*
X100069Y51893D01*
X99801Y52203D01*
X99609Y52668D01*
X99532Y53133D01*
Y53702D01*
X99609Y54167D01*
X99801Y54580D01*
X100031Y54787D01*
X100299Y54890D01*
X100606Y54787D01*
X100836Y54580D01*
X100989Y54270D01*
X101066Y53857D01*
X100989Y53495D01*
X100797Y53133D01*
X100567Y52927D01*
X100299Y52875D01*
X99992Y52978D01*
X99762Y53237D01*
X99532Y53702D01*
G01X98499Y67973D02*
X95399D01*
Y69507D01*
G01X96019Y70997D02*
X95657Y71227D01*
X95451Y71533D01*
X95399Y71878D01*
X95451Y72185D01*
X95709Y72492D01*
X96019Y72683D01*
X96329Y72722D01*
X96691Y72645D01*
X96949Y72377D01*
X97052Y72108D01*
Y71763D01*
G01Y72108D02*
X97207Y72338D01*
X97466Y72530D01*
X97776Y72607D01*
X98086Y72530D01*
X98344Y72338D01*
X98499Y71993D01*
X98447Y71648D01*
X98241Y71303D01*
G01X97607Y92600D02*
X96649Y95700D01*
X95691Y92600D01*
G01X96036Y93685D02*
X97262D01*
G01X94792Y86740D02*
Y89840D01*
X94026D01*
X93719Y89685D01*
X93489Y89478D01*
X93297Y89168D01*
X93144Y88807D01*
X93106Y88290D01*
X93144Y87773D01*
X93297Y87412D01*
X93489Y87102D01*
X93719Y86895D01*
X94026Y86740D01*
X94792D01*
G01X90849D02*
Y89840D01*
X91309Y89220D01*
G01Y86740D02*
X90389D01*
G01X96741Y99033D02*
X96896Y98803D01*
X96999Y98535D01*
Y98228D01*
X96844Y97883D01*
X96586Y97615D01*
X96276Y97423D01*
X95759Y97270D01*
X95294Y97232D01*
X94829Y97308D01*
X94519Y97423D01*
X94209Y97653D01*
X94002Y97922D01*
X93899Y98190D01*
Y98458D01*
X94002Y98727D01*
X94157Y98957D01*
X94364Y99148D01*
G01X93899Y101290D02*
X96999D01*
X96379Y100830D01*
G01X93899D02*
Y101750D01*
G01X94364Y103547D02*
X94106Y103777D01*
X93951Y104045D01*
X93899Y104390D01*
X94002Y104735D01*
X94209Y105003D01*
X94571Y105195D01*
X94984Y105233D01*
X95397Y105157D01*
X95656Y104965D01*
X95862Y104697D01*
X95914Y104428D01*
X95862Y104160D01*
X95656Y103815D01*
X96999Y103930D01*
Y104965D01*
G01X112449Y-15510D02*
X112346Y-15817D01*
X112087Y-16047D01*
X111777Y-16200D01*
X111364Y-16315D01*
X110899Y-16353D01*
X110434Y-16315D01*
X110021Y-16200D01*
X109711Y-16047D01*
X109452Y-15817D01*
X109349Y-15510D01*
X109452Y-15203D01*
X109711Y-14973D01*
X110021Y-14820D01*
X110434Y-14705D01*
X110899Y-14667D01*
X111364Y-14705D01*
X111777Y-14820D01*
X112087Y-14973D01*
X112346Y-15203D01*
X112449Y-15510D01*
G01X109349Y-12410D02*
X109401Y-12142D01*
X109556Y-11835D01*
X109814Y-11643D01*
X110176Y-11567D01*
X110537Y-11643D01*
X110847Y-11873D01*
X111002Y-12218D01*
Y-12602D01*
X111106Y-12832D01*
X111364Y-13023D01*
X111726Y-13100D01*
X112087Y-12985D01*
X112346Y-12717D01*
X112449Y-12410D01*
X112346Y-12103D01*
X112087Y-11835D01*
X111726Y-11720D01*
X111364Y-11797D01*
X111106Y-11988D01*
X111002Y-12218D01*
Y-12602D01*
X110847Y-12947D01*
X110537Y-13177D01*
X110176Y-13253D01*
X109814Y-13177D01*
X109556Y-12985D01*
X109401Y-12678D01*
X109349Y-12410D01*
G01X110382Y-9808D02*
Y-8812D01*
G01X112449Y-6210D02*
X112346Y-6517D01*
X112087Y-6747D01*
X111777Y-6900D01*
X111364Y-7015D01*
X110899Y-7053D01*
X110434Y-7015D01*
X110021Y-6900D01*
X109711Y-6747D01*
X109452Y-6517D01*
X109349Y-6210D01*
X109452Y-5903D01*
X109711Y-5673D01*
X110021Y-5520D01*
X110434Y-5405D01*
X110899Y-5367D01*
X111364Y-5405D01*
X111777Y-5520D01*
X112087Y-5673D01*
X112346Y-5903D01*
X112449Y-6210D01*
G01X109814Y-3953D02*
X109556Y-3723D01*
X109401Y-3455D01*
X109349Y-3110D01*
X109452Y-2765D01*
X109659Y-2497D01*
X110021Y-2305D01*
X110434Y-2267D01*
X110847Y-2343D01*
X111106Y-2535D01*
X111312Y-2803D01*
X111364Y-3072D01*
X111312Y-3340D01*
X111106Y-3685D01*
X112449Y-3570D01*
Y-2535D01*
G01X109349Y-10D02*
X109401Y258D01*
X109556Y565D01*
X109814Y757D01*
X110176Y833D01*
X110537Y757D01*
X110847Y527D01*
X111002Y182D01*
Y-202D01*
X111106Y-432D01*
X111364Y-623D01*
X111726Y-700D01*
X112087Y-585D01*
X112346Y-317D01*
X112449Y-10D01*
X112346Y297D01*
X112087Y565D01*
X111726Y680D01*
X111364Y603D01*
X111106Y412D01*
X111002Y182D01*
Y-202D01*
X110847Y-547D01*
X110537Y-777D01*
X110176Y-853D01*
X109814Y-777D01*
X109556Y-585D01*
X109401Y-278D01*
X109349Y-10D01*
G01X109711Y2438D02*
X109452Y2707D01*
X109349Y3013D01*
X109452Y3320D01*
X109762Y3588D01*
X110227Y3780D01*
X110692Y3857D01*
X111261D01*
X111726Y3780D01*
X112139Y3588D01*
X112346Y3358D01*
X112449Y3090D01*
X112346Y2783D01*
X112139Y2553D01*
X111829Y2400D01*
X111416Y2323D01*
X111054Y2400D01*
X110692Y2592D01*
X110486Y2822D01*
X110434Y3090D01*
X110537Y3397D01*
X110796Y3627D01*
X111261Y3857D01*
G01X111932Y5462D02*
X112242Y5692D01*
X112397Y5960D01*
X112449Y6267D01*
X112346Y6650D01*
X112087Y6918D01*
X111777Y6995D01*
X111467Y6957D01*
X111209Y6803D01*
X110692Y6037D01*
X110331Y5692D01*
X109814Y5462D01*
X109349Y5385D01*
Y6995D01*
G01Y9750D02*
X112449D01*
X110227Y8332D01*
Y10248D01*
G01X109349Y14723D02*
X112449D01*
Y15682D01*
X112294Y15988D01*
X112087Y16180D01*
X111674Y16257D01*
X111261Y16180D01*
X111002Y15950D01*
X110847Y15682D01*
Y14723D01*
G01Y15682D02*
X109349Y16257D01*
G01Y19357D02*
Y17823D01*
X112449D01*
Y19357D01*
G01X110951Y18743D02*
Y17823D01*
G01X112449Y20732D02*
X109349Y21690D01*
X112449Y22648D01*
G01X111002Y28197D02*
X111157Y28350D01*
X111416Y28465D01*
X111777Y28542D01*
X112087Y28465D01*
X112294Y28312D01*
X112449Y28043D01*
Y27008D01*
X109349D01*
Y28273D01*
X109556Y28542D01*
X109866Y28695D01*
X110227Y28772D01*
X110589Y28695D01*
X110899Y28465D01*
X111002Y28197D01*
Y27008D01*
G01X112449Y33362D02*
Y34818D01*
X109349Y33362D01*
Y34818D01*
G01X115656Y55132D02*
X115886Y55287D01*
X116154Y55390D01*
X116461D01*
X116806Y55235D01*
X117074Y54977D01*
X117266Y54667D01*
X117419Y54150D01*
X117457Y53685D01*
X117381Y53220D01*
X117266Y52910D01*
X117036Y52600D01*
X116767Y52393D01*
X116499Y52290D01*
X116231D01*
X115962Y52393D01*
X115732Y52548D01*
X115541Y52755D01*
G01X113399Y52290D02*
Y55390D01*
X113859Y54770D01*
G01Y52290D02*
X112939D01*
G01X110299D02*
X110031Y52342D01*
X109724Y52497D01*
X109532Y52755D01*
X109456Y53117D01*
X109532Y53478D01*
X109762Y53788D01*
X110107Y53943D01*
X110491D01*
X110721Y54047D01*
X110912Y54305D01*
X110989Y54667D01*
X110874Y55028D01*
X110606Y55287D01*
X110299Y55390D01*
X109992Y55287D01*
X109724Y55028D01*
X109609Y54667D01*
X109686Y54305D01*
X109877Y54047D01*
X110107Y53943D01*
X110491D01*
X110836Y53788D01*
X111066Y53478D01*
X111142Y53117D01*
X111066Y52755D01*
X110874Y52497D01*
X110567Y52342D01*
X110299Y52290D01*
G01X121686Y95512D02*
X121916Y95667D01*
X122184Y95770D01*
X122491D01*
X122836Y95615D01*
X123104Y95357D01*
X123296Y95047D01*
X123449Y94530D01*
X123487Y94065D01*
X123411Y93600D01*
X123296Y93290D01*
X123066Y92980D01*
X122797Y92773D01*
X122529Y92670D01*
X122261D01*
X121992Y92773D01*
X121762Y92928D01*
X121571Y93135D01*
G54D15*
G01X49158Y95039D02*
G03I-10150J0D01*
G01X50908D02*
G03I-11900J0D01*
G01X39174Y86056D02*
X38933Y86165D01*
G01D02*
X38745Y86345D01*
G01D02*
X38611Y86562D01*
G01D02*
X38504Y86924D01*
G01D02*
X38477Y87250D01*
G01D02*
X38530Y87575D01*
G01D02*
X38611Y87792D01*
G01D02*
X38772Y88009D01*
G01D02*
X38960Y88154D01*
G01D02*
X39148Y88226D01*
G01X38261Y88262D02*
X37204Y88448D01*
G01D02*
X36827Y86312D01*
G01D02*
X37884Y86125D01*
G01X37643Y87232D02*
X37009Y87344D01*
G01X36628Y88606D02*
X34587Y87266D01*
G01X34639Y89512D02*
X34880Y89526D01*
G01D02*
X35090Y89470D01*
G01D02*
X35286Y89325D01*
G01D02*
X35406Y89103D01*
G01D02*
X35437Y88868D01*
G01D02*
X35352Y88595D01*
G01D02*
X35167Y88371D01*
G01D02*
X34925Y88204D01*
G01D02*
X34702Y88171D01*
G01D02*
X34467Y88202D01*
G01D02*
X34309Y88309D01*
G01D02*
X34201Y88467D01*
G01D02*
X34132Y88740D01*
G01D02*
X33525Y88018D01*
G01D02*
X34037Y87506D01*
G01X33582Y90516D02*
X33842Y90488D01*
G01D02*
X34035Y90370D01*
G01D02*
X34117Y90159D01*
G01D02*
X34072Y89876D01*
G01D02*
X33909Y89564D01*
G01D02*
X33694Y89313D01*
G01D02*
X33389Y89058D01*
G01D02*
X33105Y88890D01*
G01D02*
X32797Y88807D01*
G01D02*
X32583Y88837D01*
G01D02*
X32407Y88934D01*
G01D02*
X32324Y89145D01*
G01D02*
X32332Y89362D01*
G01D02*
X32429Y89584D01*
G01D02*
X32616Y89810D01*
G01D02*
X32845Y89932D01*
G01D02*
X33125Y89992D01*
G01D02*
X33339Y89962D01*
G01D02*
X33487Y89841D01*
G01D02*
X33570Y89630D01*
G01D02*
X33535Y89390D01*
G01D02*
X33389Y89058D01*
G01X33436Y91195D02*
X31020Y90842D01*
G01X30718Y92531D02*
X30569Y92306D01*
G01D02*
X30531Y92092D01*
G01D02*
X30571Y91878D01*
G01D02*
X30731Y91651D01*
G01D02*
X30965Y91536D01*
G01D02*
X31187Y91560D01*
G01D02*
X31382Y91659D01*
G01D02*
X31515Y91822D01*
G01D02*
X31672Y92450D01*
G01D02*
X31826Y92764D01*
G01D02*
X32111Y93039D01*
G01D02*
X32399Y93201D01*
G01D02*
X32785Y92141D01*
G01X30121Y93847D02*
X30136Y94073D01*
G01D02*
X30269Y94276D01*
G01D02*
X30450Y94435D01*
G01D02*
X30709Y94588D01*
G01X32092Y94598D02*
X32218Y94409D01*
G01D02*
X32203Y94183D01*
G01D02*
X32070Y93980D01*
G01D02*
X31889Y93821D01*
G01D02*
X31630Y93668D01*
G01D02*
X31322Y93558D01*
G01D02*
X31001Y93499D01*
G01D02*
X30701Y93502D01*
G01D02*
X30463Y93550D01*
G01D02*
X30246Y93658D01*
G01D02*
X30121Y93847D01*
G01X44468Y95039D02*
G03I-5460J0D01*
G01X30709Y94588D02*
X31016Y94699D01*
G01D02*
X31338Y94757D01*
G01D02*
X31638Y94754D01*
G01D02*
X31875Y94706D01*
G01D02*
X32092Y94598D01*
G01X30081Y96186D02*
X30189Y96385D01*
G01D02*
X30396Y96512D01*
G01D02*
X30628Y96580D01*
G01D02*
X30927Y96609D01*
G01D02*
X31252Y96579D01*
G01D02*
X31568Y96496D01*
G01D02*
X31839Y96367D01*
G01D02*
X32034Y96223D01*
G01D02*
X32184Y96033D01*
G01D02*
X32218Y95809D01*
G01D02*
X32109Y95610D01*
G01D02*
X31903Y95483D01*
G01D02*
X31671Y95415D01*
G01D02*
X31372Y95386D01*
G01D02*
X31047Y95416D01*
G01D02*
X30731Y95499D01*
G01D02*
X30460Y95629D01*
G01D02*
X30265Y95772D01*
G01D02*
X30115Y95962D01*
G01D02*
X30081Y96186D01*
G01X31042Y98376D02*
X30783Y98299D01*
G01D02*
X30617Y98160D01*
G01D02*
X30510Y97971D01*
G01D02*
X30486Y97694D01*
G01D02*
X30592Y97455D01*
G01D02*
X30777Y97331D01*
G01D02*
X30991Y97282D01*
G01D02*
X31197Y97321D01*
G01D02*
X31721Y97702D01*
G01D02*
X32041Y97842D01*
G01D02*
X32436Y97870D01*
G01D02*
X32760Y97809D01*
G01D02*
X32374Y96750D01*
G01X37004Y101787D02*
X36856Y101549D01*
G01D02*
X36660Y101372D01*
G01D02*
X36455Y101305D01*
G01D02*
X36218Y101342D01*
G01D02*
X36009Y101464D01*
G01D02*
X35854Y101680D01*
G01D02*
X35827Y101938D01*
G01D02*
X35888Y102186D01*
G01D02*
X36073Y102398D01*
G01D02*
X36357Y102566D01*
G01D02*
X36490Y102762D01*
G01D02*
X36489Y103027D01*
G01D02*
X36360Y103251D01*
G01D02*
X36176Y103382D01*
G01D02*
X35964Y103427D01*
G01D02*
X35786Y103369D01*
G01D02*
X35629Y103242D01*
G01D02*
X35531Y103021D01*
G01X38724Y101847D02*
X38385Y103990D01*
G01X37272Y103814D02*
X37611Y101671D01*
G01X37442Y102742D02*
X38555Y102919D01*
G01X44311Y88144D02*
X44274Y87953D01*
G01D02*
X44192Y87769D01*
G01D02*
X44040Y87617D01*
G01D02*
X43793Y87524D01*
G01D02*
X43532Y87519D01*
G01D02*
X43284Y87577D01*
G01D02*
X42952Y87757D01*
G01D02*
X42703Y87968D01*
G01D02*
X42510Y88236D01*
G01D02*
X42414Y88447D01*
G01D02*
X42375Y88714D01*
G01D02*
X42405Y88949D01*
G01D02*
X42487Y89133D01*
G01D02*
X42620Y89266D01*
G01D02*
X42804Y89348D01*
G01D02*
X42994Y89385D01*
G01D02*
X43192Y89377D01*
G01X41248Y87197D02*
X41302Y87232D01*
G01D02*
Y87305D01*
G01D02*
X41248Y87341D01*
G01D02*
X41194Y87305D01*
G01D02*
Y87232D01*
G01D02*
X41248Y87197D01*
G01X39738Y86237D02*
X39577Y86128D01*
G01D02*
X39389Y86056D01*
G01D02*
X39174D01*
G01X39148Y88226D02*
X39335D01*
G01D02*
X39524Y88154D01*
G01D02*
X39685Y88046D01*
G01D02*
X39818Y87901D01*
G01X44662Y91139D02*
X45973Y90528D01*
G01X45612Y90696D02*
X45810Y90692D01*
G01D02*
X45998Y90753D01*
G01D02*
X46143Y90893D01*
G01D02*
X46157Y91094D01*
G01D02*
X46082Y91276D01*
G01D02*
X45952Y91425D01*
G01D02*
X45002Y91868D01*
G01X45952Y91425D02*
X46150Y91422D01*
G01D02*
X46338Y91482D01*
G01D02*
X46483Y91622D01*
G01D02*
X46497Y91823D01*
G01D02*
X46423Y92006D01*
G01D02*
X46260Y92170D01*
G01D02*
X45342Y92599D01*
G01X43805Y90158D02*
X43742Y90005D01*
G01D02*
X43768Y89790D01*
G01D02*
X43914Y89557D01*
G01D02*
X44120Y89347D01*
G01D02*
X44388Y89225D01*
G01D02*
X44657Y89168D01*
G01D02*
X44867Y89217D01*
G01D02*
X44989Y89328D01*
G01D02*
X45052Y89481D01*
G01D02*
X45026Y89696D01*
G01D02*
X44880Y89929D01*
G01D02*
X44659Y90116D01*
G01D02*
X44406Y90261D01*
G01D02*
X44137Y90318D01*
G01D02*
X43927Y90269D01*
G01D02*
X43805Y90158D01*
G01X44918Y93578D02*
X47056Y93201D01*
G01X46735Y93258D02*
X46937Y93359D01*
G01D02*
X47067Y93472D01*
G01D02*
X47140Y93677D01*
G01D02*
X47137Y93868D01*
G01D02*
X46991Y94085D01*
G01D02*
X46756Y94208D01*
G01D02*
X46511Y94279D01*
G01D02*
X46257Y94296D01*
G01D02*
X45994Y94260D01*
G01D02*
X45824Y94127D01*
G01D02*
X45715Y93928D01*
G01D02*
X45718Y93737D01*
G01D02*
X45792Y93533D01*
G01D02*
X45916Y93402D01*
G01X42788Y100847D02*
X42842Y100882D01*
G01D02*
Y100955D01*
G01D02*
X42788Y100991D01*
G01D02*
X42734Y100955D01*
G01D02*
Y100882D01*
G01D02*
X42788Y100847D01*
G01X45210Y101545D02*
X43676Y100011D01*
G01X44965Y100768D02*
X44433Y101300D01*
G01X44839Y98505D02*
X46092Y99228D01*
G01X45779Y99048D02*
X45882Y99231D01*
G01D02*
X45926Y99442D01*
G01D02*
X45851Y99646D01*
G01D02*
X45726Y99791D01*
G01D02*
X45520Y99858D01*
G01D02*
X45260Y99802D01*
G01D02*
X44383Y99295D01*
G01X45303Y97648D02*
X46662Y98143D01*
G01X46424Y98056D02*
X46596Y98005D01*
G01D02*
X46720Y97879D01*
G01D02*
X46818Y97715D01*
G01D02*
X46814Y97513D01*
G01D02*
X46734Y97312D01*
G01D02*
X46566Y97137D01*
G01D02*
X46313Y96988D01*
G01D02*
X46022Y96939D01*
G01D02*
X45782Y96966D01*
G01D02*
X45590Y97068D01*
G01D02*
X45459Y97220D01*
G01D02*
X45428Y97408D01*
G01D02*
X45475Y97597D01*
G01D02*
X45574Y97747D01*
G01X39638Y101829D02*
X39803Y101836D01*
G01D02*
X39986Y101951D01*
G01D02*
X40136Y102182D01*
G01D02*
X40239Y102457D01*
G01D02*
X40237Y102751D01*
G01D02*
X40175Y103019D01*
G01D02*
X40042Y103190D01*
G01D02*
X39889Y103253D01*
G01D02*
X39724Y103246D01*
G01D02*
X39540Y103131D01*
G01D02*
X39391Y102900D01*
G01D02*
X39314Y102620D01*
G01D02*
X39290Y102331D01*
G01D02*
X39352Y102063D01*
G01D02*
X39486Y101892D01*
G01D02*
X39638Y101829D01*
G01X41612Y101295D02*
X42354Y103334D01*
G01D02*
X41724Y103564D01*
G01D02*
X41485Y103535D01*
G01D02*
X41309Y103446D01*
G01D02*
X41160Y103192D01*
G01D02*
X41112Y102902D01*
G01D02*
X41201Y102676D01*
G01D02*
X41341Y102511D01*
G01D02*
X41971Y102281D01*
G01X41341Y102511D02*
X40604Y101663D01*
G01X47141Y96237D02*
X45716Y95986D01*
G01X47711Y96338D02*
X47756Y96291D01*
G01D02*
X47827Y96304D01*
G01D02*
X47853Y96363D01*
G01D02*
X47808Y96409D01*
G01D02*
X47737Y96397D01*
G01D02*
X47711Y96338D01*
G01X45775Y95062D02*
X47945D01*
M02*
