%TF.GenerationSoftware,KiCad,Pcbnew,9.0.2+dfsg-1*%
%TF.CreationDate,2026-06-09T16:37:01-04:00*%
%TF.ProjectId,rx-pcb,72782d70-6362-42e6-9b69-6361645f7063,rev?*%
%TF.SameCoordinates,Original*%
%TF.FileFunction,Soldermask,Top*%
%TF.FilePolarity,Negative*%
%FSLAX46Y46*%
G04 Gerber Fmt 4.6, Leading zero omitted, Abs format (unit mm)*
G04 Created by KiCad (PCBNEW 9.0.2+dfsg-1) date 2026-06-09 16:37:01*
%MOMM*%
%LPD*%
G01*
G04 APERTURE LIST*
G04 Aperture macros list*
%AMRoundRect*
0 Rectangle with rounded corners*
0 $1 Rounding radius*
0 $2 $3 $4 $5 $6 $7 $8 $9 X,Y pos of 4 corners*
0 Add a 4 corners polygon primitive as box body*
4,1,4,$2,$3,$4,$5,$6,$7,$8,$9,$2,$3,0*
0 Add four circle primitives for the rounded corners*
1,1,$1+$1,$2,$3*
1,1,$1+$1,$4,$5*
1,1,$1+$1,$6,$7*
1,1,$1+$1,$8,$9*
0 Add four rect primitives between the rounded corners*
20,1,$1+$1,$2,$3,$4,$5,0*
20,1,$1+$1,$4,$5,$6,$7,0*
20,1,$1+$1,$6,$7,$8,$9,0*
20,1,$1+$1,$8,$9,$2,$3,0*%
G04 Aperture macros list end*
%ADD10R,1.700000X1.150000*%
%ADD11RoundRect,0.250000X0.450000X-0.350000X0.450000X0.350000X-0.450000X0.350000X-0.450000X-0.350000X0*%
%ADD12RoundRect,0.250000X0.350000X-0.275000X0.350000X0.275000X-0.350000X0.275000X-0.350000X-0.275000X0*%
%ADD13R,0.800000X0.280000*%
%ADD14R,0.280000X0.800000*%
%ADD15R,3.500000X3.500000*%
%ADD16C,0.204000*%
%ADD17R,1.700000X1.700000*%
%ADD18C,1.700000*%
%ADD19RoundRect,0.250000X0.275000X0.350000X-0.275000X0.350000X-0.275000X-0.350000X0.275000X-0.350000X0*%
%ADD20RoundRect,0.250000X-0.475000X0.337500X-0.475000X-0.337500X0.475000X-0.337500X0.475000X0.337500X0*%
%ADD21R,0.900000X0.800000*%
%ADD22RoundRect,0.250000X0.337500X0.475000X-0.337500X0.475000X-0.337500X-0.475000X0.337500X-0.475000X0*%
%ADD23C,0.180000*%
%ADD24RoundRect,0.250000X-0.450000X0.325000X-0.450000X-0.325000X0.450000X-0.325000X0.450000X0.325000X0*%
%ADD25RoundRect,0.200100X-0.949900X-0.949900X0.949900X-0.949900X0.949900X0.949900X-0.949900X0.949900X0*%
%ADD26C,2.500000*%
%ADD27RoundRect,0.100000X0.100000X-0.217500X0.100000X0.217500X-0.100000X0.217500X-0.100000X-0.217500X0*%
%ADD28C,2.000000*%
%ADD29RoundRect,0.250000X-0.450000X0.350000X-0.450000X-0.350000X0.450000X-0.350000X0.450000X0.350000X0*%
%ADD30R,0.420000X0.505000*%
%ADD31R,1.100000X0.400000*%
G04 APERTURE END LIST*
D10*
%TO.C,X2*%
X150175000Y-99630000D03*
X150175000Y-102290000D03*
%TD*%
D11*
%TO.C,R3*%
X147250000Y-112625000D03*
X147250000Y-110625000D03*
%TD*%
D12*
%TO.C,L2*%
X150570000Y-108340000D03*
X150570000Y-106040000D03*
%TD*%
D13*
%TO.C,U1*%
X157700000Y-103360000D03*
X157700000Y-102860000D03*
X157700000Y-102360000D03*
X157700000Y-101860000D03*
X157700000Y-101360000D03*
X157700000Y-100860000D03*
X157700000Y-100360000D03*
X157700000Y-99860000D03*
D14*
X156950000Y-99110000D03*
X156450000Y-99110000D03*
X155950000Y-99110000D03*
X155450000Y-99110000D03*
X154950000Y-99110000D03*
X154450000Y-99110000D03*
X153950000Y-99110000D03*
X153450000Y-99110000D03*
D13*
X152700000Y-99860000D03*
X152700000Y-100360000D03*
X152700000Y-100860000D03*
X152700000Y-101360000D03*
X152700000Y-101860000D03*
X152700000Y-102360000D03*
X152700000Y-102860000D03*
X152700000Y-103360000D03*
D14*
X153450000Y-104110000D03*
X153950000Y-104110000D03*
X154450000Y-104110000D03*
X154950000Y-104110000D03*
X155450000Y-104110000D03*
X155950000Y-104110000D03*
X156450000Y-104110000D03*
X156950000Y-104110000D03*
D15*
X155200000Y-101610000D03*
%TD*%
D16*
%TO.C,FL1*%
X154450000Y-95625000D03*
X154450000Y-96205000D03*
X154450000Y-96785000D03*
X154950000Y-95625000D03*
X154950000Y-96205000D03*
X154950000Y-96785000D03*
%TD*%
D11*
%TO.C,R1*%
X145350000Y-117125000D03*
X145350000Y-115125000D03*
%TD*%
D17*
%TO.C,J1*%
X160750000Y-106190000D03*
D18*
X160750000Y-108730000D03*
X160750000Y-111269999D03*
X160750000Y-113810000D03*
X160750000Y-116350000D03*
%TD*%
D19*
%TO.C,L1*%
X154500000Y-108260000D03*
X152200000Y-108260000D03*
%TD*%
D20*
%TO.C,C1*%
X147350000Y-115087500D03*
X147350000Y-117162500D03*
%TD*%
D21*
%TO.C,X1*%
X151725000Y-96710000D03*
X150325000Y-96710000D03*
X150325000Y-97810000D03*
X151725000Y-97810000D03*
%TD*%
D22*
%TO.C,C4*%
X154387500Y-106410000D03*
X152312500Y-106410000D03*
%TD*%
D17*
%TO.C,J2*%
X160750000Y-86270000D03*
D18*
X160750000Y-88810000D03*
X160750000Y-91349999D03*
X160750000Y-93890000D03*
%TD*%
D23*
%TO.C,U3*%
X164015000Y-98260000D03*
X164015000Y-98660000D03*
X163615000Y-98260000D03*
X163615000Y-98660000D03*
%TD*%
D17*
%TO.C,J4*%
X146725000Y-97780001D03*
D18*
X146725000Y-100320001D03*
X146725000Y-102860000D03*
X146725000Y-105400001D03*
%TD*%
D24*
%TO.C,D1*%
X157950000Y-91635001D03*
X157950000Y-93684999D03*
%TD*%
D25*
%TO.C,J3*%
X154450000Y-86110000D03*
D26*
X151910000Y-83570000D03*
X151910000Y-88650000D03*
X156990000Y-83570000D03*
X156990000Y-88650000D03*
%TD*%
D27*
%TO.C,C14*%
X154450000Y-98317500D03*
X154450000Y-97502500D03*
%TD*%
D17*
%TO.C,J5*%
X146900000Y-86265000D03*
D18*
X146900000Y-88805000D03*
%TD*%
D11*
%TO.C,R4*%
X145350000Y-112625000D03*
X145350000Y-110625000D03*
%TD*%
D28*
%TO.C,SW1*%
X156500000Y-116510000D03*
X150000000Y-116510000D03*
X156500000Y-112010000D03*
X150000000Y-112010000D03*
%TD*%
D29*
%TO.C,R2*%
X157950000Y-95435000D03*
X157950000Y-97435000D03*
%TD*%
D30*
%TO.C,U2*%
X145900000Y-109230000D03*
X146700000Y-109230000D03*
X146700000Y-107870000D03*
X145900000Y-107870000D03*
D31*
X146300000Y-108550000D03*
%TD*%
M02*
