M48
; DRILL file {KiCad 9.0.2+dfsg-1} date 2026-06-09T16:37:01-0400
; FORMAT={-:-/ absolute / inch / decimal}
; #@! TF.CreationDate,2026-06-09T16:37:01-04:00
; #@! TF.GenerationSoftware,Kicad,Pcbnew,9.0.2+dfsg-1
; #@! TF.FileFunction,Plated,1,4,PTH
FMAT,2
INCH
; #@! TA.AperFunction,Plated,PTH,ViaDrill
T1C0.0118
; #@! TA.AperFunction,Plated,PTH,ComponentDrill
T2C0.0394
; #@! TA.AperFunction,Plated,PTH,ComponentDrill
T3C0.0433
; #@! TA.AperFunction,Plated,PTH,ComponentDrill
T4C0.0591
; #@! TA.AperFunction,Plated,PTH,ComponentDrill
T5C0.0669
%
G90
G05
T1
X5.6305Y-4.6644
X5.6407Y-4.4016
X5.7441Y-4.2313
X5.7746Y-3.7057
X5.7756Y-4.2313
X5.8693Y-3.9622
X5.876Y-4.3258
X5.9006Y-3.8006
X5.9094Y-4.5004
X5.9419Y-3.6844
X5.9439Y-3.961
X5.9911Y-3.8754
X6.0031Y-4.0805
X6.0177Y-4.3307
X6.0354Y-4.2209
X6.0413Y-3.8665
X6.0531Y-3.6583
X6.0531Y-3.744
X6.0531Y-3.835
X6.0541Y-3.5703
X6.0591Y-4.0535
X6.063Y-4.1362
X6.0965Y-4.1362
X6.1073Y-3.5703
X6.1083Y-3.6585
X6.1083Y-3.7441
X6.1083Y-3.8351
X6.1102Y-4.0004
X6.1201Y-3.8665
X6.1575Y-4.5004
X6.1634Y-4.0535
X6.2146Y-4.1339
X6.2185Y-3.6362
X6.2333Y-4.5512
X6.2751Y-3.9434
X6.2766Y-3.9079
X6.2777Y-3.9793
X6.3069Y-3.9214
X6.3789Y-3.935
X6.3799Y-3.7992
X6.4489Y-3.9133
X6.4573Y-3.8459
T2
X5.7766Y-3.8496
X5.7766Y-3.9496
X5.7766Y-4.0496
X5.7766Y-4.1496
X5.7835Y-3.3963
X5.7835Y-3.4963
X6.3287Y-3.3965
X6.3287Y-3.4965
X6.3287Y-3.5965
X6.3287Y-3.6965
X6.3287Y-4.1807
X6.3287Y-4.2807
X6.3287Y-4.3807
X6.3287Y-4.4807
X6.3287Y-4.5807
T3
X5.9055Y-4.4098
X5.9055Y-4.587
X6.1614Y-4.4098
X6.1614Y-4.587
T4
X6.0807Y-3.3902
T5
X5.9807Y-3.2902
X5.9807Y-3.4902
X6.1807Y-3.2902
X6.1807Y-3.4902
M30
