%TF.GenerationSoftware,KiCad,Pcbnew,9.0.2+dfsg-1*%
%TF.CreationDate,2026-06-09T16:37:01-04:00*%
%TF.ProjectId,rx-pcb,72782d70-6362-42e6-9b69-6361645f7063,rev?*%
%TF.SameCoordinates,Original*%
%TF.FileFunction,Soldermask,Bot*%
%TF.FilePolarity,Negative*%
%FSLAX46Y46*%
G04 Gerber Fmt 4.6, Leading zero omitted, Abs format (unit mm)*
G04 Created by KiCad (PCBNEW 9.0.2+dfsg-1) date 2026-06-09 16:37:01*
%MOMM*%
%LPD*%
G01*
G04 APERTURE LIST*
G04 Aperture macros list*
%AMRoundRect*
0 Rectangle with rounded corners*
0 $1 Rounding radius*
0 $2 $3 $4 $5 $6 $7 $8 $9 X,Y pos of 4 corners*
0 Add a 4 corners polygon primitive as box body*
4,1,4,$2,$3,$4,$5,$6,$7,$8,$9,$2,$3,0*
0 Add four circle primitives for the rounded corners*
1,1,$1+$1,$2,$3*
1,1,$1+$1,$4,$5*
1,1,$1+$1,$6,$7*
1,1,$1+$1,$8,$9*
0 Add four rect primitives between the rounded corners*
20,1,$1+$1,$2,$3,$4,$5,0*
20,1,$1+$1,$4,$5,$6,$7,0*
20,1,$1+$1,$6,$7,$8,$9,0*
20,1,$1+$1,$8,$9,$2,$3,0*%
G04 Aperture macros list end*
%ADD10R,1.700000X1.700000*%
%ADD11C,1.700000*%
%ADD12RoundRect,0.200100X-0.949900X-0.949900X0.949900X-0.949900X0.949900X0.949900X-0.949900X0.949900X0*%
%ADD13C,2.500000*%
%ADD14C,2.000000*%
%ADD15RoundRect,0.250000X-0.475000X0.337500X-0.475000X-0.337500X0.475000X-0.337500X0.475000X0.337500X0*%
%ADD16RoundRect,0.250000X0.475000X-0.337500X0.475000X0.337500X-0.475000X0.337500X-0.475000X-0.337500X0*%
%ADD17RoundRect,0.250000X-0.337500X-0.475000X0.337500X-0.475000X0.337500X0.475000X-0.337500X0.475000X0*%
G04 APERTURE END LIST*
D10*
%TO.C,J1*%
X160750000Y-106190000D03*
D11*
X160750000Y-108730000D03*
X160750000Y-111269999D03*
X160750000Y-113810000D03*
X160750000Y-116350000D03*
%TD*%
D10*
%TO.C,J2*%
X160750000Y-86270000D03*
D11*
X160750000Y-88810000D03*
X160750000Y-91349999D03*
X160750000Y-93890000D03*
%TD*%
D10*
%TO.C,J4*%
X146725000Y-97780001D03*
D11*
X146725000Y-100320001D03*
X146725000Y-102860000D03*
X146725000Y-105400001D03*
%TD*%
D12*
%TO.C,J3*%
X154450000Y-86110000D03*
D13*
X151910000Y-83570000D03*
X151910000Y-88650000D03*
X156990000Y-83570000D03*
X156990000Y-88650000D03*
%TD*%
D10*
%TO.C,J5*%
X146900000Y-86265000D03*
D11*
X146900000Y-88805000D03*
%TD*%
D14*
%TO.C,SW1*%
X156500000Y-116510000D03*
X150000000Y-116510000D03*
X156500000Y-112010000D03*
X150000000Y-112010000D03*
%TD*%
D15*
%TO.C,C13*%
X155750000Y-104272500D03*
X155750000Y-106347500D03*
%TD*%
%TO.C,C9*%
X157825000Y-99747500D03*
X157825000Y-101822500D03*
%TD*%
%TO.C,C6*%
X157850000Y-104272500D03*
X157850000Y-106347500D03*
%TD*%
%TO.C,C8*%
X153675000Y-99751665D03*
X153675000Y-101826665D03*
%TD*%
%TO.C,C5*%
X153650000Y-104272500D03*
X153650000Y-106347500D03*
%TD*%
D16*
%TO.C,C2*%
X151255000Y-99867500D03*
X151255000Y-97792500D03*
%TD*%
D15*
%TO.C,C11*%
X149440000Y-104272500D03*
X149440000Y-106347500D03*
%TD*%
%TO.C,C12*%
X151550000Y-104272500D03*
X151550000Y-106347500D03*
%TD*%
D17*
%TO.C,C7*%
X149712500Y-101810000D03*
X151787500Y-101810000D03*
%TD*%
D15*
%TO.C,C10*%
X155725000Y-99747500D03*
X155725000Y-101822500D03*
%TD*%
D16*
%TO.C,C3*%
X149255000Y-99867500D03*
X149255000Y-97792500D03*
%TD*%
M02*
