%TF.GenerationSoftware,KiCad,Pcbnew,9.0.2+dfsg-1*%
%TF.CreationDate,2026-06-09T16:37:01-04:00*%
%TF.ProjectId,rx-pcb,72782d70-6362-42e6-9b69-6361645f7063,rev?*%
%TF.SameCoordinates,Original*%
%TF.FileFunction,Legend,Bot*%
%TF.FilePolarity,Positive*%
%FSLAX46Y46*%
G04 Gerber Fmt 4.6, Leading zero omitted, Abs format (unit mm)*
G04 Created by KiCad (PCBNEW 9.0.2+dfsg-1) date 2026-06-09 16:37:01*
%MOMM*%
%LPD*%
G01*
G04 APERTURE LIST*
G04 Aperture macros list*
%AMRoundRect*
0 Rectangle with rounded corners*
0 $1 Rounding radius*
0 $2 $3 $4 $5 $6 $7 $8 $9 X,Y pos of 4 corners*
0 Add a 4 corners polygon primitive as box body*
4,1,4,$2,$3,$4,$5,$6,$7,$8,$9,$2,$3,0*
0 Add four circle primitives for the rounded corners*
1,1,$1+$1,$2,$3*
1,1,$1+$1,$4,$5*
1,1,$1+$1,$6,$7*
1,1,$1+$1,$8,$9*
0 Add four rect primitives between the rounded corners*
20,1,$1+$1,$2,$3,$4,$5,0*
20,1,$1+$1,$4,$5,$6,$7,0*
20,1,$1+$1,$6,$7,$8,$9,0*
20,1,$1+$1,$8,$9,$2,$3,0*%
G04 Aperture macros list end*
%ADD10C,0.150000*%
%ADD11C,0.120000*%
%ADD12R,1.700000X1.700000*%
%ADD13C,1.700000*%
%ADD14RoundRect,0.200100X-0.949900X-0.949900X0.949900X-0.949900X0.949900X0.949900X-0.949900X0.949900X0*%
%ADD15C,2.500000*%
%ADD16C,2.000000*%
%ADD17RoundRect,0.250000X-0.475000X0.337500X-0.475000X-0.337500X0.475000X-0.337500X0.475000X0.337500X0*%
%ADD18RoundRect,0.250000X0.475000X-0.337500X0.475000X0.337500X-0.475000X0.337500X-0.475000X-0.337500X0*%
%ADD19RoundRect,0.250000X-0.337500X-0.475000X0.337500X-0.475000X0.337500X0.475000X-0.337500X0.475000X0*%
G04 APERTURE END LIST*
D10*
X154833333Y-82554819D02*
X154833333Y-83269104D01*
X154833333Y-83269104D02*
X154880952Y-83411961D01*
X154880952Y-83411961D02*
X154976190Y-83507200D01*
X154976190Y-83507200D02*
X155119047Y-83554819D01*
X155119047Y-83554819D02*
X155214285Y-83554819D01*
X154452380Y-82554819D02*
X153833333Y-82554819D01*
X153833333Y-82554819D02*
X154166666Y-82935771D01*
X154166666Y-82935771D02*
X154023809Y-82935771D01*
X154023809Y-82935771D02*
X153928571Y-82983390D01*
X153928571Y-82983390D02*
X153880952Y-83031009D01*
X153880952Y-83031009D02*
X153833333Y-83126247D01*
X153833333Y-83126247D02*
X153833333Y-83364342D01*
X153833333Y-83364342D02*
X153880952Y-83459580D01*
X153880952Y-83459580D02*
X153928571Y-83507200D01*
X153928571Y-83507200D02*
X154023809Y-83554819D01*
X154023809Y-83554819D02*
X154309523Y-83554819D01*
X154309523Y-83554819D02*
X154404761Y-83507200D01*
X154404761Y-83507200D02*
X154452380Y-83459580D01*
X156159580Y-107717142D02*
X156207200Y-107669523D01*
X156207200Y-107669523D02*
X156254819Y-107526666D01*
X156254819Y-107526666D02*
X156254819Y-107431428D01*
X156254819Y-107431428D02*
X156207200Y-107288571D01*
X156207200Y-107288571D02*
X156111961Y-107193333D01*
X156111961Y-107193333D02*
X156016723Y-107145714D01*
X156016723Y-107145714D02*
X155826247Y-107098095D01*
X155826247Y-107098095D02*
X155683390Y-107098095D01*
X155683390Y-107098095D02*
X155492914Y-107145714D01*
X155492914Y-107145714D02*
X155397676Y-107193333D01*
X155397676Y-107193333D02*
X155302438Y-107288571D01*
X155302438Y-107288571D02*
X155254819Y-107431428D01*
X155254819Y-107431428D02*
X155254819Y-107526666D01*
X155254819Y-107526666D02*
X155302438Y-107669523D01*
X155302438Y-107669523D02*
X155350057Y-107717142D01*
X156254819Y-108669523D02*
X156254819Y-108098095D01*
X156254819Y-108383809D02*
X155254819Y-108383809D01*
X155254819Y-108383809D02*
X155397676Y-108288571D01*
X155397676Y-108288571D02*
X155492914Y-108193333D01*
X155492914Y-108193333D02*
X155540533Y-108098095D01*
X155254819Y-109002857D02*
X155254819Y-109621904D01*
X155254819Y-109621904D02*
X155635771Y-109288571D01*
X155635771Y-109288571D02*
X155635771Y-109431428D01*
X155635771Y-109431428D02*
X155683390Y-109526666D01*
X155683390Y-109526666D02*
X155731009Y-109574285D01*
X155731009Y-109574285D02*
X155826247Y-109621904D01*
X155826247Y-109621904D02*
X156064342Y-109621904D01*
X156064342Y-109621904D02*
X156159580Y-109574285D01*
X156159580Y-109574285D02*
X156207200Y-109526666D01*
X156207200Y-109526666D02*
X156254819Y-109431428D01*
X156254819Y-109431428D02*
X156254819Y-109145714D01*
X156254819Y-109145714D02*
X156207200Y-109050476D01*
X156207200Y-109050476D02*
X156159580Y-109002857D01*
X158184580Y-97797498D02*
X158232200Y-97749879D01*
X158232200Y-97749879D02*
X158279819Y-97607022D01*
X158279819Y-97607022D02*
X158279819Y-97511784D01*
X158279819Y-97511784D02*
X158232200Y-97368927D01*
X158232200Y-97368927D02*
X158136961Y-97273689D01*
X158136961Y-97273689D02*
X158041723Y-97226070D01*
X158041723Y-97226070D02*
X157851247Y-97178451D01*
X157851247Y-97178451D02*
X157708390Y-97178451D01*
X157708390Y-97178451D02*
X157517914Y-97226070D01*
X157517914Y-97226070D02*
X157422676Y-97273689D01*
X157422676Y-97273689D02*
X157327438Y-97368927D01*
X157327438Y-97368927D02*
X157279819Y-97511784D01*
X157279819Y-97511784D02*
X157279819Y-97607022D01*
X157279819Y-97607022D02*
X157327438Y-97749879D01*
X157327438Y-97749879D02*
X157375057Y-97797498D01*
X158279819Y-98273689D02*
X158279819Y-98464165D01*
X158279819Y-98464165D02*
X158232200Y-98559403D01*
X158232200Y-98559403D02*
X158184580Y-98607022D01*
X158184580Y-98607022D02*
X158041723Y-98702260D01*
X158041723Y-98702260D02*
X157851247Y-98749879D01*
X157851247Y-98749879D02*
X157470295Y-98749879D01*
X157470295Y-98749879D02*
X157375057Y-98702260D01*
X157375057Y-98702260D02*
X157327438Y-98654641D01*
X157327438Y-98654641D02*
X157279819Y-98559403D01*
X157279819Y-98559403D02*
X157279819Y-98368927D01*
X157279819Y-98368927D02*
X157327438Y-98273689D01*
X157327438Y-98273689D02*
X157375057Y-98226070D01*
X157375057Y-98226070D02*
X157470295Y-98178451D01*
X157470295Y-98178451D02*
X157708390Y-98178451D01*
X157708390Y-98178451D02*
X157803628Y-98226070D01*
X157803628Y-98226070D02*
X157851247Y-98273689D01*
X157851247Y-98273689D02*
X157898866Y-98368927D01*
X157898866Y-98368927D02*
X157898866Y-98559403D01*
X157898866Y-98559403D02*
X157851247Y-98654641D01*
X157851247Y-98654641D02*
X157803628Y-98702260D01*
X157803628Y-98702260D02*
X157708390Y-98749879D01*
X158259580Y-107693333D02*
X158307200Y-107645714D01*
X158307200Y-107645714D02*
X158354819Y-107502857D01*
X158354819Y-107502857D02*
X158354819Y-107407619D01*
X158354819Y-107407619D02*
X158307200Y-107264762D01*
X158307200Y-107264762D02*
X158211961Y-107169524D01*
X158211961Y-107169524D02*
X158116723Y-107121905D01*
X158116723Y-107121905D02*
X157926247Y-107074286D01*
X157926247Y-107074286D02*
X157783390Y-107074286D01*
X157783390Y-107074286D02*
X157592914Y-107121905D01*
X157592914Y-107121905D02*
X157497676Y-107169524D01*
X157497676Y-107169524D02*
X157402438Y-107264762D01*
X157402438Y-107264762D02*
X157354819Y-107407619D01*
X157354819Y-107407619D02*
X157354819Y-107502857D01*
X157354819Y-107502857D02*
X157402438Y-107645714D01*
X157402438Y-107645714D02*
X157450057Y-107693333D01*
X157354819Y-108550476D02*
X157354819Y-108360000D01*
X157354819Y-108360000D02*
X157402438Y-108264762D01*
X157402438Y-108264762D02*
X157450057Y-108217143D01*
X157450057Y-108217143D02*
X157592914Y-108121905D01*
X157592914Y-108121905D02*
X157783390Y-108074286D01*
X157783390Y-108074286D02*
X158164342Y-108074286D01*
X158164342Y-108074286D02*
X158259580Y-108121905D01*
X158259580Y-108121905D02*
X158307200Y-108169524D01*
X158307200Y-108169524D02*
X158354819Y-108264762D01*
X158354819Y-108264762D02*
X158354819Y-108455238D01*
X158354819Y-108455238D02*
X158307200Y-108550476D01*
X158307200Y-108550476D02*
X158259580Y-108598095D01*
X158259580Y-108598095D02*
X158164342Y-108645714D01*
X158164342Y-108645714D02*
X157926247Y-108645714D01*
X157926247Y-108645714D02*
X157831009Y-108598095D01*
X157831009Y-108598095D02*
X157783390Y-108550476D01*
X157783390Y-108550476D02*
X157735771Y-108455238D01*
X157735771Y-108455238D02*
X157735771Y-108264762D01*
X157735771Y-108264762D02*
X157783390Y-108169524D01*
X157783390Y-108169524D02*
X157831009Y-108121905D01*
X157831009Y-108121905D02*
X157926247Y-108074286D01*
X154034580Y-97801663D02*
X154082200Y-97754044D01*
X154082200Y-97754044D02*
X154129819Y-97611187D01*
X154129819Y-97611187D02*
X154129819Y-97515949D01*
X154129819Y-97515949D02*
X154082200Y-97373092D01*
X154082200Y-97373092D02*
X153986961Y-97277854D01*
X153986961Y-97277854D02*
X153891723Y-97230235D01*
X153891723Y-97230235D02*
X153701247Y-97182616D01*
X153701247Y-97182616D02*
X153558390Y-97182616D01*
X153558390Y-97182616D02*
X153367914Y-97230235D01*
X153367914Y-97230235D02*
X153272676Y-97277854D01*
X153272676Y-97277854D02*
X153177438Y-97373092D01*
X153177438Y-97373092D02*
X153129819Y-97515949D01*
X153129819Y-97515949D02*
X153129819Y-97611187D01*
X153129819Y-97611187D02*
X153177438Y-97754044D01*
X153177438Y-97754044D02*
X153225057Y-97801663D01*
X153558390Y-98373092D02*
X153510771Y-98277854D01*
X153510771Y-98277854D02*
X153463152Y-98230235D01*
X153463152Y-98230235D02*
X153367914Y-98182616D01*
X153367914Y-98182616D02*
X153320295Y-98182616D01*
X153320295Y-98182616D02*
X153225057Y-98230235D01*
X153225057Y-98230235D02*
X153177438Y-98277854D01*
X153177438Y-98277854D02*
X153129819Y-98373092D01*
X153129819Y-98373092D02*
X153129819Y-98563568D01*
X153129819Y-98563568D02*
X153177438Y-98658806D01*
X153177438Y-98658806D02*
X153225057Y-98706425D01*
X153225057Y-98706425D02*
X153320295Y-98754044D01*
X153320295Y-98754044D02*
X153367914Y-98754044D01*
X153367914Y-98754044D02*
X153463152Y-98706425D01*
X153463152Y-98706425D02*
X153510771Y-98658806D01*
X153510771Y-98658806D02*
X153558390Y-98563568D01*
X153558390Y-98563568D02*
X153558390Y-98373092D01*
X153558390Y-98373092D02*
X153606009Y-98277854D01*
X153606009Y-98277854D02*
X153653628Y-98230235D01*
X153653628Y-98230235D02*
X153748866Y-98182616D01*
X153748866Y-98182616D02*
X153939342Y-98182616D01*
X153939342Y-98182616D02*
X154034580Y-98230235D01*
X154034580Y-98230235D02*
X154082200Y-98277854D01*
X154082200Y-98277854D02*
X154129819Y-98373092D01*
X154129819Y-98373092D02*
X154129819Y-98563568D01*
X154129819Y-98563568D02*
X154082200Y-98658806D01*
X154082200Y-98658806D02*
X154034580Y-98706425D01*
X154034580Y-98706425D02*
X153939342Y-98754044D01*
X153939342Y-98754044D02*
X153748866Y-98754044D01*
X153748866Y-98754044D02*
X153653628Y-98706425D01*
X153653628Y-98706425D02*
X153606009Y-98658806D01*
X153606009Y-98658806D02*
X153558390Y-98563568D01*
X154059580Y-107693333D02*
X154107200Y-107645714D01*
X154107200Y-107645714D02*
X154154819Y-107502857D01*
X154154819Y-107502857D02*
X154154819Y-107407619D01*
X154154819Y-107407619D02*
X154107200Y-107264762D01*
X154107200Y-107264762D02*
X154011961Y-107169524D01*
X154011961Y-107169524D02*
X153916723Y-107121905D01*
X153916723Y-107121905D02*
X153726247Y-107074286D01*
X153726247Y-107074286D02*
X153583390Y-107074286D01*
X153583390Y-107074286D02*
X153392914Y-107121905D01*
X153392914Y-107121905D02*
X153297676Y-107169524D01*
X153297676Y-107169524D02*
X153202438Y-107264762D01*
X153202438Y-107264762D02*
X153154819Y-107407619D01*
X153154819Y-107407619D02*
X153154819Y-107502857D01*
X153154819Y-107502857D02*
X153202438Y-107645714D01*
X153202438Y-107645714D02*
X153250057Y-107693333D01*
X153154819Y-108598095D02*
X153154819Y-108121905D01*
X153154819Y-108121905D02*
X153631009Y-108074286D01*
X153631009Y-108074286D02*
X153583390Y-108121905D01*
X153583390Y-108121905D02*
X153535771Y-108217143D01*
X153535771Y-108217143D02*
X153535771Y-108455238D01*
X153535771Y-108455238D02*
X153583390Y-108550476D01*
X153583390Y-108550476D02*
X153631009Y-108598095D01*
X153631009Y-108598095D02*
X153726247Y-108645714D01*
X153726247Y-108645714D02*
X153964342Y-108645714D01*
X153964342Y-108645714D02*
X154059580Y-108598095D01*
X154059580Y-108598095D02*
X154107200Y-108550476D01*
X154107200Y-108550476D02*
X154154819Y-108455238D01*
X154154819Y-108455238D02*
X154154819Y-108217143D01*
X154154819Y-108217143D02*
X154107200Y-108121905D01*
X154107200Y-108121905D02*
X154059580Y-108074286D01*
X151614580Y-95363334D02*
X151662200Y-95315715D01*
X151662200Y-95315715D02*
X151709819Y-95172858D01*
X151709819Y-95172858D02*
X151709819Y-95077620D01*
X151709819Y-95077620D02*
X151662200Y-94934763D01*
X151662200Y-94934763D02*
X151566961Y-94839525D01*
X151566961Y-94839525D02*
X151471723Y-94791906D01*
X151471723Y-94791906D02*
X151281247Y-94744287D01*
X151281247Y-94744287D02*
X151138390Y-94744287D01*
X151138390Y-94744287D02*
X150947914Y-94791906D01*
X150947914Y-94791906D02*
X150852676Y-94839525D01*
X150852676Y-94839525D02*
X150757438Y-94934763D01*
X150757438Y-94934763D02*
X150709819Y-95077620D01*
X150709819Y-95077620D02*
X150709819Y-95172858D01*
X150709819Y-95172858D02*
X150757438Y-95315715D01*
X150757438Y-95315715D02*
X150805057Y-95363334D01*
X150805057Y-95744287D02*
X150757438Y-95791906D01*
X150757438Y-95791906D02*
X150709819Y-95887144D01*
X150709819Y-95887144D02*
X150709819Y-96125239D01*
X150709819Y-96125239D02*
X150757438Y-96220477D01*
X150757438Y-96220477D02*
X150805057Y-96268096D01*
X150805057Y-96268096D02*
X150900295Y-96315715D01*
X150900295Y-96315715D02*
X150995533Y-96315715D01*
X150995533Y-96315715D02*
X151138390Y-96268096D01*
X151138390Y-96268096D02*
X151709819Y-95696668D01*
X151709819Y-95696668D02*
X151709819Y-96315715D01*
X149784580Y-107642142D02*
X149832200Y-107594523D01*
X149832200Y-107594523D02*
X149879819Y-107451666D01*
X149879819Y-107451666D02*
X149879819Y-107356428D01*
X149879819Y-107356428D02*
X149832200Y-107213571D01*
X149832200Y-107213571D02*
X149736961Y-107118333D01*
X149736961Y-107118333D02*
X149641723Y-107070714D01*
X149641723Y-107070714D02*
X149451247Y-107023095D01*
X149451247Y-107023095D02*
X149308390Y-107023095D01*
X149308390Y-107023095D02*
X149117914Y-107070714D01*
X149117914Y-107070714D02*
X149022676Y-107118333D01*
X149022676Y-107118333D02*
X148927438Y-107213571D01*
X148927438Y-107213571D02*
X148879819Y-107356428D01*
X148879819Y-107356428D02*
X148879819Y-107451666D01*
X148879819Y-107451666D02*
X148927438Y-107594523D01*
X148927438Y-107594523D02*
X148975057Y-107642142D01*
X149879819Y-108594523D02*
X149879819Y-108023095D01*
X149879819Y-108308809D02*
X148879819Y-108308809D01*
X148879819Y-108308809D02*
X149022676Y-108213571D01*
X149022676Y-108213571D02*
X149117914Y-108118333D01*
X149117914Y-108118333D02*
X149165533Y-108023095D01*
X149879819Y-109546904D02*
X149879819Y-108975476D01*
X149879819Y-109261190D02*
X148879819Y-109261190D01*
X148879819Y-109261190D02*
X149022676Y-109165952D01*
X149022676Y-109165952D02*
X149117914Y-109070714D01*
X149117914Y-109070714D02*
X149165533Y-108975476D01*
X151959580Y-107717142D02*
X152007200Y-107669523D01*
X152007200Y-107669523D02*
X152054819Y-107526666D01*
X152054819Y-107526666D02*
X152054819Y-107431428D01*
X152054819Y-107431428D02*
X152007200Y-107288571D01*
X152007200Y-107288571D02*
X151911961Y-107193333D01*
X151911961Y-107193333D02*
X151816723Y-107145714D01*
X151816723Y-107145714D02*
X151626247Y-107098095D01*
X151626247Y-107098095D02*
X151483390Y-107098095D01*
X151483390Y-107098095D02*
X151292914Y-107145714D01*
X151292914Y-107145714D02*
X151197676Y-107193333D01*
X151197676Y-107193333D02*
X151102438Y-107288571D01*
X151102438Y-107288571D02*
X151054819Y-107431428D01*
X151054819Y-107431428D02*
X151054819Y-107526666D01*
X151054819Y-107526666D02*
X151102438Y-107669523D01*
X151102438Y-107669523D02*
X151150057Y-107717142D01*
X152054819Y-108669523D02*
X152054819Y-108098095D01*
X152054819Y-108383809D02*
X151054819Y-108383809D01*
X151054819Y-108383809D02*
X151197676Y-108288571D01*
X151197676Y-108288571D02*
X151292914Y-108193333D01*
X151292914Y-108193333D02*
X151340533Y-108098095D01*
X151150057Y-109050476D02*
X151102438Y-109098095D01*
X151102438Y-109098095D02*
X151054819Y-109193333D01*
X151054819Y-109193333D02*
X151054819Y-109431428D01*
X151054819Y-109431428D02*
X151102438Y-109526666D01*
X151102438Y-109526666D02*
X151150057Y-109574285D01*
X151150057Y-109574285D02*
X151245295Y-109621904D01*
X151245295Y-109621904D02*
X151340533Y-109621904D01*
X151340533Y-109621904D02*
X151483390Y-109574285D01*
X151483390Y-109574285D02*
X152054819Y-109002857D01*
X152054819Y-109002857D02*
X152054819Y-109621904D01*
X148884580Y-101668333D02*
X148932200Y-101620714D01*
X148932200Y-101620714D02*
X148979819Y-101477857D01*
X148979819Y-101477857D02*
X148979819Y-101382619D01*
X148979819Y-101382619D02*
X148932200Y-101239762D01*
X148932200Y-101239762D02*
X148836961Y-101144524D01*
X148836961Y-101144524D02*
X148741723Y-101096905D01*
X148741723Y-101096905D02*
X148551247Y-101049286D01*
X148551247Y-101049286D02*
X148408390Y-101049286D01*
X148408390Y-101049286D02*
X148217914Y-101096905D01*
X148217914Y-101096905D02*
X148122676Y-101144524D01*
X148122676Y-101144524D02*
X148027438Y-101239762D01*
X148027438Y-101239762D02*
X147979819Y-101382619D01*
X147979819Y-101382619D02*
X147979819Y-101477857D01*
X147979819Y-101477857D02*
X148027438Y-101620714D01*
X148027438Y-101620714D02*
X148075057Y-101668333D01*
X147979819Y-102001667D02*
X147979819Y-102668333D01*
X147979819Y-102668333D02*
X148979819Y-102239762D01*
X156084580Y-97146307D02*
X156132200Y-97098688D01*
X156132200Y-97098688D02*
X156179819Y-96955831D01*
X156179819Y-96955831D02*
X156179819Y-96860593D01*
X156179819Y-96860593D02*
X156132200Y-96717736D01*
X156132200Y-96717736D02*
X156036961Y-96622498D01*
X156036961Y-96622498D02*
X155941723Y-96574879D01*
X155941723Y-96574879D02*
X155751247Y-96527260D01*
X155751247Y-96527260D02*
X155608390Y-96527260D01*
X155608390Y-96527260D02*
X155417914Y-96574879D01*
X155417914Y-96574879D02*
X155322676Y-96622498D01*
X155322676Y-96622498D02*
X155227438Y-96717736D01*
X155227438Y-96717736D02*
X155179819Y-96860593D01*
X155179819Y-96860593D02*
X155179819Y-96955831D01*
X155179819Y-96955831D02*
X155227438Y-97098688D01*
X155227438Y-97098688D02*
X155275057Y-97146307D01*
X156179819Y-98098688D02*
X156179819Y-97527260D01*
X156179819Y-97812974D02*
X155179819Y-97812974D01*
X155179819Y-97812974D02*
X155322676Y-97717736D01*
X155322676Y-97717736D02*
X155417914Y-97622498D01*
X155417914Y-97622498D02*
X155465533Y-97527260D01*
X155179819Y-98717736D02*
X155179819Y-98812974D01*
X155179819Y-98812974D02*
X155227438Y-98908212D01*
X155227438Y-98908212D02*
X155275057Y-98955831D01*
X155275057Y-98955831D02*
X155370295Y-99003450D01*
X155370295Y-99003450D02*
X155560771Y-99051069D01*
X155560771Y-99051069D02*
X155798866Y-99051069D01*
X155798866Y-99051069D02*
X155989342Y-99003450D01*
X155989342Y-99003450D02*
X156084580Y-98955831D01*
X156084580Y-98955831D02*
X156132200Y-98908212D01*
X156132200Y-98908212D02*
X156179819Y-98812974D01*
X156179819Y-98812974D02*
X156179819Y-98717736D01*
X156179819Y-98717736D02*
X156132200Y-98622498D01*
X156132200Y-98622498D02*
X156084580Y-98574879D01*
X156084580Y-98574879D02*
X155989342Y-98527260D01*
X155989342Y-98527260D02*
X155798866Y-98479641D01*
X155798866Y-98479641D02*
X155560771Y-98479641D01*
X155560771Y-98479641D02*
X155370295Y-98527260D01*
X155370295Y-98527260D02*
X155275057Y-98574879D01*
X155275057Y-98574879D02*
X155227438Y-98622498D01*
X155227438Y-98622498D02*
X155179819Y-98717736D01*
X149614580Y-95313333D02*
X149662200Y-95265714D01*
X149662200Y-95265714D02*
X149709819Y-95122857D01*
X149709819Y-95122857D02*
X149709819Y-95027619D01*
X149709819Y-95027619D02*
X149662200Y-94884762D01*
X149662200Y-94884762D02*
X149566961Y-94789524D01*
X149566961Y-94789524D02*
X149471723Y-94741905D01*
X149471723Y-94741905D02*
X149281247Y-94694286D01*
X149281247Y-94694286D02*
X149138390Y-94694286D01*
X149138390Y-94694286D02*
X148947914Y-94741905D01*
X148947914Y-94741905D02*
X148852676Y-94789524D01*
X148852676Y-94789524D02*
X148757438Y-94884762D01*
X148757438Y-94884762D02*
X148709819Y-95027619D01*
X148709819Y-95027619D02*
X148709819Y-95122857D01*
X148709819Y-95122857D02*
X148757438Y-95265714D01*
X148757438Y-95265714D02*
X148805057Y-95313333D01*
X148709819Y-95646667D02*
X148709819Y-96265714D01*
X148709819Y-96265714D02*
X149090771Y-95932381D01*
X149090771Y-95932381D02*
X149090771Y-96075238D01*
X149090771Y-96075238D02*
X149138390Y-96170476D01*
X149138390Y-96170476D02*
X149186009Y-96218095D01*
X149186009Y-96218095D02*
X149281247Y-96265714D01*
X149281247Y-96265714D02*
X149519342Y-96265714D01*
X149519342Y-96265714D02*
X149614580Y-96218095D01*
X149614580Y-96218095D02*
X149662200Y-96170476D01*
X149662200Y-96170476D02*
X149709819Y-96075238D01*
X149709819Y-96075238D02*
X149709819Y-95789524D01*
X149709819Y-95789524D02*
X149662200Y-95694286D01*
X149662200Y-95694286D02*
X149614580Y-95646667D01*
D11*
%TO.C,C13*%
X155015000Y-105048748D02*
X155015000Y-105571252D01*
X156485000Y-105048748D02*
X156485000Y-105571252D01*
%TO.C,C9*%
X157090000Y-100523748D02*
X157090000Y-101046252D01*
X158560000Y-100523748D02*
X158560000Y-101046252D01*
%TO.C,C6*%
X157115000Y-105048748D02*
X157115000Y-105571252D01*
X158585000Y-105048748D02*
X158585000Y-105571252D01*
%TO.C,C8*%
X152940000Y-100527913D02*
X152940000Y-101050417D01*
X154410000Y-100527913D02*
X154410000Y-101050417D01*
%TO.C,C5*%
X152915000Y-105048748D02*
X152915000Y-105571252D01*
X154385000Y-105048748D02*
X154385000Y-105571252D01*
%TO.C,C2*%
X150520000Y-99091252D02*
X150520000Y-98568748D01*
X151990000Y-99091252D02*
X151990000Y-98568748D01*
%TO.C,C11*%
X148705000Y-105048748D02*
X148705000Y-105571252D01*
X150175000Y-105048748D02*
X150175000Y-105571252D01*
%TO.C,C12*%
X150815000Y-105048748D02*
X150815000Y-105571252D01*
X152285000Y-105048748D02*
X152285000Y-105571252D01*
%TO.C,C7*%
X150488748Y-101075000D02*
X151011252Y-101075000D01*
X150488748Y-102545000D02*
X151011252Y-102545000D01*
%TO.C,C10*%
X154990000Y-100523748D02*
X154990000Y-101046252D01*
X156460000Y-100523748D02*
X156460000Y-101046252D01*
%TO.C,C3*%
X148520000Y-99091252D02*
X148520000Y-98568748D01*
X149990000Y-99091252D02*
X149990000Y-98568748D01*
%TD*%
%LPC*%
D12*
%TO.C,J1*%
X160750000Y-106190000D03*
D13*
X160750000Y-108730000D03*
X160750000Y-111269999D03*
X160750000Y-113810000D03*
X160750000Y-116350000D03*
%TD*%
D12*
%TO.C,J2*%
X160750000Y-86270000D03*
D13*
X160750000Y-88810000D03*
X160750000Y-91349999D03*
X160750000Y-93890000D03*
%TD*%
D12*
%TO.C,J4*%
X146725000Y-97780001D03*
D13*
X146725000Y-100320001D03*
X146725000Y-102860000D03*
X146725000Y-105400001D03*
%TD*%
D14*
%TO.C,J3*%
X154450000Y-86110000D03*
D15*
X151910000Y-83570000D03*
X151910000Y-88650000D03*
X156990000Y-83570000D03*
X156990000Y-88650000D03*
%TD*%
D12*
%TO.C,J5*%
X146900000Y-86265000D03*
D13*
X146900000Y-88805000D03*
%TD*%
D16*
%TO.C,SW1*%
X156500000Y-116510000D03*
X150000000Y-116510000D03*
X156500000Y-112010000D03*
X150000000Y-112010000D03*
%TD*%
D17*
%TO.C,C13*%
X155750000Y-104272500D03*
X155750000Y-106347500D03*
%TD*%
%TO.C,C9*%
X157825000Y-99747500D03*
X157825000Y-101822500D03*
%TD*%
%TO.C,C6*%
X157850000Y-104272500D03*
X157850000Y-106347500D03*
%TD*%
%TO.C,C8*%
X153675000Y-99751665D03*
X153675000Y-101826665D03*
%TD*%
%TO.C,C5*%
X153650000Y-104272500D03*
X153650000Y-106347500D03*
%TD*%
D18*
%TO.C,C2*%
X151255000Y-99867500D03*
X151255000Y-97792500D03*
%TD*%
D17*
%TO.C,C11*%
X149440000Y-104272500D03*
X149440000Y-106347500D03*
%TD*%
%TO.C,C12*%
X151550000Y-104272500D03*
X151550000Y-106347500D03*
%TD*%
D19*
%TO.C,C7*%
X149712500Y-101810000D03*
X151787500Y-101810000D03*
%TD*%
D17*
%TO.C,C10*%
X155725000Y-99747500D03*
X155725000Y-101822500D03*
%TD*%
D18*
%TO.C,C3*%
X149255000Y-99867500D03*
X149255000Y-97792500D03*
%TD*%
%LPD*%
M02*
