%TF.GenerationSoftware,KiCad,Pcbnew,9.0.2+dfsg-1*%
%TF.CreationDate,2026-06-09T16:37:01-04:00*%
%TF.ProjectId,rx-pcb,72782d70-6362-42e6-9b69-6361645f7063,rev?*%
%TF.SameCoordinates,Original*%
%TF.FileFunction,Copper,L4,Bot*%
%TF.FilePolarity,Positive*%
%FSLAX46Y46*%
G04 Gerber Fmt 4.6, Leading zero omitted, Abs format (unit mm)*
G04 Created by KiCad (PCBNEW 9.0.2+dfsg-1) date 2026-06-09 16:37:01*
%MOMM*%
%LPD*%
G01*
G04 APERTURE LIST*
G04 Aperture macros list*
%AMRoundRect*
0 Rectangle with rounded corners*
0 $1 Rounding radius*
0 $2 $3 $4 $5 $6 $7 $8 $9 X,Y pos of 4 corners*
0 Add a 4 corners polygon primitive as box body*
4,1,4,$2,$3,$4,$5,$6,$7,$8,$9,$2,$3,0*
0 Add four circle primitives for the rounded corners*
1,1,$1+$1,$2,$3*
1,1,$1+$1,$4,$5*
1,1,$1+$1,$6,$7*
1,1,$1+$1,$8,$9*
0 Add four rect primitives between the rounded corners*
20,1,$1+$1,$2,$3,$4,$5,0*
20,1,$1+$1,$4,$5,$6,$7,0*
20,1,$1+$1,$6,$7,$8,$9,0*
20,1,$1+$1,$8,$9,$2,$3,0*%
G04 Aperture macros list end*
%TA.AperFunction,ComponentPad*%
%ADD10R,1.700000X1.700000*%
%TD*%
%TA.AperFunction,ComponentPad*%
%ADD11C,1.700000*%
%TD*%
%TA.AperFunction,ComponentPad*%
%ADD12RoundRect,0.200100X-0.949900X-0.949900X0.949900X-0.949900X0.949900X0.949900X-0.949900X0.949900X0*%
%TD*%
%TA.AperFunction,ComponentPad*%
%ADD13C,2.500000*%
%TD*%
%TA.AperFunction,ComponentPad*%
%ADD14C,2.000000*%
%TD*%
%TA.AperFunction,SMDPad,CuDef*%
%ADD15RoundRect,0.250000X-0.475000X0.337500X-0.475000X-0.337500X0.475000X-0.337500X0.475000X0.337500X0*%
%TD*%
%TA.AperFunction,SMDPad,CuDef*%
%ADD16RoundRect,0.250000X0.475000X-0.337500X0.475000X0.337500X-0.475000X0.337500X-0.475000X-0.337500X0*%
%TD*%
%TA.AperFunction,SMDPad,CuDef*%
%ADD17RoundRect,0.250000X-0.337500X-0.475000X0.337500X-0.475000X0.337500X0.475000X-0.337500X0.475000X0*%
%TD*%
%TA.AperFunction,ViaPad*%
%ADD18C,0.600000*%
%TD*%
%TA.AperFunction,Conductor*%
%ADD19C,1.000000*%
%TD*%
%TA.AperFunction,Conductor*%
%ADD20C,0.200000*%
%TD*%
G04 APERTURE END LIST*
D10*
%TO.P,J1,1,Pin_1*%
%TO.N,VCC*%
X160750000Y-106190000D03*
D11*
%TO.P,J1,2,Pin_2*%
%TO.N,/swclk*%
X160750000Y-108730000D03*
%TO.P,J1,3,Pin_3*%
%TO.N,GND*%
X160750000Y-111269999D03*
%TO.P,J1,4,Pin_4*%
%TO.N,/swdio*%
X160750000Y-113810000D03*
%TO.P,J1,5,Pin_5*%
%TO.N,/rst*%
X160750000Y-116350000D03*
%TD*%
D10*
%TO.P,J2,1,Pin_1*%
%TO.N,GND*%
X160750000Y-86270000D03*
D11*
%TO.P,J2,2,Pin_2*%
%TO.N,VCC*%
X160750000Y-88810000D03*
%TO.P,J2,3,Pin_3*%
%TO.N,/uart_tx*%
X160750000Y-91349999D03*
%TO.P,J2,4,Pin_4*%
%TO.N,/uart_rx*%
X160750000Y-93890000D03*
%TD*%
D10*
%TO.P,J4,1,Pin_1*%
%TO.N,GND*%
X146725000Y-97780001D03*
D11*
%TO.P,J4,2,Pin_2*%
%TO.N,VCC*%
X146725000Y-100320001D03*
%TO.P,J4,3,Pin_3*%
%TO.N,/i2c_sda*%
X146725000Y-102860000D03*
%TO.P,J4,4,Pin_4*%
%TO.N,/i2c_scl*%
X146725000Y-105400001D03*
%TD*%
D12*
%TO.P,J3,1,In*%
%TO.N,/RF/ANT*%
X154450000Y-86110000D03*
D13*
%TO.P,J3,2,Ext*%
%TO.N,GND*%
X151910000Y-83570000D03*
X151910000Y-88650000D03*
X156990000Y-83570000D03*
X156990000Y-88650000D03*
%TD*%
D10*
%TO.P,J5,1,Pin_1*%
%TO.N,VCC*%
X146900000Y-86265000D03*
D11*
%TO.P,J5,2,Pin_2*%
%TO.N,GND*%
X146900000Y-88805000D03*
%TD*%
D14*
%TO.P,SW1,1,A*%
%TO.N,GND*%
X156500000Y-116510000D03*
X150000000Y-116510000D03*
%TO.P,SW1,2,B*%
%TO.N,/rst*%
X156500000Y-112010000D03*
X150000000Y-112010000D03*
%TD*%
D15*
%TO.P,C13,1*%
%TO.N,/VCAP*%
X155750000Y-104272500D03*
%TO.P,C13,2*%
%TO.N,GND*%
X155750000Y-106347500D03*
%TD*%
%TO.P,C9,1*%
%TO.N,VCC*%
X157825000Y-99747500D03*
%TO.P,C9,2*%
%TO.N,GND*%
X157825000Y-101822500D03*
%TD*%
%TO.P,C6,1*%
%TO.N,VCC*%
X157850000Y-104272500D03*
%TO.P,C6,2*%
%TO.N,GND*%
X157850000Y-106347500D03*
%TD*%
%TO.P,C8,1*%
%TO.N,VCC*%
X153675000Y-99751665D03*
%TO.P,C8,2*%
%TO.N,GND*%
X153675000Y-101826665D03*
%TD*%
%TO.P,C5,1*%
%TO.N,/vfbsd*%
X153650000Y-104272500D03*
%TO.P,C5,2*%
%TO.N,GND*%
X153650000Y-106347500D03*
%TD*%
D16*
%TO.P,C2,1*%
%TO.N,/lsei*%
X151255000Y-99867500D03*
%TO.P,C2,2*%
%TO.N,GND*%
X151255000Y-97792500D03*
%TD*%
D15*
%TO.P,C11,1*%
%TO.N,VCC*%
X149440000Y-104272500D03*
%TO.P,C11,2*%
%TO.N,GND*%
X149440000Y-106347500D03*
%TD*%
%TO.P,C12,1*%
%TO.N,VCC*%
X151550000Y-104272500D03*
%TO.P,C12,2*%
%TO.N,GND*%
X151550000Y-106347500D03*
%TD*%
D17*
%TO.P,C7,1*%
%TO.N,VCC*%
X149712500Y-101810000D03*
%TO.P,C7,2*%
%TO.N,GND*%
X151787500Y-101810000D03*
%TD*%
D15*
%TO.P,C10,1*%
%TO.N,VCC*%
X155725000Y-99747500D03*
%TO.P,C10,2*%
%TO.N,GND*%
X155725000Y-101822500D03*
%TD*%
D16*
%TO.P,C3,1*%
%TO.N,/lseo*%
X149255000Y-99867500D03*
%TO.P,C3,2*%
%TO.N,GND*%
X149255000Y-97792500D03*
%TD*%
D18*
%TO.N,GND*%
X155150000Y-92925000D03*
X164014999Y-97685001D03*
X153750000Y-97408345D03*
X145900000Y-107475000D03*
X162025000Y-99950000D03*
X156400000Y-114310000D03*
X155124650Y-90685000D03*
X149875000Y-96535000D03*
X155150000Y-95100000D03*
X143015000Y-118475000D03*
X153750000Y-92921644D03*
X153750000Y-95096644D03*
X153900000Y-102960000D03*
X155150000Y-97411701D03*
X153775350Y-90685000D03*
X149250000Y-109875000D03*
X157950000Y-92360000D03*
X152175000Y-98435000D03*
X156550000Y-102960000D03*
X155200000Y-101610000D03*
X153300000Y-107210000D03*
X150925000Y-93585000D03*
%TO.N,/vfbsd*%
X154000000Y-105060000D03*
%TO.N,VCC*%
X157850000Y-105000000D03*
X153450000Y-98209998D03*
X155450000Y-98209998D03*
X163802500Y-99397501D03*
X150100000Y-114310000D03*
X152477979Y-103645117D03*
X162050000Y-96500000D03*
X158325000Y-115600000D03*
X146675000Y-94125000D03*
X146700003Y-107475000D03*
X143275000Y-111800000D03*
X152850000Y-110000000D03*
%TO.N,/VCAP*%
X154850000Y-105060000D03*
%TO.N,/lsei*%
X150975000Y-100610000D03*
%TO.N,/lseo*%
X149079280Y-100640455D03*
%TO.N,/swclk*%
X159453892Y-101075434D03*
%TO.N,/swdio*%
X159388758Y-100161772D03*
%TO.N,/uart_rx*%
X160194296Y-99603326D03*
%TO.N,/uart_tx*%
X159425000Y-99260000D03*
%TD*%
D19*
%TO.N,GND*%
X153650000Y-106860000D02*
X153650000Y-106347500D01*
X157850000Y-106347500D02*
X149440000Y-106347500D01*
D20*
X151787500Y-101810000D02*
X151666665Y-101810000D01*
D19*
X149255000Y-97155000D02*
X149875000Y-96535000D01*
X157825000Y-101822500D02*
X151800000Y-101822500D01*
D20*
X151666665Y-101810000D02*
X151650000Y-101826665D01*
D19*
X153300000Y-107210000D02*
X153650000Y-106860000D01*
X151800000Y-101822500D02*
X151787500Y-101810000D01*
X149255000Y-97792500D02*
X149255000Y-97155000D01*
D20*
%TO.N,/vfbsd*%
X154174482Y-104585518D02*
X154174482Y-104546982D01*
%TO.N,VCC*%
X152477979Y-103645117D02*
X152177383Y-103645117D01*
X152177383Y-103645117D02*
X151550000Y-104272500D01*
D19*
X157850000Y-104272500D02*
X157850000Y-105000000D01*
D20*
%TO.N,/VCAP*%
X154850000Y-105060000D02*
X154939644Y-105060000D01*
X155750000Y-104249644D02*
X155750000Y-103997500D01*
X154939644Y-105060000D02*
X155750000Y-104249644D01*
%TO.N,/lsei*%
X151255000Y-100330000D02*
X150975000Y-100610000D01*
X151255000Y-99867500D02*
X151255000Y-100330000D01*
%TO.N,/lseo*%
X149255000Y-100464735D02*
X149079280Y-100640455D01*
X149255000Y-99867500D02*
X149255000Y-100464735D01*
X149262198Y-99874698D02*
X149255000Y-99867500D01*
%TO.N,/swclk*%
X160771104Y-103681104D02*
X160320174Y-104132031D01*
X161901000Y-104860000D02*
X161901000Y-104811000D01*
X161449931Y-104699343D02*
X161274810Y-104874461D01*
X160771102Y-103681103D02*
X160771104Y-103681104D01*
X161025660Y-104275073D02*
X161195366Y-104105367D01*
X160373465Y-102381678D02*
X160092276Y-102662866D01*
X159980764Y-104132032D02*
X159895908Y-104047176D01*
X162130000Y-108730000D02*
X162600000Y-108260000D01*
X159895907Y-103707764D02*
X160346836Y-103256836D01*
X162600000Y-108260000D02*
X162600000Y-105559000D01*
X160797730Y-102466532D02*
X160712876Y-102381678D01*
X161221996Y-103230210D02*
X160771102Y-103681103D01*
X160346837Y-103256837D02*
X160516542Y-103087131D01*
X159668013Y-102578013D02*
X159453892Y-102363892D01*
X160516542Y-103087131D02*
X160797730Y-102805943D01*
X161195370Y-104105370D02*
X161646263Y-103654476D01*
X160935398Y-104874461D02*
X160850541Y-104789604D01*
X160850542Y-104450194D02*
X161025660Y-104275073D01*
X161195366Y-104105367D02*
X161195370Y-104105370D01*
X161901000Y-104811000D02*
X161789343Y-104699343D01*
X159453892Y-102363892D02*
X159453892Y-102213892D01*
X160346836Y-103256836D02*
X160346837Y-103256837D01*
X159752865Y-102662866D02*
X159668013Y-102578013D01*
X159453892Y-102213892D02*
X159453892Y-101075434D01*
X161646263Y-103315065D02*
X161561408Y-103230210D01*
X160750000Y-108730000D02*
X162130000Y-108730000D01*
X162600000Y-105559000D02*
X161901000Y-104860000D01*
X160850541Y-104789604D02*
G75*
G02*
X160850543Y-104450195I169659J169704D01*
G01*
X161561408Y-103230210D02*
G75*
G03*
X161221996Y-103230210I-169706J-169704D01*
G01*
X160712876Y-102381678D02*
G75*
G03*
X160373466Y-102381678I-169705J-169703D01*
G01*
X161646263Y-103654476D02*
G75*
G03*
X161646234Y-103315095I-169663J169676D01*
G01*
X161274810Y-104874461D02*
G75*
G02*
X160935398Y-104874461I-169706J169701D01*
G01*
X160320174Y-104132031D02*
G75*
G02*
X159980795Y-104132001I-169674J169731D01*
G01*
X161789343Y-104699343D02*
G75*
G03*
X161449931Y-104699343I-169706J-169701D01*
G01*
X160797730Y-102805943D02*
G75*
G03*
X160797768Y-102466495I-169730J169743D01*
G01*
X160092276Y-102662866D02*
G75*
G02*
X159752866Y-102662866I-169705J169703D01*
G01*
X159895908Y-104047176D02*
G75*
G02*
X159895937Y-103707795I169692J169676D01*
G01*
%TO.N,/swdio*%
X163050000Y-103823014D02*
X163050000Y-111510000D01*
X159388758Y-100161772D02*
X163050000Y-103823014D01*
X163050000Y-111510000D02*
X160750000Y-113810000D01*
%TO.N,/uart_rx*%
X160750000Y-96053326D02*
X160750000Y-96110000D01*
X160750000Y-93890001D02*
X160750000Y-94853326D01*
X160750000Y-96110000D02*
X160194296Y-96665704D01*
X160194296Y-96665704D02*
X160194296Y-99603326D01*
X160750000Y-95731680D02*
X160750000Y-96053326D01*
X160471646Y-95131680D02*
X160471646Y-95453326D01*
X160750000Y-94853326D02*
G75*
G02*
X160610823Y-94992500I-139200J26D01*
G01*
X160610823Y-94992503D02*
G75*
G03*
X160471603Y-95131680I-23J-139197D01*
G01*
X160471646Y-95453326D02*
G75*
G03*
X160610823Y-95592454I139154J26D01*
G01*
X160610823Y-95592503D02*
G75*
G02*
X160749997Y-95731680I-23J-139197D01*
G01*
%TO.N,/uart_tx*%
X159425000Y-99260000D02*
X159425000Y-92674999D01*
X159425000Y-92674999D02*
X160750000Y-91349999D01*
%TD*%
%TA.AperFunction,Conductor*%
%TO.N,VCC*%
G36*
X149587539Y-82220185D02*
G01*
X149633294Y-82272989D01*
X149644500Y-82324500D01*
X149644500Y-90336002D01*
X149647396Y-90390035D01*
X149647396Y-90390036D01*
X149682976Y-90529440D01*
X149682978Y-90529447D01*
X149704653Y-90581774D01*
X149756445Y-90676625D01*
X149854490Y-90781931D01*
X149978223Y-90855345D01*
X149978226Y-90855346D01*
X149978229Y-90855348D01*
X150030555Y-90877022D01*
X150081584Y-90895024D01*
X150224000Y-90915500D01*
X152070500Y-90915500D01*
X152137539Y-90935185D01*
X152183294Y-90987989D01*
X152194500Y-91039500D01*
X152194500Y-96646569D01*
X152174815Y-96713608D01*
X152122011Y-96759363D01*
X152052853Y-96769307D01*
X152031496Y-96764275D01*
X152008343Y-96756602D01*
X151882797Y-96715001D01*
X151882795Y-96715000D01*
X151780016Y-96704500D01*
X151780009Y-96704500D01*
X150999500Y-96704500D01*
X150932461Y-96684815D01*
X150886706Y-96632011D01*
X150875500Y-96580500D01*
X150875500Y-96436457D01*
X150875499Y-96436455D01*
X150837052Y-96243172D01*
X150837051Y-96243165D01*
X150761631Y-96061086D01*
X150761630Y-96061085D01*
X150761627Y-96061079D01*
X150652139Y-95897219D01*
X150652136Y-95897215D01*
X150512784Y-95757863D01*
X150512780Y-95757860D01*
X150348920Y-95648372D01*
X150348911Y-95648367D01*
X150166835Y-95572949D01*
X150166827Y-95572947D01*
X149973543Y-95534500D01*
X149973540Y-95534500D01*
X149776459Y-95534500D01*
X149776456Y-95534500D01*
X149583171Y-95572947D01*
X149583163Y-95572949D01*
X149401087Y-95648367D01*
X149401078Y-95648372D01*
X149237218Y-95757860D01*
X149237214Y-95757863D01*
X148751915Y-96243164D01*
X148617220Y-96377859D01*
X148617218Y-96377861D01*
X148565578Y-96429501D01*
X148477859Y-96517219D01*
X148368371Y-96681080D01*
X148368364Y-96681093D01*
X148326219Y-96782843D01*
X148326218Y-96782846D01*
X148303460Y-96837786D01*
X148259618Y-96892188D01*
X148193324Y-96914252D01*
X148125625Y-96896972D01*
X148078015Y-96845834D01*
X148072146Y-96829657D01*
X148071802Y-96829786D01*
X148018797Y-96687672D01*
X148018793Y-96687665D01*
X147932547Y-96572456D01*
X147932544Y-96572453D01*
X147817335Y-96486207D01*
X147817328Y-96486203D01*
X147682482Y-96435909D01*
X147682483Y-96435909D01*
X147622883Y-96429502D01*
X147622881Y-96429501D01*
X147622873Y-96429501D01*
X147622864Y-96429501D01*
X145827129Y-96429501D01*
X145827123Y-96429502D01*
X145767516Y-96435909D01*
X145632671Y-96486203D01*
X145632664Y-96486207D01*
X145517455Y-96572453D01*
X145517452Y-96572456D01*
X145431206Y-96687665D01*
X145431202Y-96687672D01*
X145380908Y-96822518D01*
X145374501Y-96882117D01*
X145374500Y-96882136D01*
X145374500Y-98677871D01*
X145374501Y-98677877D01*
X145380908Y-98737484D01*
X145431202Y-98872329D01*
X145431206Y-98872336D01*
X145517452Y-98987545D01*
X145517455Y-98987548D01*
X145632664Y-99073794D01*
X145632671Y-99073798D01*
X145767517Y-99124092D01*
X145767516Y-99124092D01*
X145774444Y-99124836D01*
X145827127Y-99130501D01*
X147622872Y-99130500D01*
X147682483Y-99124092D01*
X147817331Y-99073797D01*
X147932546Y-98987547D01*
X148018796Y-98872332D01*
X148069091Y-98737484D01*
X148069091Y-98737483D01*
X148071485Y-98731065D01*
X148090643Y-98705471D01*
X148108523Y-98678939D01*
X148111448Y-98677679D01*
X148113356Y-98675131D01*
X148143312Y-98663957D01*
X148172695Y-98651304D01*
X148175836Y-98651825D01*
X148178820Y-98650713D01*
X148210069Y-98657510D01*
X148241621Y-98662750D01*
X148244914Y-98665090D01*
X148247093Y-98665564D01*
X148270890Y-98682473D01*
X148273161Y-98684529D01*
X148311344Y-98722712D01*
X148323868Y-98730437D01*
X148332306Y-98738076D01*
X148344846Y-98758557D01*
X148360905Y-98776411D01*
X148362760Y-98787811D01*
X148368792Y-98797663D01*
X148368269Y-98821672D01*
X148372126Y-98845374D01*
X148367523Y-98855966D01*
X148367272Y-98867516D01*
X148353851Y-98887431D01*
X148344282Y-98909456D01*
X148331612Y-98920433D01*
X148328227Y-98925458D01*
X148323430Y-98927523D01*
X148314182Y-98935537D01*
X148311346Y-98937285D01*
X148187289Y-99061342D01*
X148095187Y-99210663D01*
X148095186Y-99210666D01*
X148040001Y-99377203D01*
X148040001Y-99377204D01*
X148040000Y-99377204D01*
X148029500Y-99479983D01*
X148029500Y-100255001D01*
X148029501Y-100255019D01*
X148040000Y-100357796D01*
X148040001Y-100357799D01*
X148084960Y-100493473D01*
X148095186Y-100524334D01*
X148182061Y-100665182D01*
X148187289Y-100673657D01*
X148263567Y-100749935D01*
X148297052Y-100811258D01*
X148297503Y-100813425D01*
X148309541Y-100873944D01*
X148309544Y-100873956D01*
X148369882Y-101019627D01*
X148369889Y-101019640D01*
X148457490Y-101150743D01*
X148457493Y-101150747D01*
X148568987Y-101262241D01*
X148568991Y-101262244D01*
X148700094Y-101349845D01*
X148700107Y-101349852D01*
X148845778Y-101410190D01*
X148845783Y-101410192D01*
X148999488Y-101440766D01*
X149000433Y-101440954D01*
X149000436Y-101440955D01*
X149000438Y-101440955D01*
X149158124Y-101440955D01*
X149158125Y-101440954D01*
X149312777Y-101410192D01*
X149458459Y-101349849D01*
X149589569Y-101262244D01*
X149701069Y-101150744D01*
X149788674Y-101019634D01*
X149788678Y-101019622D01*
X149791544Y-101014263D01*
X149792669Y-101014864D01*
X149809510Y-100993961D01*
X149829900Y-100967360D01*
X149831529Y-100966630D01*
X149832344Y-100965619D01*
X149861067Y-100950799D01*
X149874947Y-100945800D01*
X149882797Y-100944999D01*
X150049334Y-100889814D01*
X150075847Y-100873460D01*
X150087965Y-100869097D01*
X150110495Y-100867742D01*
X150132267Y-100861785D01*
X150144700Y-100865686D01*
X150157709Y-100864905D01*
X150177398Y-100875948D01*
X150198931Y-100882706D01*
X150207279Y-100892708D01*
X150218648Y-100899085D01*
X150229240Y-100919019D01*
X150243702Y-100936346D01*
X150244536Y-100938312D01*
X150265602Y-100989172D01*
X150265609Y-100989185D01*
X150353210Y-101120288D01*
X150353213Y-101120292D01*
X150464710Y-101231789D01*
X150595815Y-101319390D01*
X150595821Y-101319394D01*
X150595827Y-101319396D01*
X150595828Y-101319397D01*
X150622952Y-101330632D01*
X150677356Y-101374472D01*
X150699421Y-101440766D01*
X150699500Y-101445193D01*
X150699500Y-102335001D01*
X150699501Y-102335019D01*
X150710000Y-102437796D01*
X150710001Y-102437799D01*
X150765185Y-102604331D01*
X150765187Y-102604336D01*
X150780188Y-102628656D01*
X150857288Y-102753656D01*
X150981344Y-102877712D01*
X151130666Y-102969814D01*
X151297203Y-103024999D01*
X151399991Y-103035500D01*
X152175008Y-103035499D01*
X152175016Y-103035498D01*
X152175019Y-103035498D01*
X152272246Y-103025566D01*
X152277797Y-103024999D01*
X152444334Y-102969814D01*
X152593656Y-102877712D01*
X152612049Y-102859319D01*
X152638976Y-102844615D01*
X152664795Y-102828023D01*
X152670995Y-102827131D01*
X152673372Y-102825834D01*
X152699730Y-102823000D01*
X152803381Y-102823000D01*
X152868477Y-102841461D01*
X152880659Y-102848975D01*
X152880660Y-102848975D01*
X152880666Y-102848979D01*
X153014505Y-102893329D01*
X153030580Y-102904458D01*
X153048957Y-102911134D01*
X153058714Y-102923937D01*
X153071949Y-102933101D01*
X153079455Y-102951154D01*
X153091306Y-102966706D01*
X153095616Y-102990027D01*
X153098772Y-102997616D01*
X153099104Y-103001128D01*
X153099500Y-103006069D01*
X153099500Y-103038842D01*
X153103898Y-103060956D01*
X153104476Y-103068159D01*
X153098757Y-103095575D01*
X153096261Y-103123468D01*
X153091721Y-103129311D01*
X153090210Y-103136557D01*
X153070575Y-103156530D01*
X153053396Y-103178645D01*
X153044237Y-103183324D01*
X153041230Y-103186384D01*
X153035875Y-103187596D01*
X153019877Y-103195771D01*
X152855666Y-103250186D01*
X152855663Y-103250187D01*
X152706342Y-103342289D01*
X152582289Y-103466342D01*
X152490187Y-103615663D01*
X152490185Y-103615668D01*
X152472382Y-103669394D01*
X152435001Y-103782203D01*
X152435001Y-103782204D01*
X152435000Y-103782204D01*
X152424500Y-103884983D01*
X152424500Y-104660001D01*
X152424501Y-104660019D01*
X152435000Y-104762796D01*
X152435001Y-104762799D01*
X152472277Y-104875288D01*
X152490186Y-104929334D01*
X152544918Y-105018070D01*
X152582289Y-105078657D01*
X152638951Y-105135319D01*
X152649563Y-105154755D01*
X152664064Y-105171489D01*
X152665980Y-105184820D01*
X152672436Y-105196642D01*
X152670856Y-105218728D01*
X152674008Y-105240647D01*
X152668412Y-105252898D01*
X152667452Y-105266334D01*
X152654181Y-105284060D01*
X152644983Y-105304203D01*
X152633651Y-105311485D01*
X152625580Y-105322267D01*
X152604834Y-105330004D01*
X152586205Y-105341977D01*
X152564286Y-105345128D01*
X152560116Y-105346684D01*
X152551270Y-105347000D01*
X152414866Y-105347000D01*
X152349768Y-105328538D01*
X152344338Y-105325188D01*
X152344335Y-105325186D01*
X152344334Y-105325186D01*
X152177797Y-105270001D01*
X152177795Y-105270000D01*
X152075010Y-105259500D01*
X151024998Y-105259500D01*
X151024980Y-105259501D01*
X150922203Y-105270000D01*
X150922200Y-105270001D01*
X150755668Y-105325185D01*
X150755661Y-105325188D01*
X150750232Y-105328538D01*
X150685134Y-105347000D01*
X150304866Y-105347000D01*
X150239768Y-105328538D01*
X150234338Y-105325188D01*
X150234335Y-105325186D01*
X150234334Y-105325186D01*
X150067797Y-105270001D01*
X150067795Y-105270000D01*
X149965010Y-105259500D01*
X148914998Y-105259500D01*
X148914980Y-105259501D01*
X148812203Y-105270000D01*
X148812200Y-105270001D01*
X148645668Y-105325185D01*
X148645663Y-105325187D01*
X148496342Y-105417289D01*
X148372289Y-105541342D01*
X148290285Y-105674293D01*
X148238337Y-105721017D01*
X148169374Y-105732240D01*
X148105292Y-105704396D01*
X148066436Y-105646328D01*
X148062273Y-105589798D01*
X148069948Y-105541344D01*
X148075500Y-105506288D01*
X148075500Y-105293714D01*
X148042246Y-105083758D01*
X147976557Y-104881589D01*
X147880051Y-104692185D01*
X147880049Y-104692182D01*
X147880048Y-104692180D01*
X147755109Y-104520214D01*
X147604786Y-104369891D01*
X147432817Y-104244950D01*
X147424052Y-104240484D01*
X147373257Y-104192509D01*
X147356462Y-104124688D01*
X147379000Y-104058553D01*
X147424056Y-104019514D01*
X147432816Y-104015051D01*
X147432818Y-104015049D01*
X147432821Y-104015048D01*
X147604786Y-103890109D01*
X147604788Y-103890106D01*
X147604792Y-103890104D01*
X147755104Y-103739792D01*
X147755106Y-103739788D01*
X147755109Y-103739786D01*
X147880048Y-103567820D01*
X147880047Y-103567820D01*
X147880051Y-103567816D01*
X147976557Y-103378412D01*
X148042246Y-103176243D01*
X148075500Y-102966287D01*
X148075500Y-102753713D01*
X148042246Y-102543757D01*
X147976557Y-102341588D01*
X147880051Y-102152184D01*
X147880049Y-102152181D01*
X147880048Y-102152179D01*
X147755109Y-101980213D01*
X147604786Y-101829890D01*
X147432820Y-101704951D01*
X147243414Y-101608444D01*
X147243413Y-101608443D01*
X147243412Y-101608443D01*
X147041243Y-101542754D01*
X147041241Y-101542753D01*
X147041240Y-101542753D01*
X146879957Y-101517208D01*
X146831287Y-101509500D01*
X146618713Y-101509500D01*
X146570042Y-101517208D01*
X146408760Y-101542753D01*
X146206585Y-101608444D01*
X146017179Y-101704951D01*
X145845213Y-101829890D01*
X145694890Y-101980213D01*
X145569951Y-102152179D01*
X145473444Y-102341585D01*
X145407753Y-102543760D01*
X145378575Y-102727982D01*
X145374500Y-102753713D01*
X145374500Y-102966287D01*
X145379462Y-102997616D01*
X145406652Y-103169290D01*
X145407754Y-103176243D01*
X145461772Y-103342494D01*
X145473444Y-103378414D01*
X145569951Y-103567820D01*
X145694890Y-103739786D01*
X145845213Y-103890109D01*
X146017179Y-104015048D01*
X146017181Y-104015049D01*
X146017184Y-104015051D01*
X146025945Y-104019514D01*
X146076741Y-104067488D01*
X146093537Y-104135308D01*
X146071001Y-104201444D01*
X146025950Y-104240482D01*
X146017187Y-104244947D01*
X146017184Y-104244949D01*
X145845213Y-104369891D01*
X145694890Y-104520214D01*
X145569951Y-104692180D01*
X145473444Y-104881586D01*
X145407753Y-105083761D01*
X145374500Y-105293714D01*
X145374500Y-105506287D01*
X145401109Y-105674293D01*
X145407754Y-105716244D01*
X145472252Y-105914749D01*
X145473444Y-105918415D01*
X145569951Y-106107821D01*
X145694890Y-106279787D01*
X145845211Y-106430108D01*
X145874771Y-106451584D01*
X145917438Y-106506914D01*
X145923417Y-106576527D01*
X145890812Y-106638322D01*
X145829974Y-106672680D01*
X145826079Y-106673520D01*
X145666508Y-106705261D01*
X145666498Y-106705264D01*
X145520827Y-106765602D01*
X145520814Y-106765609D01*
X145389711Y-106853210D01*
X145389707Y-106853213D01*
X145278213Y-106964707D01*
X145278210Y-106964711D01*
X145190609Y-107095814D01*
X145190602Y-107095827D01*
X145130264Y-107241498D01*
X145130261Y-107241510D01*
X145099500Y-107396153D01*
X145099500Y-107553846D01*
X145130261Y-107708489D01*
X145130264Y-107708501D01*
X145190602Y-107854172D01*
X145190609Y-107854185D01*
X145278210Y-107985288D01*
X145278213Y-107985292D01*
X145389707Y-108096786D01*
X145389711Y-108096789D01*
X145520814Y-108184390D01*
X145520827Y-108184397D01*
X145666498Y-108244735D01*
X145666503Y-108244737D01*
X145821153Y-108275499D01*
X145821156Y-108275500D01*
X145821158Y-108275500D01*
X145978844Y-108275500D01*
X145978845Y-108275499D01*
X146133497Y-108244737D01*
X146279179Y-108184394D01*
X146410289Y-108096789D01*
X146521789Y-107985289D01*
X146609394Y-107854179D01*
X146669737Y-107708497D01*
X146700500Y-107553842D01*
X146700500Y-107396158D01*
X146700500Y-107396155D01*
X146700499Y-107396153D01*
X146669737Y-107241503D01*
X146669735Y-107241498D01*
X146609397Y-107095827D01*
X146609390Y-107095814D01*
X146521789Y-106964711D01*
X146521786Y-106964707D01*
X146518671Y-106961592D01*
X146485186Y-106900269D01*
X146490170Y-106830577D01*
X146532042Y-106774644D01*
X146597506Y-106750227D01*
X146616091Y-106750294D01*
X146618708Y-106750500D01*
X146618713Y-106750501D01*
X146618718Y-106750501D01*
X146831286Y-106750501D01*
X146831287Y-106750501D01*
X147041243Y-106717247D01*
X147243412Y-106651558D01*
X147432816Y-106555052D01*
X147499073Y-106506914D01*
X147604786Y-106430110D01*
X147604788Y-106430107D01*
X147604792Y-106430105D01*
X147755104Y-106279793D01*
X147755106Y-106279789D01*
X147755109Y-106279787D01*
X147880048Y-106107821D01*
X147880047Y-106107821D01*
X147880051Y-106107817D01*
X147976557Y-105918413D01*
X147976556Y-105918413D01*
X147978769Y-105914072D01*
X147980097Y-105914749D01*
X148019769Y-105865509D01*
X148086061Y-105843437D01*
X148153762Y-105860710D01*
X148201378Y-105911842D01*
X148214500Y-105967358D01*
X148214500Y-106735001D01*
X148214501Y-106735019D01*
X148225000Y-106837796D01*
X148225001Y-106837799D01*
X148230109Y-106853213D01*
X148280186Y-107004334D01*
X148372288Y-107153656D01*
X148496344Y-107277712D01*
X148645666Y-107369814D01*
X148812203Y-107424999D01*
X148914991Y-107435500D01*
X149965008Y-107435499D01*
X149965016Y-107435498D01*
X149965019Y-107435498D01*
X150021302Y-107429748D01*
X150067797Y-107424999D01*
X150234334Y-107369814D01*
X150239768Y-107366461D01*
X150304866Y-107348000D01*
X150685134Y-107348000D01*
X150750231Y-107366461D01*
X150755666Y-107369814D01*
X150922203Y-107424999D01*
X151024991Y-107435500D01*
X152075008Y-107435499D01*
X152075016Y-107435498D01*
X152075019Y-107435498D01*
X152098896Y-107433058D01*
X152177797Y-107424999D01*
X152181394Y-107423806D01*
X152183741Y-107423726D01*
X152184414Y-107423582D01*
X152184439Y-107423701D01*
X152251221Y-107421400D01*
X152311265Y-107457128D01*
X152334087Y-107496841D01*
X152335618Y-107496208D01*
X152337948Y-107501835D01*
X152337949Y-107501836D01*
X152365939Y-107569409D01*
X152413367Y-107683910D01*
X152413372Y-107683920D01*
X152522860Y-107847780D01*
X152522863Y-107847784D01*
X152662215Y-107987136D01*
X152662219Y-107987139D01*
X152826079Y-108096627D01*
X152826083Y-108096629D01*
X152826086Y-108096631D01*
X153008164Y-108172051D01*
X153201455Y-108210499D01*
X153201458Y-108210500D01*
X153201460Y-108210500D01*
X153398542Y-108210500D01*
X153398543Y-108210499D01*
X153591836Y-108172051D01*
X153773914Y-108096631D01*
X153937781Y-107987139D01*
X154427140Y-107497781D01*
X154481341Y-107416663D01*
X154490402Y-107403102D01*
X154516011Y-107381702D01*
X154544006Y-107358305D01*
X154544012Y-107358303D01*
X154544016Y-107358301D01*
X154544039Y-107358298D01*
X154593499Y-107348000D01*
X154885134Y-107348000D01*
X154950231Y-107366461D01*
X154955666Y-107369814D01*
X155122203Y-107424999D01*
X155224991Y-107435500D01*
X156275008Y-107435499D01*
X156275016Y-107435498D01*
X156275019Y-107435498D01*
X156331302Y-107429748D01*
X156377797Y-107424999D01*
X156544334Y-107369814D01*
X156549768Y-107366461D01*
X156614866Y-107348000D01*
X156985134Y-107348000D01*
X157050231Y-107366461D01*
X157055666Y-107369814D01*
X157222203Y-107424999D01*
X157324991Y-107435500D01*
X158375008Y-107435499D01*
X158375016Y-107435498D01*
X158375019Y-107435498D01*
X158431302Y-107429748D01*
X158477797Y-107424999D01*
X158644334Y-107369814D01*
X158793656Y-107277712D01*
X158917712Y-107153656D01*
X159009814Y-107004334D01*
X159064999Y-106837797D01*
X159075500Y-106735009D01*
X159075499Y-105959992D01*
X159070877Y-105914749D01*
X159064999Y-105857203D01*
X159064998Y-105857200D01*
X159019871Y-105721017D01*
X159009814Y-105690666D01*
X158917712Y-105541344D01*
X158793656Y-105417288D01*
X158657382Y-105333234D01*
X158644336Y-105325187D01*
X158644331Y-105325185D01*
X158602987Y-105311485D01*
X158477797Y-105270001D01*
X158477795Y-105270000D01*
X158375010Y-105259500D01*
X157324998Y-105259500D01*
X157324980Y-105259501D01*
X157222203Y-105270000D01*
X157222200Y-105270001D01*
X157055668Y-105325185D01*
X157055661Y-105325188D01*
X157050232Y-105328538D01*
X157033673Y-105333234D01*
X157020069Y-105341977D01*
X156985134Y-105347000D01*
X156848730Y-105347000D01*
X156781691Y-105327315D01*
X156735936Y-105274511D01*
X156725992Y-105205353D01*
X156755017Y-105141797D01*
X156761049Y-105135319D01*
X156817712Y-105078656D01*
X156909814Y-104929334D01*
X156964999Y-104762797D01*
X156975500Y-104660009D01*
X156975499Y-103884992D01*
X156964999Y-103782203D01*
X156957604Y-103759889D01*
X156955203Y-103690061D01*
X156990934Y-103630019D01*
X157006417Y-103617785D01*
X157060289Y-103581789D01*
X157171789Y-103470289D01*
X157259394Y-103339179D01*
X157319737Y-103193497D01*
X157350500Y-103038842D01*
X157350500Y-103034499D01*
X157370185Y-102967460D01*
X157422989Y-102921705D01*
X157474500Y-102910499D01*
X158350002Y-102910499D01*
X158350008Y-102910499D01*
X158452797Y-102899999D01*
X158619334Y-102844814D01*
X158768656Y-102752712D01*
X158793385Y-102727983D01*
X158801329Y-102723645D01*
X158806755Y-102716397D01*
X158831517Y-102707160D01*
X158854708Y-102694498D01*
X158863736Y-102695143D01*
X158872219Y-102691980D01*
X158898038Y-102697596D01*
X158924400Y-102699482D01*
X158933454Y-102705301D01*
X158940492Y-102706832D01*
X158968737Y-102727975D01*
X158968747Y-102727982D01*
X158973370Y-102732605D01*
X158973372Y-102732608D01*
X159085176Y-102844412D01*
X159085178Y-102844413D01*
X159092248Y-102851483D01*
X159187490Y-102946725D01*
X159187491Y-102946727D01*
X159386770Y-103146007D01*
X159386784Y-103146019D01*
X159394017Y-103150852D01*
X159408702Y-103168425D01*
X159411098Y-103170901D01*
X159411650Y-103171952D01*
X159438820Y-103204466D01*
X159441996Y-103229762D01*
X159443572Y-103232765D01*
X159443077Y-103238378D01*
X159447524Y-103273791D01*
X159438255Y-103293162D01*
X159437445Y-103302366D01*
X159428042Y-103314506D01*
X159419475Y-103332409D01*
X159420134Y-103332920D01*
X159419968Y-103333134D01*
X159418132Y-103335216D01*
X159417367Y-103336817D01*
X159413135Y-103341281D01*
X159412824Y-103341660D01*
X159320829Y-103479305D01*
X159257453Y-103632261D01*
X159225138Y-103794642D01*
X159225123Y-103960207D01*
X159257412Y-104122599D01*
X159308081Y-104244947D01*
X159320761Y-104275565D01*
X159320766Y-104275572D01*
X159412733Y-104413229D01*
X159412737Y-104413235D01*
X159415382Y-104415881D01*
X159415389Y-104415892D01*
X159471270Y-104471773D01*
X159471270Y-104471774D01*
X159522826Y-104523334D01*
X159529088Y-104529596D01*
X159529124Y-104529627D01*
X159614357Y-104614861D01*
X159614696Y-104615139D01*
X159614701Y-104615144D01*
X159614705Y-104615147D01*
X159614708Y-104615149D01*
X159752342Y-104707118D01*
X159752346Y-104707121D01*
X159905288Y-104770481D01*
X160067651Y-104802789D01*
X160103397Y-104802791D01*
X160170432Y-104822480D01*
X160216183Y-104875288D01*
X160217943Y-104879330D01*
X160275422Y-105018070D01*
X160353782Y-105135319D01*
X160367430Y-105155741D01*
X160421798Y-105210096D01*
X160421797Y-105210096D01*
X160421807Y-105210105D01*
X160536886Y-105325184D01*
X160536887Y-105325186D01*
X160569305Y-105357605D01*
X160569309Y-105357608D01*
X160569310Y-105357609D01*
X160706973Y-105449594D01*
X160843841Y-105506288D01*
X160859936Y-105512955D01*
X160859941Y-105512956D01*
X161022318Y-105545256D01*
X161022321Y-105545256D01*
X161187889Y-105545256D01*
X161297132Y-105523525D01*
X161350272Y-105512955D01*
X161503235Y-105449594D01*
X161503249Y-105449584D01*
X161508611Y-105446720D01*
X161509453Y-105448296D01*
X161568069Y-105429928D01*
X161635453Y-105448398D01*
X161657992Y-105466227D01*
X161963181Y-105771416D01*
X161996666Y-105832739D01*
X161999500Y-105859097D01*
X161999500Y-107604854D01*
X161979815Y-107671893D01*
X161927011Y-107717648D01*
X161857853Y-107727592D01*
X161829086Y-107719840D01*
X161415902Y-107553059D01*
X161406021Y-107548558D01*
X161268414Y-107478444D01*
X161268413Y-107478443D01*
X161268412Y-107478443D01*
X161066243Y-107412754D01*
X161066241Y-107412753D01*
X160983753Y-107399688D01*
X160983753Y-107399687D01*
X160981690Y-107399360D01*
X160972173Y-107397529D01*
X160970634Y-107397609D01*
X160963127Y-107396421D01*
X160856292Y-107379500D01*
X160856287Y-107379500D01*
X160643713Y-107379500D01*
X160595042Y-107387208D01*
X160433760Y-107412753D01*
X160231585Y-107478444D01*
X160042179Y-107574951D01*
X159870213Y-107699890D01*
X159719890Y-107850213D01*
X159594951Y-108022179D01*
X159498444Y-108211585D01*
X159432753Y-108413760D01*
X159399500Y-108623713D01*
X159399500Y-108836287D01*
X159432754Y-109046243D01*
X159495363Y-109238934D01*
X159498444Y-109248414D01*
X159594951Y-109437820D01*
X159719890Y-109609786D01*
X159870213Y-109760109D01*
X160042179Y-109885048D01*
X160042181Y-109885049D01*
X160042184Y-109885051D01*
X160050942Y-109889513D01*
X160101739Y-109937487D01*
X160118535Y-110005307D01*
X160095999Y-110071443D01*
X160050949Y-110110481D01*
X160042183Y-110114947D01*
X159870213Y-110239889D01*
X159719890Y-110390212D01*
X159594951Y-110562178D01*
X159498444Y-110751584D01*
X159432753Y-110953759D01*
X159399500Y-111163712D01*
X159399500Y-111376286D01*
X159432754Y-111586242D01*
X159483293Y-111741785D01*
X159498444Y-111788413D01*
X159594951Y-111977819D01*
X159719890Y-112149785D01*
X159870213Y-112300108D01*
X160042179Y-112425047D01*
X160042181Y-112425048D01*
X160042184Y-112425050D01*
X160050945Y-112429513D01*
X160101741Y-112477487D01*
X160118537Y-112545307D01*
X160096001Y-112611443D01*
X160050950Y-112650481D01*
X160042187Y-112654946D01*
X160042184Y-112654948D01*
X159870213Y-112779890D01*
X159719890Y-112930213D01*
X159594951Y-113102179D01*
X159498444Y-113291585D01*
X159432753Y-113493760D01*
X159399500Y-113703713D01*
X159399500Y-113916286D01*
X159430446Y-114111676D01*
X159432754Y-114126243D01*
X159466841Y-114231153D01*
X159498444Y-114328414D01*
X159594951Y-114517820D01*
X159719890Y-114689786D01*
X159870213Y-114840109D01*
X160042182Y-114965050D01*
X160050946Y-114969516D01*
X160101742Y-115017491D01*
X160118536Y-115085312D01*
X160095998Y-115151447D01*
X160050946Y-115190484D01*
X160042182Y-115194949D01*
X159870213Y-115319890D01*
X159719890Y-115470213D01*
X159594951Y-115642179D01*
X159498444Y-115831585D01*
X159432753Y-116033760D01*
X159399500Y-116243713D01*
X159399500Y-116456287D01*
X159432754Y-116666243D01*
X159496154Y-116861368D01*
X159498444Y-116868414D01*
X159594951Y-117057820D01*
X159719890Y-117229786D01*
X159870213Y-117380109D01*
X160042179Y-117505048D01*
X160042181Y-117505049D01*
X160042184Y-117505051D01*
X160231588Y-117601557D01*
X160433757Y-117667246D01*
X160643713Y-117700500D01*
X160643714Y-117700500D01*
X160856286Y-117700500D01*
X160856287Y-117700500D01*
X161066243Y-117667246D01*
X161268412Y-117601557D01*
X161457816Y-117505051D01*
X161481959Y-117487510D01*
X161629786Y-117380109D01*
X161629788Y-117380106D01*
X161629792Y-117380104D01*
X161780104Y-117229792D01*
X161780106Y-117229788D01*
X161780109Y-117229786D01*
X161905048Y-117057820D01*
X161905047Y-117057820D01*
X161905051Y-117057816D01*
X162001557Y-116868412D01*
X162067246Y-116666243D01*
X162100500Y-116456287D01*
X162100500Y-116243713D01*
X162067246Y-116033757D01*
X162001557Y-115831588D01*
X161905051Y-115642184D01*
X161905049Y-115642181D01*
X161905048Y-115642179D01*
X161780109Y-115470213D01*
X161629786Y-115319890D01*
X161457820Y-115194951D01*
X161457115Y-115194591D01*
X161449054Y-115190485D01*
X161398259Y-115142512D01*
X161381463Y-115074692D01*
X161403999Y-115008556D01*
X161449054Y-114969515D01*
X161457816Y-114965051D01*
X161503602Y-114931786D01*
X161629786Y-114840109D01*
X161629788Y-114840106D01*
X161629792Y-114840104D01*
X161780104Y-114689792D01*
X161780106Y-114689788D01*
X161780109Y-114689786D01*
X161905048Y-114517820D01*
X161905047Y-114517820D01*
X161905051Y-114517816D01*
X162001557Y-114328412D01*
X162067246Y-114126243D01*
X162067248Y-114126229D01*
X162068292Y-114121880D01*
X162071208Y-114111676D01*
X162082904Y-114076510D01*
X162447464Y-112980334D01*
X162477444Y-112931789D01*
X163408506Y-112000728D01*
X163408511Y-112000724D01*
X163418714Y-111990520D01*
X163418716Y-111990520D01*
X163530520Y-111878716D01*
X163582656Y-111788413D01*
X163608348Y-111743914D01*
X163608351Y-111743906D01*
X163609577Y-111741785D01*
X163650500Y-111589058D01*
X163650500Y-111430943D01*
X163650500Y-103743957D01*
X163647707Y-103733532D01*
X163609577Y-103591229D01*
X163569655Y-103522082D01*
X163569655Y-103522081D01*
X163530524Y-103454304D01*
X163530521Y-103454300D01*
X163530520Y-103454298D01*
X163418716Y-103342494D01*
X163418715Y-103342493D01*
X163414385Y-103338163D01*
X163414374Y-103338153D01*
X160569694Y-100493473D01*
X160536209Y-100432150D01*
X160541193Y-100362458D01*
X160583065Y-100306525D01*
X160588443Y-100302718D01*
X160704585Y-100225115D01*
X160816085Y-100113615D01*
X160903690Y-99982505D01*
X160949813Y-99871153D01*
X161224500Y-99871153D01*
X161224500Y-100028846D01*
X161255261Y-100183489D01*
X161255264Y-100183501D01*
X161315602Y-100329172D01*
X161315609Y-100329185D01*
X161403210Y-100460288D01*
X161403213Y-100460292D01*
X161514707Y-100571786D01*
X161514711Y-100571789D01*
X161645814Y-100659390D01*
X161645827Y-100659397D01*
X161791498Y-100719735D01*
X161791503Y-100719737D01*
X161904874Y-100742288D01*
X161946153Y-100750499D01*
X161946156Y-100750500D01*
X161946158Y-100750500D01*
X162103844Y-100750500D01*
X162103845Y-100750499D01*
X162258497Y-100719737D01*
X162388250Y-100665992D01*
X162404172Y-100659397D01*
X162404172Y-100659396D01*
X162404179Y-100659394D01*
X162535289Y-100571789D01*
X162646789Y-100460289D01*
X162734394Y-100329179D01*
X162741212Y-100312720D01*
X162771077Y-100240618D01*
X162794737Y-100183497D01*
X162825500Y-100028842D01*
X162825500Y-99871158D01*
X162825500Y-99871155D01*
X162825499Y-99871153D01*
X162807881Y-99782583D01*
X162794737Y-99716503D01*
X162762709Y-99639179D01*
X162734397Y-99570827D01*
X162734390Y-99570814D01*
X162646789Y-99439711D01*
X162646786Y-99439707D01*
X162535292Y-99328213D01*
X162535288Y-99328210D01*
X162404185Y-99240609D01*
X162404172Y-99240602D01*
X162258501Y-99180264D01*
X162258489Y-99180261D01*
X162103845Y-99149500D01*
X162103842Y-99149500D01*
X161946158Y-99149500D01*
X161946155Y-99149500D01*
X161791510Y-99180261D01*
X161791498Y-99180264D01*
X161645827Y-99240602D01*
X161645814Y-99240609D01*
X161514711Y-99328210D01*
X161514707Y-99328213D01*
X161403213Y-99439707D01*
X161403210Y-99439711D01*
X161315609Y-99570814D01*
X161315602Y-99570827D01*
X161255264Y-99716498D01*
X161255261Y-99716510D01*
X161224500Y-99871153D01*
X160949813Y-99871153D01*
X160964033Y-99836823D01*
X160964034Y-99836816D01*
X160964036Y-99836811D01*
X160994795Y-99682172D01*
X160994796Y-99682170D01*
X160994796Y-99524481D01*
X160994795Y-99524479D01*
X160985944Y-99479983D01*
X160964033Y-99369829D01*
X160946795Y-99328213D01*
X160903693Y-99224153D01*
X160903686Y-99224140D01*
X160815694Y-99092451D01*
X160794816Y-99025773D01*
X160794796Y-99023560D01*
X160794796Y-96965800D01*
X160814481Y-96898761D01*
X160831111Y-96878123D01*
X161108506Y-96600727D01*
X161108511Y-96600724D01*
X161118714Y-96590520D01*
X161118716Y-96590520D01*
X161230520Y-96478716D01*
X161288748Y-96377861D01*
X161309577Y-96341785D01*
X161350500Y-96189057D01*
X161350500Y-96030943D01*
X161350500Y-95974269D01*
X161350500Y-95804548D01*
X161350510Y-95804508D01*
X161350500Y-95731594D01*
X161350500Y-95652623D01*
X161349359Y-95648367D01*
X161346759Y-95638664D01*
X161344917Y-95630767D01*
X161333410Y-95572949D01*
X161322052Y-95515877D01*
X161266294Y-95381291D01*
X161253000Y-95361397D01*
X161249106Y-95348962D01*
X161241039Y-95338729D01*
X161238866Y-95316262D01*
X161232121Y-95294722D01*
X161235414Y-95280558D01*
X161234314Y-95269183D01*
X161242963Y-95248090D01*
X161245817Y-95235817D01*
X161249058Y-95229510D01*
X161266287Y-95203730D01*
X161282812Y-95163842D01*
X161285136Y-95159323D01*
X161305843Y-95137553D01*
X161324706Y-95114149D01*
X161332592Y-95109432D01*
X161333291Y-95108698D01*
X161334185Y-95108479D01*
X161339118Y-95105529D01*
X161457816Y-95045051D01*
X161629792Y-94920104D01*
X161780104Y-94769792D01*
X161780106Y-94769788D01*
X161780109Y-94769786D01*
X161905048Y-94597820D01*
X161905047Y-94597820D01*
X161905051Y-94597816D01*
X162001557Y-94408412D01*
X162067246Y-94206243D01*
X162100500Y-93996287D01*
X162100500Y-93783713D01*
X162067246Y-93573757D01*
X162001557Y-93371588D01*
X161905051Y-93182184D01*
X161905049Y-93182181D01*
X161905048Y-93182179D01*
X161780109Y-93010213D01*
X161629786Y-92859890D01*
X161457817Y-92734949D01*
X161449052Y-92730483D01*
X161398257Y-92682508D01*
X161381462Y-92614687D01*
X161404000Y-92548552D01*
X161449056Y-92509513D01*
X161457816Y-92505050D01*
X161457818Y-92505048D01*
X161457821Y-92505047D01*
X161629786Y-92380108D01*
X161629788Y-92380105D01*
X161629792Y-92380103D01*
X161780104Y-92229791D01*
X161780106Y-92229787D01*
X161780109Y-92229785D01*
X161905048Y-92057819D01*
X161905047Y-92057819D01*
X161905051Y-92057815D01*
X162001557Y-91868411D01*
X162067246Y-91666242D01*
X162100500Y-91456286D01*
X162100500Y-91243712D01*
X162067246Y-91033756D01*
X162001557Y-90831587D01*
X161905051Y-90642183D01*
X161905049Y-90642180D01*
X161905048Y-90642178D01*
X161780109Y-90470212D01*
X161629786Y-90319889D01*
X161457820Y-90194950D01*
X161268414Y-90098443D01*
X161268413Y-90098442D01*
X161268412Y-90098442D01*
X161066243Y-90032753D01*
X161066241Y-90032752D01*
X161066240Y-90032752D01*
X160904957Y-90007207D01*
X160856287Y-89999499D01*
X160643713Y-89999499D01*
X160595042Y-90007207D01*
X160433760Y-90032752D01*
X160231585Y-90098443D01*
X160042179Y-90194950D01*
X159870213Y-90319889D01*
X159719890Y-90470212D01*
X159594951Y-90642178D01*
X159498444Y-90831582D01*
X159432751Y-91033765D01*
X159431704Y-91038125D01*
X159428796Y-91048300D01*
X159052534Y-92179659D01*
X159045717Y-92190697D01*
X159043704Y-92199953D01*
X159022553Y-92228208D01*
X158950892Y-92299870D01*
X158889569Y-92333355D01*
X158819877Y-92328371D01*
X158763943Y-92286500D01*
X158741593Y-92236380D01*
X158740281Y-92229785D01*
X158719737Y-92126503D01*
X158719735Y-92126498D01*
X158659397Y-91980827D01*
X158659390Y-91980814D01*
X158571789Y-91849711D01*
X158571786Y-91849707D01*
X158460292Y-91738213D01*
X158460288Y-91738210D01*
X158329185Y-91650609D01*
X158329172Y-91650602D01*
X158183501Y-91590264D01*
X158183489Y-91590261D01*
X158028845Y-91559500D01*
X158028842Y-91559500D01*
X157871158Y-91559500D01*
X157871155Y-91559500D01*
X157716510Y-91590261D01*
X157716498Y-91590264D01*
X157570827Y-91650602D01*
X157570814Y-91650609D01*
X157439711Y-91738210D01*
X157439707Y-91738213D01*
X157328213Y-91849707D01*
X157328210Y-91849711D01*
X157240609Y-91980814D01*
X157240602Y-91980827D01*
X157180264Y-92126498D01*
X157180261Y-92126510D01*
X157149500Y-92281153D01*
X157149500Y-92438846D01*
X157180261Y-92593489D01*
X157180264Y-92593501D01*
X157240602Y-92739172D01*
X157240609Y-92739185D01*
X157328210Y-92870288D01*
X157328213Y-92870292D01*
X157439707Y-92981786D01*
X157439711Y-92981789D01*
X157570814Y-93069390D01*
X157570827Y-93069397D01*
X157716498Y-93129735D01*
X157716503Y-93129737D01*
X157871153Y-93160499D01*
X157871156Y-93160500D01*
X157871158Y-93160500D01*
X158028844Y-93160500D01*
X158028845Y-93160499D01*
X158183497Y-93129737D01*
X158329179Y-93069394D01*
X158460289Y-92981789D01*
X158571789Y-92870289D01*
X158597398Y-92831963D01*
X158651010Y-92787158D01*
X158720335Y-92778451D01*
X158783363Y-92808605D01*
X158820082Y-92868048D01*
X158824500Y-92900854D01*
X158824500Y-98680234D01*
X158804815Y-98747273D01*
X158803602Y-98749125D01*
X158715609Y-98880814D01*
X158715602Y-98880827D01*
X158655264Y-99026498D01*
X158655261Y-99026510D01*
X158624500Y-99181153D01*
X158624500Y-99338846D01*
X158655261Y-99493489D01*
X158655264Y-99493501D01*
X158713043Y-99632993D01*
X158720512Y-99702462D01*
X158701585Y-99749334D01*
X158679369Y-99782583D01*
X158679360Y-99782599D01*
X158619022Y-99928270D01*
X158619019Y-99928282D01*
X158588258Y-100082925D01*
X158588258Y-100240618D01*
X158619019Y-100395261D01*
X158619022Y-100395273D01*
X158679360Y-100540944D01*
X158679370Y-100540962D01*
X158718360Y-100599315D01*
X158739238Y-100665992D01*
X158720753Y-100733372D01*
X158668774Y-100780062D01*
X158599804Y-100791238D01*
X158576257Y-100785911D01*
X158452797Y-100745001D01*
X158452795Y-100745000D01*
X158350010Y-100734500D01*
X157299998Y-100734500D01*
X157299980Y-100734501D01*
X157197203Y-100745000D01*
X157197200Y-100745001D01*
X157030668Y-100800185D01*
X157030661Y-100800188D01*
X157025232Y-100803538D01*
X156960134Y-100822000D01*
X156589866Y-100822000D01*
X156524768Y-100803538D01*
X156519338Y-100800188D01*
X156519335Y-100800186D01*
X156519334Y-100800186D01*
X156352797Y-100745001D01*
X156352795Y-100745000D01*
X156250010Y-100734500D01*
X155199998Y-100734500D01*
X155199980Y-100734501D01*
X155097203Y-100745000D01*
X155097200Y-100745001D01*
X154930668Y-100800185D01*
X154930661Y-100800188D01*
X154925232Y-100803538D01*
X154860134Y-100822000D01*
X154533113Y-100822000D01*
X154476551Y-100805959D01*
X154475878Y-100807403D01*
X154469334Y-100804351D01*
X154453442Y-100799085D01*
X154302797Y-100749166D01*
X154302795Y-100749165D01*
X154200010Y-100738665D01*
X153149998Y-100738665D01*
X153149980Y-100738666D01*
X153047203Y-100749165D01*
X153047200Y-100749166D01*
X152880666Y-100804351D01*
X152874122Y-100807403D01*
X152873448Y-100805959D01*
X152865424Y-100808235D01*
X152851822Y-100816977D01*
X152816887Y-100822000D01*
X152724730Y-100822000D01*
X152657691Y-100802315D01*
X152637049Y-100785681D01*
X152593657Y-100742289D01*
X152593656Y-100742288D01*
X152468645Y-100665181D01*
X152421922Y-100613234D01*
X152410699Y-100544271D01*
X152416033Y-100520654D01*
X152469999Y-100357797D01*
X152480500Y-100255009D01*
X152480499Y-99479992D01*
X152469999Y-99377203D01*
X152467558Y-99369836D01*
X152448590Y-99312594D01*
X152446188Y-99242766D01*
X152481920Y-99182724D01*
X152518843Y-99159030D01*
X152554179Y-99144394D01*
X152685289Y-99056789D01*
X152796789Y-98945289D01*
X152884394Y-98814179D01*
X152944737Y-98668497D01*
X152975500Y-98513842D01*
X152975500Y-98356158D01*
X152975500Y-98356156D01*
X152975056Y-98351646D01*
X152988079Y-98283001D01*
X153036147Y-98232294D01*
X153098460Y-98215500D01*
X153375439Y-98215500D01*
X153375446Y-98215500D01*
X153386522Y-98215137D01*
X153388768Y-98215064D01*
X153392822Y-98214998D01*
X153507178Y-98214998D01*
X153511232Y-98215064D01*
X153513477Y-98215137D01*
X153524554Y-98215500D01*
X153524561Y-98215500D01*
X155382239Y-98215500D01*
X155385839Y-98215264D01*
X155393950Y-98214998D01*
X155506050Y-98214998D01*
X155514161Y-98215264D01*
X155517761Y-98215500D01*
X155517766Y-98215500D01*
X156126002Y-98215500D01*
X156131499Y-98215205D01*
X156180034Y-98212604D01*
X156319445Y-98177022D01*
X156371771Y-98155348D01*
X156466625Y-98103554D01*
X156571930Y-98005511D01*
X156645348Y-97881771D01*
X156667022Y-97829445D01*
X156685024Y-97778416D01*
X156705500Y-97636000D01*
X156705500Y-91039500D01*
X156725185Y-90972461D01*
X156777989Y-90926706D01*
X156829500Y-90915500D01*
X158676002Y-90915500D01*
X158681499Y-90915205D01*
X158730034Y-90912604D01*
X158869445Y-90877022D01*
X158921771Y-90855348D01*
X159016625Y-90803554D01*
X159121930Y-90705511D01*
X159195348Y-90581771D01*
X159217022Y-90529445D01*
X159235024Y-90478416D01*
X159255500Y-90336000D01*
X159255500Y-87466781D01*
X159275185Y-87399742D01*
X159327989Y-87353987D01*
X159397147Y-87344043D01*
X159460703Y-87373068D01*
X159478762Y-87392464D01*
X159542454Y-87477546D01*
X159588643Y-87512123D01*
X159657664Y-87563793D01*
X159657671Y-87563797D01*
X159792517Y-87614091D01*
X159792516Y-87614091D01*
X159799444Y-87614835D01*
X159852127Y-87620500D01*
X161647872Y-87620499D01*
X161707483Y-87614091D01*
X161842331Y-87563796D01*
X161957546Y-87477546D01*
X162043796Y-87362331D01*
X162094091Y-87227483D01*
X162100500Y-87167873D01*
X162100499Y-85372128D01*
X162094091Y-85312517D01*
X162050030Y-85194384D01*
X162043797Y-85177671D01*
X162043793Y-85177664D01*
X161957547Y-85062455D01*
X161957544Y-85062452D01*
X161842335Y-84976206D01*
X161842328Y-84976202D01*
X161707482Y-84925908D01*
X161707483Y-84925908D01*
X161647883Y-84919501D01*
X161647881Y-84919500D01*
X161647873Y-84919500D01*
X161647864Y-84919500D01*
X159852129Y-84919500D01*
X159852123Y-84919501D01*
X159792516Y-84925908D01*
X159657671Y-84976202D01*
X159657664Y-84976206D01*
X159542455Y-85062452D01*
X159542452Y-85062455D01*
X159478766Y-85147529D01*
X159422832Y-85189400D01*
X159353141Y-85194384D01*
X159291818Y-85160898D01*
X159258334Y-85099575D01*
X159255500Y-85073218D01*
X159255500Y-82324500D01*
X159275185Y-82257461D01*
X159327989Y-82211706D01*
X159379500Y-82200500D01*
X164660500Y-82200500D01*
X164727539Y-82220185D01*
X164773294Y-82272989D01*
X164784500Y-82324500D01*
X164784500Y-97023061D01*
X164764815Y-97090100D01*
X164712011Y-97135855D01*
X164642853Y-97145799D01*
X164579297Y-97116774D01*
X164572819Y-97110742D01*
X164525291Y-97063214D01*
X164525287Y-97063211D01*
X164394184Y-96975610D01*
X164394171Y-96975603D01*
X164248500Y-96915265D01*
X164248488Y-96915262D01*
X164093844Y-96884501D01*
X164093841Y-96884501D01*
X163936157Y-96884501D01*
X163936154Y-96884501D01*
X163781509Y-96915262D01*
X163781497Y-96915265D01*
X163635826Y-96975603D01*
X163635813Y-96975610D01*
X163504710Y-97063211D01*
X163504706Y-97063214D01*
X163393212Y-97174708D01*
X163393209Y-97174712D01*
X163305608Y-97305815D01*
X163305601Y-97305828D01*
X163245263Y-97451499D01*
X163245260Y-97451511D01*
X163214499Y-97606154D01*
X163214499Y-97763847D01*
X163245260Y-97918490D01*
X163245263Y-97918502D01*
X163305601Y-98064173D01*
X163305608Y-98064186D01*
X163393209Y-98195289D01*
X163393212Y-98195293D01*
X163504706Y-98306787D01*
X163504710Y-98306790D01*
X163635813Y-98394391D01*
X163635826Y-98394398D01*
X163768455Y-98449334D01*
X163781502Y-98454738D01*
X163936152Y-98485500D01*
X163936155Y-98485501D01*
X163936157Y-98485501D01*
X164093843Y-98485501D01*
X164093844Y-98485500D01*
X164248496Y-98454738D01*
X164394178Y-98394395D01*
X164525288Y-98306790D01*
X164525291Y-98306787D01*
X164572819Y-98259260D01*
X164634142Y-98225775D01*
X164703834Y-98230759D01*
X164759767Y-98272631D01*
X164784184Y-98338095D01*
X164784500Y-98346941D01*
X164784500Y-118650500D01*
X164764815Y-118717539D01*
X164712011Y-118763294D01*
X164660500Y-118774500D01*
X143922703Y-118774500D01*
X143855664Y-118754815D01*
X143809909Y-118702011D01*
X143799965Y-118632853D01*
X143801086Y-118626309D01*
X143815499Y-118553846D01*
X143815500Y-118553844D01*
X143815500Y-118396155D01*
X143815499Y-118396153D01*
X143784738Y-118241510D01*
X143784737Y-118241503D01*
X143784735Y-118241498D01*
X143724397Y-118095827D01*
X143724390Y-118095814D01*
X143636789Y-117964711D01*
X143636786Y-117964707D01*
X143525292Y-117853213D01*
X143525288Y-117853210D01*
X143394185Y-117765609D01*
X143394172Y-117765602D01*
X143248501Y-117705264D01*
X143248489Y-117705261D01*
X143093845Y-117674500D01*
X143093842Y-117674500D01*
X142936158Y-117674500D01*
X142936155Y-117674500D01*
X142863691Y-117688914D01*
X142794100Y-117682687D01*
X142738922Y-117639824D01*
X142715678Y-117573934D01*
X142715500Y-117567297D01*
X142715500Y-116391902D01*
X148499500Y-116391902D01*
X148499500Y-116628097D01*
X148536446Y-116861368D01*
X148609433Y-117085996D01*
X148716657Y-117296433D01*
X148855483Y-117487510D01*
X149022490Y-117654517D01*
X149213567Y-117793343D01*
X149312991Y-117844002D01*
X149424003Y-117900566D01*
X149424005Y-117900566D01*
X149424008Y-117900568D01*
X149544412Y-117939689D01*
X149648631Y-117973553D01*
X149881903Y-118010500D01*
X149881908Y-118010500D01*
X150118097Y-118010500D01*
X150351368Y-117973553D01*
X150378593Y-117964707D01*
X150575992Y-117900568D01*
X150786433Y-117793343D01*
X150977510Y-117654517D01*
X151144517Y-117487510D01*
X151283343Y-117296433D01*
X151390568Y-117085992D01*
X151463553Y-116861368D01*
X151494458Y-116666243D01*
X151500500Y-116628097D01*
X151500500Y-116391902D01*
X151463553Y-116158631D01*
X151422979Y-116033760D01*
X151390568Y-115934008D01*
X151390566Y-115934005D01*
X151390566Y-115934003D01*
X151283342Y-115723566D01*
X151144517Y-115532490D01*
X150977510Y-115365483D01*
X150786433Y-115226657D01*
X150575996Y-115119433D01*
X150351368Y-115046446D01*
X150118097Y-115009500D01*
X150118092Y-115009500D01*
X149881908Y-115009500D01*
X149881903Y-115009500D01*
X149648631Y-115046446D01*
X149424003Y-115119433D01*
X149213566Y-115226657D01*
X149104550Y-115305862D01*
X149022490Y-115365483D01*
X149022488Y-115365485D01*
X149022487Y-115365485D01*
X148855485Y-115532487D01*
X148855485Y-115532488D01*
X148855483Y-115532490D01*
X148795862Y-115614550D01*
X148716657Y-115723566D01*
X148609433Y-115934003D01*
X148536446Y-116158631D01*
X148499500Y-116391902D01*
X142715500Y-116391902D01*
X142715500Y-109796153D01*
X148449500Y-109796153D01*
X148449500Y-109953846D01*
X148480261Y-110108489D01*
X148480264Y-110108501D01*
X148540602Y-110254172D01*
X148540609Y-110254185D01*
X148628210Y-110385288D01*
X148628213Y-110385292D01*
X148739707Y-110496786D01*
X148739711Y-110496789D01*
X148870814Y-110584390D01*
X148870827Y-110584397D01*
X149009260Y-110641737D01*
X149063664Y-110685577D01*
X149085729Y-110751871D01*
X149068450Y-110819571D01*
X149034697Y-110856613D01*
X149022496Y-110865478D01*
X149022487Y-110865485D01*
X148855485Y-111032487D01*
X148855485Y-111032488D01*
X148855483Y-111032490D01*
X148795862Y-111114550D01*
X148716657Y-111223566D01*
X148609433Y-111434003D01*
X148536446Y-111658631D01*
X148499500Y-111891902D01*
X148499500Y-112128097D01*
X148536446Y-112361368D01*
X148609433Y-112585996D01*
X148644567Y-112654949D01*
X148716657Y-112796433D01*
X148855483Y-112987510D01*
X149022490Y-113154517D01*
X149213567Y-113293343D01*
X149312991Y-113344002D01*
X149424003Y-113400566D01*
X149424005Y-113400566D01*
X149424008Y-113400568D01*
X149544412Y-113439689D01*
X149648631Y-113473553D01*
X149881903Y-113510500D01*
X149881908Y-113510500D01*
X150118097Y-113510500D01*
X150351368Y-113473553D01*
X150575992Y-113400568D01*
X150786433Y-113293343D01*
X150977510Y-113154517D01*
X151144517Y-112987510D01*
X151283343Y-112796433D01*
X151390568Y-112585992D01*
X151463553Y-112361368D01*
X151473256Y-112300108D01*
X151500500Y-112128097D01*
X151500500Y-111891902D01*
X154999500Y-111891902D01*
X154999500Y-112128097D01*
X155036446Y-112361368D01*
X155109433Y-112585996D01*
X155144567Y-112654949D01*
X155216657Y-112796433D01*
X155355483Y-112987510D01*
X155522490Y-113154517D01*
X155713567Y-113293343D01*
X155924008Y-113400568D01*
X155947433Y-113408179D01*
X156005109Y-113447616D01*
X156032308Y-113511974D01*
X156020394Y-113580821D01*
X155978008Y-113629212D01*
X155889707Y-113688213D01*
X155778213Y-113799707D01*
X155778210Y-113799711D01*
X155690609Y-113930814D01*
X155690602Y-113930827D01*
X155630264Y-114076498D01*
X155630261Y-114076510D01*
X155599500Y-114231153D01*
X155599500Y-114388846D01*
X155630261Y-114543489D01*
X155630264Y-114543501D01*
X155690602Y-114689172D01*
X155690609Y-114689185D01*
X155778210Y-114820288D01*
X155778213Y-114820292D01*
X155889707Y-114931786D01*
X155894419Y-114935653D01*
X155893303Y-114937011D01*
X155932770Y-114984229D01*
X155941483Y-115053553D01*
X155911333Y-115116583D01*
X155875373Y-115144212D01*
X155713566Y-115226657D01*
X155604550Y-115305862D01*
X155522490Y-115365483D01*
X155522488Y-115365485D01*
X155522487Y-115365485D01*
X155355485Y-115532487D01*
X155355485Y-115532488D01*
X155355483Y-115532490D01*
X155295862Y-115614550D01*
X155216657Y-115723566D01*
X155109433Y-115934003D01*
X155036446Y-116158631D01*
X154999500Y-116391902D01*
X154999500Y-116628097D01*
X155036446Y-116861368D01*
X155109433Y-117085996D01*
X155216657Y-117296433D01*
X155355483Y-117487510D01*
X155522490Y-117654517D01*
X155713567Y-117793343D01*
X155812991Y-117844002D01*
X155924003Y-117900566D01*
X155924005Y-117900566D01*
X155924008Y-117900568D01*
X156044412Y-117939689D01*
X156148631Y-117973553D01*
X156381903Y-118010500D01*
X156381908Y-118010500D01*
X156618097Y-118010500D01*
X156851368Y-117973553D01*
X156878593Y-117964707D01*
X157075992Y-117900568D01*
X157286433Y-117793343D01*
X157477510Y-117654517D01*
X157644517Y-117487510D01*
X157783343Y-117296433D01*
X157890568Y-117085992D01*
X157963553Y-116861368D01*
X157994458Y-116666243D01*
X158000500Y-116628097D01*
X158000500Y-116391902D01*
X157963553Y-116158631D01*
X157922979Y-116033760D01*
X157890568Y-115934008D01*
X157890566Y-115934005D01*
X157890566Y-115934003D01*
X157783342Y-115723566D01*
X157644517Y-115532490D01*
X157477510Y-115365483D01*
X157286433Y-115226657D01*
X157075992Y-115119431D01*
X157001744Y-115095306D01*
X156944069Y-115055868D01*
X156916872Y-114991509D01*
X156928787Y-114922663D01*
X156952380Y-114889697D01*
X157021789Y-114820289D01*
X157109394Y-114689179D01*
X157169737Y-114543497D01*
X157200500Y-114388842D01*
X157200500Y-114231158D01*
X157200500Y-114231155D01*
X157200499Y-114231153D01*
X157169737Y-114076503D01*
X157169735Y-114076498D01*
X157109397Y-113930827D01*
X157109390Y-113930814D01*
X157021789Y-113799711D01*
X157021786Y-113799707D01*
X156910292Y-113688213D01*
X156910286Y-113688208D01*
X156887427Y-113672934D01*
X156842623Y-113619322D01*
X156833916Y-113549997D01*
X156864071Y-113486970D01*
X156917999Y-113451903D01*
X157075992Y-113400568D01*
X157286433Y-113293343D01*
X157477510Y-113154517D01*
X157644517Y-112987510D01*
X157783343Y-112796433D01*
X157890568Y-112585992D01*
X157963553Y-112361368D01*
X157973256Y-112300108D01*
X158000500Y-112128097D01*
X158000500Y-111891902D01*
X157963553Y-111658631D01*
X157890566Y-111434003D01*
X157802551Y-111261265D01*
X157783343Y-111223567D01*
X157644517Y-111032490D01*
X157477510Y-110865483D01*
X157286433Y-110726657D01*
X157075996Y-110619433D01*
X156851368Y-110546446D01*
X156618097Y-110509500D01*
X156618092Y-110509500D01*
X156381908Y-110509500D01*
X156381903Y-110509500D01*
X156148631Y-110546446D01*
X155924003Y-110619433D01*
X155713566Y-110726657D01*
X155604550Y-110805862D01*
X155522490Y-110865483D01*
X155522488Y-110865485D01*
X155522487Y-110865485D01*
X155355485Y-111032487D01*
X155355485Y-111032488D01*
X155355483Y-111032490D01*
X155295862Y-111114550D01*
X155216657Y-111223566D01*
X155109433Y-111434003D01*
X155036446Y-111658631D01*
X154999500Y-111891902D01*
X151500500Y-111891902D01*
X151463553Y-111658631D01*
X151390566Y-111434003D01*
X151302551Y-111261265D01*
X151283343Y-111223567D01*
X151144517Y-111032490D01*
X150977510Y-110865483D01*
X150786433Y-110726657D01*
X150575996Y-110619433D01*
X150351368Y-110546446D01*
X150118097Y-110509500D01*
X150118092Y-110509500D01*
X150020782Y-110509500D01*
X149953743Y-110489815D01*
X149907988Y-110437011D01*
X149898044Y-110367853D01*
X149917680Y-110316609D01*
X149959390Y-110254185D01*
X149959390Y-110254184D01*
X149959394Y-110254179D01*
X150019737Y-110108497D01*
X150050500Y-109953842D01*
X150050500Y-109796158D01*
X150050500Y-109796155D01*
X150050499Y-109796153D01*
X150019738Y-109641510D01*
X150019737Y-109641503D01*
X150006602Y-109609792D01*
X149959397Y-109495827D01*
X149959390Y-109495814D01*
X149871789Y-109364711D01*
X149871786Y-109364707D01*
X149760292Y-109253213D01*
X149760288Y-109253210D01*
X149629185Y-109165609D01*
X149629172Y-109165602D01*
X149483501Y-109105264D01*
X149483489Y-109105261D01*
X149328845Y-109074500D01*
X149328842Y-109074500D01*
X149171158Y-109074500D01*
X149171155Y-109074500D01*
X149016510Y-109105261D01*
X149016498Y-109105264D01*
X148870827Y-109165602D01*
X148870814Y-109165609D01*
X148739711Y-109253210D01*
X148739707Y-109253213D01*
X148628213Y-109364707D01*
X148628210Y-109364711D01*
X148540609Y-109495814D01*
X148540602Y-109495827D01*
X148480264Y-109641498D01*
X148480261Y-109641510D01*
X148449500Y-109796153D01*
X142715500Y-109796153D01*
X142715500Y-93506153D01*
X150124500Y-93506153D01*
X150124500Y-93663846D01*
X150155261Y-93818489D01*
X150155264Y-93818501D01*
X150215602Y-93964172D01*
X150215609Y-93964185D01*
X150303210Y-94095288D01*
X150303213Y-94095292D01*
X150414707Y-94206786D01*
X150414711Y-94206789D01*
X150545814Y-94294390D01*
X150545827Y-94294397D01*
X150691498Y-94354735D01*
X150691503Y-94354737D01*
X150846153Y-94385499D01*
X150846156Y-94385500D01*
X150846158Y-94385500D01*
X151003844Y-94385500D01*
X151003845Y-94385499D01*
X151158497Y-94354737D01*
X151304179Y-94294394D01*
X151435289Y-94206789D01*
X151546789Y-94095289D01*
X151634394Y-93964179D01*
X151694737Y-93818497D01*
X151725500Y-93663842D01*
X151725500Y-93506158D01*
X151725500Y-93506155D01*
X151725499Y-93506153D01*
X151698732Y-93371588D01*
X151694737Y-93351503D01*
X151694735Y-93351498D01*
X151634397Y-93205827D01*
X151634390Y-93205814D01*
X151546789Y-93074711D01*
X151546786Y-93074707D01*
X151435292Y-92963213D01*
X151435288Y-92963210D01*
X151304185Y-92875609D01*
X151304172Y-92875602D01*
X151158501Y-92815264D01*
X151158489Y-92815261D01*
X151003845Y-92784500D01*
X151003842Y-92784500D01*
X150846158Y-92784500D01*
X150846155Y-92784500D01*
X150691510Y-92815261D01*
X150691498Y-92815264D01*
X150545827Y-92875602D01*
X150545814Y-92875609D01*
X150414711Y-92963210D01*
X150414707Y-92963213D01*
X150303213Y-93074707D01*
X150303210Y-93074711D01*
X150215609Y-93205814D01*
X150215602Y-93205827D01*
X150155264Y-93351498D01*
X150155261Y-93351510D01*
X150124500Y-93506153D01*
X142715500Y-93506153D01*
X142715500Y-88698713D01*
X145549500Y-88698713D01*
X145549500Y-88911286D01*
X145582753Y-89121239D01*
X145648444Y-89323414D01*
X145744951Y-89512820D01*
X145869890Y-89684786D01*
X146020213Y-89835109D01*
X146192179Y-89960048D01*
X146192181Y-89960049D01*
X146192184Y-89960051D01*
X146381588Y-90056557D01*
X146583757Y-90122246D01*
X146793713Y-90155500D01*
X146793714Y-90155500D01*
X147006286Y-90155500D01*
X147006287Y-90155500D01*
X147216243Y-90122246D01*
X147418412Y-90056557D01*
X147607816Y-89960051D01*
X147629789Y-89944086D01*
X147779786Y-89835109D01*
X147779788Y-89835106D01*
X147779792Y-89835104D01*
X147930104Y-89684792D01*
X147930106Y-89684788D01*
X147930109Y-89684786D01*
X148055048Y-89512820D01*
X148055047Y-89512820D01*
X148055051Y-89512816D01*
X148151557Y-89323412D01*
X148217246Y-89121243D01*
X148250500Y-88911287D01*
X148250500Y-88698713D01*
X148217246Y-88488757D01*
X148151557Y-88286588D01*
X148055051Y-88097184D01*
X148055049Y-88097181D01*
X148055048Y-88097179D01*
X147930109Y-87925213D01*
X147779786Y-87774890D01*
X147607820Y-87649951D01*
X147418414Y-87553444D01*
X147418413Y-87553443D01*
X147418412Y-87553443D01*
X147216243Y-87487754D01*
X147216241Y-87487753D01*
X147216240Y-87487753D01*
X147054957Y-87462208D01*
X147006287Y-87454500D01*
X146793713Y-87454500D01*
X146745042Y-87462208D01*
X146583760Y-87487753D01*
X146381585Y-87553444D01*
X146192179Y-87649951D01*
X146020213Y-87774890D01*
X145869890Y-87925213D01*
X145744951Y-88097179D01*
X145648444Y-88286585D01*
X145582753Y-88488760D01*
X145549500Y-88698713D01*
X142715500Y-88698713D01*
X142715500Y-82324500D01*
X142735185Y-82257461D01*
X142787989Y-82211706D01*
X142839500Y-82200500D01*
X149520500Y-82200500D01*
X149587539Y-82220185D01*
G37*
%TD.AperFunction*%
%TD*%
%TA.AperFunction,Conductor*%
%TO.N,GND*%
G36*
X158728326Y-82222174D02*
G01*
X158750000Y-82274500D01*
X158750000Y-90336000D01*
X158728326Y-90388326D01*
X158676000Y-90410000D01*
X156200000Y-90410000D01*
X156200000Y-97636000D01*
X156178326Y-97688326D01*
X156126000Y-97710000D01*
X155517766Y-97710000D01*
X155515892Y-97709498D01*
X155384108Y-97709498D01*
X155382234Y-97710000D01*
X153524554Y-97710000D01*
X153516894Y-97709498D01*
X153515892Y-97709498D01*
X153384108Y-97709498D01*
X153383106Y-97709498D01*
X153375446Y-97710000D01*
X152774000Y-97710000D01*
X152721674Y-97688326D01*
X152700000Y-97636000D01*
X152700000Y-90410000D01*
X150224000Y-90410000D01*
X150171674Y-90388326D01*
X150150000Y-90336000D01*
X150150000Y-85128568D01*
X153099500Y-85128568D01*
X153099500Y-87091431D01*
X153114356Y-87185235D01*
X153114357Y-87185236D01*
X153171968Y-87298302D01*
X153261699Y-87388033D01*
X153318231Y-87416837D01*
X153374765Y-87445643D01*
X153468569Y-87460500D01*
X155431430Y-87460499D01*
X155431431Y-87460499D01*
X155525235Y-87445643D01*
X155638302Y-87388032D01*
X155728032Y-87298302D01*
X155785643Y-87185235D01*
X155800500Y-87091431D01*
X155800499Y-85128570D01*
X155785643Y-85034765D01*
X155785643Y-85034764D01*
X155785642Y-85034763D01*
X155783487Y-85030533D01*
X155728032Y-84921698D01*
X155638302Y-84831968D01*
X155638300Y-84831966D01*
X155525235Y-84774357D01*
X155525234Y-84774356D01*
X155431431Y-84759500D01*
X153468568Y-84759500D01*
X153374764Y-84774356D01*
X153374763Y-84774357D01*
X153261697Y-84831968D01*
X153171966Y-84921699D01*
X153114357Y-85034764D01*
X153114356Y-85034765D01*
X153099500Y-85128568D01*
X150150000Y-85128568D01*
X150150000Y-82274500D01*
X150171674Y-82222174D01*
X150224000Y-82200500D01*
X158676000Y-82200500D01*
X158728326Y-82222174D01*
G37*
%TD.AperFunction*%
%TD*%
%TA.AperFunction,Conductor*%
%TO.N,/swdio*%
G36*
X161871898Y-112551678D02*
G01*
X161874931Y-112553866D01*
X162006133Y-112685068D01*
X162009560Y-112693341D01*
X162008962Y-112697033D01*
X161586922Y-113966039D01*
X161581060Y-113972808D01*
X161573549Y-113973824D01*
X160756978Y-113812227D01*
X160749527Y-113807260D01*
X160747772Y-113803021D01*
X160586175Y-112986450D01*
X160587930Y-112977669D01*
X160593957Y-112973078D01*
X161862966Y-112551037D01*
X161871898Y-112551678D01*
G37*
%TD.AperFunction*%
%TD*%
%TA.AperFunction,Conductor*%
%TO.N,/uart_tx*%
G36*
X160560405Y-91311631D02*
G01*
X160743021Y-91347771D01*
X160750472Y-91352738D01*
X160752227Y-91356977D01*
X160913824Y-92173548D01*
X160912069Y-92182329D01*
X160906039Y-92186921D01*
X159637033Y-92608961D01*
X159628101Y-92608320D01*
X159625068Y-92606132D01*
X159493866Y-92474930D01*
X159490439Y-92466657D01*
X159491037Y-92462965D01*
X159913078Y-91193956D01*
X159918939Y-91187190D01*
X159926449Y-91186174D01*
X160560405Y-91311631D01*
G37*
%TD.AperFunction*%
%TD*%
%TA.AperFunction,Conductor*%
%TO.N,/swclk*%
G36*
X160928909Y-107901613D02*
G01*
X162271805Y-108443673D01*
X162275697Y-108446248D01*
X162405660Y-108576211D01*
X162409087Y-108584484D01*
X162405660Y-108592757D01*
X162404179Y-108594010D01*
X161232043Y-109429755D01*
X161223318Y-109431768D01*
X161215725Y-109427021D01*
X161215530Y-109426740D01*
X160751995Y-108734741D01*
X160750239Y-108725965D01*
X160913064Y-107910174D01*
X160918044Y-107902733D01*
X160926828Y-107900991D01*
X160928909Y-107901613D01*
G37*
%TD.AperFunction*%
%TD*%
M02*
